<svg viewBox="0 0 1440 402" xmlns="http://www.w3.org/2000/svg" fill-rule="evenodd" clip-rule="evenodd" stroke-linejoin="round" stroke-miterlimit="2"><path fill="none" d="M0 0h1440v401.892H0z"/><clipPath id="a"><path d="M0 0h1440v401.892H0z"/></clipPath><g clip-path="url(#a)"><path fill="none" d="M0 0h1440v331.475H0z"/><path fill="none" d="M0-138h1440v445.626H0z"/><path d="M0 222.624c58.386 10.729 116.008 3.077 173.892 1.614 29.087-.733 58.118-13.95 86.99-4.781 46.246 14.688 90.573-.045 135.506-2.309 20.264-1.022 41.492-14.549 61.853-7.814 45.22 14.956 89.081 2.191 132.678-2.304 28.534-2.94 57.77.119 86.29-2.173 77.282-6.206 155.842 10.16 233.221 2.718 19.483-1.873 39.108 3.74 58.542 5.462 81.646 7.228 162.97 6.434 245.039 22.347 58.189 11.283 116.366 5.905 174.84 16.617 17.051 3.124 34.101 5.811 51.149 8.497v142.191H0V222.624zM1440 51.263c-24.877-7.716-49.773-14.596-74.695-20.548-16.192-3.867-32.811-11.963-49.592-17.818 22.633-18.156 46.471-11.39 69.966-7.843 18.105 2.734 36.211 5.444 54.321 8.232v37.977z" fill="#77c1d3"/></g></svg>