<svg viewBox="0 0 450 75" xmlns="http://www.w3.org/2000/svg" fill-rule="evenodd" clip-rule="evenodd" stroke-linejoin="round" stroke-miterlimit="2"><path d="M429.184 74.79H20.816C9.319 74.79 0 65.471 0 53.975v-33.16C0 9.319 9.319 0 20.816 0h408.368C440.681 0 450 9.319 450 20.815v33.16c0 11.496-9.319 20.815-20.816 20.815" fill="#fff" fill-rule="nonzero"/><path d="M384.419 25.214c-3.233 0-4.853 3.909-2.566 6.195l4.085 4.085a.858.858 0 0 1 0 1.213l-4.085 4.085c-2.287 2.286-.667 6.195 2.566 6.195.962 0 1.885-.382 2.566-1.063l9.217-9.217a.858.858 0 0 0 0-1.213l-9.217-9.217a3.633 3.633 0 0 0-2.566-1.063m18.04 0c-3.233 0-4.852 3.909-2.566 6.195l4.085 4.085a.858.858 0 0 1 0 1.213l-4.085 4.085c-2.286 2.286-.667 6.195 2.566 6.195.963 0 1.885-.382 2.566-1.063l9.217-9.217a.858.858 0 0 0 0-1.213l-9.217-9.217a3.631 3.631 0 0 0-2.566-1.063m-336.382.247v26.441H62.98v-2.064h-5.129v2.064h-3.097V25.461h11.323zm-8.226 21.313h5.129V28.525h-5.129v18.249zM42.333 21.765h3.197v5.594h6.693c0 11.323-.166 18.316-.499 20.98-.333 2.531-1.987 3.796-4.962 3.796-.4 0-1.265-.055-2.597-.166l-.8-2.897c1.266.111 2.232.166 2.898.166 1.398 0 2.231-.777 2.497-2.331.178-1.443.3-6.927.366-16.451H45.53v.899c-.111 9.724-2.253 16.829-6.427 21.313l-2.564-2.264c3.796-3.93 5.727-10.279 5.794-19.049v-.899h-5.028v-3.097h5.028v-5.594zm42.733 7.859c-1.465-2.687-3.253-4.785-5.362-6.294l2.631-1.665c2.797 1.953 5.273 5.694 7.426 11.222 3.153 7.771 7.26 13.287 12.322 16.551l-1.965 2.498c-5.217-3.131-9.591-9.136-13.121-18.016l-.233-.633c-2.264 8.059-6.76 14.286-13.487 18.682l-1.898-2.698c6.927-4.551 11.489-11.1 13.687-19.647zm41.234-8.192h10.956v2.897h-7.726v17.516h-3.23V21.432zm17.69 3.763h10.723v-3.497h3.064v3.497h10.59v2.897h-10.59v4.462h12.888v2.964h-28.773v-2.964h12.821v-4.462H143.99v-2.897zm11.489 11.089h3.031v3.996h9.158v2.964h-9.158v5.694c1.798.156 3.552.234 5.261.234 3.042 0 5.606-.067 7.693-.2l-.933 3.197c-1.798 0-3.985-.023-6.56-.067-5.706-.022-9.624-.555-11.755-1.598-1.599-.8-3.053-2.343-4.363-4.629-1.065 2.286-2.519 4.44-4.362 6.46l-2.431-2.131c3.397-3.841 5.295-8.081 5.694-12.721l3.097.399a23.834 23.834 0 0 1-.932 5.129c1.354 2.531 2.897 4.14 4.629 4.829a10.96 10.96 0 0 0 1.931.599V36.284zm23.019 6.46h10.889v-2.098h2.698l-1.965-1.765c1.998-2.042 3.03-4.617 3.097-7.725v-8.459h11.456v15.185c0 1.976-.988 2.964-2.964 2.964h-2.964l-.766-2.83c1.332.088 2.276.133 2.831.133.577 0 .865-.433.865-1.299v-1.498h-6.094c-.599 2.109-1.62 3.94-3.063 5.494v1.898h11.056v2.931h-11.056v2.697h13.22v2.898H176.3v-2.898h13.087v-2.697h-10.889v-2.931zm-1.832-17.25h3.497a32.092 32.092 0 0 0-1.599-2.697l2.498-1.232c.71 1.11 1.443 2.42 2.198 3.929h1.965a26.166 26.166 0 0 0 1.798-4.062l2.831.965a23.85 23.85 0 0 1-1.566 3.097h3.63v2.764h-5.927v2.864c-.023.6-.078 1.321-.167 2.165h2.464V29.69h2.764v6.228h-5.861c-.355.91-.754 1.687-1.198 2.331-1.199 1.62-3.175 2.886-5.928 3.796l-1.565-2.464c2.486-.822 4.185-1.876 5.095-3.164l.3-.499h-4.263V29.69h2.731v3.597h2.464c.111-.622.189-1.343.233-2.165v-2.864h-6.394v-2.764zm19.481 4.962v.5c0 .466-.044 1.099-.133 1.898h5.661v-2.398h-5.528zm5.528-2.497v-2.465h-5.528v2.465h5.528zm27.981-6.061h3.197v9.524h7.359v3.097h-7.359v13.654h8.125v3.097h-19.647v-3.097h8.325V34.519h-7.16v-3.097h7.16v-9.524zM215.27 39.314a49.84 49.84 0 0 1-3.897 3.497l-.999-3.33c4.396-3.574 7.349-7.049 8.859-10.423h-8.059v-3.031h4.695a58.37 58.37 0 0 0-1.598-3.663l2.997-.832c.755 1.82 1.299 3.319 1.632 4.495h3.529v2.664c-.843 2.354-2.153 4.685-3.929 6.994 1.998 1.154 3.741 2.375 5.228 3.663l-1.798 2.73a31.373 31.373 0 0 0-3.563-3.13v13.387h-3.097V39.314zm39.269-12.088h15.452v8.459h-15.452v-8.459zm12.488 5.661v-2.864h-9.491v2.864h9.491zm-15.052 4.662h9.624v9.325h-9.624v-9.325zm6.827 6.627v-3.929h-4.03v3.929h4.03zm4.962-6.627h9.624v9.325h-9.624v-9.325zm6.826 6.627v-3.929h-4.062v3.929h4.062zM247.246 22.73h26.941v3.031h-23.844v22.511h24.51v3.031h-27.607V22.73zm61.781 0v29.705h-3.03v-1.232h-21.712v1.232h-3.031V22.73h27.773zm-24.742 25.676h21.712V25.428h-21.712v22.978zm1.931-21.446h7.36v-.933h2.93v.933h7.46v1.998h-7.46v1.132h6.261v6.66a26.342 26.342 0 0 1 2.064 2.598l-1.864 1.298c-.422-.643-.678-1.021-.766-1.132l-1.033.067v1.498h3.264v2.331h-3.264v1.666c0 1.642-.932 2.464-2.797 2.464h-3.23l-.566-2.498c1.332.089 2.297.133 2.897.133.644 0 .966-.244.966-.732V43.41h-8.992a29.228 29.228 0 0 1 3.896 1.765l-1.298 1.998a19.378 19.378 0 0 0-4.13-2.164l1.066-1.599h-3.197v-2.331h12.655v-1.332c-4.552.2-8.526.356-11.922.467l-.3-1.999c3.33-.044 5.794-.088 7.393-.133V37.05h-6.194v-6.96h6.161v-1.132h-7.36V26.96zm10.257 10.09v.966l4.429-.167c-.333-.444-.544-.71-.633-.799h-3.796zm3.696-1.565v-1.199h-4.029v1.199h4.029zm-6.227 0v-1.199h-3.896v1.199h3.896zm-3.896-2.598h3.896v-1.099h-3.896v1.099zm6.094-1.099v1.099h4.029v-1.099h-4.029zm19.488-8.991h9.658v2.364a152.724 152.724 0 0 1-2.465 8.059c1.532 2.731 2.365 5.151 2.498 7.26 0 1.709-.3 2.919-.899 3.63-.91.932-2.464 1.421-4.662 1.465l-.966-3.164c.733.111 1.288.167 1.665.167.666-.067 1.143-.244 1.432-.533.244-.311.366-.832.366-1.565 0-1.976-.843-4.252-2.531-6.827 1.044-2.886 1.876-5.561 2.498-8.025h-3.463v26.474h-3.131V22.797zm10.191 2.997h4.195a21.42 21.42 0 0 0-1.598-3.097l2.964-1.099c.599 1.132 1.176 2.531 1.731 4.196h3.664a38.976 38.976 0 0 0 1.831-4.163l2.964 1.033a22.874 22.874 0 0 1-1.632 3.13h4.463v3.064h-8.059a19.554 19.554 0 0 1-2.265 2.464c.977.977 1.787 2.142 2.431 3.497 2.02-.977 3.819-2.32 5.395-4.03l2.264 1.865a20.282 20.282 0 0 1-3.163 2.764c.799 3.952 2.264 7.46 4.396 10.523l-2.165 2.698c-2.065-3.575-3.53-7.549-4.396-11.922l-1.365.633c.688 2.264 1.032 4.806 1.032 7.626 0 3.374-.455 5.428-1.365 6.16-.91.689-2.387 1.077-4.429 1.166l-1.632.033-.966-2.83h2.465c.932 0 1.643-.222 2.131-.666.488-.533.733-1.821.733-3.863 0-.866-.034-1.665-.1-2.398-2.598 2.597-5.65 4.784-9.158 6.56l-1.798-2.697c4.44-2.065 7.903-4.496 10.39-7.293a15.9 15.9 0 0 0-.7-2.131c-1.754 2.02-4.051 3.718-6.893 5.095l-1.532-2.664c2.975-1.288 5.35-2.92 7.126-4.896-.399-.599-.754-1.054-1.065-1.365-1.687 1.11-3.563 2.109-5.628 2.997l-1.632-2.697c3.619-1.266 6.35-2.809 8.192-4.629h-6.826v-3.064zm30.81 6.327h3.231v20.414h-10.956v-2.897h7.725V32.121z" fill="#004367" fill-rule="nonzero"/><path d="M425.938 68.605H39.27c-5.049 0-10.107.085-15.157 0-6.288-.106-12.144-3.238-15.426-8.672-2.555-4.23-2.585-8.71-2.585-13.431V31.015c0-3.841-.386-8.044.682-11.771C9.157 10.956 16.686 6.211 25.03 6.185c2.344-.007 4.688 0 7.032 0h392.582c7.029 0 13.55 2.966 17.058 9.347 2.266 4.122 2.195 8.467 2.195 12.981v15.791c0 3.552.328 7.395-.573 10.859-2.067 7.95-9.279 13.269-17.386 13.442-1.556.033-1.561 2.455 0 2.422 6.87-.147 13.232-3.438 17.05-9.214 2.72-4.116 3.331-8.68 3.331-13.477V33.243c0-3.683.265-7.488-.114-11.159-1.092-10.57-10.074-18.166-20.52-18.321-1.833-.026-3.669 0-5.502 0H45.504c-6.857 0-13.715-.022-20.572 0-7.459.024-14.399 3.353-18.336 9.871-2.478 4.102-2.915 8.537-2.915 13.19v15.295c0 3.619-.281 7.389.157 10.993.814 6.693 5.032 12.741 11.081 15.751 3.632 1.808 7.434 2.164 11.375 2.164h399.644c1.559 0 1.561-2.422 0-2.422" fill="#004367" fill-rule="nonzero"/></svg>