<svg viewBox="0 0 375 107" xmlns="http://www.w3.org/2000/svg" fill-rule="evenodd" clip-rule="evenodd" stroke-linejoin="round" stroke-miterlimit="2"><path d="M345.228 106.972H29.772C13.33 106.972 0 93.642 0 77.199V29.772C0 13.329 13.33 0 29.772 0h315.456C361.67 0 375 13.329 375 29.772v47.427c0 16.443-13.33 29.773-29.772 29.773" fill="#fff" fill-rule="nonzero"/><path d="M283.799 36.063c-4.625 0-6.941 5.591-3.67 8.86l5.842 5.843a1.228 1.228 0 0 1 0 1.736l-5.842 5.842c-3.271 3.27-.955 8.861 3.67 8.861a5.184 5.184 0 0 0 3.669-1.521l13.184-13.182a1.23 1.23 0 0 0 0-1.736l-13.184-13.182a5.189 5.189 0 0 0-3.669-1.521m25.802 0c-4.624 0-6.941 5.591-3.67 8.86l5.843 5.843a1.228 1.228 0 0 1 0 1.736l-5.843 5.842c-3.271 3.27-.954 8.861 3.67 8.861a5.189 5.189 0 0 0 3.67-1.521l13.184-13.182a1.23 1.23 0 0 0 0-1.736l-13.184-13.182a5.193 5.193 0 0 0-3.67-1.521M80.952 56.643c-2.096.699-4.811 1.493-8.145 2.382v9.859c0 3.144-1.603 4.716-4.81 4.716h-5.335l-1-4.335c1.683.191 3.27.286 4.763.286 1.206 0 1.81-.603 1.81-1.81v-7.668c-3.207.698-6.145 1.254-8.812 1.667l-.619-4.525c3.302-.54 6.446-1.111 9.431-1.715v-8.525h-9.431V42.64h9.431v-5.049c-1.779.35-4.224.762-7.335 1.239l-.953-4.287c6.732-.73 12.638-2.127 17.718-4.191l1.572 4.239a119.558 119.558 0 0 1-6.43 2v6.049h10.288c-.285-3.715-.428-7.811-.428-12.288h4.572c0 4.667.143 8.764.429 12.288h14.384v4.335H88.049c.286 3.143.714 5.763 1.286 7.859.159.698.381 1.524.667 2.476 2.095-2.508 3.89-5.318 5.382-8.43l3.906 2.048c-2.16 4.414-4.7 8.176-7.621 11.288.667 1.461 1.222 2.54 1.667 3.239 1.429 2.159 2.524 3.239 3.286 3.239.635 0 1.255-2.477 1.858-7.43l4.001 2.095c-1.207 6.796-2.953 10.193-5.239 10.193-2.033 0-4.176-1.413-6.431-4.239a18.373 18.373 0 0 1-2.429-3.953 38.884 38.884 0 0 1-11.05 6.525l-2.524-3.906c4.477-1.619 8.383-3.953 11.717-7.001a45.618 45.618 0 0 1-1.477-4.906c-.667-2.572-1.191-5.605-1.572-9.097H72.807v7.477a138.575 138.575 0 0 0 8.145-2.429v4.62zM92.478 30.78c3.335 2.096 6.208 4.239 8.622 6.43l-3.287 3.239c-2-2.096-4.795-4.35-8.383-6.763l3.048-2.906zm17.243 1.096h42.391v4.048h-13.67v3.477h10.812v12.622h-19.529a78.601 78.601 0 0 0-1.905 3.334h24.863v4.192h-9.955c-.952 2.445-2.492 4.62-4.62 6.525 4.382 1.334 9.034 2.937 13.956 4.811l-2.81 3.715a183.18 183.18 0 0 0-15.242-5.716c-4.509 2.318-11.844 4.16-22.005 5.526l-1.715-4.001c7.812-.889 13.734-2.017 17.766-3.382a202.128 202.128 0 0 0-11.002-2.906c1.397-2.032 2.413-3.556 3.048-4.572h-11.003v-4.192h13.575l1.953-3.334h-12.051V39.401h10.813v-3.477h-13.67v-4.048zm23.481 32.769c2.287-1.46 3.89-3.159 4.811-5.096h-12.717l-1.858 2.762c3.366.699 6.621 1.477 9.764 2.334zm.905-25.244v-3.477h-6.382v3.477h6.382zm10.812 8.764v-4.906h-6.477v4.906h6.477zm-10.812 0v-4.906h-6.382v4.906h6.382zm-10.716 0v-4.906h-6.478v4.906h6.478zm62.348 6.811c-4.827 4.065-10.654 6.716-17.481 7.955l-2.381-3.192c6.985-1.206 12.511-3.508 16.575-6.906l3.287 2.143zm5.81 3.716c-6.382 5.144-14.13 8.478-23.243 10.002l-2.382-3.334c9.368-1.524 16.798-4.493 22.291-8.907l3.334 2.239zm6.859 3.477c-7.97 6.319-17.591 10.399-28.864 12.241l-2.477-3.287c11.686-1.937 20.99-5.684 27.912-11.241l3.429 2.287zm-21.005-14.004a96.618 96.618 0 0 1-14.86 2.287l-1.096-3.096c2.985-1.556 5.478-4.033 7.478-7.431l3.668 1.143c-1.302 2.096-2.795 3.938-4.478 5.525 2.033-.222 4.446-.619 7.24-1.19l-2.048-2.144 3.048-1.905c1.969 1.874 3.62 3.636 4.954 5.287h1.191l-.143-.429c2.635-1.46 4.842-3.746 6.62-6.858l3.668 1.143a27.018 27.018 0 0 1-3.953 5.049c1.905-.191 3.842-.429 5.811-.715l-1.572-1.762 3.096-1.953c2.508 2.604 4.525 4.969 6.049 7.097l-3.287 2.334a59.855 59.855 0 0 0-2.048-2.953 102.66 102.66 0 0 1-10.097 1.476c4 2.318 9.573 4.462 16.718 6.43l-2.525 3.811c-8.668-2.477-15.146-5.525-19.433-9.145-5.176 3.969-11.637 7.017-19.385 9.145l-2.525-3.811c7.431-1.968 13.4-4.413 17.909-7.335zm11.622-17.385c4.033 2.795 7.256 5.351 9.669 7.669l-3.572 2.476-2.525-2.524c-10.002.762-19.068 1.318-27.197 1.667l-.762-3.477c3.303 0 7.24-2.238 11.813-6.716l4.191 1.143c-2.096 2.16-3.969 3.843-5.62 5.049 7.398-.476 11.971-.794 13.717-.952a171.052 171.052 0 0 0-2.953-2.287l3.239-2.048zm62.729 4.906v37.819h-4.43v-2.953h-7.335v2.953h-4.429V35.686h16.194zM239.989 66.17h7.335V40.068h-7.335V66.17zm-22.195-35.771h4.572v8.002h9.574c0 16.194-.238 26.197-.715 30.007-.476 3.62-2.841 5.43-7.096 5.43-.572 0-1.81-.079-3.716-.238l-1.143-4.144c1.81.159 3.191.238 4.144.238 2.001 0 3.191-1.111 3.572-3.334.254-2.064.429-9.907.524-23.529h-5.144v1.286c-.159 13.908-3.223 24.069-9.192 30.483l-3.668-3.239c5.43-5.62 8.192-14.702 8.288-27.244v-1.286h-7.192v-4.43h7.192v-8.002z" fill="#004367" fill-rule="nonzero"/><path d="M366.259 73.032c-.398 13.987-11.841 24.798-25.674 25.093H89.752c-18.205 0-36.414.113-54.617 0-7.691-.049-14.863-2.909-20.019-8.737-6.149-6.956-6.387-15.203-6.387-23.871V40.136c0-9.043.941-17.443 7.923-24.15 7.254-6.97 15.939-7.139 25.103-7.139H337.67c1.756 0 3.531-.052 5.281.1 13.297 1.162 23.092 12.596 23.321 25.689.222 12.761.35 25.639-.013 38.396m3.477-11.196V36.668c0-9.307-2.889-18.045-10.167-24.25-7.643-6.517-16.412-7.035-25.755-7.035H93.908c-19.558 0-39.119-.115-58.675 0-17.047.1-29.89 13.212-29.968 30.185-.038 7.953 0 15.905 0 23.858 0 6.794-.771 14.328 1.098 20.942 4.033 14.273 16.973 21.221 30.967 21.221h303.255c11.857-.253 22.597-7.213 27.061-18.332 2.73-6.8 2.09-14.247 2.09-21.421" fill="#004367" fill-rule="nonzero"/></svg>