<svg clip-rule="evenodd" fill-rule="evenodd" stroke-linejoin="round" stroke-miterlimit="2" viewBox="0 0 600 170" xmlns="http://www.w3.org/2000/svg"><g fill-rule="nonzero"><path d="M552.834 169.47H47.169C21.118 169.47 0 148.356 0 122.304V47.166C0 21.118 21.118 0 47.169 0h505.665C578.885 0 600 21.118 600 47.166v75.138c0 26.052-21.115 47.166-47.166 47.166" fill="#fff"/><g fill="#004367"><path d="M447.87 57.766c-7.137 0-10.712 8.633-5.666 13.676l9.02 9.02c.74.741.74 1.94 0 2.681l-9.02 9.016c-5.046 5.049-1.471 13.679 5.666 13.679a8.001 8.001 0 0 0 5.664-2.346l20.352-20.349a1.9 1.9 0 0 0 0-2.681l-20.352-20.35a8.018 8.018 0 0 0-5.664-2.346m39.829 0c-7.137 0-10.712 8.633-5.663 13.676l9.017 9.02c.74.741.74 1.94 0 2.681l-9.017 9.016c-5.049 5.049-1.474 13.679 5.663 13.679a8.008 8.008 0 0 0 5.667-2.346l20.349-20.349a1.9 1.9 0 0 0 0-2.681l-20.349-20.35a8.025 8.025 0 0 0-5.667-2.346"/><path d="M584.876 124.996c-4.687 18.014-21.027 30.069-39.395 30.461H19.783h155.349-85.4c-11.443 0-22.904.189-34.346 0-14.247-.239-27.514-7.337-34.953-19.652-5.79-9.585-5.856-19.738-5.856-30.431V70.279c0-8.704-.878-18.226 1.542-26.672 5.379-18.782 22.438-29.533 41.346-29.591 5.31-.016 10.622 0 15.932 0h71.201-20.18 418.13c15.926 0 30.702 6.72 38.651 21.178 5.137 9.343 4.975 19.186 4.975 29.416v35.781c0 8.051.744 16.757-1.298 24.605m6.528-74.954c-2.475-23.952-22.827-41.165-46.499-41.514-4.155-.063-8.315 0-12.469 0H60.009h43.849c-15.539 0-31.078-.052-46.618 0-16.9.055-32.623 7.596-41.546 22.366-5.614 9.297-6.605 19.343-6.605 29.888v34.659c0 8.199-.639 16.741.354 24.912 1.844 15.164 11.404 28.867 25.113 35.688 8.229 4.097 16.843 4.904 25.774 4.904h54.6-32.313 462.864c15.564-.335 29.983-7.787 38.632-20.879 6.163-9.324 7.549-19.669 7.549-30.54V75.325c0-8.345.601-16.963-.258-25.283"/><path d="M143.733 89.952h-9.508v6.037h9.508zm0 11.62h-9.508v5.811h9.508zm6.112 5.811h9.432v-5.811h-9.432zm9.432 5.961h-25.052v3.32h-6.565V86.405l-1.736.981-3.018-4.829v1.811l-5.509 2.867v21.204c0 4.981-2.414 7.471-7.244 7.471h-6.338l-1.585-6.867c1.912.302 3.723.453 5.433.453 1.761 0 2.641-.956 2.641-2.868V90.405a401.683 401.683 0 0 1-7.848 2.942l-1.811-7.093a64.186 64.186 0 0 0 9.659-2.943V67.616h-8.149v-6.791h8.149V47.166h7.093v13.659h5.66v6.791h-5.66v12.677a85.996 85.996 0 0 0 5.509-2.943v3.999c6.389-2.515 11.344-5.609 14.865-9.281H125.17v-6.263h7.697c-.805-1.711-1.837-3.496-3.094-5.358l5.886-2.264c1.006 1.912 2.087 4.453 3.244 7.622h4.603v-9.583c-5.131.301-10.589.452-16.374.452l-2.038-5.886c15.897 0 29.304-1.282 40.22-3.848l3.245 5.735c-5.182 1.308-11.369 2.314-18.563 3.018v10.112h4.678c1.459-2.817 2.817-5.886 4.075-9.206l6.037 2.113c-1.308 2.767-2.591 5.131-3.849 7.093h8.678v6.263h-13.809c3.924 3.471 9.256 6.489 15.998 9.055l-3.094 5.886-2.943-1.585v31.24h-6.49zm4.377-29.203a50.616 50.616 0 0 1-13.281-12.073h-.377v9.961h-6.49v-9.961h-.302c-2.817 4.578-6.766 8.602-11.847 12.073zm-13.809 11.848h9.432v-6.037h-9.432zm30.804-38.258h13.885c-1.459-3.572-3.044-6.792-4.754-9.659l7.319-1.207a111.35 111.35 0 0 1 4.603 10.866h10.866v6.866h-17.733l-.075 9.584h14.413c0 18.512-.327 30.133-.981 34.862-.755 4.377-4.025 6.565-9.81 6.565-.704 0-2.49-.126-5.358-.377l-1.584-6.188c2.414.251 4.376.377 5.885.377 2.465 0 3.924-1.207 4.377-3.622.352-2.213.604-10.539.755-24.977h-7.999c-1.056 15.746-4.276 27.643-9.659 35.692l-5.584-4.904c5.785-8.552 8.754-22.362 8.904-41.428v-5.584h-7.47zm43.314 6.791a117.449 117.449 0 0 1-1.962 5.207c2.062 7.546 4.804 14.262 8.225 20.147 3.471-7.244 5.433-15.695 5.886-25.354zm2.414 31.768c-3.32-5.735-6.087-12.048-8.3-18.94-1.157 1.861-2.163 3.345-3.019 4.452l-4.452-5.433c5.031-7.445 8.452-17.481 10.263-30.108l7.093 1.207a152.4 152.4 0 0 1-2.037 10.187h21.732v6.867h-4.754c-.554 12.426-3.371 23.065-8.452 31.919 4.478 5.987 9.684 10.69 15.62 14.111l-4.074 6.037c-5.936-3.421-11.118-8.15-15.545-14.186-4.377 5.584-9.835 10.312-16.375 14.186l-3.923-6.263c6.741-3.622 12.148-8.301 16.223-14.036zm36.464-46.935h33.353v21.128h-14.337l.905 3.773h16.903v5.509h-40.748v-5.509h17.129l-.905-3.773h-12.3zm26.863 16.45v-3.622h-20.449v3.622zm-20.449-7.848h20.449v-3.773h-20.449zm-5.81 25.354h32.296V98.63h-12.753v11.168c0 4.074-2.138 6.112-6.414 6.112h-5.282l-1.433-6.263c1.609.301 3.119.452 4.527.452 1.157 0 1.736-.628 1.736-1.886V98.63h-12.677zm25.731 10.338v-5.508h-19.167v5.508zm-18.865 9.131c-1.962 4.829-4.301 9.055-7.017 12.677l-5.132-3.698c2.667-3.269 4.93-7.118 6.792-11.545zm20.978-2.415c2.566 3.522 4.628 6.867 6.188 10.036l-5.056 3.547c-1.66-3.522-3.672-7.043-6.037-10.564zm33.428-48.143c-6.036 6.087-13.507 11.143-22.411 15.167l-2.943-6.112c8.552-3.622 15.545-8.3 20.978-14.035zm2.038 19.846c-6.339 7.093-13.985 12.878-22.94 17.356l-2.943-6.037c8.754-4.176 15.922-9.609 21.506-16.299zm1.811 18.638c-6.188 11.923-15.419 20.5-27.694 25.732l-2.867-6.565c11.118-4.779 19.468-12.551 25.052-23.317zm26.503-.679c-1.66 11.017-5.232 19.444-10.715 25.279l-5.358-4.678c6.54-7.194 9.835-18.664 9.885-34.41V47.846h7.244v16.978h22.034V46.94h6.943v17.884h20.223v6.942h-49.2v4.452c0 1.61-.1 3.924-.302 6.942h34.41v33.58h-7.169V90.027z"/></g></g></svg>