<svg clip-rule="evenodd" fill-rule="evenodd" stroke-linejoin="round" stroke-miterlimit="2" viewBox="0 0 450 150" xmlns="http://www.w3.org/2000/svg"><g fill-rule="nonzero"><path d="m408.426 149.38h-366.85c-22.962 0-41.576-18.614-41.576-41.576v-66.228c0-22.962 18.614-41.576 41.576-41.576h366.85c22.96 0 41.574 18.614 41.574 41.576v66.228c0 22.962-18.614 41.576-41.574 41.576" fill="#fff"/><g fill="#004367"><path d="m120.079 93.847c6.459 0 9.692-7.807 5.127-12.373l-8.158-8.158c-.67-.669-.67-1.753 0-2.423l8.158-8.158c4.565-4.566 1.332-12.373-5.127-12.373-1.921 0-3.765.762-5.124 2.123l-18.409 18.408c-.668.67-.668 1.754 0 2.423l18.409 18.408c1.359 1.361 3.203 2.123 5.124 2.123"/><path d="m84.05 93.847c6.456 0 9.69-7.807 5.124-12.373l-8.158-8.158c-.67-.669-.67-1.753 0-2.423l8.158-8.158c4.566-4.566 1.332-12.373-5.124-12.373-1.923 0-3.767.762-5.126 2.123l-18.41 18.408c-.668.67-.668 1.754 0 2.423l18.41 18.408c1.359 1.361 3.203 2.123 5.126 2.123"/><path d="m191.652 42.252h6.518v20.02h24.609v6.119h-24.609v26.738h29.731v6.12h-59.595v-6.12h23.346z"/><path d="m238.41 69.256h60.194v6.252h-60.194z"/><path d="m316.895 54.756h17.359c.444-1.463.799-3.037 1.065-4.722h-24.943v-5.72h57.467v5.72h-26.339c-.354 2.128-.665 3.702-.931 4.722h21.617v37.646h-12.904c7.095 1.685 13.791 3.769 20.087 6.253l-3.392 5.121c-6.873-3.148-13.968-5.631-21.284-7.449l2.66-3.925h-17.359l3.192 4.191c-5.188 3.015-12.526 5.454-22.015 7.316l-2.993-5.121c9.533-1.685 16.739-3.814 21.616-6.386h-12.903zm39.109 31.793v-5.387h-32.99v5.387zm-32.99-10.708h32.99v-5.188h-32.99zm0-10.509h32.99v-4.789h-32.99z"/><path d="m436.292 103.778c-1.415 18.16-16.558 31.217-34.35 31.815h-299.307c-18.541 0-37.362.955-55.886-.042-18.745-1.013-32.459-15.888-33.127-34.394-.228-6.316 0-12.68 0-18.995 0-19.14-4.416-44.648 10.979-59.127 9.361-8.805 20.52-9.25 32.287-9.25h277.792c22.098 0 44.292-.591 66.386 0 23.399.628 35.314 18.35 35.314 40.079 0 16.502 1.196 33.455-.088 49.914m7.438-60.749c-2.682-21.935-21.478-36.52-42.893-36.943-8.362-.164-16.745 0-25.108 0h-250.91c-25.195 0-50.461-.539-75.656 0-21.426.46-40.205 14.966-42.893 36.943-2.161 17.68-.348 36.421-.348 54.207 0 24.864 16.21 45.295 42.138 46.057 5.632.167 11.297 0 16.931 0h336.951c25.921-.874 42.138-21.116 42.138-46.057 0-17.783 1.811-36.531-.35-54.207"/></g></g></svg>