<svg viewBox="0 0 450 180" xmlns="http://www.w3.org/2000/svg" fill-rule="evenodd" clip-rule="evenodd" stroke-linejoin="round" stroke-miterlimit="2"><path d="M400.793 179.865l-351.583-3.06C22.032 176.805 0 154.772 0 127.598V49.207C0 22.032 22.032 0 49.21 0l351.583 3.06C427.971 3.06 450 25.093 450 52.267v78.391c0 27.175-22.029 49.207-49.207 49.207" fill="#fff" fill-rule="nonzero"/><path d="M316.946 62.667c-7.644 0-11.471 9.242-6.068 14.645l9.659 9.656a2.029 2.029 0 0 1 0 2.867l-9.659 9.657c-5.403 5.406-1.576 14.645 6.068 14.645a8.574 8.574 0 0 0 6.066-2.512l21.787-21.79a2.029 2.029 0 0 0 0-2.867l-21.787-21.79a8.585 8.585 0 0 0-6.066-2.511m42.646 0c-7.641 0-11.471 9.242-6.065 14.645l9.656 9.656a2.023 2.023 0 0 1 0 2.867l-9.656 9.657c-5.406 5.406-1.576 14.645 6.065 14.645a8.582 8.582 0 0 0 6.069-2.512l21.787-21.79a2.029 2.029 0 0 0 0-2.867l-21.787-21.79a8.594 8.594 0 0 0-6.069-2.511m-241.904-6.921h68.254v7.006h-30.467v5.432h24.09v32.356h-25.192c-.84 4.513-2.178 8.24-4.015 11.179 10.707 4.198 23.434 6.534 38.181 7.006l-1.889 7.243c-15.797-.735-29.495-3.674-41.094-8.817-5.668 4.408-14.59 7.321-26.766 8.738l-3.228-6.849c10.129-.63 17.687-2.467 22.673-5.511a74.032 74.032 0 0 1-11.573-7.951l5.747-3.936c3.149 2.467 6.823 4.802 11.022 7.007 1.469-2.31 2.597-5.013 3.385-8.109h-22.594V68.184h23.853v-5.432h-30.387v-7.006zm54.477 38.26v-6.692h-16.69v1.89c0 1.679-.078 3.28-.236 4.802h16.926zm-24.326 0c.158-1.575.236-3.175.236-4.802v-1.89h-16.453v6.692h16.217zm-16.217-12.832h16.453v-6.613h-16.453v6.613zm23.853-6.613v6.613h16.69v-6.613h-16.69zm85.337-18.421c-1.469 1.574-2.519 2.676-3.149 3.306h21.02v5.826c-8.555 15.167-24.326 23.696-47.314 25.585l-3.149-6.77c6.718-.42 12.623-1.312 17.713-2.677-2.046-2.467-4.356-4.907-6.927-7.321l6.455-3.071a116.45 116.45 0 0 1 7.479 8.03c7.295-3.096 13.016-7.426 17.162-12.989h-21.177c-6.088 3.569-13.278 6.272-21.571 8.108l-4.408-6.849c13.96-2.519 24.352-7.4 31.175-14.642l6.691 3.464zm-7.951 45.738a98.178 98.178 0 0 1 8.03 9.054c7.82-3.517 13.987-8.188 18.5-14.013h-21.57c-6.928 3.201-14.958 5.694-24.09 7.478l-4.487-6.691c17.267-1.68 29.889-6.744 37.866-15.194l6.377 3.464a50.834 50.834 0 0 1-4.566 4.172h20.074v5.826c-11.283 18.421-32.25 28.026-62.9 28.813l-2.992-7.164c11.914 0 22.148-1.338 30.703-4.015-2.624-3.359-5.144-6.219-7.558-8.581l6.613-3.149z" fill="#004367" fill-rule="nonzero"/><path d="M393.119 161.973l-178.81-1.629-116.393-1.057c-22.636-.206-55.349 4.884-71.356-14.698-12.6-15.412-8.862-39.122-8.862-57.701 0-20.742-3.793-45.322 14.324-60.133 17.316-14.155 49.375-8.638 70.147-8.451l237.837 2.165c23.844.218 64.364-6.231 82.128 13.385 15.069 16.638 10.171 45.834 10.171 66.581 0 7.397.292 14.863 0 22.257-.877 22.185-17.021 38.284-39.186 39.281-7.859.352-7.905 12.621 0 12.265 28.929-1.297 50.173-22.608 51.452-51.451.804-18.089 0-36.399 0-54.509 0-22.664-7.004-43.682-28.929-54.39C405.177 8.78 394.38 8.7 383.147 8.596c-81.49-.739-162.984-1.482-244.475-2.224-26.782-.245-53.705-1.321-80.488-.733-21.56.473-40.976 11.963-49.078 32.529-6.814 17.295-3.673 39.625-3.673 57.747 0 20.276-1.828 40.766 12.452 57.346 10.997 12.762 26.194 17.666 42.553 17.951 30.619.53 61.255.555 91.877.834 80.267.73 160.537 1.463 240.804 2.192 7.896.071 7.903-12.195 0-12.265" fill="#004367" fill-rule="nonzero"/></svg>