<svg clip-rule="evenodd" fill-rule="evenodd" stroke-linejoin="round" stroke-miterlimit="2" viewBox="0 0 450 122" xmlns="http://www.w3.org/2000/svg"><g fill="#fff" fill-rule="nonzero"><path d="m340.701 40.029c-5.525 0-8.292 6.68-4.384 10.585l6.98 6.983c.573.573.573 1.501 0 2.071l-6.98 6.982c-3.908 3.906-1.141 10.586 4.384 10.586 1.646 0 3.222-.653 4.384-1.815l15.751-15.753c.573-.57.573-1.498 0-2.071l-15.751-15.751c-1.162-1.162-2.738-1.817-4.384-1.817"/><path d="m371.529 40.029c-5.525 0-8.293 6.68-4.385 10.585l6.98 6.983c.573.573.573 1.501 0 2.071l-6.98 6.982c-3.908 3.906-1.14 10.586 4.385 10.586 1.645 0 3.221-.653 4.384-1.815l15.753-15.753c.57-.57.57-1.498 0-2.071l-15.753-15.751c-1.163-1.162-2.739-1.817-4.384-1.817"/><path d="m94.908 52.858c5.538-3.187 10.774-6.772 15.706-10.755h-36.421v-5.236h43.876v5.236c-5.236 4.704-11.154 9.2-17.755 13.487v24.47c0 3.983-1.973 5.975-5.919 5.975-3.452 0-6.468-.114-9.048-.342l-1.479-5.235c2.807.341 5.823.512 9.048.512 1.328 0 1.992-.626 1.992-1.878z"/><path d="m162.684 65.264c-.835 1.631-1.935 3.206-3.301 4.723l-3.13-3.813c2.428-2.655 4.041-6.127 4.837-10.414l4.439.797c-.341 1.669-.645 2.959-.91 3.87h4.154v-4.894h5.292v4.894h7.797v4.837h-7.797v5.747h8.992v4.951h-8.992v10.699h-5.292v-10.699h-12.121v-4.951h12.121v-5.747zm-5.691-23.503v-4.78h24.527c-.038 8.081-.607 12.918-1.707 14.511-1.062 1.594-2.921 2.39-5.577 2.39-.721 0-2.333-.076-4.837-.227l-1.252-4.439c2.011.114 3.661.228 4.951.341 1.404-.075 2.276-.512 2.618-1.308.303-.683.512-2.846.626-6.488h-7.228c-.531 2.276-1.346 4.458-2.447 6.544-1.517 2.429-3.737 4.648-6.658 6.659l-3.187-4.041c2.428-1.404 4.231-3.016 5.407-4.837.72-1.176 1.327-2.618 1.821-4.325zm-18.495 20.487v6.43h3.984v-6.43zm-.284 10.926c-.493 5.463-1.764 10.053-3.813 13.771l-3.642-3.357c2.011-4.022 3.054-9.162 3.13-15.422v-16.958l-2.902-3.529c3.186-3.338 5.918-7.985 8.194-13.942l4.894 1.138-1.195 3.016h9.674v3.699c-1.138 2.201-2.219 4.06-3.243 5.577h6.089v34.429c0 2.959-1.575 4.439-4.724 4.439h-2.788l-1.138-4.041v3.529h-4.268v-12.349zm5.634-26.007c.796-1.176 1.783-2.807 2.959-4.894h-6.032c-.949 1.821-1.916 3.453-2.903 4.894zm2.902 34.429c1.138.152 1.935.228 2.39.228 1.138 0 1.707-.607 1.707-1.821v-6.829h-4.097zm4.097-12.918v-6.43h-4.097v6.43zm0-10.869v-6.032h-4.097v6.032zm-8.365-6.032h-3.984v6.032h3.984z"/><path d="m197.852 83.133v3.243h-4.95v-20.657h15.706v19.861h-4.951v-2.447zm5.805-4.894v-7.74h-5.805v7.74zm-12.064-37.445h7.284c-.911-2.163-1.783-4.022-2.618-5.577l5.236-1.366c1.024 2.276 1.858 4.591 2.503 6.943h5.862v5.008h-18.267zm1.707 8.479h14.91v4.723h-14.91zm0 7.91h14.91v4.78h-14.91zm31.014-8.479h-12.462v-5.122h7.796c-1.518-2.845-3.054-5.33-4.61-7.455l4.496-2.162c1.669 2.428 3.263 5.103 4.78 8.024l-3.243 1.593h8.479c1.479-2.997 2.845-6.26 4.097-9.788l5.122 1.764c-1.176 2.959-2.485 5.634-3.927 8.024h7.227v5.122h-12.405v7.113h10.698v5.122h-10.698v7.341h13.885v5.178h-13.885v13.203h-5.35v-13.203h-13.828v-5.178h13.828v-7.341h-10.755v-5.122h10.755z"/><path d="m278.433 70.385v3.017h16.787v-3.017zm16.787-4.097v-3.244h-16.787v3.244zm-16.787 11.211v8.877h-5.122v-27.657h27.088v21.853c0 3.718-1.84 5.577-5.52 5.577h-4.211l-1.309-4.724 3.927.228c1.29 0 1.934-.74 1.934-2.219v-1.935zm5.804-43.591h5.35v3.414h12.747v4.325h-12.747v2.96h10.812v4.211h-10.812v2.845h14.397v4.439h-34.429v-1.707l-2.731.682c-.835-3.186-1.897-6.297-3.187-9.332v40.518h-5.235v-52.127h5.235v10.698l3.471-1.138c1.214 2.807 2.201 5.463 2.96 7.967h14.169v-2.845h-10.983v-4.211h10.983v-2.96h-12.917v-4.325h12.917zm-27.258 11.495c-.114 5.501-.816 10.869-2.106 16.105l-4.04-1.081c1.214-4.743 1.916-9.845 2.106-15.308z"/><path d="m411.652 111.413h-170.984c-66.354 0-132.841 1.254-199.186 0-18.957-.358-30.778-12.471-31.063-31.499-.143-9.392 0-18.798 0-28.19 0-8.811-1.095-18.692 3.294-26.699 11.451-20.898 46.021-14.749 65.958-14.749h324.508c14.397 0 29.15 3.315 34.097 19.467 2.299 7.504 1.3 16.437 1.3 24.183 0 9.223.273 18.491 0 27.711-.483 16.394-10.945 28.92-27.924 29.776-6.192.312-6.228 9.981 0 9.667 13.716-.691 26.225-7.214 32.978-19.537 4.599-8.394 4.614-17.274 4.614-26.494 0-18.356 4.2-43.039-7.198-58.864-15.059-20.908-46.113-15.577-68.604-15.577h-259.679c-24.73 0-49.543-.599-74.27 0-21.58.522-37.852 15.917-38.742 37.671-.647 15.814-1.377 32.794.169 48.56 2.014 20.56 19.11 33.898 39.064 34.241 8.592.148 17.198 0 25.792 0h116.124c75.07 0 150.207.933 225.271 0 1.494-.019 2.988 0 4.481 0 6.221 0 6.231-9.667 0-9.667"/></g></svg>