<svg clip-rule="evenodd" fill-rule="evenodd" stroke-linejoin="round" stroke-miterlimit="2" viewBox="0 0 450 150" xmlns="http://www.w3.org/2000/svg"><g fill-rule="nonzero"><path d="M408.426 149.38H41.576C18.614 149.38 0 130.766 0 107.804V41.576C0 18.614 18.614 0 41.576 0h366.85C431.386 0 450 18.614 450 41.576v66.228c0 22.962-18.614 41.576-41.574 41.576" fill="#fff"/><g fill="#004367"><path d="M120.079 93.847c6.459 0 9.692-7.807 5.127-12.373l-8.158-8.158a1.712 1.712 0 0 1 0-2.423l8.158-8.158c4.565-4.566 1.332-12.373-5.127-12.373a7.24 7.24 0 0 0-5.124 2.123L96.546 70.893a1.715 1.715 0 0 0 0 2.423l18.409 18.408a7.24 7.24 0 0 0 5.124 2.123m-36.029 0c6.456 0 9.69-7.807 5.124-12.373l-8.158-8.158a1.712 1.712 0 0 1 0-2.423l8.158-8.158c4.566-4.566 1.332-12.373-5.124-12.373a7.241 7.241 0 0 0-5.126 2.123l-18.41 18.408a1.715 1.715 0 0 0 0 2.423l18.41 18.408a7.241 7.241 0 0 0 5.126 2.123m107.602-51.595h6.518v20.02h24.609v6.119H198.17v26.738h29.731v6.12h-59.595v-6.12h23.346zm46.758 27.004h60.194v6.252H238.41zm78.485-14.5h17.359a35.122 35.122 0 0 0 1.065-4.722h-24.943v-5.72h57.467v5.72h-26.339c-.354 2.128-.665 3.702-.931 4.722h21.617v37.646h-12.904c7.095 1.685 13.791 3.769 20.087 6.253l-3.392 5.121a121.188 121.188 0 0 0-21.284-7.449l2.66-3.925h-17.359l3.192 4.191c-5.188 3.015-12.526 5.454-22.015 7.316l-2.993-5.121c9.533-1.685 16.739-3.814 21.616-6.386h-12.903zm39.109 31.793v-5.387h-32.99v5.387zm-32.99-10.708h32.99v-5.188h-32.99zm0-10.509h32.99v-4.789h-32.99z"/><path d="M436.292 103.778c-1.415 18.16-16.558 31.217-34.35 31.815H102.635c-18.541 0-37.362.955-55.886-.042-18.745-1.013-32.459-15.888-33.127-34.394-.228-6.316 0-12.68 0-18.995 0-19.14-4.416-44.648 10.979-59.127 9.361-8.805 20.52-9.25 32.287-9.25H334.68c22.098 0 44.292-.591 66.386 0 23.399.628 35.314 18.35 35.314 40.079 0 16.502 1.196 33.455-.088 49.914m7.438-60.749c-2.682-21.935-21.478-36.52-42.893-36.943-8.362-.164-16.745 0-25.108 0h-250.91c-25.195 0-50.461-.539-75.656 0-21.426.46-40.205 14.966-42.893 36.943-2.161 17.68-.348 36.421-.348 54.207 0 24.864 16.21 45.295 42.138 46.057 5.632.167 11.297 0 16.931 0h336.951c25.921-.874 42.138-21.116 42.138-46.057 0-17.783 1.811-36.531-.35-54.207"/></g></g></svg>