<svg clip-rule="evenodd" fill-rule="evenodd" stroke-linejoin="round" stroke-miterlimit="2" viewBox="0 0 1196 924" xmlns="http://www.w3.org/2000/svg"><g fill-rule="nonzero"><path d="m1008.5 0h-833.494c-103.062 0-175.006 80.994-175.006 180.906v446.288c0 99.906 71.944 180.9 175.006 180.9h578.625l119.525 115.868 38.338-115.868h97.006c103.056 0 186.6-80.994 186.6-180.9v-446.288c0-99.912-83.544-180.906-186.6-180.906" fill="#fff"/><g fill="#005f89"><path d="m748.515 780.945c.131.319.375.65.65.994-4.794-.406-1.637-3.4-.65-.994m138.269-16.875c-9.913 29.463-19.819 58.925-29.731 88.375-30.594-29.475-60.6-59.9-92.382-88.031-6.218-5.5-9.837-5.419-17.85-5.419h-523.137c-61.006 0-119.15-21.406-152.069-76.1-23.881-39.694-20.912-82.775-20.912-126.837v-334.007c0-9.418-.163-18.85.031-28.275.994-47.625 25.619-91.675 64.387-119.037 36.05-25.438 76.457-29.563 118.682-29.563h747.368c59.482 0 116.238 23.357 147.982 76.113 23.887 39.687 20.918 82.775 20.918 126.837v359.913c-1.231 79.637-65.456 143.35-143.875 150.337-37.175 3.313-75.468.619-112.762.619-3.169 0-5.675 2.169-6.65 5.075m286.631-189.469c0-124.4.275-248.806 0-373.212-.225-101.075-81.956-177.806-181.994-179.113h-715.581c-20.875 0-41.75-.062-62.619 0-48.45.157-95.112 16.1-130.937 49.4-37.188 34.557-54.931 81.425-54.931 131.55v379.788c0 37.269 2.481 72.737 21.131 106.4 32.194 58.112 95.312 91.787 160.894 92.487 63.237.682 126.518 0 189.762 0h292.644c18.912 0 38.569 1.494 57.506.188 1.288 1.475 3.6 3.031 4.669 4.05 7.019 6.687 14.037 13.387 21.056 20.081 18.238 17.388 36.481 34.781 54.719 52.175 9.937 9.475 19.875 18.95 29.812 28.425 3.9 3.713 9.882 1.888 11.538-3.044l34.262-101.862c70.144.325 142.325 6.781 201.219-39.313 38.175-29.875 62.919-74.437 66.419-122.95 1.075-14.925.431-30.093.431-45.05"/><path d="m994.371 584.656c-10.544 0-15.819 12.743-8.369 20.2l13.325 13.318c1.094 1.094 1.094 2.863 0 3.957l-13.325 13.318c-7.45 7.457-2.175 20.2 8.369 20.2 3.143 0 6.143-1.243 8.368-3.462l30.05-30.056c1.094-1.094 1.094-2.863 0-3.957l-30.05-30.05c-2.225-2.225-5.225-3.468-8.368-3.468"/><path d="m1053.2 584.656c-10.543 0-15.818 12.743-8.368 20.2l13.325 13.318c1.093 1.094 1.093 2.863 0 3.957l-13.325 13.318c-7.45 7.457-2.175 20.2 8.368 20.2 3.138 0 6.144-1.243 8.369-3.462l30.05-30.056c1.094-1.094 1.094-2.863 0-3.957l-30.05-30.05c-2.225-2.225-5.231-3.468-8.369-3.468"/><path d="m.362-.447v.088h.374v-.088zm.374.171h-.374v.086h.374zm0 .168h-.374v.209h-.089v-.499c-.053.062-.11.118-.173.169l-.061-.08c.117-.093.208-.198.274-.316h-.247v-.092h.293c.012-.029.025-.066.04-.109l.097.011c-.011.035-.022.068-.033.098h.483v.092h-.524c-.015.031-.032.063-.053.096h.456v.541c0 .055-.032.083-.096.085h-.112l-.023-.086c.041.003.076.005.105.005.025 0 .037-.011.037-.033z" transform="matrix(152.50625 0 0 152.50625 170.875 362.2725)"/><path d="m.154-.424c-.023.029-.054.063-.092.104l-.031-.101c.105-.117.181-.252.23-.405l.089.042c-.027.082-.061.156-.101.223v.664h-.095zm.673.002c.049.119.09.244.125.375l-.083.038c-.038-.144-.08-.272-.126-.385zm-.353-.192c-.029.072-.064.14-.105.203l-.082-.051c.075-.111.128-.231.159-.358l.089.019c-.011.04-.02.072-.028.095h.42v.062c-.017.065-.037.125-.059.18l-.091-.026c.021-.038.039-.079.052-.124zm-.013.71-.021-.09c.048.005.087.007.117.007.024 0 .036-.013.036-.039v-.515h.092v.539c0 .065-.032.098-.096.098zm.054-.484c-.035.138-.08.259-.136.362l-.089-.032c.053-.094.1-.212.14-.354z" transform="matrix(152.50625 0 0 152.50625 332.5625 362.2725)"/><path d="m.362-.447v.088h.374v-.088zm.374.171h-.374v.086h.374zm0 .168h-.374v.209h-.089v-.499c-.053.062-.11.118-.173.169l-.061-.08c.117-.093.208-.198.274-.316h-.247v-.092h.293c.012-.029.025-.066.04-.109l.097.011c-.011.035-.022.068-.033.098h.483v.092h-.524c-.015.031-.032.063-.053.096h.456v.541c0 .055-.032.083-.096.085h-.112l-.023-.086c.041.003.076.005.105.005.025 0 .037-.011.037-.033z" transform="matrix(152.50625 0 0 152.50625 494.1875 362.2725)"/><path d="m.052-.765h.898v.092h-.126v.661c0 .072-.034.108-.103.108h-.168l-.022-.092c.061.003.114.005.157.005.027 0 .041-.015.041-.045v-.637h-.677v-.092zm.516.222v.385h-.315v.082h-.091v-.467zm-.315.299h.225v-.214h-.225z" transform="matrix(152.50625 0 0 152.50625 655.875 362.2725)"/><path d="m.191-.234v.073h.208v-.073zm.208-.078v-.077h-.208v.077zm-.208.23v.187h-.092v-.576h.392v.465c0 .069-.032.104-.097.104h-.079l-.023-.089.071.004c.024 0 .036-.013.036-.039v-.056zm.477-.296c-.07 0-.105-.038-.105-.115v-.324h.094v.119c.109-.017.193-.033.253-.05l.031.084c-.085.02-.18.038-.284.053v.098c0 .033.012.05.037.05h.119c.016 0 .027-.005.034-.015.009-.013.014-.047.016-.101l.089.029c-.008.083-.021.132-.04.149-.019.015-.046.023-.081.023zm-.01.353c0 .019.012.028.035.028h.12c.015 0 .027-.005.034-.014.009-.013.014-.047.017-.102l.087.027c-.008.084-.021.134-.04.151-.017.015-.044.023-.08.023h-.164c-.069 0-.103-.031-.103-.093v-.337h.094v.11c.091-.009.175-.026.252-.049l.031.085c-.084.023-.178.039-.283.05v.121zm-.24-.725c.057.077.103.145.136.206l-.078.056c-.011-.023-.022-.043-.033-.062-.104.016-.229.028-.375.036l-.026-.079c.017-.006.031-.014.043-.024.062-.069.109-.137.14-.204l.091.027c-.041.081-.088.146-.141.197.061-.003.136-.011.227-.022-.015-.023-.034-.052-.057-.085z" transform="matrix(152.50625 0 0 152.50625 817.5 362.2725)"/><path d="m.104-.714h.125l-.023.512h-.079zm.062.571c.022 0 .04.007.053.02.014.013.021.03.021.051s-.007.038-.021.052c-.015.013-.033.02-.053.02s-.037-.007-.051-.021c-.015-.014-.022-.031-.022-.051 0-.021.007-.038.022-.051.013-.013.03-.02.051-.02z" transform="matrix(152.50625 0 0 152.50625 979.1875 362.2725)"/><path d="m.917-.706v.794h-.093v-.062h-.154v.062h-.093v-.794zm-.247.64h.154v-.548h-.154zm-.466-.751h.096v.168h.201c0 .34-.005.55-.015.63-.01.076-.06.114-.149.114-.012 0-.038-.002-.078-.005l-.024-.087c.038.003.067.005.087.005.042 0 .067-.023.075-.07.005-.043.009-.208.011-.494h-.108v.027c-.003.292-.068.505-.193.64l-.077-.068c.114-.118.172-.309.174-.572v-.027h-.151v-.093h.151z" transform="matrix(113.631875 0 0 113.631875 99.6875 512.71)"/><path d="m.445-.581c-.044-.081-.098-.144-.161-.189l.079-.05c.084.059.158.171.223.337.095.233.218.399.37.497l-.059.075c-.157-.094-.288-.274-.394-.541l-.007-.019c-.068.242-.203.429-.405.561l-.057-.081c.208-.137.345-.333.411-.59z" transform="matrix(113.631875 0 0 113.631875 220.125 512.71)"/><path d="m.13-.714h.322v-.105h.092v.105h.318v.087h-.318v.134h.387v.089h-.864v-.089h.385v-.134h-.322zm.345.333h.091v.12h.275v.089h-.275v.171c.054.005.107.007.158.007.091 0 .168-.002.231-.006l-.028.096c-.054 0-.12-.001-.197-.002-.171-.001-.289-.017-.353-.048-.048-.024-.092-.07-.131-.139-.032.069-.076.133-.131.194l-.073-.064c.102-.115.159-.243.171-.382l.093.012c-.004.054-.013.105-.028.154.041.076.087.124.139.145.017.007.037.013.058.018z" transform="matrix(113.631875 0 0 113.631875 340.625 512.71)"/><path d="m.124-.187h.327v-.063h.081l-.059-.053c.06-.061.091-.139.093-.232v-.254h.344v.456c0 .059-.03.089-.089.089h-.089l-.023-.085c.04.003.068.004.085.004s.026-.013.026-.039v-.045h-.183c-.018.063-.049.118-.092.165v.057h.332v.088h-.332v.081h.397v.087h-.884v-.087h.393v-.081h-.327zm-.055-.518h.105c-.016-.03-.032-.057-.048-.081l.075-.037c.021.033.043.073.066.118h.059c.021-.037.039-.078.054-.122l.085.029c-.013.032-.029.063-.047.093h.109v.083h-.178v.086c-.001.018-.002.04-.005.065h.074v-.108h.083v.187h-.176c-.011.027-.023.051-.036.07-.036.049-.095.087-.178.114l-.047-.074c.075-.025.126-.056.153-.095l.009-.015h-.128v-.187h.082v.108h.074c.003-.019.006-.04.007-.065v-.086h-.192zm.585.149v.015c0 .014-.001.033-.004.057h.17v-.072zm.166-.075v-.074h-.166v.074z" transform="matrix(113.631875 0 0 113.631875 461.0625 512.71)"/><path d="m.618-.813h.096v.286h.221v.093h-.221v.41h.244v.093h-.59v-.093h.25v-.41h-.215v-.093h.215zm-.432.523c-.036.036-.075.071-.117.105l-.03-.1c.132-.107.221-.212.266-.313h-.242v-.091h.141c-.013-.034-.029-.071-.048-.11l.09-.025c.023.055.039.1.049.135h.106v.08c-.025.071-.065.141-.118.21.06.035.112.071.157.11l-.054.082c-.034-.035-.07-.066-.107-.094v.402h-.093z" transform="matrix(113.631875 0 0 113.631875 581.5 512.71)"/><path d="m.323-.653h.464v.254h-.464zm.375.17v-.086h-.285v.086zm-.452.14h.289v.28h-.289zm.205.199v-.118h-.121v.118zm.149-.199h.289v.28h-.289zm.205.199v-.118h-.122v.118zm-.701-.644h.809v.091h-.716v.676h.736v.091h-.829v-.858z" transform="matrix(113.631875 0 0 113.631875 701.9375 512.71)"/><path d="m.917-.788v.892h-.091v-.037h-.652v.037h-.091v-.892zm-.743.771h.652v-.69h-.652zm.058-.644h.221v-.028h.088v.028h.224v.06h-.224v.034h.188v.2c.023.026.044.052.062.078l-.056.039c-.013-.019-.02-.031-.023-.034l-.031.002v.045h.098v.07h-.098v.05c0 .049-.028.074-.084.074h-.097l-.017-.075c.04.003.069.004.087.004.019 0 .029-.007.029-.022v-.031h-.27c.04.015.079.032.117.053l-.039.06c-.04-.027-.081-.049-.124-.065l.032-.048h-.096v-.07h.38v-.04c-.137.006-.256.011-.358.014l-.009-.06c.1-.001.174-.003.222-.004v-.031h-.186v-.209h.185v-.034h-.221zm.308.303v.029l.133-.005c-.01-.013-.016-.021-.019-.024zm.111-.047v-.036h-.121v.036zm-.187 0v-.036h-.117v.036zm-.117-.078h.117v-.033h-.117zm.183-.033v.033h.121v-.033z" transform="matrix(113.631875 0 0 113.631875 822.375 512.71)"/><path d="m.073-.786h.29v.071c-.02.073-.045.154-.074.242.046.082.071.155.075.218 0 .051-.009.088-.027.109-.027.028-.074.043-.14.044l-.029-.095c.022.003.039.005.05.005.02-.002.034-.007.043-.016.007-.009.011-.025.011-.047 0-.059-.025-.128-.076-.205.031-.087.056-.167.075-.241h-.104v.795h-.094zm.306.09h.126c-.014-.033-.03-.064-.048-.093l.089-.033c.018.034.035.076.052.126h.11c.019-.037.038-.079.055-.125l.089.031c-.015.035-.032.067-.049.094h.134v.092h-.242c-.02.026-.043.051-.068.074.029.029.054.064.073.105.061-.029.115-.07.162-.121l.068.056c-.03.032-.062.06-.095.083.024.119.068.224.132.316l-.065.081c-.062-.107-.106-.227-.132-.358l-.041.019c.021.068.031.144.031.229 0 .101-.014.163-.041.185-.027.021-.072.032-.133.035l-.049.001-.029-.085h.074c.028 0 .049-.007.064-.02.015-.016.022-.055.022-.116 0-.026-.001-.05-.003-.072-.078.078-.17.144-.275.197l-.054-.081c.133-.062.237-.135.312-.219-.006-.023-.013-.045-.021-.064-.053.061-.122.112-.207.153l-.046-.08c.089-.039.161-.088.214-.147-.012-.018-.023-.032-.032-.041-.051.033-.107.063-.169.09l-.049-.081c.109-.038.191-.084.246-.139h-.205v-.092z" transform="matrix(113.631875 0 0 113.631875 942.8125 512.71)"/><path d="m.104-.714h.125l-.023.512h-.079zm.062.571c.022 0 .04.007.053.02.014.013.021.03.021.051s-.007.038-.021.052c-.015.013-.033.02-.053.02s-.037-.007-.051-.021c-.015-.014-.022-.031-.022-.051 0-.021.007-.038.022-.051.013-.013.03-.02.051-.02z" transform="matrix(113.631875 0 0 113.631875 1063.3125 512.71)"/></g></g></svg>