<svg viewBox="0 0 150 60" xmlns="http://www.w3.org/2000/svg" fill-rule="evenodd" clip-rule="evenodd" stroke-linejoin="round" stroke-miterlimit="2"><path d="M133.598 59.955l-117.195-1.02C7.344 58.935 0 51.591 0 42.533V16.402C0 7.344 7.344 0 16.403 0l117.195 1.02C142.657 1.02 150 8.364 150 17.422v26.131c0 9.058-7.343 16.402-16.402 16.402" fill="#fff" fill-rule="nonzero"/><path d="M105.649 20.889c-2.548 0-3.824 3.081-2.023 4.882l3.22 3.218a.678.678 0 0 1 0 .956l-3.22 3.219c-1.801 1.802-.525 4.882 2.023 4.882.758 0 1.485-.301 2.022-.838l7.262-7.263a.676.676 0 0 0 0-.956l-7.262-7.263a2.862 2.862 0 0 0-2.022-.837m14.215 0c-2.547 0-3.824 3.081-2.022 4.882l3.219 3.218a.674.674 0 0 1 0 .956l-3.219 3.219c-1.802 1.802-.525 4.882 2.022 4.882.758 0 1.486-.301 2.023-.838l7.262-7.263a.676.676 0 0 0 0-.956l-7.262-7.263a2.864 2.864 0 0 0-2.023-.837m-80.635-2.307h22.752v2.335H51.825v1.811h8.03v10.785h-8.397c-.28 1.505-.726 2.747-1.339 3.727 3.569 1.399 7.812 2.178 12.727 2.335l-.629 2.414c-5.266-.245-9.832-1.224-13.698-2.939-1.89 1.47-4.864 2.441-8.922 2.913l-1.076-2.283c3.376-.21 5.895-.822 7.557-1.837a24.684 24.684 0 0 1-3.857-2.65l1.915-1.312c1.05.822 2.275 1.6 3.674 2.335.49-.77.866-1.671 1.129-2.703h-7.532V22.728h7.951v-1.811H39.229v-2.335zm18.159 12.753v-2.23h-5.563v.63c0 .559-.026 1.093-.079 1.6h5.642zm-8.108 0a16.22 16.22 0 0 0 .078-1.6v-.63h-5.484v2.23h5.406zm-5.406-4.277h5.484v-2.204h-5.484v2.204zm7.951-2.204v2.204h5.563v-2.204h-5.563zm28.446-6.141c-.49.525-.84.892-1.05 1.102h7.007v1.942c-2.852 5.056-8.109 7.899-15.772 8.529l-1.049-2.257c2.239-.14 4.207-.437 5.904-.892a26.987 26.987 0 0 0-2.309-2.441l2.152-1.023c.909.892 1.74 1.784 2.493 2.676 2.431-1.032 4.338-2.475 5.72-4.329h-7.059c-2.029 1.189-4.426 2.09-7.19 2.702l-1.469-2.283c4.653-.839 8.117-2.466 10.391-4.88l2.231 1.154zM77.62 33.959c.98.98 1.872 1.986 2.677 3.018 2.607-1.172 4.662-2.729 6.167-4.671h-7.19c-2.31 1.067-4.986 1.898-8.03 2.493l-1.496-2.23c5.756-.56 9.963-2.248 12.622-5.065l2.126 1.155c-.455.472-.963.936-1.522 1.39h6.691v1.942c-3.761 6.141-10.75 9.342-20.967 9.605l-.997-2.388c3.971 0 7.383-.446 10.234-1.339-.874-1.119-1.714-2.073-2.519-2.86l2.204-1.05z" fill="#004367" fill-rule="nonzero"/><path d="M131.04 53.991l-59.604-.543-38.797-.352c-7.546-.069-18.45 1.628-23.786-4.9-4.2-5.137-2.954-13.04-2.954-19.233 0-6.914-1.264-15.108 4.775-20.045C16.446 4.2 27.132 6.039 34.056 6.101l79.279.722c7.948.073 21.455-2.077 27.376 4.462 5.023 5.546 3.391 15.278 3.391 22.193 0 2.466.097 4.955 0 7.419-.293 7.395-5.674 12.762-13.062 13.094-2.62.117-2.635 4.207 0 4.088 9.643-.432 16.724-7.536 17.15-17.15.268-6.03 0-12.133 0-18.17 0-7.554-2.334-14.56-9.643-18.13-3.488-1.702-7.087-1.729-10.831-1.764l-81.492-.741c-8.927-.082-17.902-.44-26.829-.244-7.187.157-13.659 3.987-16.36 10.843-2.271 5.765-1.224 13.208-1.224 19.249 0 6.758-.609 13.588 4.151 19.115 3.665 4.254 8.731 5.889 14.184 5.984 10.206.176 20.418.185 30.626.278l80.268.73c2.632.024 2.634-4.065 0-4.088" fill="#004367" fill-rule="nonzero"/></svg>