<svg clip-rule="evenodd" fill-rule="evenodd" stroke-linejoin="round" stroke-miterlimit="2" viewBox="0 0 140 211" xmlns="http://www.w3.org/2000/svg"><g fill-rule="nonzero"><path d="M70 99.819c-18.169 0-32.906-14.731-32.906-32.906 0-18.169 14.737-32.9 32.906-32.9 18.175 0 32.906 14.731 32.906 32.9 0 18.175-14.731 32.906-32.906 32.906M70 0C31.338 0 0 31.338 0 70c0 38.663 70 140.669 70 140.669S140 108.663 140 70c0-38.662-31.337-70-70-70" fill="#77c1d3"/><path d="M11.998 76.149c0-33.587 27.225-60.806 60.806-60.806 19.632 0 37.088 9.3 48.207 23.738-10.5-18.232-30.182-30.5-52.732-30.5-33.581 0-60.806 27.225-60.806 60.806 0 13.956 4.7 26.806 12.606 37.069-5.137-8.925-8.081-19.269-8.081-30.307" fill="#fffdfd" opacity=".8"/><path d="M53.493 183.894c9.538 15.982 16.506 26.769 16.506 26.769s70-102.006 70-140.662a70.99 70.99 0 0 0-.275-6.025c-2.762 10.743-6.668 21.2-11.462 31.181-13.25 27.581-32.844 45.25-53.713 67.631-6.731 7.206-13.731 14.344-21.056 21.106" fill="#515151" opacity=".2"/></g></svg>