<?xml version="1.0" encoding="UTF-8" standalone="no"?><!DOCTYPE svg PUBLIC "-//W3C//DTD SVG 1.1//EN" "http://www.w3.org/Graphics/SVG/1.1/DTD/svg11.dtd"><svg width="100%" height="100%" viewBox="0 0 304 335" version="1.1" xmlns="http://www.w3.org/2000/svg" xmlns:xlink="http://www.w3.org/1999/xlink" xml:space="preserve" xmlns:serif="http://www.serif.com/" style="fill-rule:evenodd;clip-rule:evenodd;stroke-linejoin:round;stroke-miterlimit:2;"><path d="M146.159,315.38l17.641,-109.216l43.252,-4.111c-1.48,4.833 -2.713,9.953 -3.743,15.218l-16.389,0.288l-17.642,109.216c-0.463,2.871 0.457,5.026 2.319,6.229l-0.001,0.003c-0,-0 -22.858,-11.202 -23.369,-11.574c-1.69,-1.233 -2.509,-3.316 -2.068,-6.053" style="fill:#7dadb5;fill-rule:nonzero;"/><path d="M180.235,333.299l21.23,-6.973c7.912,-2.605 14.947,-10.598 14.734,-16.757c-0.679,-19.52 -7.108,-74.664 0.226,-91.157l-29.506,-0.852l-17.64,109.215c-0.957,5.921 3.936,8.834 10.956,6.524" style="fill:#caf1fc;fill-rule:nonzero;"/><path d="M214.021,227.953c0.545,-3.858 1.327,-7.116 2.404,-9.541l-29.506,-0.852l-1.391,8.615l28.493,1.778Z" style="fill:#0c6e91;fill-rule:nonzero;"/><path d="M158.948,247.493l20.843,-3.241l4.794,-29.674l-13.72,2.134l-11.917,30.781Z" style="fill:#005f89;fill-rule:nonzero;"/><path d="M140.587,238.468l18.361,9.024l11.917,-30.78l-18.361,-9.025l-11.917,30.781Z" style="fill:#0c6e91;fill-rule:nonzero;"/><path d="M275.498,181.918c-1.391,7.353 3.442,14.442 10.795,15.833c7.352,1.391 14.44,-3.442 15.832,-10.794c1.391,-7.353 -3.442,-14.442 -10.795,-15.834c-7.352,-1.39 -14.441,3.442 -15.832,10.795" style="fill:#005f89;fill-rule:nonzero;"/><path d="M192.383,165.78c-5.229,27.63 12.932,54.267 40.562,59.495c27.631,5.228 54.267,-12.932 59.495,-40.563c5.228,-27.63 -12.932,-54.266 -40.563,-59.495c-27.63,-5.228 -54.266,12.933 -59.494,40.563" style="fill:#caf1fc;fill-rule:nonzero;"/><path d="M238.104,210.866c15.073,-17.143 21.365,-48.573 14.055,-70.197c-3.633,-10.748 -9.943,-17.046 -17.221,-18.564l11.343,2.266c7.342,1.462 13.714,7.778 17.372,18.599c7.311,21.626 1.018,53.055 -14.055,70.197c-7.405,8.424 -15.549,11.82 -22.789,10.542l-0.005,0.01l-0.218,-0.045c-0.115,-0.022 -0.229,-0.045 -0.344,-0.07l-10.503,-2.129c7.132,1.073 15.103,-2.35 22.365,-10.609" style="fill:#005f89;fill-rule:nonzero;"/><path d="M232.742,121.804c8.194,0.62 15.423,7.05 19.417,18.865c7.311,21.624 1.018,53.054 -14.055,70.197c-7.261,8.259 -15.233,11.682 -22.366,10.609c-0,0 -79.069,-14.579 -136.379,11.395c0,-0 32.773,-172.676 31.713,-181.254c82.991,61.322 121.67,70.188 121.67,70.188" style="fill:#caf1fc;fill-rule:nonzero;"/><path d="M32.463,61.578c-28.61,32.541 -40.555,92.196 -26.678,133.243c13.875,41.048 48.317,47.945 76.928,15.404c28.609,-32.54 40.554,-92.196 26.677,-133.243c-13.875,-41.048 -48.317,-47.945 -76.927,-15.404" style="fill:#0c6e91;fill-rule:nonzero;"/><path d="M75.725,41.57l0.004,-0.019l0.462,0.092c-0.154,-0.029 -0.311,-0.046 -0.466,-0.073" style="fill:#ad2d2d;fill-rule:nonzero;"/><path d="M82.712,210.225c28.61,-32.541 40.555,-92.196 26.678,-133.243c-6.895,-20.398 -18.872,-32.354 -32.686,-35.236l21.53,4.302c13.936,2.774 26.029,14.761 32.974,35.302c13.875,41.047 1.931,100.703 -26.679,133.243c-14.055,15.987 -29.514,22.432 -43.255,20.01l-0.011,0.016l-0.413,-0.083c-0.218,-0.042 -0.436,-0.086 -0.654,-0.133l-19.936,-4.041c13.538,2.037 28.669,-4.461 42.452,-20.137" style="fill:#005f89;fill-rule:nonzero;"/><path d="M36.542,73.629c-23.971,27.265 -33.976,77.245 -22.354,111.646c7.756,22.973 23.209,33.178 39.777,29.304c-8.417,-4.457 -15.534,-13.488 -20.044,-26.844c-11.623,-34.401 -1.618,-84.381 22.354,-111.646c7.962,-9.056 16.457,-14.456 24.669,-16.409c-13.256,-7.032 -29.732,-2.736 -44.402,13.949" style="fill:#005f89;fill-rule:nonzero;"/><path d="M56.275,76.089c-23.971,27.265 -33.976,77.245 -22.354,111.646c4.509,13.356 11.628,22.387 20.044,26.843c8.212,-1.951 16.706,-7.351 24.669,-16.408c23.971,-27.264 33.977,-77.245 22.368,-111.634c-4.51,-13.355 -11.628,-22.387 -20.058,-26.856c-8.212,1.953 -16.707,7.353 -24.669,16.409" style="fill:#7dadb5;fill-rule:nonzero;"/><path d="M56.788,134.993c-4.379,23.139 7.645,45.579 27.895,55.335c32.144,-49.128 18.362,-96.657 18.362,-96.657c-0.692,0.051 -1.38,0.115 -2.065,0.194c-21.564,2.481 -39.945,18.679 -44.192,41.128" style="fill:#caf1fc;fill-rule:nonzero;"/><path d="M62.216,130.65c-2.353,2.675 -3.346,7.568 -2.198,10.938c0.931,2.789 3.019,3.651 5.046,2.369c-0.285,-0.422 -0.551,-0.922 -0.745,-1.532c-1.149,-3.37 -0.155,-8.262 2.185,-10.924c0.41,-0.466 0.839,-0.843 1.262,-1.104c-1.38,-1.944 -3.632,-1.929 -5.55,0.253" style="fill:#7dadb5;fill-rule:nonzero;"/><path d="M66.503,131.5c-2.34,2.663 -3.333,7.555 -2.184,10.925c0.195,0.61 0.459,1.11 0.745,1.531c0.424,-0.259 0.853,-0.636 1.263,-1.103c2.352,-2.676 3.32,-7.567 2.196,-10.938c-0.205,-0.595 -0.459,-1.111 -0.757,-1.518c-0.423,0.26 -0.852,0.638 -1.263,1.103" style="fill:#0c6e91;fill-rule:nonzero;"/><path d="M288.995,134.519l-0.154,0.119c0.017,-0.041 0.031,-0.081 0.047,-0.121c0.375,-0.895 1.131,-1.497 0.107,0.002m-9.816,-38.37c-0.094,-0.023 -0.2,-0.054 -0.318,-0.102c0.127,-0.04 0.254,-0.081 0.379,-0.129c0.009,0.004 0.014,0.008 0.022,0.012c-0.028,0.072 -0.055,0.145 -0.083,0.219m-5.665,14.91c-0.178,-0.013 -0.478,-0.101 -0.826,-0.285c0.119,-0.032 0.235,-0.071 0.353,-0.108c0.032,0.012 0.064,0.025 0.095,0.036c0.215,0.075 0.352,0.141 0.44,0.195c-0.021,0.054 -0.041,0.108 -0.062,0.162m-0.847,24.096c-0.288,0.677 -0.965,1.318 -0.066,-0.111c0.06,-0.06 0.12,-0.119 0.18,-0.179c-0.039,0.097 -0.074,0.195 -0.114,0.29m-1.736,-1.366c-0.042,-0.042 -0.084,-0.085 -0.127,-0.127c0.056,0.023 0.113,0.042 0.169,0.065c0.799,0.33 1.616,1.102 -0.042,0.062m-41.129,-19.006l0.16,0c-0.035,-0.009 -0.098,0.027 -0.16,0m-27.222,-15.665c-0.19,-0.052 -0.152,-0.044 -0,-0m-2.47,-50.892c-0.561,-0.397 -1.034,-0.977 0,-0m-14.349,47.946c-0.006,0.015 -0.013,0.028 -0.02,0.043l-0,-0.074c0.452,-1.712 0.382,-0.732 0.02,0.031m-10.957,-15.332c0.17,0.146 0.214,0.193 0,0m127.509,8.64c-1.782,-2.931 -5.334,-4.07 -8.424,-5.128c-2.21,-0.755 -4.347,-0.88 -6.264,-0.349c-1.239,-1.127 -2.803,-1.926 -4.459,-2.573c-1.1,-0.429 -2.189,-0.89 -3.338,-1.148c-1.212,-0.273 -2.363,-0.283 -3.434,-0.081c-0.847,-0.609 -1.818,-1.086 -2.896,-1.382c-0.065,-0.017 -0.13,-0.028 -0.195,-0.043c-1.575,-2.406 -4.494,-3.953 -7.509,-5.097c-2.652,-1.009 -5.253,-1.296 -7.549,-0.586c-0.733,-0.422 -1.526,-0.746 -2.372,-0.941c-1.198,-0.276 -2.392,-0.295 -3.552,-0.096c-0.133,-0.1 -0.262,-0.202 -0.405,-0.3c-3.54,-2.438 -7.85,-4.042 -11.707,-5.935c-2.512,-1.232 -5.011,-2.498 -7.539,-3.698c-2.591,-1.23 -4.965,-1.66 -7.134,-1.204c-0.879,-2.68 -3.086,-4.724 -6.179,-6.241c-3.588,-1.76 -6.766,-2.556 -9.702,-1.442c-1.057,-0.44 -2.142,-0.773 -3.316,-0.835c-0.461,-0.45 -0.977,-0.88 -1.558,-1.284c-0.717,-0.498 -1.489,-0.929 -2.236,-1.384c-0.734,-2.832 -3.051,-5.07 -5.931,-6.847c-2.916,-1.799 -6.056,-3.028 -9.035,-2.384c-0.895,-0.555 -1.774,-1.176 -2.703,-1.673c-1.084,-3.152 -3.972,-4.915 -6.807,-6.664c-3.966,-2.447 -9.252,-6.804 -14.26,-7.485c-0.367,-0.64 -0.849,-1.267 -1.462,-1.876c-0.527,-0.606 -1.189,-1.16 -2.007,-1.634c-3.816,-2.211 -7.633,-4.423 -11.449,-6.635c-1.16,-0.672 -2.302,-1.429 -3.502,-2.029c-2.054,-1.029 -4.098,-1.345 -5.994,-1.03c-0.186,-0.137 -0.375,-0.274 -0.577,-0.409c-3.677,-2.437 -7.688,-4.537 -11.571,-6.638c-2.533,-1.369 -5.24,-3.284 -8.042,-4.066c-6.291,-1.757 -9.564,3.185 -12.102,7.895c-2.311,4.292 -4.845,8.448 -7.335,12.639c-2.195,3.696 -4.383,7.392 -6.539,11.11c-3.734,6.446 -9.498,14.417 -2.784,21.264c1.984,2.023 4.681,3.3 7.106,4.706c2.927,1.695 5.852,3.39 8.778,5.086c1.506,0.872 3.093,1.586 4.69,1.962c0.144,0.173 0.277,0.348 0.44,0.52c1.594,1.687 4.065,2.981 6.111,4.031c2.271,1.168 4.563,1.475 6.655,1.008c1.704,1.427 3.786,2.487 5.951,3.044c0.59,3.484 3.315,5.679 6.271,7.503c5.473,3.377 11.785,8.881 18.674,6.855c0.778,-0.23 1.486,-0.558 2.147,-0.951c0.247,0.295 0.51,0.576 0.78,0.845c-0.185,1.286 -0.137,2.593 0.22,3.859c0.869,3.076 3.122,4.784 5.679,6.361c4.876,3.01 10.174,5.903 15.936,2.871c0.826,-0.436 1.552,-0.954 2.211,-1.531c0.432,0.54 0.961,1.049 1.581,1.524c-0.21,0.729 -0.348,1.478 -0.348,2.258c-0,4.575 3.404,7.084 7.057,8.876c2.838,1.393 5.807,2.475 8.692,1.749c0.6,1.643 1.816,3.157 3.916,4.438c2.388,1.457 5.122,2.513 7.635,3.746c1.306,0.641 2.614,1.327 4.016,1.733c1.258,0.365 2.449,0.501 3.602,0.467c1.316,1.667 2.978,3.05 5.092,4.036c3.793,1.768 7.635,1.352 10.426,-1.166c0.106,0.073 0.203,0.151 0.315,0.221c0.727,0.454 1.506,0.775 2.31,0.997c1.141,2.48 3.515,4.316 6.451,5.465c3.631,1.419 7.301,2.614 10.82,0.483c3.426,0.762 7.286,-0.405 9.57,-3.494c0.09,0.037 0.173,0.077 0.263,0.113c0.709,0.275 1.423,0.541 2.134,0.81c-0.204,0.515 -0.395,1.032 -0.545,1.559c-1.835,6.423 2.63,9.977 7.965,12.004c5.837,2.217 11.201,1.154 13.726,-5.172c0.349,-0.873 0.673,-1.757 1.004,-2.637c2.597,-1.019 4.461,-3.273 5.801,-6.73c1.199,-3.096 1.15,-5.925 -0.088,-8.313c0.706,-1.857 1.411,-3.715 2.116,-5.572c1.856,-4.882 3.711,-9.765 5.565,-14.647c1.585,-4.172 3.817,-8.314 1.143,-12.708" style="fill:#005f89;fill-rule:nonzero;"/><path d="M114.645,25.808l0.9,-1.551c0.429,-0.739 1.013,-0.894 1.755,-0.465l4.138,2.399c0.711,0.412 0.793,1.092 0.245,2.037c-0.427,1.214 -1.131,1.813 -2.111,1.797c-1.564,-0.788 -3.05,-1.609 -4.456,-2.464c-0.742,-0.43 -0.899,-1.015 -0.471,-1.753m4.644,-7.911l0.822,-1.418c0.428,-0.739 1.014,-0.895 1.755,-0.465l4.094,2.372c0.712,0.413 0.845,1.004 0.4,1.772l-0.796,1.375c-0.429,0.738 -1.014,0.892 -1.755,0.464l-4.049,-2.347c-0.743,-0.43 -0.899,-1.014 -0.471,-1.753m-4.398,34.884l-9.882,-5.727c-0.981,-0.293 -1.509,-0.954 -1.585,-1.985c0.409,-0.908 0.875,-1.783 1.402,-2.623c0.428,-0.738 1.013,-0.894 1.755,-0.463l10.504,6.087c0.735,0.426 1.676,0.175 2.102,-0.559l1.488,-2.566c0.426,-0.738 0.175,-1.683 -0.561,-2.109l-10.502,-6.085c-0.742,-0.43 -0.949,-0.926 -0.624,-1.488c0.138,-0.237 0.933,-1.683 1.694,-3.257c0.186,-0.385 0.661,-0.531 1.03,-0.316l9.256,5.363c2.459,0.952 4.279,0.446 5.455,-1.518l9.197,-15.868c0.427,-0.738 0.175,-1.681 -0.562,-2.109l-9.611,-5.569c-0.712,-0.413 -8.018,-4.325 -8.018,-4.325c-0.139,-0.06 -0.288,-0.105 -0.433,-0.138c-0.479,-0.109 -0.973,0.106 -1.222,0.529c-0.985,1.678 -3.559,6.563 -3.923,7.19c-0,0 -9.596,16.148 -9.916,16.701l-6.629,11.44c-1.018,2.372 -0.514,4.202 1.511,5.496l15.218,8.817c0.889,0.517 1.592,0.331 2.105,-0.556l1.311,-2.261c0.426,-0.735 0.175,-1.675 -0.56,-2.101" style="fill:#fff;fill-rule:nonzero;"/><path d="M156.555,27.646l-14.952,-8.664c-0.86,-0.499 -1.556,-0.29 -2.086,0.626l-22.663,39.108c-0.513,0.886 -0.325,1.588 0.564,2.104l4.05,2.346c0.889,0.515 1.592,0.33 2.105,-0.557l19.759,-34.097c0.428,-0.738 1.013,-0.892 1.754,-0.463l2.269,1.316c0.743,0.428 0.899,1.014 0.471,1.752l-15.005,25.894c-0.585,1.557 -1.538,1.971 -2.861,1.244c-0.416,-0.241 -0.859,0.251 -1.332,1.479l-0.93,2.424c-0.365,0.972 -0.102,1.716 0.787,2.231c1.14,0.701 2.299,1.333 3.478,1.898c2.075,0.727 3.719,0.18 4.933,-1.643l20.223,-34.894c0.513,-0.888 0.326,-1.589 -0.564,-2.104" style="fill:#fff;fill-rule:nonzero;"/><path d="M188.565,48.357c0.485,-0.785 1.136,-0.925 1.953,-0.421l4.026,2.485c0.875,0.54 1.079,1.188 0.613,1.944c-0.485,0.785 -0.362,1.401 0.367,1.851l5.472,3.377c0.875,0.54 1.044,1.247 0.505,2.119l-1.346,2.18c-0.539,0.872 -1.244,1.039 -2.12,0.499l-5.471,-3.377c-0.73,-0.45 -1.318,-0.311 -1.766,0.416l-1.05,1.701c-0.449,0.726 -0.308,1.315 0.421,1.764l4.946,3.052c0.875,0.541 1.044,1.247 0.505,2.119l-1.372,2.224c-0.539,0.872 -1.055,1.155 -1.55,0.849c-0.555,-0.342 -1.057,-0.148 -1.505,0.578l-0.727,1.177c-0.448,0.728 -0.323,1.307 0.378,1.739c0.7,0.432 0.78,1.084 0.242,1.957l-1.587,2.572c-0.539,0.872 -1.143,1.102 -1.814,0.687c-0.729,-0.448 -1.319,-0.31 -1.767,0.416l-7.805,12.647c-1.264,1.788 -3.238,2.276 -5.919,1.465l-5.908,-3.645c-0.876,-0.541 -1.117,-1.293 -0.726,-2.253l0.781,-2.049c0.256,-0.806 0.033,-1.425 -0.667,-1.857c-2.761,-1.14 -3.721,-3.24 -2.883,-6.295c0.746,-2.189 1.537,-4.351 2.37,-6.485c0.399,-1.039 1.007,-1.306 1.824,-0.801l3.633,2.241c0.875,0.54 1.131,1.299 0.768,2.28l-1.271,3.431c-0.277,0.512 -0.126,1.148 0.455,1.906c0.296,0.304 0.22,0.819 -0.228,1.545l-0.996,1.615c-0.449,0.725 -0.308,1.314 0.422,1.765c1.476,1.392 2.86,1.142 4.15,-0.752l5.435,-8.809c0.448,-0.727 0.307,-1.316 -0.422,-1.766l-11.466,-7.075c-0.875,-0.539 -1.044,-1.247 -0.506,-2.119l1.588,-2.572c0.538,-0.872 1.246,-1.038 2.121,-0.498l11.467,7.074c0.728,0.45 1.318,0.312 1.765,-0.415l0.728,-1.178c0.447,-0.726 0.308,-1.316 -0.422,-1.764l-10.591,-6.536c-0.876,-0.54 -1.044,-1.246 -0.506,-2.119l1.373,-2.223c0.537,-0.873 1.245,-1.039 2.12,-0.499l4.814,2.971c0.729,0.449 1.319,0.312 1.767,-0.415l1.049,-1.701c0.449,-0.727 0.309,-1.317 -0.421,-1.766l-5.864,-3.618c-0.876,-0.54 -1.044,-1.247 -0.506,-2.119l1.346,-2.18c0.538,-0.873 1.245,-1.039 2.12,-0.498l5.864,3.618c0.729,0.45 1.328,0.298 1.794,-0.459m-19.927,-4.527c0.448,-0.727 0.308,-1.317 -0.421,-1.766l-1.883,-1.161c-0.729,-0.451 -1.318,-0.312 -1.766,0.414l-6.566,10.643c-0.449,0.726 -0.309,1.314 0.421,1.764l1.882,1.161c0.729,0.45 1.318,0.312 1.767,-0.414l6.566,-10.641Zm-11.141,18.054c0.485,-0.785 0.391,-1.385 -0.28,-1.798l-1.97,-1.216c-0.729,-0.449 -1.318,-0.31 -1.767,0.415l-6.673,10.816c-0.448,0.726 -0.309,1.314 0.421,1.766c0.683,0.461 1.445,0.891 2.286,1.289c0.893,-0.01 1.562,-0.541 2.009,-1.589l5.974,-9.683Zm4.204,-29.14c0.556,-0.902 1.256,-1.091 2.102,-0.569l13.306,8.209c0.876,0.54 1.043,1.247 0.505,2.119l-22.578,36.59c-1.231,1.93 -3.054,2.37 -5.469,1.322l-11.204,-6.913c-0.875,-0.539 -1.043,-1.247 -0.505,-2.118l23.843,-38.64Z" style="fill:#fff;fill-rule:nonzero;"/><path d="M232.33,97.518c0.792,-0.601 0.802,-1.092 0.033,-1.468l-7.756,-3.806c-0.77,-0.378 -1.343,-0.183 -1.718,0.584l-1.062,2.163l-6.771,13.801c-0.376,0.767 -0.267,1.202 0.333,1.305c0.659,0.058 1.34,-0.085 2.043,-0.426l4.128,-3.395c0.731,-0.555 1.098,-1.421 1.103,-2.599l0.077,-6.812c-0.027,-1.269 0.422,-1.675 1.345,-1.222l4.248,2.083c0.923,0.453 1.363,0.878 1.321,1.276c-0.042,0.474 0.44,0.31 1.444,-0.491l1.232,-0.993Zm-6.322,-28.56c0.466,-0.951 1.146,-1.209 2.038,-0.771l19.392,9.514c0.922,0.454 1.158,1.141 0.708,2.06l-4.109,8.374c-1.16,2.133 -2.941,2.762 -5.338,1.891l-6.233,-3.059c-0.923,-0.453 -1.236,-1.178 -0.939,-2.173c0.191,-0.857 0.429,-1.692 0.713,-2.505c0.297,-0.995 0.909,-1.266 1.832,-0.813c1.061,0.559 2.154,1.057 3.277,1.494c0.903,-0.052 1.518,-0.605 1.847,-1.663c0.346,-0.706 0.133,-1.246 -0.636,-1.624l-6.278,-3.081c-0.77,-0.378 -1.343,-0.183 -1.719,0.584l-4.244,8.649c-0.376,0.766 -0.18,1.339 0.59,1.717l12.973,6.365c0.924,0.453 1.16,1.14 0.709,2.059l-2.235,4.555c-0.452,0.92 -0.966,1.62 -1.544,2.097l-6.524,5.59c-0.669,0.586 -1.014,1.442 -1.034,2.574l-0.101,4.06c-0.24,0.797 0.044,1.62 0.849,2.472c0.54,0.303 0.591,0.898 0.154,1.789l-0.971,1.979c-0.451,0.918 -1.139,1.152 -2.062,0.699c-2.321,-0.873 -3.854,-2.575 -4.596,-5.109c-0.088,-1.07 -0.64,-1.266 -1.66,-0.586c-1.51,0.895 -3.133,0.973 -4.871,0.236l-9.28,-4.553c-0.924,-0.453 -1.159,-1.14 -0.708,-2.06l20,-40.761Zm-14.552,-8.169c0.435,-0.888 1.1,-1.115 1.992,-0.677l4.248,2.084c0.924,0.454 1.175,1.11 0.753,1.968c-0.437,0.89 -0.27,1.523 0.501,1.9l2.815,1.382c0.924,0.453 1.16,1.14 0.708,2.06l-1.129,2.3c-0.451,0.92 -1.138,1.154 -2.061,0.701l-2.817,-1.381c-0.77,-0.379 -1.342,-0.184 -1.718,0.583l-0.452,0.92c-0.377,0.767 -0.179,1.339 0.59,1.717l3.37,1.653c0.924,0.453 1.159,1.14 0.709,2.061l-0.949,1.932c-0.452,0.92 -1.139,1.154 -2.063,0.701l-16.251,-7.973c-0.923,-0.454 -1.159,-1.141 -0.707,-2.061l0.947,-1.932c0.453,-0.921 1.139,-1.155 2.063,-0.702l3.601,1.767c0.769,0.377 1.342,0.183 1.718,-0.583l0.452,-0.92c0.377,-0.767 0.179,-1.34 -0.589,-1.717l-2.863,-1.405c-0.923,-0.453 -1.16,-1.138 -0.708,-2.059l1.128,-2.3c0.451,-0.921 1.139,-1.153 2.063,-0.701l2.861,1.404c0.77,0.377 1.365,0.137 1.788,-0.722m-14.203,15.637c0.158,-1.179 0.667,-1.556 1.53,-1.133l3.508,1.721c0.924,0.454 1.299,1.208 1.124,2.264c-0.204,1.194 -0.362,2.411 -0.473,3.649c-0.129,0.965 0.176,1.628 0.914,1.99c0.832,0.408 1.626,0.19 2.385,-0.656c0.697,-0.8 1.441,-1.577 2.231,-2.331c0.804,-0.861 1.622,-1.087 2.453,-0.679l3.417,1.675c0.924,0.454 1.021,1.072 0.292,1.857l-2.458,2.675c-0.621,0.722 -0.687,1.204 -0.195,1.447c0.523,0.256 0.56,0.844 0.108,1.764l-1.128,2.301c-0.452,0.919 -1.139,1.153 -2.062,0.699l-2.816,-1.381c-0.77,-0.377 -1.344,-0.182 -1.719,0.585l-0.971,1.978c-0.376,0.767 -0.179,1.338 0.59,1.716l3.371,1.653c0.923,0.454 1.159,1.14 0.708,2.061l-1.152,2.346c-0.451,0.92 -1.139,1.154 -2.063,0.701l-3.369,-1.655c-0.77,-0.376 -1.343,-0.183 -1.719,0.585l-1.738,3.543c-0.452,0.919 -1.139,1.153 -2.063,0.7l-4.201,-2.062c-0.923,-0.453 -1.159,-1.14 -0.708,-2.059l1.738,-3.543c0.377,-0.767 0.18,-1.339 -0.59,-1.716l-3.601,-1.767c-0.924,-0.452 -1.158,-1.139 -0.708,-2.06l1.152,-2.346c0.451,-0.921 1.139,-1.155 2.062,-0.7l3.601,1.766c0.769,0.377 1.342,0.183 1.719,-0.583l0.97,-1.979c0.376,-0.766 0.18,-1.34 -0.589,-1.717l-3.047,-1.495c-0.924,-0.453 -1.161,-1.14 -0.709,-2.06l1.129,-2.301c0.451,-0.919 0.954,-1.243 1.509,-0.971c0.615,0.302 1.008,-0.113 1.184,-1.246c0.082,-1.101 0.21,-2.181 0.384,-3.236" style="fill:#fff;fill-rule:nonzero;"/><path d="M276.722,88.891c0.234,-1.192 0.813,-1.61 1.743,-1.257l3.222,1.224c0.96,0.365 1.324,1.051 1.088,2.059c-0.265,1.178 -0.481,2.374 -0.649,3.59c-0.421,1.01 -0.206,1.895 0.641,2.655c0.488,0.26 0.582,0.788 0.279,1.586l-0.838,2.203c-0.364,0.959 -1.027,1.255 -1.988,0.89c-1.639,-0.513 -2.747,-1.025 -3.323,-1.536c-1.456,-1.284 -1.906,-3.045 -1.348,-5.282c0.342,-2.062 0.734,-4.107 1.173,-6.132m-5.827,14.615c0.203,-1.018 0.786,-1.346 1.748,-0.98l3.173,1.205c0.961,0.366 1.34,1.057 1.137,2.076l-0.698,3.573c-0.421,1.011 -0.103,1.862 0.955,2.556c0.457,0.246 0.532,0.769 0.229,1.566l-0.837,2.204c-0.364,0.958 -1.026,1.255 -1.989,0.889c-1.734,-0.548 -2.89,-1.078 -3.466,-1.59c-0.888,-0.558 -1.421,-1.618 -1.597,-3.184c-0.02,-0.812 0.176,-2.198 0.593,-4.161c0.195,-1.385 0.447,-2.771 0.752,-4.154m-1.237,-16.148c0.513,-1.156 1.185,-1.577 2.02,-1.261c0.897,0.341 1.116,0.972 0.655,1.894c-1.348,3.069 -2.488,5.195 -3.413,6.378c-0.563,0.517 -1.222,0.705 -1.975,0.566c-0.666,-0.181 -0.909,-0.747 -0.729,-1.704l0.222,-1.45c0.139,-1.043 0.36,-1.526 0.66,-1.449c0.97,0.15 1.548,-0.215 1.736,-1.094l0.824,-1.88Zm19.04,4.767c0.387,-1.023 1.03,-1.364 1.928,-1.023l4.471,1.699c0.961,0.365 1.26,1.027 0.896,1.985l-10.829,28.504c-0.303,0.799 0.026,1.381 0.987,1.745c0.93,0.354 1.212,1.009 0.849,1.967l-1.056,2.779c-0.364,0.958 -1.012,1.26 -1.941,0.908c-0.961,-0.366 -1.594,-0.149 -1.896,0.65l-2.567,6.754c-0.364,0.957 -1.027,1.254 -1.989,0.889l-4.375,-1.663c-0.96,-0.364 -1.259,-1.026 -0.896,-1.984l2.567,-6.755c0.303,-0.798 0.053,-1.35 -0.747,-1.654l-9.518,-3.616c-0.962,-0.366 -1.261,-1.027 -0.898,-1.986l1.056,-2.778c0.365,-0.958 1.028,-1.255 1.989,-0.889l9.519,3.617c0.8,0.304 1.353,0.056 1.656,-0.742l10.794,-28.407Zm-27.501,15.044c0.388,-1.023 1.063,-1.352 2.025,-0.987c1.024,0.39 1.356,1.065 0.991,2.022l-6.824,17.965c-0.365,0.958 -1.043,1.247 -2.036,0.87c-0.993,-0.377 -1.308,-1.045 -0.945,-2.003l6.789,-17.867Zm-8.658,-26.589c0.324,-1.047 0.902,-1.411 1.736,-1.095c0.897,0.341 1.195,1.002 0.896,1.985l-0.402,1.492c-0.582,1.241 -0.487,2.1 0.287,2.576c0.352,0.134 0.366,0.631 0.037,1.495l-0.545,1.437c-0.365,0.958 -1.156,1.206 -2.373,0.744c-1.13,-0.503 -1.574,-1.458 -1.334,-2.865c0.261,-1.362 0.635,-2.682 1.12,-3.96l0.578,-1.809Zm7.122,0.513c0.387,-1.022 1.03,-1.363 1.928,-1.023l4.423,1.681c0.962,0.365 1.26,1.028 0.896,1.985l-4.204,11.067c-0.304,0.798 -0.055,1.35 0.746,1.654l4.473,1.699c0.96,0.365 1.258,1.027 0.894,1.985l-1.055,2.778c-0.364,0.958 -1.027,1.254 -1.988,0.89l-4.471,-1.7c-0.801,-0.304 -1.354,-0.055 -1.657,0.742l-9.191,24.192c-0.364,0.958 -1.027,1.255 -1.988,0.889l-4.326,-1.644c-0.962,-0.365 -1.262,-1.027 -0.897,-1.984l9.191,-24.193c0.303,-0.798 0.054,-1.35 -0.747,-1.654l-4.135,-1.571c-0.961,-0.365 -1.259,-1.027 -0.895,-1.984l1.055,-2.778c0.365,-0.96 1.027,-1.255 1.988,-0.891l4.135,1.572c0.801,0.303 1.353,0.057 1.656,-0.742l4.169,-10.97Zm-14.233,20.085c0.388,-1.023 1.063,-1.352 2.026,-0.987c1.025,0.39 1.356,1.065 0.992,2.022l-6.552,17.247c-0.614,1.227 -1.787,1.805 -3.52,1.731c-0.654,-0.211 -0.877,-0.826 -0.673,-1.845l0.592,-3.009c0.236,-1.007 0.456,-1.489 0.661,-1.449c1.138,-0.006 1.774,-0.567 1.906,-1.687l4.568,-12.023Z" style="fill:#fff;fill-rule:nonzero;"/></svg>