<svg clip-rule="evenodd" fill-rule="evenodd" stroke-linejoin="round" stroke-miterlimit="2" viewBox="0 0 1440 228" xmlns="http://www.w3.org/2000/svg"><path d="m0 0h1440v227.505h-1440z" fill="none"/><g fill-rule="nonzero"><path d="m240.505 223.406-8.022-15.085 6.454-18.631v-11.407l-19.753 11.407v11.404l8.492 14.71c.144.248.349.411.577.513l-.005.007z" fill="#f9bd82"/><path d="m240.505 223.406-8.022-15.085 6.454-18.631v-11.407l-19.753 11.407v11.404l8.492 14.71c.144.248.349.411.577.513l-.005.007z" opacity=".2"/><path d="m325.423 89.459c0-3.777-2.652-8.37-5.923-10.259l-4.822-2.783c-3.271-1.889-8.574-1.889-11.845 0l-111.699 64.535c-3.27 1.888-5.923 6.481-5.923 10.258v57.768c0 3.777 2.653 8.37 5.923 10.258l4.823 2.784c3.271 1.889 8.574 1.889 11.845 0l23.786-13.742 8.475 14.681c.541.939 1.936.805 2.29-.218l8.958-25.858 68.19-39.398c3.271-1.888 5.922-6.481 5.922-10.258z" fill="#f9bd82"/><path d="m185.212 208.978c0 3.777 2.652 8.37 5.922 10.258l4.823 2.784c2.956 1.707 7.557 1.856 10.833.477-2.788 1.054-4.91-.518-4.91-3.896l-.001-57.767c0-1.89.664-3.982 1.735-5.839l-16.668-9.621c-1.072 1.855-1.734 3.947-1.734 5.836z" opacity=".2"/><path d="m325.229 87.776c-.691-2.515-2.984-3.316-5.719-1.741l-111.711 64.546c-1.63.939-3.122 2.542-4.173 4.42l-16.661-9.615c1.078-1.879 2.542-3.481 4.172-4.421l111.684-64.546c3.288-1.879 8.592-1.879 11.853 0l4.836 2.791c2.791 1.603 5.139 5.195 5.719 8.566" fill="#fff" opacity=".2"/><path d="m234.51 161.761c-4.364 2.521-7.903 8.651-7.903 13.691.001 5.041 3.539 7.083 7.903 4.563 4.366-2.52 7.904-8.649 7.905-13.69 0-5.041-3.539-7.084-7.905-4.564" fill="#fff"/><path d="m263.651 144.904c-4.365 2.52-7.904 8.65-7.904 13.689.001 5.041 3.54 7.084 7.904 4.563 4.365-2.519 7.904-8.649 7.904-13.689 0-5.041-3.538-7.085-7.904-4.563" fill="#fff"/><path d="m292.792 128.044c-4.365 2.521-7.904 8.651-7.903 13.691 0 5.041 3.538 7.083 7.903 4.563s7.903-8.649 7.904-13.689c0-5.042-3.538-7.084-7.904-4.565" fill="#fff"/></g></svg>