<svg clip-rule="evenodd" fill-rule="evenodd" stroke-linejoin="round" stroke-miterlimit="2" viewBox="0 0 900 165" xmlns="http://www.w3.org/2000/svg"><g fill-rule="nonzero"><path d="m819.532 82.461 80.468-82.461h-819.516l-80.484 82.461 80.484 82.475h819.516z" fill="#005f89"/><g fill="#fff"><path d="m286.726 28.624c.23-1.294 1.376-1.942 3.439-1.942h9.63c2.293 0 3.439 1.143 3.439 3.427.229 4.189.038 7.045-.573 8.568-1.834 4.112-4.395 6.397-7.681 6.854-3.974.228-7.948.304-11.922.228-1.911 0-2.866.952-2.866 2.856v5.826c0 1.904.955 2.856 2.866 2.856h19.374c2.292 0 3.439 1.142 3.439 3.427v6.74c0 2.284-1.147 3.427-3.439 3.427h-19.374c-1.911 0-2.866.952-2.866 2.856v7.653c0 1.904.955 2.856 2.866 2.856h17.081c2.293 0 3.439 1.143 3.439 3.427v39.868c-.306 5.179-3.21 8.073-8.712 8.682h-52.275c-2.293 0-3.439-1.143-3.439-3.427v-45.123c0-2.284 1.146-3.427 3.439-3.427h17.539c1.911 0 2.866-.952 2.866-2.856v-7.653c0-1.904-.955-2.856-2.866-2.856h-18.571c-2.293 0-3.439-1.143-3.439-3.427v-6.74c0-2.285 1.146-3.427 3.439-3.427h18.571c1.911 0 2.866-.952 2.866-2.856v-5.826c0-1.904-.955-2.856-2.866-2.856h-16.851c-2.293 0-3.63-1.142-4.013-3.427l-.917-5.711c-.458-2.894.459-4.341 2.752-4.341h41.957c1.528 0 2.751-1.219 3.668-3.656zm-88.614 3.199c-.765-2.513-.153-3.77 1.834-3.77h10.661c2.293 0 3.898 1.142 4.815 3.427l1.375 3.427c.765 3.808 2.446 6.131 5.045 6.968h5.502c2.293 0 3.439 1.143 3.439 3.427v6.626c0 2.285-1.146 3.427-3.439 3.427h-15.82c-3.286-.152-5.923-2.247-7.91-6.283zm1.146 36.44c-.917-3.046-.344-4.569 1.72-4.569h10.546c2.293 0 3.898 1.142 4.815 3.427 1.376 5.712 3.974 8.225 7.795 7.54h3.21c2.293 0 3.439 1.142 3.439 3.427v6.739c0 2.285-1.146 3.427-3.439 3.427h-15.82c-3.286-.152-5.923-2.246-7.91-6.282zm10.891 32.9c.611-2.437 1.987-3.656 4.126-3.656h11.235c2.293 0 3.172 1.143 2.637 3.427l-7.796 29.473c-1.834 3.579-4.585 5.521-8.254 5.826h-10.432c-2.292 0-3.63-1.143-4.012-3.427-.459-1.904-.802-3.808-1.032-5.712-.458-2.894.306-4.341 2.293-4.341 4.127.914 6.611-1.028 7.451-5.826 1.147-5.255 2.408-10.509 3.784-15.764zm76.233-.229c0-2.056-.878-3.084-2.636-3.084h-24.533c-1.91 0-2.866.952-2.866 2.856v19.191c0 1.904.956 2.856 2.866 2.856h21.896c4.203.381 5.961-1.485 5.273-5.597z"/><path d="m363.464 27.025c.153-.609 1.3-.914 3.44-.914h8.712c2.293 0 3.439 1.142 3.439 3.427.612 5.559-1.987 9.291-7.795 11.195h-5.847c-1.91 0-2.866 1.028-2.866 3.084 0 2.057.956 3.085 2.866 3.085h12.954c2.293 0 3.439 1.142 3.439 3.427v3.884c0 2.284-1.146 3.427-3.439 3.427h-12.954c-1.91 0-2.866.952-2.866 2.856 0 1.903.956 2.855 2.866 2.855h12.381c2.293 0 3.439 1.143 3.439 3.427v27.188c-.153 3.123-1.528 5.674-4.127 7.654-3.133 1.294-7.031 1.713-11.693 1.256-1.91 0-2.866 1.105-2.866 3.313 0 2.209.956 3.313 2.866 3.313h11.12c2.293 0 3.439 1.142 3.439 3.427v2.056c0 2.285-1.146 3.427-3.439 3.427h-11.12c-1.91 0-2.866 1.066-2.866 3.199 0 2.132.956 3.198 2.866 3.198h12.496c2.293 0 3.439 1.143 3.439 3.427v4.341c0 2.285-1.146 3.427-3.439 3.427h-49.409c-2.293 0-3.439-1.142-3.439-3.427v-4.341c0-2.284 1.146-3.427 3.439-3.427h13.986c1.91 0 2.866-1.066 2.866-3.198 0-2.133-.956-3.199-2.866-3.199h-12.152c-2.293 0-3.439-1.142-3.439-3.427v-2.056c0-2.285 1.146-3.427 3.439-3.427h12.152c1.91 0 2.866-1.104 2.866-3.313 0-2.208-.956-3.313-2.866-3.313h-12.266c-2.293 0-3.44-1.142-3.44-3.427v-32.671c0-2.284 1.147-3.427 3.44-3.427h12.266c1.91 0 2.866-.952 2.866-2.855 0-1.904-.956-2.856-2.866-2.856h-13.986c-2.293 0-3.439-1.143-3.439-3.427v-3.884c0-2.285 1.146-3.427 3.439-3.427h13.986c1.91 0 2.866-1.028 2.866-3.085 0-2.056-.956-3.084-2.866-3.084h-11.235c-2.292 0-3.63-1.142-4.012-3.427l-.459-3.427c-.458-2.589.459-3.884 2.752-3.884h27.971c2.599.685 4.586-.305 5.961-2.97zm26.826 2.742c0-2.361 1.108-3.542 3.324-3.542h9.63c2.292 0 3.439 1.143 3.439 3.427v2.513c0 1.904.955 2.856 2.866 2.856h19.373c2.293 0 3.44 1.143 3.44 3.427v88.874c-.077 5.103-3.019 8.073-8.828 8.911h-5.846c-2.293 0-3.63-1.143-4.012-3.427l-.917-5.712c-.535-2.894-.459-4.379.229-4.455 2.522-.457 3.515-2.247 2.98-5.369v-65.913c0-1.904-.955-2.856-2.866-2.856h-3.553c-1.911 0-2.866.952-2.866 2.856v75.509c-.23 3.122-2.255 5.94-6.076 8.453-1.911.914-4.891 1.218-8.942.914-2.292 0-3.63-1.143-4.012-3.427l-.917-5.712c-.535-2.894-.382-4.417.458-4.569 2.37-.762 3.401-2.742 3.096-5.941v-65.227c0-1.904-.726-2.856-2.179-2.856-1.375 0-2.063-1.142-2.063-3.427v-6.626c0-2.284.688-3.427 2.063-3.427 1.453 0 2.179-.952 2.179-2.856zm-44.938 46.15c0-2.437-.917-3.655-2.752-3.655h-2.522c-1.91 0-2.866 1.18-2.866 3.541 0 2.437.956 3.655 2.866 3.655h2.408c1.91 0 2.866-1.18 2.866-3.541zm25.449 0c0-2.437-.917-3.655-2.751-3.655h-2.637c-1.91 0-2.866 1.18-2.866 3.541 0 2.437.956 3.655 2.866 3.655h2.522c1.911 0 2.866-1.18 2.866-3.541zm-25.449 14.622c-.077-2.285-1.032-3.427-2.866-3.427h-2.408c-1.91 0-2.866 1.104-2.866 3.313 0 2.285.956 3.427 2.866 3.427h2.408c1.91 0 2.866-1.104 2.866-3.313zm25.449-1.371c.306-2.056-1.49-2.741-5.388-2.056-1.91 0-2.866 1.104-2.866 3.313 0 2.285.956 3.427 2.866 3.427l3.325-.114c1.605-1.067 2.293-2.59 2.063-4.57z"/><path d="m473.333 29.767c0-2.437 1.07-3.656 3.21-3.656h10.088c2.292 0 3.439 1.142 3.439 3.427v17.592c0 1.904.611 2.856 1.834 2.856 1.146 0 1.72 1.142 1.72 3.427v6.74c0 2.284-.574 3.427-1.72 3.427-1.223 0-1.834.952-1.834 2.856v66.37c0 2.284-1.147 3.427-3.439 3.427h-9.859c-2.293 0-3.439-1.143-3.439-3.427v-103.039zm48.835-1.828c0-1.219 1.07-1.828 3.21-1.828h10.547c2.293 0 3.439.533 3.439 1.599 0 1.219.955 1.828 2.866 1.828h16.278c2.293 0 3.44 1.142 3.44 3.427v2.97c0 2.285-1.147 3.427-3.44 3.427h-16.278c-1.911 0-2.866 1.181-2.866 3.541 0 2.361.955 3.542 2.866 3.542h14.788c2.293 0 3.439 1.142 3.439 3.427v1.142c0 2.285-1.146 3.427-3.439 3.427h-14.788c-1.911 0-2.866 1.028-2.866 3.084 0 2.057.955 3.085 2.866 3.085h17.539c2.293 0 3.44 1.142 3.44 3.427v3.884c0 2.284-1.147 3.427-3.44 3.427h-58.579c-2.293 0-3.439-1.143-3.439-3.427v-3.884c0-2.285 1.146-3.427 3.439-3.427h18.112c1.911 0 2.866-1.028 2.866-3.085 0-2.056-.955-3.084-2.866-3.084h-14.444c-2.293 0-3.439-1.142-3.439-3.427v-1.142c0-2.285 1.146-3.427 3.439-3.427h14.444c1.911 0 2.866-1.181 2.866-3.542 0-2.36-.955-3.541-2.866-3.541h-15.82c-2.292 0-3.439-1.142-3.439-3.427v-2.97c0-2.285 1.147-3.427 3.439-3.427h15.82c1.911 0 2.866-.533 2.866-1.599zm-66.489 7.653c0-2.284 1.146-3.427 3.439-3.427h2.98c2.293 0 3.439 1.143 3.439 3.427v92.187c0 2.285-1.146 3.427-3.439 3.427h-2.98c-2.293 0-3.439-1.142-3.439-3.427zm44.25 46.265c0-2.284 1.146-3.427 3.439-3.427h54.338c2.293 0 3.439 1.143 3.439 3.427v45.694c-.306 5.179-3.21 8.073-8.712 8.682h-16.623c-2.293 0-3.706-1.143-4.241-3.427l-.688-3.427c-.459-2.59.458-3.884 2.751-3.884 2.828.076 5.77 0 8.827-.229 1.987-1.599 2.637-3.617 1.949-6.054 0-2.361-.955-3.541-2.866-3.541h-22.01c-1.911 0-2.866.952-2.866 2.855v14.28c0 2.284-1.147 3.427-3.439 3.427h-9.859c-2.293 0-3.439-1.143-3.439-3.427zm25.449 12.223c0-2.056-.879-3.084-2.636-3.084h-3.21c-1.911 0-2.866.952-2.866 2.856v7.197c0 1.904.955 2.855 2.866 2.855h2.98c1.911 0 2.866-.951 2.866-2.855zm19.03 0c0-2.056-.879-3.084-2.637-3.084h-3.553c-1.911 0-2.866.952-2.866 2.856v7.197c0 1.904.955 2.855 2.866 2.855h3.324c1.911 0 2.866-.951 2.866-2.855z"/><path d="m598.104 29.538c0-2.208 1.108-3.313 3.324-3.313h10.547c2.293 0 3.439 1.066 3.439 3.199 0 2.208.956 3.313 2.866 3.313h6.993c2.293 0 3.439 1.142 3.439 3.427v5.711c0 2.285-1.146 3.427-3.439 3.427h-6.993c-1.91 0-2.866.952-2.866 2.856v2.285c0 1.904.956 2.856 2.866 2.856h8.369c2.292 0 3.439 1.142 3.439 3.427v4.798c0 2.284-1.147 3.427-3.439 3.427h-40.353c-2.292 0-3.439-1.143-3.439-3.427v-4.798c0-2.285 1.147-3.427 3.439-3.427h8.942c1.911 0 2.866-.952 2.866-2.856v-2.285c0-1.904-.955-2.856-2.866-2.856h-7.107c-2.293 0-3.44-1.142-3.44-3.427v-5.711c0-2.285 1.147-3.427 3.44-3.427h7.107c1.911 0 2.866-1.067 2.866-3.199zm37.143 2.056c0-2.361 1.108-3.541 3.324-3.541h48.148c2.292 0 3.439 1.142 3.439 3.427v20.791c-.229 5.407-3.172 8.415-8.827 9.024h-15.476c-2.293 0-3.63-1.142-4.013-3.427-.458-1.904-.802-3.808-1.031-5.712-.382-2.284.573-3.427 2.866-3.427 2.674.077 5.349 0 8.024-.228 1.758-.99 2.446-2.704 2.064-5.141 0-1.751-.956-2.627-2.866-2.627h-15.591c-1.911 0-2.866.952-2.866 2.856v21.476c0 1.904.955 2.856 2.866 2.856h32.213c2.293 0 3.439 1.142 3.439 3.427v11.309c0 2.285-.344 4.189-1.031 5.712l-7.566 17.592c-.765 1.827-.612 3.884.458 6.168l3.783 8.225c.306 1.828 1.681 3.199 4.127 4.113 1.376.076 2.064 1.218 2.064 3.427v4.912c0 2.284-1.147 3.427-3.44 3.427-5.502.533-10.241-1.371-14.215-5.712-1.222-2.056-2.522-1.904-3.897.457-2.14 3.275-5.312 5.026-9.515 5.255h-23.042c-2.293 0-3.439-1.143-3.439-3.427zm-50.212 43.181c-.84-2.513-.191-3.77 1.949-3.77h8.713c2.292 0 3.783 1.142 4.47 3.427.765 2.589 1.644 5.179 2.637 7.768.688 2.056 1.949 3.084 3.783 3.084 2.064 0 3.439-1.218 4.127-3.655.612-2.285 1.338-4.57 2.178-6.854.764-2.513 2.178-3.77 4.242-3.77h8.483c2.293 0 3.095 1.142 2.407 3.427l-2.292 7.768c-.535 2.056-.191 3.084 1.031 3.084 1.3 0 1.949 1.143 1.949 3.427v5.712c0 2.285-1.146 3.427-3.439 3.427h-6.993c-1.91 0-2.866.952-2.866 2.856v4.912c0 1.904.956 2.856 2.866 2.856h8.369c2.292 0 3.439 1.142 3.439 3.427v5.826c0 2.285-1.147 3.427-3.439 3.427h-8.369c-1.91 0-2.866.952-2.866 2.856v8.796c0 2.284-1.146 3.427-3.439 3.427h-10.432c-2.293 0-3.439-1.143-3.439-3.427v-8.796c0-1.904-.955-2.856-2.866-2.856h-8.942c-2.292 0-3.439-1.142-3.439-3.427v-5.826c0-2.285 1.147-3.427 3.439-3.427h8.942c1.911 0 2.866-.952 2.866-2.856v-4.912c0-1.904-.955-2.856-2.866-2.856h-7.566c-2.293 0-3.439-1.142-3.439-3.427v-5.712c0-2.284.688-3.427 2.063-3.427 1.529 0 1.911-1.218 1.147-3.655-.917-2.285-1.72-4.57-2.408-6.854zm90.908 7.768c.993-1.98.535-2.97-1.376-2.97h-19.259c-1.911 0-2.866.952-2.866 2.855v39.64c0 1.904.65 2.665 1.949 2.284 1.376-.533 2.598-1.485 3.668-2.855l4.93-10.853c.917-1.827.802-3.922-.344-6.283l-6.534-13.708c-1.3-2.513-.803-3.769 1.49-3.769h10.546c2.293 0 3.592.418 3.898 1.256.382.99 1.185.191 2.408-2.399z"/></g></g></svg>