<svg viewBox="0 0 200.7 125.4" xmlns="http://www.w3.org/2000/svg"><clipPath id="a"><path d="M7 .2h186.7c3.7 0 6.7 3 6.7 6.7v111.7c0 3.7-3 6.7-6.7 6.7H7c-3.7 0-6.7-3-6.7-6.7V6.9C.3 3.2 3.3.2 7 .2z"/></clipPath><g clip-path="url(#a)"><path d="M6.7 0H194c3.7 0 6.7 3 6.7 6.7v112c0 3.7-3 6.7-6.7 6.7H6.7c-3.7 0-6.7-3-6.7-6.7V6.7C0 3 3 0 6.7 0z" fill="#0078a9"/><path d="M62.3 59.8v-2l-1 2H53l-1-2.2v2.2H36.4l-1.8-4.3h-3.1l-1.9 4.3h-8V46.7l5.9-13.3h11.3l1.6 3.8v-3.8h13.8l3 6.4 3-6.4h43.6c1.3 0 2.6.3 3.8 1v-1h11v1.5c1.5-.9 3.2-1.5 4.9-1.5h19.4l1.7 3.8v-3.8H157l2.3 3.8v-3.8h11.9v26.5H159l-2.9-4.6v4.6h-15.2l-2.1-4.7h-3l-2 4.7h-9.2c-2.1-.1-4.2-.7-6-1.9v1.9h-18.3v-6.2c0-.9-.7-.8-.7-.8h-.7v7zm-9.2 5.7h24l3.5 3.9 3.6-3.9h18.5c1.2.1 2.3.4 3.4.9v-.9h16.5c1.3 0 2.7.4 3.8 1v-1h21.1v1c1.1-.6 2.3-1 3.5-1h13.8v1c1.1-.6 2.3-.9 3.6-1h10.8v25c-1.2 1.1-2.7 1.7-4.4 1.6h-14.2v-.8c-1.1.5-2.2.8-3.4.8h-37.9v-6.5c0-.6-.3-.8-.8-.8h-.5V92h-12v-7c-1.1.5-2.3.7-3.5.7h-4.2v6.4H83.7l-3.3-4-3.6 4H53.1z" fill="#fff"/><path d="M128.9 69.5H144v4h-10.5V77h10.2v3.6h-10.2v3.7H144v3.9h-15.1zm44.2 7.3c5.7.3 6.1 3.1 6.1 6.1 0 3.5-2.9 5.4-5.9 5.4h-9.7v-4h7.6c1.3 0 3.2 0 3.2-1.8 0-.9-.3-1.4-1.7-1.6-.6-.1-2.9-.2-3.2-.2-5.1-.1-6.3-2.7-6.3-5.8-.2-2.9 2-5.3 4.9-5.5H178.4v4h-7.1c-1.6 0-3.4-.2-3.4 1.6 0 1.2.9 1.4 1.9 1.5.4.2 2.9.3 3.3.3zm-17.4 0c5.7.3 6.1 3.1 6.1 6.1 0 3.5-2.9 5.4-5.9 5.4h-9.7v-4h7.6c1.3 0 3.2 0 3.2-1.8 0-.9-.3-1.4-1.7-1.6-.6-.1-2.9-.2-3.2-.2-5.1-.1-6.3-2.7-6.3-5.8-.2-2.9 2-5.3 4.9-5.5H161v4h-7.1c-1.6 0-3.4-.2-3.4 1.6 0 1.2.9 1.4 2 1.5zM101 69.5H84.8l-5.3 5.8-5.1-5.9H56.3v18.8h17.6l5.5-6.2 5.4 6.2h8.8V82h6.2c2.4 0 6.8-.1 6.8-6.7 0-4.7-3.3-5.8-5.6-5.8zM71.4 84.3H60.8v-3.7H71V77H60.8v-3.5H72l4.5 5.1zM89 86.5l-6.6-7.8 6.6-7.3zm10.4-8.4h-5.7v-4.5h5.8c1.9 0 2.5 1.2 2.5 2.2.1 1.2-.9 2.3-2.1 2.4-.1-.1-.3-.1-.5-.1zm23.8 1.7c2.1-.8 3.4-3 3.2-5.2 0-4-3.3-5-5.5-5H109v18.8h4.6v-6.6h6c1.6 0 2.2 1.6 2.3 3.2l.1 3.4h4.5l-.2-3.9c0-3-.8-4.5-3.1-4.7zm-4-2h-5.7v-4.3h5.8c1.9 0 2.5 1.2 2.5 2.2 0 1.3-.7 2.1-2.6 2.1zm-8.4-40.7h4.6v18.8h-4.6zm-37.7 0h15.1v4H77.7v3.5h10.2v3.6H77.7V52h10.5v3.9H73.1zm32.1 10.2c2.1-.8 3.4-3 3.2-5.2 0-4-3.3-5-5.5-5h-12v18.8h4.6v-6.6h6c1.6 0 2.2 1.6 2.3 3.2l.1 3.4h4.5l-.2-3.9c0-3-.8-4.4-3-4.7zm-4-1.9h-5.7v-4.3h5.8c1.2-.2 2.3.7 2.5 1.9v.3c0 1.2-.7 2.1-2.6 2.1zm-38.8-8.3l-5.7 12.6-5.6-12.6h-7.2v18.1l-8-18.1h-6.1l-8.2 18.8h4.9l1.8-4.2h9.2l1.8 4.2h9.3V42l6.2 13.9H59l6.3-13.7v13.7h4.6V37.1zM29.9 47.6l2.7-6.6 2.9 6.6zM163 37.1v13l-7.8-13h-6.8v17.6l-7.9-17.6h-6.1L128 51.6s-2.7 0-3-.1c-1.1-.2-2.8-1-2.9-4.3v-1.4c0-4.4 2.4-4.7 5.5-4.7h2.9V37h-6c-2.1 0-6.7 1.6-6.8 9.3-.1 5.2 2.2 9.5 7.3 9.5h6.1l1.8-4.2h9.2l1.8 4.2h9.1V42.1l8.3 13.8h6.3V37.1zm-28.3 10.6l2.8-6.6 2.9 6.6z" fill="#0078a9"/></g></svg>