<svg xmlns="http://www.w3.org/2000/svg" xmlns:xlink="http://www.w3.org/1999/xlink" viewBox="0 0 200.7 125.4"><defs><path id="a" d="M7 .2h186.7c3.7 0 6.7 3 6.7 6.7v111.7c0 3.7-3 6.7-6.7 6.7H7c-3.7 0-6.7-3-6.7-6.7V6.9C.3 3.2 3.3.2 7 .2z"/></defs><clipPath id="b"><use xlink:href="#a" overflow="visible"/></clipPath><g clip-path="url(#b)"><path d="M6.7 0H194c3.7 0 6.7 3 6.7 6.7v112c0 3.7-3 6.7-6.7 6.7H6.7c-3.7 0-6.7-3-6.7-6.7V6.7C0 3 3 0 6.7 0z" fill="#F9F9F9"/><path d="M124.4 98.7l1.8-.1 1.8-.1 1.8-.2 1.8-.3 1.7-.4 1.7-.5 1.7-.6 1.6-.6 1.6-.7 1.6-.8 1.5-.9 1.5-.9 1.4-1 1.4-1.1 1.3-1.1 1.2-1.2 1.2-1.3 1.1-1.3 1.1-1.4 1-1.4.9-1.5.9-1.5.8-1.6.7-1.6.7-1.7.6-1.7.5-1.7.4-1.7.3-1.8.2-1.8.1-1.8v-3.7l-.1-1.8-.2-1.8-.3-1.8-.4-1.7-.5-1.7-.6-1.7-.6-1.6-.7-1.6-.8-1.6-.9-1.6-.9-1.5-1-1.4-1.1-1.3-1.1-1.3-1.2-1.2-1.2-1.2-1.3-1.1-1.3-1-1.4-1-1.5-.9-1.5-.9-1.6-.8-1.6-.7-1.6-.6-1.7-.6-1.7-.5-1.7-.4-1.8-.3-1.8-.2-1.8-.1h-3.6l-1.8.1-1.8.2-1.8.3-1.7.4-1.7.5-1.7.6-1.6.6-1.6.7-1.5.8-1.5.9-1.4.9-1.4 1-1.4 1.1-1.3 1.1-1.6 1.2-1.2 1.2-1.1 1.3-1.1 1.3-1 1.4-.9 1.6-.9 1.5-.8 1.6-.7 1.6-.7 1.6-.5 1.7-.5 1.7-.4 1.7-.3 1.8-.2 1.8-.1 1.8v3.7l.1 1.8.2 1.8.3 1.8.4 1.7.5 1.7.5 1.6.7 1.6.7 1.6.8 1.6.9 1.5.9 1.5 1 1.4 1.1 1.4 1.1 1.3 1.2 1.3 1.2 1.2 1.3 1.1 1.4 1.1 1.4 1 1.4.9 1.5.9 1.5.8 1.6.7 1.6.6 1.7.6 1.7.5 1.7.4 1.8.3 1.8.2 1.8.1 2 .2z" fill="#FBB231"/><path d="M76.2 98.7l1.8-.1 1.8-.1 1.8-.2 1.8-.3 1.7-.4 1.7-.5 1.7-.6 1.6-.6 1.6-.7 1.6-.8 1.5-.9 1.5-.9 1.4-1 1.4-1.1 1.3-1.1 1.2-1.2 1.2-1.3 1.1-1.3 1.1-1.4 1-1.4.9-1.5.9-1.5.8-1.6.7-1.6.7-1.6.6-1.7.5-1.7.4-1.7.3-1.8.2-1.8.1-1.8.1-1.9-.1-1.8-.1-1.8-.2-1.8-.3-1.8-.4-1.7-.5-1.7-.6-1.7-.6-1.6-.7-1.6-.8-1.6-.9-1.5-1-1.4-1-1.4-1-1.3-1.1-1.3-1.2-1.2-1.2-1.2-1.3-1.1-1.4-1.1-1.4-1-1.5-.9-1.5-.9-1.6-.8-1.6-.7-1.6-.6-1.6-.8-1.7-.5-1.7-.4-1.8-.3-1.8-.2-1.8-.1h-3.7l-1.8.1-1.8.2-1.9.3-1.7.4-1.7.5-1.7.6-1.6.6-1.6.7-1.5.8-1.5.9-1.5.9-1.4 1-1.4 1.1-1.4 1.2-1.2 1.2-1.2 1.2-1.1 1.3-1.1 1.3-1 1.4-1 1.5-.9 1.5-.8 1.5-.7 1.7-.6 1.6-.6 1.7-.5 1.7-.4 1.7-.3 1.8-.2 1.8-.1 1.8v3.7l.1 1.8.2 1.8.3 1.8.4 1.7.5 1.7.6 1.6.6 1.7.7 1.6.8 1.6.9 1.5.9 1.5 1 1.4 1.1 1.4 1.1 1.3 1.2 1.3 1.3 1.2 1.3 1.1 1.4 1.1 1.4 1 1.5.9 1.5.9 1.5.8 1.6.7 1.6.6 1.7.6 1.7.5 1.8.4 1.8.3 1.8.2 1.8.1 1.8.1z" fill="#EC1C2E"/><path d="M96.1 40.5h19.1v-2H97.8l-1.7 2zm-2.9 4.4h22v-2H94.4l-1.2 2zm-2.1 4.3h24.1v-2H92l-.9 2zm-1.4 4.3h25.6v-2h-25l-.6 2zm.8 21h24.8v-2H89.9l.6 2zm1.8 4.4h23V77H91.4l.9 1.9zm2.6 4.3h20.4v-2H93.7l1.2 2zm3.6 4.4h16.9v-2H96.7s1.7 2 1.8 2zm-9.7-29.7h26.5v-2H89.2l-.4 2zm16.1 12.3H115v-2h-9.7l-.4 2zm.8-4.3h9.3v-2h-8.9l-.4 2zm-17.6-2h2.6v2h-2.5l-.1-2z" fill="#FBB231"/><path d="M83.2 61.5h-3.9l-.2.1-.2.1-.2.1-.2.1.1.1h-.1l-.1.1-.1.1v.7l.1.2.1.2.2.2.3.2.3.2.4.1.4.1.4.1.4.2.4.2.4.2.3.2.3.3.2.4.2.5.1.5v1.4l-.1.6-.2.5-.2.5-.2.4-.3.4-.3.3-.3.3H81l-.4.2-.4.2-.4.1-.4.1H74l-.2-.1-.2-.1-.2-.1-.2-.1-.2-.1.6-2.7h.2l.2.1.2.1.2.1h.2l.3.1.3.1.3.1.3.1h2l.3-.1.3-.1.2-.1.2-.2.1-.2.1-.2.1-.2v-.5l-.1-.3V67l-.3-.2-.4-.2-.4-.2-.5-.2-.4-.1-.5-.2-.5-.3-.4-.3-.4-.4-.3-.5-.2-.5-.1-.7v-1.3l.1-.5.1-.4.1-.4.2-.4.2-.3.3-.3.3-.3.4-.2.4-.2.4-.2.5-.1.5-.1.6-.1H84l-.6 2.7-.2.4z" fill="#FFFFFF"/><path d="M83.2 61.5h-3.9l-.2.1-.2.1-.2.1-.2.1.1.1h-.1l-.1.1-.1.1v.7l.1.2.1.2.2.2.3.2.3.2.4.1.4.1.4.1.4.2.4.2.4.2.3.2.3.3.2.4.2.5.1.5v1.4l-.1.6-.2.5-.2.5-.2.4-.3.4-.3.3-.3.3H81l-.4.2-.4.2-.4.1-.4.1H74l-.2-.1-.2-.1-.2-.1-.2-.1-.2-.1.6-2.7h.2l.2.1.2.1.2.1h.2l.3.1.3.1.3.1.3.1h2l.3-.1.3-.1.2-.1.2-.2.1-.2.1-.2.1-.2v-.5l-.1-.3V67l-.3-.2-.4-.2-.4-.2-.5-.2-.4-.1-.5-.2-.5-.3-.4-.3-.4-.4-.3-.5-.2-.5-.1-.7v-1.3l.1-.5.1-.4.1-.4.2-.4.2-.3.3-.3.3-.3.4-.2.4-.2.4-.2.5-.1.5-.1.6-.1H84l-.6 2.7" fill="none" stroke="#FFFFFF" stroke-width="0.22" stroke-miterlimit="2.61"/><path d="M86.1 55.8h3.4l-.5 2.9h2l-.4 2.7-2.1-.1-1.2 6.8v.2l.1.2.1.2.2.1.2.1.2.1.3.1h1.2l.2-.1h.2l-.4 2.3-.1.1-.1.1-.1.1-.1.1H86l-.4-.1-.4-.1-.3-.1-.3-.1-.2-.1-.2-.2H84l-.1-.2-.1-.2v-1.5l2.3-13.3z" fill="#FFFFFF"/><path d="M86.1 55.8h3.4l-.5 2.9h2l-.4 2.7-2.1-.1-1.2 6.8v.2l.1.2.1.2.2.1.2.1.2.1.3.1h1.2l.2-.1h.2l-.4 2.3-.1.1-.1.1-.1.1-.1.1H86l-.4-.1-.4-.1-.3-.1-.3-.1-.2-.1-.2-.2H84l-.1-.2-.1-.2v-1.5l2.3-13.3m7.6 10.3v.8l.1.2.1.2.1.2.1.2.2.2.2.2.2.2.2.2.2.1.2.1.2.1.2.1.3.1H98.2l.3-.1.3-.1.3-.1.3-.1.3-.1.3-.2.3-.2.3-.2-.5 3-.2.1-.2.1-.2.1-.2.1-.2.1-.2.1-.2.1h-3.1l-.6-.1-.6-.1-.6-.1-.1-.3h-.6l-.6-.3-.5-.3-.4-.4-.4-.5-.3-.6-.3-.7-.2-.7-.1-.8v-.9l.1-1v-.4l.1-.4.1-.5.1-.5.2-.5.2-.5.3-.5.3-.5.4-.5.5-.5.5-.4.6-.4.7-.3.8-.2.9-.1h2l.5.1.5.1.5.2.5.2.4.3.4.3.4.4.3.5.2.6.2.6.1.7v.8l-.1.9-.2 1-.1.7h-8.8l.6-2.4h5.3V62.5l-.1-.2-.1-.2-.4-.1-.1-.2-.2-.1-.2-.1-.2-.1-.2-.1-.2-.1h-1.2l-.2.1-.2.1-.2.1-.2.1-.1.1-.1.2-.2.2-.1.2-.1.2-.1.2-.1.2-.1.2v.2l-.5 2.7" fill="none" stroke="#FFFFFF" stroke-width="0.22" stroke-miterlimit="2.61"/><path d="M122.6 59.5l-.2-.1-.2-.1-.2-.1-.2-.1-.2-.1-.2-.1-.2-.1-.2-.1-.2-.1H118l-.3.1-.3.1-.3.1-.3.2-.3.2-.3.3-.3.3-.3.4-.3.5-.3.5-.2.6-.2.7-.2.8-.1.4v1.6l.1.4.1.4.1.4.2.3.2.3.3.3.3.3.3.2.4.2.4.2.5.1h2.3l.3-.1.3-.1.3-.1.3-.1.3-.2.3-.2.2-.2-.5 3.2-.1.1-.1.1-.1.1-.1.1-.1.1-.2.1-.2.1-.2.1-.3.1-.3.1-.4.1-.4.1h-2.4l-.6-.1-.6-.1-.6-.2-.6-.2-.5-.3-.5-.4-.5-.4-.4-.5-.4-.6-.3-.6-.3-.7-.2-.7-.2-.8v-1.8l.1-1 .1-.5.1-.5.1-.5.1-.4.1-.6.2-.4.2-.4.2-.4.2-.4.2-.3.2-.3.2-.3.2-.3.2-.3.2-.3.3-.2.3-.2.3-.2.3-.2.3-.2.3-.2.3-.2.3-.1.3-.1.4-.1.4-.1.4-.1.4-.1.4-.1H120.9l.3.1.3.1.3.1.3.1.2.1.2.1.2.1.2.1h.4l-.7 3.2z" fill="#FFFFFF"/><path d="M122.6 59.5l-.2-.1-.2-.1-.2-.1-.2-.1-.2-.1-.2-.1-.2-.1-.2-.1-.2-.1H118l-.3.1-.3.1-.3.1-.3.2-.3.2-.3.3-.3.3-.3.4-.3.5-.3.5-.2.6-.2.7-.2.8-.1.4v1.6l.1.4.1.4.1.4.2.3.2.3.3.3.3.3.3.2.4.2.4.2.5.1h2.3l.3-.1.3-.1.3-.1.3-.1.3-.2.3-.2.2-.2-.5 3.2-.1.1-.1.1-.1.1-.1.1-.1.1-.2.1-.2.1-.2.1-.3.1-.3.1-.4.1-.4.1h-2.4l-.6-.1-.6-.1-.6-.2-.6-.2-.5-.3-.5-.4-.5-.4-.4-.5-.4-.6-.3-.6-.3-.7-.2-.7-.2-.8v-1.8l.1-1 .1-.5.1-.5.1-.5.1-.4.1-.6.2-.4.2-.4.2-.4.2-.4.2-.3.2-.3.2-.3.2-.3.2-.3.2-.3.3-.2.3-.2.3-.2.3-.2.3-.2.3-.2.3-.2.3-.1.3-.1.4-.1.4-.1.4-.1.4-.1.4-.1H120.9l.3.1.3.1.3.1.3.1.2.1.2.1.2.1.2.1h.4l-.7 3.2" fill="none" stroke="#FFFFFF" stroke-width="0.22" stroke-miterlimit="2.61"/><path d="M152.5 71.7h-3.4l.2-1.3v-.1l-.2.2-.2.2-.2.2-.2.2-.2.2-.2.1-.2.1-.2.1-.2.1-.2.1-.2.1H146l-.6-.1-.6-.1-.5-.2-.5-.3-.4-.4-.4-.4-.3-.4-.3-.5-.2-.6-.2-.6-.1-.6-.1-.6V66l.1-.6.1-.6.2-.7.2-.7.2-.6.3-.6.3-.5.4-.5.4-.4.4-.4.4-.3.4-.3.5-.3.5-.2.5-.2.5-.1.5-.1h1.2l.3.1.3.1.3.1.2.1.2.1.2.1.2.2.2.2.1.2.1.2.1.2.1.2.1.2.1.1.9-4.8h3.3l-3.1 15.5z" fill="#FFFFFF"/><path d="M152.5 71.7h-3.4l.2-1.3v-.1l-.2.2-.2.2-.2.2-.2.2-.2.2-.2.1-.2.1-.2.1-.2.1-.2.1-.2.1H146l-.6-.1-.6-.1-.5-.2-.5-.3-.4-.4-.4-.4-.3-.4-.3-.5-.2-.6-.2-.6-.1-.6-.1-.6V66l.1-.6.1-.6.2-.7.2-.7.2-.6.3-.6.3-.5.4-.5.4-.4.4-.4.4-.3.4-.3.5-.3.5-.2.5-.2.5-.1.5-.1h1.2l.3.1.3.1.3.1.2.1.2.1.2.1.2.2.2.2.1.2.1.2.1.2.1.2.1.2.1.1.9-4.8h3.3l-3.1 15.5" fill="none" stroke="#FFFFFF" stroke-width="0.22" stroke-miterlimit="2.61"/><path d="M147 68.8h.3l.3-.1.3-.1.3-.1.2-.2.2-.2.4-.1.2-.2.2-.2.2-.3.2-.3.1-.3.1-.3.1-.3.1-.3.1-.3.1-.3v-1.5l-.1-.3-.1-.3-.1-.2-.1-.2-.2-.2-.2-.2-.2-.2-.2-.1-.2-.1h-.8l-.3.1-.3.1-.2.2-.2.2-.2.2-.2.2-.2.3-.2.3-.2.3-.1.3-.1.3-.1.3-.1.3-.1.4-.1.5v.6l.1.6.2.6.2.5.3.4.4.3.2-.1z" fill="#FBB231"/><path d="M72.5 69.1l-.5 2.6h-3.1l.1-.5.1-.4v-.5l-.2.2-.2.2-.2.2-.3.1-.3.2-.3.2-.3.1-.3.1-.3.1-.3.1-.4.1-.4.1H64.7l-.3-.1-.4-.1-.4-.1-.6-.2-.3-.2-.3-.2-.2-.2-.2-.2-.2-.2-.1-.2-.1-.3-.1-.3-.1-.3v-1.7l.1-.4.1-.4.2-.4.2-.4.2-.4.2-.3.3-.3.3-.3.3-.2.3-.2.4-.2.4-.2.4-.1.4-.1.4-.1h4.2v-.1l.1-.2.1-.3v-.5l-.1-.2-.1-.4-.2-.2-.2-.2-.2-.1-.3-.1H65l-.3.1-.3.1-.3.1-.3.1-.2.1-.1.1-.1.1.9-2.9.3-.1.3-.1.3-.1.3-.1.3-.1H70l.4.1.4.1.4.1.4.2.4.2.4.2.3.2.3.3.3.3.2.3.2.4.1.4.1.4v.5l-.1.5-1.3 6.2z" fill="#FFFFFF"/><path d="M72.5 69.1l-.5 2.6h-3.1l.1-.5.1-.4v-.5l-.2.2-.2.2-.2.2-.3.1-.3.2-.3.2-.3.1-.3.1-.3.1-.3.1-.4.1-.4.1H64.7l-.3-.1-.4-.1-.4-.1-.6-.2-.3-.2-.3-.2-.2-.2-.2-.2-.2-.2-.1-.2-.1-.3-.1-.3-.1-.3v-1.7l.1-.4.1-.4.2-.4.2-.4.2-.4.2-.3.3-.3.3-.3.3-.2.3-.2.4-.2.4-.2.4-.1.4-.1.4-.1h4.2v-.1l.1-.2.1-.3v-.5l-.1-.2-.1-.4-.2-.2-.2-.2-.2-.1-.3-.1H65l-.3.1-.3.1-.3.1-.3.1-.2.1-.1.1-.1.1.9-2.9.3-.1.3-.1.3-.1.3-.1.3-.1H70l.4.1.4.1.4.1.4.2.4.2.4.2.3.2.3.3.3.3.2.3.2.4.1.4.1.4v.5l-.1.5-1.3 6.2" fill="none" stroke="#FFFFFF" stroke-width="0.22" stroke-miterlimit="2.61"/><path d="M69.5 65.9v-.1H67l-.1.1-.2.1h-.2l-.2.1-.2.1-.1.1-.2.1-.1.1-.1.2-.1.2-.1.2-.1.2V67.9l.1.3.1.2.2.2.2.1.2.1h.8l.1.2h.3l.3-.1.2-.1.2-.1.2-.1.2-.1.2-.1.2-.2.1-.1.1-.2.1-.2.1-.1v-.2l.1-.3.1-.4.1-.4v-.4z" fill="#EC1C2E"/><path d="M46.9 71.7h-3.3l2.8-15.9h5.7l.5 9.5 4-9.5h6l-2.8 15.9h-3.3l2.1-11.9h-.1l-4.9 11.9h-3.7v-.5l-.1-1.3-.2-1.9-.1-2.2-.1-2.2-.1-1.9-.1-1.4v-.6H49l-2.1 12z" fill="#FFFFFF"/><path d="M46.9 71.7h-3.3l2.8-15.9h5.7l.5 9.5 4-9.5h6l-2.8 15.9h-3.3l2.1-11.9h-.1l-4.9 11.9h-3.7v-.5l-.1-1.3-.2-1.9-.1-2.2-.1-2.2-.1-1.9-.1-1.4v-.6H49l-2.1 12" fill="none" stroke="#FFFFFF" stroke-width="0.22" stroke-miterlimit="2.61"/><path d="M132.7 69.1l-.5 2.7h-3v-1.5l-.2.2-.2.2-.2.2-.2.2-.3.2-.3.2-.3.2-.3.1-.3.1-.3.1-.3.1-.3.1H125.1l-.3-.1-.4-.1-.4-.1-.3-.2-.3-.2-.3-.2-.2-.2-.2-.2-.2-.2-.1-.2-.1-.3-.1-.3-.1-.3v-1.7l.1-.4.1-.4.2-.4.2-.4.2-.4.2-.3.3-.3.3-.3.3-.2.3-.2.4-.2.4-.2.4-.1.4-.1.4-.1h4.3v-1.1l-.1-.2-.5-.6-.2-.2-.2-.2-.3-.1-.3-.1h-3.8l-.3.1-.3.1-.3.1-.3.1-.2.1-.2.1-.1.1.8-2.9.3-.1.3-.1.3-.1.3-.1.3-.1h4.2l.4.1.4.1.4.1.4.2.4.2.4.2.3.2.3.3.3.3.2.3.2.4.1.4.1.4v.5l-.1.5-1.1 6.2zm-.5 2.7l.6-2.8h-.1l-.5 2.8v-.2.2zm-3.1-.1l3.1.1v-.2l-3.1.1h.2-.2zm.2-1.3l-.1-.1v1.5h.1v-1.4zm-4.7 1.5h1.6l.3-.1.3-.1.3-.1.3-.1.3-.2.3-.1.2-.2.3-.2.2-.2.2-.2.2-.2-.1-.1-.2.2-.2.2-.2.2-.2.2-.3.1-.3.2-.3.1-.3.1-.3.1-.3.1-.3.1-.3.1H124.9l-.3-.1v.2zm-3-3.6v1.2l.1.3.1.3.1.3.2.2.2.3.2.2.2.2.3.2.3.2.4.2.4.1.4.1v-.2l-.4-.1-.4-.1-.3-.2-.3-.2-.1-.2-.2-.2-.2-.2-.2-.2-.1-.3-.1-.2-.1-.2-.1-.3V68.1h-.2l-.2.2zm4.4-4.7l-.4.1-.4.1-.4.1-.4.2-.4.2-.4.2-.3.2-.3.3-.3.3-.2.3-.2.4-.2.4-.2.4-.1.4-.1.5v.5h.2v-.5l.1-.4.1-.4.2-.4.2-.4.2-.3.2-.3.3-.3.3-.3.3-.2.3-.2.4-.2.4-.2.4-.1.4-.1.4-.1-.1-.2zm2.5-.3H126v.2H128.6l-.1-.2zm1.6.2l-.3-.1H128.4v.2h1.7v-.1.1h.1l-.1-.1zm.2-.8V63.4h.1v-.8l-.1.1zm-1.5-1.2h.3l.3.1.2.1.2.1.2.2.1.2.1.2v.2h.1v-.3l-.1-.3-.2-.2-.2-.2-.2-.2-.3-.1-.3-.1h-.3l.1.3zm-5.2.6l.1.1.1-.1.2-.1.2-.1.3-.1.3-.1.3-.1.3-.1h3.5v-.2H125.4l-.3.1-.3.1-.3.1-.3.1-.2.1-.2.1-.2.2.1.1-.1-.1zm.9-3l-.8 3h.2l.8-2.9v.1-.2h-.2zm5.4-.6H126l-.3.1-.3.1-.3.1-.3.1-.3.1v.1l.3-.1.3-.1.3-.1.3-.1.3-.1h1.2l2.7-.1zm4.2 4.1l.1-.5v-.4l-.1-.4-.1-.4-.2-.4-.2-.3-.3-.3-.3-.3-.4-.2-.4-.2-.4-.2-.4-.1-.4-.1-.4-.1-.4-.1h-.3v.1h.3l.4.1.4.1.4.1.4.2.4.2.4.2.3.2.3.3.3.3.2.3.2.4.1.4.1.4v.5l-.1.5.1-.3zm-1.3 6.5l1.3-6.4h-.1l-1.3 6.4h.1z" fill="#FFFFFF"/><path d="M129.8 65.9v-.1H127v.2l-.2.1-.2.1-.2.1-.2.1-.2.1-.2.1-.1.1-.1.2-.1.2-.1.2-.1.2v.8l.1.2.1.2.2.1.2.1h1.1l.3-.1.3-.1.3-.1.2-.1.2-.1.2-.1.2-.1.1-.2.1-.2.1-.2.1-.1.1-.2V66.7l.1-.3v-.6l.5.1z" fill="#FBB231"/><path d="M154.8 70.1v-.3l.1-.3.2-.3.2-.3.2-.2.3-.2.3-.1h.6l.3.1.3.2.2.2.2.3.2.3.1.3v.3h-.4v-.2l-.1-.3-.1-.2-.2-.2-.2-.2-.2-.1-.3-.1h-.6l-.3.1-.2.1-.2.2-.2.2-.1.2-.1.3v.2zm1.1 0v-.7h1l.1.1.1.1v.5-.1h-.5H156.9v-.4h-.6v.5h-.4zm-1.1 0v.4l.1.3.2.3.2.2.2.2.3.2.3.1h.6l.3-.1.3-.2.2-.2.2-.2.2-.3.1-.3v-.4h-.4v.4l-.1.3-.1.2-.2.2-.2.2-.2.1-.3.1h-.6l-.3-.1-.2-.1-.2-.2-.2-.2-.1-.2-.1-.3v-.4zm1.1 0v.7h.3v-.6h.3l.4.6h.2l-.4-.6H157l.1-.1h-1.2z" fill="#FFFFFF"/><path d="M154.8 70.2v-.3l.1-.3.2-.3.2-.2.3-.2.3-.2.3-.1h.7l.3.1.3.2.3.2.2.2.2.3.1.3v.7l-.1.3-.2.3-.2.2-.3.2-.3.2-.3.1h-.7l-.3-.1-.3-.2-.3-.2-.2-.2-.2-.3-.1-.3v-.4m1.4.6h-.3v-1.5h1.1l.1.1v.6h-.3l.4.6h-.2l-.4-.6h-.3v.6m.2-.7h.3v-.2h-.6v.5h.3m0 1.4h.3l.3-.1.2-.1.2-.2.2-.2.1-.2.1-.3v-.6l-.1-.3-.1-.2-.2-.2-.2-.2-.2-.1-.3-.1h-.6l-.3.1-.2.1-.2.2-.2.2-.1.2-.1.3v.6l.1.3.1.2.2.2.2.2.2.1.3.1h.3" fill="none" stroke="#FFFFFF" stroke-width="0.22" stroke-miterlimit="2.61"/><path d="M133.6 71.7h3.4l1.2-6.9v-.3l.1-.3.1-.3.1-.3.1-.3.1-.3h.3l.2-.2.2-.2.2-.2.3-.2.3-.1.4-.1.4-.1.4-.1h.8l.6-3.1h-.6l-.3.1-.3.1-.3.1h-.3l-.2.1-.2.1-.2.2-.2.2-.2.2-.2.2-.2.2-.2.2-.2.2-.2.2.4-2.2H136l-2.4 13.1z" fill="#FFFFFF"/><path d="M133.6 71.7h3.4l1.2-6.9v-.3l.1-.3.1-.3.1-.3.1-.3.1-.3h.3l.2-.2.2-.2.2-.2.3-.2.3-.1.4-.1.4-.1.4-.1h.8l.6-3.1h-.6l-.3.1-.3.1-.3.1h-.3l-.2.1-.2.1-.2.2-.2.2-.2.2-.2.2-.2.2-.2.2-.2.2-.2.2.4-2.2H136l-2.4 13.1" fill="none" stroke="#FFFFFF" stroke-width="0.22" stroke-miterlimit="2.61"/><path d="M101.5 71.7h3.5l1.2-6.9v-.3l.1-.2.1-.3.1-.2.1-.2.1-.2.2-.2.2-.2.2-.2.2-.2.3-.2.3-.1.3-.1.4-.1.2-.1h.7v-.4l.1-.3.1-.3.1-.3.1-.3.1-.3.1-.2.1-.2.1-.2.1-.2.1-.2.1-.2.1-.1h.1-1.2l-.3.1-.3.1-.3.1-.2.1-.2.1-.2.1-.2.2-.2.2-.2.2-.2.2-.2.2-.2.2-.2.2-.2.2.4-2.2h-3.5l-2.1 12.9z" fill="#FFFFFF"/><path d="M101.5 71.7h3.5l1.2-6.9v-.3l.1-.2.1-.3.1-.2.1-.2.1-.2.2-.2.2-.2.2-.2.2-.2.3-.2.3-.1.3-.1.4-.1.2-.1h.7v-.4l.1-.3.1-.3.1-.3.1-.3.1-.3.1-.2.1-.2.1-.2.1-.2.1-.2.1-.2.1-.1h.1-1.2l-.3.1-.3.1-.3.1-.2.1-.2.1-.2.1-.2.2-.2.2-.2.2-.2.2-.2.2-.2.2-.2.2-.2.2.4-2.2h-3.5l-2.1 12.9" fill="none" stroke="#FFFFFF" stroke-width="0.22" stroke-miterlimit="2.61"/><path d="M154.8 84.5l.1-.4.2-.3.2-.2.2-.2.3-.2.3-.1h.6l.3.1.3.2.2.2.2.2.2.3.1.3v.1h-.4l-.1-.3-.1-.2-.2-.2-.2-.2-.2-.1-.3-.1h-.6l-.3.1-.2.1-.2.2-.2.2-.1.2-.1.3zm1.1 0v-.4h1l.1.1.1.1V84.6h-.2v-.2h-.7v.2l-.3-.1zm-1.1.3v-.3h.4v.2l-.4.1zm1.1 0v-.3h.3v.2h.7v-.1h.2V84.9h-1.2v-.1zm2 0v-.2h.4v.3l-.4-.1zm-3.1 0v.3l.1.3.2.3.2.3.2.2.3.2.3.1h.6l.3-.1.3-.2.2-.2.2-.3.2-.3.1-.3v-.3h-.4v.3l-.1.3-.1.2-.2.2-.2.2-.2.1-.3.1h-.6l-.3-.1-.2-.1-.2-.2-.2-.2-.1-.2-.1-.3v-.3zm1.1 0v.7h.3v-.6h.3l.4.6h.2l-.4-.6H157l.1-.1h-1.2z" fill="#FBB231"/><path d="M101.9 62.6l-.1-.7-.2-.6-.2-.6-.3-.5-.4-.4-.4-.3-.4-.3-.5-.2-.5-.2-.5-.1-.5-.1h-2l-.9.1-.8.3-.7.3-.6.4-.5.3-.5.5-.4.5-.3.5-.3.5-.2.5-.2.5-.1.5-.1.5-.1.4v.4l-.1 1v.9l.1.8.2.7.3.6.3.6.4.5.5.4.5.3.6.3.6.2.6.2.6.2.6.1.6.1h3.4l.2-.1.2-.1.2-.1.2-.1.2-.1.2-.1.5-3-.3.2-.3.2-.3.2-.5.3-.3.1-.4.1-.3.1h-3.1l-.2-.1-.3-.2-.2-.1-.2-.1-.2-.2-.2-.2-.2-.2-.1-.2-.1-.2-.1-.2-.1-.2v-.8h7.9l.1-.7.2-1 .1-.9-.1-1.4zm-3.3 1.1h-4.4v-.4l.1-.2.1-.2.1-.2.1-.2.1-.2.2-.2.2-.2.2-.2.2-.1.2-.1.2-.1.2-.1h1.3l.2.1.2.1.2.1.2.1.1.2.1.2.1.2.1.2.1.2v.8l-.1.2z" fill="#FFFFFF"/></g></svg>