<svg enable-background="new 0 0 200.7 125.4" viewBox="0 0 200.7 125.4" xmlns="http://www.w3.org/2000/svg" xmlns:xlink="http://www.w3.org/1999/xlink"><clipPath id="a"><path d="m7 .2h186.7c3.7 0 6.7 3 6.7 6.7v111.7c0 3.7-3 6.7-6.7 6.7h-186.7c-3.7 0-6.7-3-6.7-6.7v-111.7c0-3.7 3-6.7 6.7-6.7z"/></clipPath><g clip-path="url(#a)"><path d="m6.7 0h187.3c3.7 0 6.7 3 6.7 6.7v112c0 3.7-3 6.7-6.7 6.7h-187.3c-3.7 0-6.7-3-6.7-6.7v-112c0-3.7 3-6.7 6.7-6.7z" fill="#3957a7"/><path d="m92.3 81.5h-9.8l6.1-37.7h9.8zm-18-37.6-9.3 25.9-1.1-5.6-3.3-16.9s-.4-3.4-4.7-3.4h-15.4l-.2.6c3.6.9 7.1 2.4 10.2 4.3l8.5 32.7h10.2l15.6-37.7h-10.5zm77.1 37.6h9l-7.8-37.7h-7.9c-2-.2-3.8 1-4.5 2.8l-14.6 34.8h10.2l2-5.6h12.5zm-10.8-13.3 5.1-14.1 2.9 14.1zm-14.3-15.2 1.4-8.1c-2.8-1-5.8-1.6-8.8-1.6-4.9 0-16.4 2.1-16.4 12.5 0 9.7 13.6 9.9 13.6 15s-12.2 4.2-16.2 1l-1.5 8.4c3.5 1.5 7.3 2.2 11.1 2.1 6.7 0 16.8-3.5 16.8-12.9 0-9.8-13.7-10.7-13.7-15s9.5-3.8 13.7-1.4z" fill="#fff"/><path d="m63.8 64.2-3.3-16.9s-.4-3.4-4.7-3.4h-15.3l-.2.6c5.3 1.4 10.3 3.8 14.5 7.3 4.1 3.3 7.2 7.6 9 12.4z" fill="#f9a533"/></g></svg>