<svg viewBox="0 0 200.7 125.4" xmlns="http://www.w3.org/2000/svg"><clipPath id="a"><path d="M7 .2h186.7c3.7 0 6.7 3 6.7 6.7v111.7c0 3.7-3 6.7-6.7 6.7H7c-3.7 0-6.7-3-6.7-6.7V6.9C.3 3.2 3.3.2 7 .2z"/></clipPath><g clip-path="url(#a)"><path d="M6.7 0H194c3.7 0 6.7 3 6.7 6.7v112c0 3.7-3 6.7-6.7 6.7H6.7c-3.7 0-6.7-3-6.7-6.7V6.7C0 3 3 0 6.7 0z" fill="#3957a7"/><path d="M92.3 81.5h-9.8l6.1-37.7h9.8zm-18-37.6L65 69.8l-1.1-5.6-3.3-16.9s-.4-3.4-4.7-3.4H40.5l-.2.6c3.6.9 7.1 2.4 10.2 4.3L59 81.5h10.2l15.6-37.7H74.3zm77.1 37.6h9l-7.8-37.7h-7.9c-2-.2-3.8 1-4.5 2.8l-14.6 34.8h10.2l2-5.6h12.5zm-10.8-13.3l5.1-14.1 2.9 14.1zM126.3 53l1.4-8.1c-2.8-1-5.8-1.6-8.8-1.6-4.9 0-16.4 2.1-16.4 12.5 0 9.7 13.6 9.9 13.6 15s-12.2 4.2-16.2 1l-1.5 8.4c3.5 1.5 7.3 2.2 11.1 2.1 6.7 0 16.8-3.5 16.8-12.9 0-9.8-13.7-10.7-13.7-15s9.5-3.8 13.7-1.4z" fill="#fff"/><path d="M63.8 64.2l-3.3-16.9s-.4-3.4-4.7-3.4H40.5l-.2.6c5.3 1.4 10.3 3.8 14.5 7.3 4.1 3.3 7.2 7.6 9 12.4z" fill="#f9a533"/></g></svg>