<svg viewBox="0 0 200.7 125.4" xmlns="http://www.w3.org/2000/svg" xmlns:xlink="http://www.w3.org/1999/xlink"><clipPath id="a"><path d="m7 .2h186.7c3.7 0 6.7 3 6.7 6.7v111.7c0 3.7-3 6.7-6.7 6.7h-186.7c-3.7 0-6.7-3-6.7-6.7v-111.7c0-3.7 3-6.7 6.7-6.7z"/></clipPath><g clip-path="url(#a)"><path d="m6.7 0h187.3c3.7 0 6.7 3 6.7 6.7v112c0 3.7-3 6.7-6.7 6.7h-187.3c-3.7 0-6.7-3-6.7-6.7v-112c0-3.7 3-6.7 6.7-6.7z" fill="#f9f9f9"/><path d="m62.3 59.8v-2l-1 2h-8.3l-1-2.2v2.2h-15.6l-1.8-4.3h-3.1l-1.9 4.3h-8.1v-13.1l5.9-13.3h11.3l1.6 3.8v-3.8h13.8l3 6.4 3-6.4h43.6c1.3 0 2.6.3 3.8 1v-1h11v1.5c1.5-.9 3.2-1.5 4.9-1.5h19.4l1.7 3.8v-3.8h12.5l2.3 3.8v-3.8h11.9v26.5h-12.3l-2.9-4.6v4.6h-15.2l-2.1-4.7h-3l-2 4.7h-9.2c-2.1-.1-4.2-.7-6-1.9v1.9h-18.2v-6.2c0-.9-.7-.8-.7-.8h-.7v7zm-9.2 5.7h24l3.5 3.9 3.6-3.9h18.5c1.2.1 2.3.4 3.4.9v-.9h16.4c1.3 0 2.7.4 3.8 1v-1h21.1v1c1.1-.6 2.3-1 3.5-1h13.8v1c1.1-.6 2.3-.9 3.6-1h10.8v25c-1.2 1.1-2.7 1.7-4.4 1.6h-14.2v-.8c-1.1.5-2.2.8-3.4.8h-37.9v-6.5c0-.6-.3-.8-.8-.8h-.5v7.2h-11.9v-7c-1.1.5-2.3.7-3.5.7h-4.3v6.4h-14.5l-3.3-4-3.6 4h-23.7z" fill="#fff"/><path d="m128.9 69.5h15.1v4h-10.5v3.5h10.2v3.6h-10.2v3.7h10.5v3.9h-15.1zm44.1 7.3c5.7.3 6.1 3.1 6.1 6.1 0 3.5-2.9 5.4-5.9 5.4h-9.7v-4h7.6c1.3 0 3.2 0 3.2-1.8 0-.9-.3-1.4-1.7-1.6-.6-.1-2.9-.2-3.2-.2-5.1-.1-6.3-2.7-6.3-5.8-.2-2.9 2-5.3 4.9-5.5h10.3v4h-7.1c-1.6 0-3.4-.2-3.4 1.6 0 1.2.9 1.4 2 1.5zm-17.4 0c5.7.3 6.1 3.1 6.1 6.1 0 3.5-2.9 5.4-5.9 5.4h-9.7v-4h7.6c1.3 0 3.2 0 3.2-1.8 0-.9-.3-1.4-1.7-1.6-.6-.1-2.9-.2-3.2-.2-5.1-.1-6.3-2.7-6.3-5.8-.2-2.9 2-5.3 4.9-5.5h10.4v4h-7.1c-1.6 0-3.4-.2-3.4 1.6 0 1.2.9 1.4 2 1.5.3.2 2.9.3 3.1.3zm-54.6-7.3h-16.2l-5.3 5.8-5.1-5.9h-18.1v18.8h17.6l5.5-6.2 5.4 6.2h8.8v-6.2h6.2c2.4 0 6.8-.1 6.8-6.7 0-4.7-3.3-5.8-5.6-5.8zm-29.6 14.8h-10.6v-3.7h10.2v-3.6h-10.2v-3.5h11.2l4.5 5.1zm17.6 2.2-6.6-7.8 6.6-7.3zm10.4-8.4h-5.7v-4.5h5.8c1.9 0 2.5 1.2 2.5 2.2.1 1.2-.8 2.3-2.1 2.4-.1-.1-.3-.1-.5-.1zm23.9 1.7c2.1-.8 3.4-3 3.2-5.2 0-4-3.3-5-5.5-5h-12v18.8h4.6v-6.6h6c1.6 0 2.2 1.6 2.3 3.2l.1 3.4h4.5l-.2-3.9c0-3-.8-4.5-3-4.7zm-4-2h-5.7v-4.3h5.8c1.9 0 2.5 1.2 2.5 2.2-.1 1.3-.7 2.1-2.6 2.1zm-8.5-40.7h4.6v18.8h-4.6zm-37.8 0h15.1v4h-10.4v3.5h10.2v3.6h-10.2v3.8h10.5v3.9h-15.2zm32.2 10.2c2.1-.8 3.4-3 3.2-5.2 0-4-3.3-5-5.5-5h-12v18.8h4.6v-6.6h6c1.6 0 2.2 1.6 2.3 3.2l.1 3.4h4.5l-.2-3.9c0-3-.8-4.4-3-4.7zm-4-1.9h-5.7v-4.3h5.8c1.9 0 2.5 1.2 2.5 2.2 0 1.2-.7 2.1-2.6 2.1zm-38.8-8.3-5.7 12.6-5.6-12.6h-7.2v18.1l-8-18.1h-6.1l-8.2 18.8h4.9l1.8-4.2h9.2l1.8 4.2h9.3v-13.9l6.2 13.9h4.2l6.3-13.7v13.7h4.6v-18.8zm-32.5 10.5 2.8-6.6 2.9 6.6zm133.1-10.5v13l-7.8-13h-6.8v17.6l-7.9-17.6h-6.1l-6.3 14.5s-2.7 0-3-.1c-1.1-.2-2.8-1-2.9-4.3v-1.4c0-4.4 2.4-4.7 5.5-4.7h2.9v-4.1h-6c-2.1 0-6.7 1.6-6.8 9.3-.1 5.2 2.2 9.5 7.3 9.5h6.1l1.8-4.2h9.2l1.8 4.2h9.1v-13.7l8.3 13.8h6.3v-18.8zm-28.3 10.6 2.8-6.6 2.9 6.6z" fill="#0078a9"/></g></svg>