<svg viewBox="0 0 38 38" xmlns="http://www.w3.org/2000/svg" fill-rule="evenodd" clip-rule="evenodd" stroke-linejoin="round" stroke-miterlimit="2"><path d="M29.194 12.343a.519.519 0 0 1-.108.326c-.478.642-.994 1.219-1.635 1.699-.093.071-.249.143-.249.275 0 3.377-.863 6.749-3.324 9.195-3.135 3.115-7.837 3.961-12.012 2.809a11.448 11.448 0 0 1-2.322-.93 9.882 9.882 0 0 1-.724-.428c-.06-.049-.104-.093-.053-.125.05-.026.09-.028.276 0 1.167.114 2.37-.059 3.475-.444.608-.213 1.912-.64 2.288-1.213.009-.013.018-.013.027-.028-.152-.035-.304-.035-.456-.062-1.134-.324-2.649-.893-3.35-2.806-.045-.111 0-.168.116-.147.933.073 1.269.023 1.595-.05a2.46 2.46 0 0 1-.54-.164c-1.43-.544-2.473-1.937-2.664-3.444a2.576 2.576 0 0 1-.026-.482c.008-.112.058-.148.156-.086.735.38 1.559.47 1.626.456a7.306 7.306 0 0 1-.518-.456c-1.239-1.174-1.719-3.562-.728-5.049.081-.12.134-.12.232-.007 2.267 2.581 5.059 3.786 8.426 4.287.089.014.098 0 .085-.098-.088-.592-.1-1.173.044-1.76a4.278 4.278 0 0 1 .833-1.668c.38-.469.858-.859 1.394-1.139a4.372 4.372 0 0 1 1.728-.488 4.143 4.143 0 0 1 1.822.293c.438.179.826.42 1.188.729.076.062.142.137.213.219a.167.167 0 0 0 .17.045c.861-.216 1.67-.52 2.452-.938.036-.019.065-.028.11-.01.035.027.022.072.004.108-.14.456-.387.879-.686 1.25-.197.244-.685.847-1.017.902.701-.117 1.418-.295 2.068-.59.083-.038.084-.053.084 0v.019zM27.691 0H9.809C4.414 0 0 4.414 0 9.809v17.882C0 33.085 4.414 37.5 9.809 37.5h17.882c5.395 0 9.809-4.415 9.809-9.809V9.809C37.5 4.414 33.086 0 27.691 0" fill="#fff" fill-rule="nonzero"/></svg>