<svg clip-rule="evenodd" fill-rule="evenodd" stroke-linejoin="round" stroke-miterlimit="2" viewBox="0 0 38 38" xmlns="http://www.w3.org/2000/svg"><g fill="#fff" fill-rule="nonzero"><path d="m28.789 21.381c0 2.487-2.017 4.503-4.503 4.503h-11.513c-2.487 0-4.503-2.016-4.503-4.503v-5.357c0-2.488 2.016-4.503 4.503-4.503h11.513c2.486 0 4.503 2.015 4.503 4.503zm-1.098-21.381h-17.882c-5.395 0-9.809 4.413-9.809 9.809v17.882c0 5.395 4.414 9.809 9.809 9.81h17.882c5.396 0 9.809-4.415 9.809-9.81v-17.882c0-5.396-4.413-9.809-9.809-9.809"/><path d="m21.803 18.573-4.942-2.689c-.203-.115-.897.031-.897.264v5.243c0 .23.688.376.891.267l5.163-2.554c.209-.113-.008-.413-.215-.531"/></g></svg>