<svg clip-rule="evenodd" fill-rule="evenodd" stroke-linejoin="round" stroke-miterlimit="2" viewBox="0 0 209 209" xmlns="http://www.w3.org/2000/svg"><g fill="#77c1d3" fill-rule="nonzero"><path d="M160.387 36.248h-.143c-6.888 0-12.457 5.575-12.5 12.468-.057 6.869 5.431 12.475 12.375 12.557h.012c6.938-.007 12.588-5.613 12.631-12.469.057-6.956-5.506-12.556-12.375-12.556"/><path d="M187.182 156.45c-2.906 18.25-15.038 29.55-33.388 31.556-8.075.881-29.537 1.575-51.406 1.575-23.75 0-47.975-.812-56.062-3.075-14.957-4.187-23.413-14.487-25.725-29.469-2.238-14.4-2.282-86.056.712-105.225 2.906-18.081 15.125-29.3 33.306-31.387 9.088-.988 29.75-1.55 50.507-1.55 21.512 0 43.137.606 52.118 1.969 18.144 2.843 29.35 14.9 31.219 33.231 1.713 17.156 1.706 84.037-1.281 102.375m20.044-104.131c-1.319-13.725-6.494-25.869-16.638-35.582-10.631-10.206-23.744-14.818-38.05-15.568C140.719.525 121.094 0 101.632 0 80.719 0 59.994.606 49.401 2.344 26.019 6.194 10.594 19.756 3.976 42.856-1.099 60.6-.799 142.3 1.994 159.881c3.757 23.944 17.869 39.344 41.513 45.45 8.319 2.163 33.106 3.075 57.919 3.075 24.243 0 48.512-.869 57.5-2.319 24.056-3.85 39.568-17.912 46.031-41.687 4.819-18.163 3.819-95.675 2.269-112.081"/><path d="M103.918 138.786h-.312c-19.088-.162-34.282-15.818-33.963-34.906.3-18.981 15.913-34.237 34.85-34.237h.319c19.075.168 34.275 15.737 33.962 34.906-.312 18.987-15.912 34.237-34.856 34.237m.781-87.975c-29.55-.087-53.675 23.85-53.893 53.407-.232 29.543 23.443 53.487 52.987 53.487 29.556 0 53.675-23.944 53.9-53.406.231-29.55-23.525-53.488-52.994-53.488"/></g></svg>