<svg clip-rule="evenodd" fill-rule="evenodd" stroke-linejoin="round" stroke-miterlimit="2" viewBox="0 0 38 38" xmlns="http://www.w3.org/2000/svg"><g fill="#fff" fill-rule="nonzero"><path d="M28.789 21.381a4.504 4.504 0 0 1-4.503 4.503H12.773a4.503 4.503 0 0 1-4.503-4.503v-5.357a4.502 4.502 0 0 1 4.503-4.503h11.513a4.503 4.503 0 0 1 4.503 4.503zM27.691 0H9.809C4.414 0 0 4.413 0 9.809v17.882c0 5.395 4.414 9.809 9.809 9.81h17.882c5.396 0 9.809-4.415 9.809-9.81V9.809C37.5 4.413 33.087 0 27.691 0"/><path d="M21.803 18.573l-4.942-2.689c-.203-.115-.897.031-.897.264v5.243c0 .23.688.376.891.267l5.163-2.554c.209-.113-.008-.413-.215-.531"/></g></svg>