<svg viewBox="0 0 38 38" xmlns="http://www.w3.org/2000/svg" fill-rule="evenodd" clip-rule="evenodd" stroke-linejoin="round" stroke-miterlimit="2"><path d="M30.739 9.585c-.003.044-.039.093-.073.126a515.57 515.57 0 0 1-1.844 1.764c-.143.136-.224.293-.209.492.004.066.003.131.003.196V25.36c0 .083-.003.167-.003.251a.517.517 0 0 0 .165.385c.575.565 1.142 1.135 1.731 1.683.188.173.22.355.18.59h-9.384c-.026-.224-.021-.407.173-.586.595-.547 1.165-1.122 1.748-1.685a.615.615 0 0 0 .198-.47c-.003-3.613-.002-7.226-.002-10.839a.096.096 0 0 0-.022-.064c-.019.042-.04.084-.057.128-1.75 4.443-3.5 8.886-5.246 13.331-.045.114-.093.172-.226.158a2.767 2.767 0 0 0-.446-.001c-.096.006-.136-.033-.174-.116-.906-1.985-1.816-3.967-2.725-5.95l-3.401-7.418a.333.333 0 0 0-.091-.13v.157c0 2.948.002 5.896-.002 8.843 0 .257-.036.52.092.751.105.189.237.366.373.534.757.924 1.512 1.849 2.282 2.764.149.176.118.355.118.554H6.764c-.02-.217-.016-.405.144-.593.821-.973 1.627-1.96 2.436-2.944.207-.253.29-.546.268-.871a4.831 4.831 0 0 1-.013-.319c-.001-3.433-.003-6.864.002-10.296 0-.287-.027-.556-.219-.784-.377-.449-.754-.897-1.129-1.347-.378-.453-.752-.909-1.134-1.361-.123-.148-.031-.31-.075-.481h.175c2.219 0 4.436.001 6.655-.003.113-.001.16.04.203.137 1.746 3.836 3.494 7.67 5.242 11.505l.071.147.436-1.086c1.413-3.524 2.825-7.047 4.235-10.572.036-.086.069-.131.176-.131 2.126.004 4.25.003 6.375.003h.131c0 .13.006.242-.004.351M27.691 0H9.809C4.414 0 0 4.415 0 9.809V27.69c0 5.395 4.414 9.81 9.809 9.81h17.882c5.395 0 9.809-4.415 9.809-9.81V9.809C37.5 4.415 33.086 0 27.691 0" fill="#fff" fill-rule="nonzero"/></svg>