<svg viewBox="0 0 116 219" xmlns="http://www.w3.org/2000/svg" fill-rule="evenodd" clip-rule="evenodd" stroke-linejoin="round" stroke-miterlimit="2"><path d="M86.3 0c5.85 0 11.738.319 17.575.581 3.806.156 7.606.7 11.188 1.094l-.269 35.219h-2.806c-3.863 0-7.725-.044-11.594-.044-2.9 0-5.8.019-8.7.125-9.331.312-16.2 3.806-16.681 15.475-.3 8.394-.513 26.937-.525 27.912.487 0 9.712.038 18.993.038 4.65 0 9.182-.013 12.344-.038h7.544c-1.894 13.532-3.619 26.525-5.513 39.582H74.5l-.756 98.837H32.769l.75-98.987H0l.3-39.35h33.675L34 77.487c.063-7.931-.037-15.862.256-23.793.113-4.975.388-10.107 1.282-15.088 2.268-12.056 7.868-22.162 17.956-29.394C62.325 2.912 72.375.269 83.038.037 84.119.012 85.206 0 86.3 0" fill="#77c1d3" fill-rule="nonzero"/></svg>