<svg viewBox="0 0 38 38" xmlns="http://www.w3.org/2000/svg" fill-rule="evenodd" clip-rule="evenodd" stroke-linejoin="round" stroke-miterlimit="2"><path d="M37.5 9.809C37.5 4.414 33.085 0 27.691 0H9.81C4.415 0 0 4.414 0 9.809v17.88C0 33.084 4.415 37.5 9.81 37.5h6.011V24.786h-4.762v-5.42h4.762v-4.132c0-4.698 2.799-7.295 7.081-7.295 2.052 0 4.198.367 4.198.367v4.614h-2.365c-2.329 0-3.055 1.445-3.055 2.927v3.519h5.2l-.832 5.42H21.68V37.5h6.011c5.394 0 9.809-4.416 9.809-9.811V9.809z" fill="#fff" fill-rule="nonzero"/></svg>