<svg clip-rule="evenodd" fill-rule="evenodd" stroke-linejoin="round" stroke-miterlimit="2" viewBox="0 0 900 165" xmlns="http://www.w3.org/2000/svg"><g fill-rule="nonzero"><path d="m819.532 82.461 80.468-82.461h-819.517l-80.483 82.461 80.483 82.475h819.517z" fill="#005f89"/><g fill="#fff"><path d="m235.529 29.041c0-2.391 1.122-3.586 3.367-3.586h10.563c2.322 0 3.483 1.157 3.483 3.47v2.545c0 1.928.967 2.892 2.902 2.892h37.262c2.322 0 3.482 1.156 3.482 3.47v6.709c0 2.313-1.16 3.47-3.482 3.47h-37.262c-1.935 0-2.902.964-2.902 2.892v12.493c0 1.928.967 2.892 2.902 2.892h40.512c2.322 0 3.483 1.156 3.483 3.47v6.709c0 2.313-1.161 3.47-3.483 3.47h-40.512c-1.935 0-2.902.964-2.902 2.892v9.254c0 1.928.967 2.892 2.902 2.892h35.869c2.322 0 3.482 1.156 3.482 3.47v6.709c0 2.313-1.16 3.47-3.482 3.47h-35.869c-1.935 0-2.902.964-2.902 2.892v8.791c0 1.928.967 2.892 2.902 2.892h40.512c2.322 0 3.483 1.157 3.483 3.47v6.709c0 2.314-1.161 3.47-3.483 3.47h-78.007c-1.548-.308-3.095-.771-4.643-1.388-2.477-1.465-4.798-1.503-6.965-.115-3.096 1.542-7.429 2.043-13.001 1.503-2.322 0-3.676-1.156-4.063-3.47l-.929-5.783c-.541-2.931-.387-4.396.465-4.396 4.333-.231 6.229-2.313 5.688-6.246v-23.713c0-2.314 1.16-3.471 3.482-3.471h9.983c2.322 0 3.483 1.157 3.483 3.471v20.127c0 1.851.464 3.547 1.393 5.089 2.708 3.702 5.881 5.283 9.518 4.743h9.867c1.935 0 2.902-.964 2.902-2.892v-37.478c0-1.928-.967-2.892-2.902-2.892h-41.093c-2.321 0-3.482-1.157-3.482-3.47v-6.709c0-2.314 1.161-3.47 3.482-3.47h41.093c1.935 0 2.902-.964 2.902-2.892v-12.493c0-1.928-.967-2.892-2.902-2.892h-37.843c-2.321 0-3.482-1.157-3.482-3.47v-6.709c0-2.314 1.161-3.47 3.482-3.47h37.843c1.935 0 2.902-.964 2.902-2.892v-2.429z"/><path d="m326.352 29.735c-1.239-2.545-.852-3.817 1.16-3.817h10.796c2.322 0 4.024 1.156 5.108 3.47 1.393 2.699 3.056 4.048 4.991 4.048 2.167 0 3.87-1.156 5.108-3.47 1.47-2.699 3.211-4.048 5.223-4.048h10.448c2.321 0 2.941 1.156 1.857 3.47l-.464 1.041c-.929 2.005-.116 3.007 2.438 3.007 2.476 0 3.714 1.157 3.714 3.471v4.858c0 2.313-1.161 3.47-3.482 3.47h-13.582c-1.935 0-2.902.964-2.902 2.892v15.269c0 1.928.967 2.892 2.902 2.892 2.244.385 4.024-.579 5.34-2.892.232-2.391.309-4.82.232-7.288 0-2.313 1.161-3.47 3.483-3.47h3.018c2.321 0 3.482 1.157 3.482 3.47v14.807c-.155 3.855-2.283 6.169-6.384 6.94-3.019.231-6.075.308-9.171.231-1.935 0-2.902.964-2.902 2.892.232 4.627.039 7.75-.58 9.37-1.316 3.778-3.986 6.015-8.01 6.709h-22.752c-2.322 0-3.676-1.157-4.063-3.47l-.464-3.471c-.465-2.622.464-3.933 2.786-3.933h9.054c4.489.386 6.655-1.542 6.501-5.783 0-1.543-.968-2.314-2.902-2.314h-12.189c-2.322 0-3.482-1.156-3.482-3.47v-18.508c0-2.313 1.16-3.47 3.482-3.47h3.018c2.322 0 3.483 1.157 3.483 3.47v7.288c0 1.928.967 2.892 2.902 2.892h2.786c1.934 0 2.902-.964 2.902-2.892v-15.269c0-1.928-.968-2.892-2.902-2.892h-14.162c-2.322 0-3.483-1.157-3.483-3.47v-4.858c0-2.314 1.161-3.471 3.483-3.471h3.134c1.935 0 2.283-1.234 1.045-3.701zm56.299 1.156c0-2.39 1.122-3.585 3.367-3.585h37.959c2.321 0 3.482 1.156 3.482 3.47v57.027c-.464 5.012-3.096 7.866-7.894 8.56-2.166.231-4.372.308-6.616.231-2.322 0-3.715-1.157-4.179-3.47l-.929-4.28c-.309-1.928-.155-3.008.464-3.239 2.09-1.157 2.825-3.085 2.206-5.784 0-2.082-.967-3.123-2.902-3.123h-5.108c-1.934 0-2.902.964-2.902 2.892v8.676c0 1.927-.735 3.855-2.205 5.783-2.709 2.545-6.346 3.548-10.912 3.008-1.935 0-2.902.964-2.902 2.892v2.544c0 1.928.967 2.892 2.902 2.892h36.914c2.322 0 3.483 1.157 3.483 3.47v4.396c0 2.314-1.161 3.47-3.483 3.47h-36.914c-1.935 0-2.902.964-2.902 2.892v2.545c0 1.928.967 2.892 2.902 2.892h40.513c2.321 0 3.482 1.157 3.482 3.47v4.858c0 2.314-1.161 3.47-3.482 3.47h-104.822c-2.322 0-3.483-1.156-3.483-3.47v-4.858c0-2.313 1.161-3.47 3.483-3.47h41.093c1.934 0 2.902-.964 2.902-2.892v-2.545c0-1.928-.968-2.892-2.902-2.892h-36.914c-2.322 0-3.483-1.156-3.483-3.47v-4.396c0-2.313 1.161-3.47 3.483-3.47h36.914c1.934 0 2.902-.964 2.902-2.892v-1.966c0-2.313 1.161-3.47 3.482-3.47h7.894c1.934 0 2.67-1.234 2.205-3.702l-.464-3.239c-.542-2.622-.387-3.971.464-4.048 2.477-.617 3.444-2.429 2.902-5.437v-49.74zm27.86 11.336c0-2.005-.929-3.007-2.786-3.007h-5.224c-1.934 0-2.902.964-2.902 2.892v2.66c0 1.928.968 2.892 2.902 2.892h5.108c1.935 0 2.902-.964 2.902-2.892zm0 18.508c0-2.005-.929-3.007-2.786-3.007h-5.224c-1.934 0-2.902.964-2.902 2.892v3.238c0 1.928.968 2.892 2.902 2.892h5.108c1.935 0 2.902-.964 2.902-2.892z"/><path d="m453.624 30.891c0-2.39 1.122-3.585 3.366-3.585h100.643c2.322 0 3.483 1.156 3.483 3.47v4.974c0 2.313-.581 3.47-1.742 3.47-1.238 0-1.857.964-1.857 2.892 1.006 4.55-.89 8.213-5.688 10.989-1.78.617-2.67 1.928-2.67 3.933 0 2.159.967 3.239 2.902 3.239h5.224c2.322 0 3.482 1.156 3.482 3.47v3.007c0 2.314-1.16 3.471-3.482 3.471h-5.224c-1.935 0-2.902.963-2.902 2.891v19.086c0 2.314-1.161 3.471-3.482 3.471h-9.635c-2.322 0-3.483-1.157-3.483-3.471v-19.086c0-1.928-.967-2.891-2.902-2.891h-4.411c-2.321 0-3.482-1.157-3.482-3.471v-3.007c0-2.314 1.161-3.47 3.482-3.47h4.411c1.935 0 2.902-1.119 2.902-3.355s-.967-3.354-2.902-3.354h-1.857c-2.322 0-3.676-1.157-4.063-3.471l-.232-1.156c-.31-2.314.697-3.471 3.018-3.471h11.957c2.399-.617 3.559-1.966 3.482-4.048-.077-1.465-1.083-2.198-3.018-2.198h-22.172c-1.934 0-2.902 1.272-2.902 3.817.697 5.321-1.548 8.946-6.733 10.874-1.47.077-2.205 1.233-2.205 3.47 0 2.236.967 3.354 2.902 3.354h3.947c2.321 0 3.482 1.157 3.482 3.47v3.008c0 2.313-1.161 3.47-3.482 3.47h-3.947c-1.935 0-2.902.964-2.902 2.892v18.623c0 2.314-1.161 3.471-3.483 3.471h-9.518c-2.322 0-3.483-1.157-3.483-3.471v-18.623c0-1.928-.967-2.892-2.902-2.892h-5.34c-2.321 0-3.482-1.157-3.482-3.47v-3.008c0-2.313 1.161-3.47 3.482-3.47h5.34c1.935 0 2.902-1.118 2.902-3.354 0-2.237-.967-3.355-2.902-3.355h-3.714c-2.322 0-3.676-1.157-4.063-3.47l-.232-1.157c-.387-2.313.58-3.47 2.902-3.47h11.724c3.715.694 5.727-.925 6.036-4.858 0-1.234-.967-1.851-2.902-1.851h-21.243c-1.935 0-2.902.964-2.902 2.892v85.714c-.309 4.087-2.128 6.825-5.456 8.213-1.934.694-5.533.925-10.795.694-2.322 0-3.676-1.157-4.063-3.47l-.929-5.784c-.542-2.853-.503-4.28.116-4.28 3.018-.463 4.218-2.313 3.599-5.552zm26.002 49.856c0-2.391.735-3.586 2.206-3.586 1.47 0 2.205 1.157 2.205 3.47v10.064c-1.083 3.161-2.941 4.511-5.572 4.048-1.315 0-2.167-1.156-2.554-3.47l-.116-1.272c-.387-2.314-.232-3.471.465-3.471 3.095-.231 4.217-2.159 3.366-5.783zm30.181-.116c0-2.313.736-3.47 2.206-3.47s2.205 1.157 2.205 3.47v10.179c0 2.314-.735 3.471-2.205 3.471s-2.206-1.157-2.206-3.471zm13.93.347c0-2.545.735-3.817 2.206-3.817 1.47 0 2.205 1.157 2.205 3.47v10.064c-.774 2.853-2.476 4.203-5.107 4.048-1.006 0-1.703-1.156-2.09-3.47l-.232-1.272c-.387-2.314-.271-3.471.348-3.471.697-.077 1.316-.385 1.858-.925.541-.617.812-2.159.812-4.627zm30.414-.347c0-2.313.812-3.47 2.437-3.47 1.626 0 2.438 1.157 2.438 3.47v10.179c0 2.314-.812 3.471-2.438 3.471-1.625 0-2.437-1.157-2.437-3.471zm-41.558 24.754c0-2.467 1.084-3.701 3.251-3.701h10.795c2.322 0 3.483.54 3.483 1.619 0 1.234.967 1.851 2.902 1.851h23.797c2.321 0 3.482 1.157 3.482 3.47v3.933c0 2.314-1.161 3.47-3.482 3.47h-23.797c-1.935 0-2.902.964-2.902 2.892v2.198c0 1.928.967 2.892 2.902 2.892h25.073c2.322 0 3.483 1.156 3.483 3.47v5.899c0 2.314-1.161 3.47-3.483 3.47h-78.819c-2.322 0-3.483-1.156-3.483-3.47v-5.899c0-2.314 1.239-3.47 3.715-3.47 2.554 0 3.831-.964 3.831-2.892v-12.609c0-2.313 1.16-3.47 3.482-3.47h9.635c2.322 0 3.482 1.157 3.482 3.47v12.609c0 1.928.968 2.892 2.902 2.892h6.849c1.935 0 2.902-.964 2.902-2.892z"/><path d="m612.934 26.612c.155-.849 1.316-1.273 3.483-1.273h8.822c2.322 0 3.483 1.157 3.483 3.47 1.083 5.938-.929 10.527-6.037 13.766-2.012.694-3.83.963-5.456.809-1.934 0-2.902.964-2.902 2.892v2.314c0 1.927.968 2.891 2.902 2.891h8.474c2.322 0 3.483 1.157 3.483 3.471v6.709c0 2.313-1.161 3.47-3.483 3.47h-8.474c-1.934 0-2.902.964-2.902 2.892v65.355c0 2.314-1.16 3.47-3.482 3.47h-10.447c-2.322 0-3.483-1.156-3.483-3.47v-65.355c0-1.928-.967-2.892-2.902-2.892h-8.59c-2.322 0-3.482-1.157-3.482-3.47v-6.709c0-2.314 1.16-3.471 3.482-3.471h8.59c1.935 0 2.902-.964 2.902-2.891v-2.314c0-1.928-.967-2.892-2.902-2.892h-7.313c-2.322 0-3.676-1.157-4.063-3.47l-.929-5.784c-.464-2.93.465-4.395 2.786-4.395h24.726c1.702-.154 2.941-1.196 3.714-3.123zm24.378 4.742c0-2.39 1.122-3.586 3.366-3.586h45.388c2.322 0 3.482 1.157 3.482 3.47v24.061c-.309 5.243-3.25 8.212-8.822 8.906h-39.932c-2.322 0-3.482-1.156-3.482-3.47zm34.824 11.336c0-2.005-.928-3.007-2.786-3.007h-11.724c-1.935 0-2.902.964-2.902 2.892v6.824c0 1.928.967 2.892 2.902 2.892 4.024.077 8.164 0 12.421-.231 2.089-1.465 2.786-4.589 2.089-9.37zm3.134 28.34c.078-1.157 1.2-1.735 3.367-1.735h8.938c2.322 0 3.483 1.157 3.483 3.47.309 3.779.038 6.632-.813 8.56-1.625 3.393-4.295 5.398-8.01 6.015h-6.5c-1.935 0-2.902.964-2.902 2.892v5.09c0 1.928.967 2.892 2.902 2.892h11.84c2.322 0 3.483 1.156 3.483 3.47v6.709c0 2.313-1.161 3.47-3.483 3.47h-11.84c-1.935 0-2.902.964-2.902 2.892v5.552c0 1.928.967 2.892 2.902 2.892h13.117c2.322 0 3.482 1.157 3.482 3.47v6.709c0 2.314-1.16 3.47-3.482 3.47h-49.103c-2.321 0-3.482-1.156-3.482-3.47v-6.709c0-2.313 1.161-3.47 3.482-3.47h12.769c1.935 0 2.902-.964 2.902-2.892v-5.552c0-1.928-.967-2.892-2.902-2.892h-11.84c-2.322 0-3.482-1.157-3.482-3.47v-6.709c0-2.314 1.16-3.47 3.482-3.47h11.84c1.935 0 2.902-.964 2.902-2.892v-5.09c0-1.928-.967-2.892-2.902-2.892h-11.492c-2.321 0-3.676-1.157-4.063-3.47l-.928-5.899c-.31-2.314.696-3.471 3.018-3.471h29.833c3.173.694 5.301-.462 6.384-3.47zm-90.892 5.321c0-2.468 1.161-3.701 3.483-3.701 2.554 0 3.83 1.156 3.83 3.47v44.534c.774 5.553-1.663 8.946-7.313 10.179-1.702 0-2.747-1.156-3.134-3.47l-1.045-6.824c-.387-2.237-.154-3.394.697-3.471 2.863-.462 4.024-2.429 3.482-5.899zm35.753 0c0-2.468 1.161-3.701 3.483-3.701 2.476 0 3.715 1.156 3.715 3.47v52.169c0 2.313-1.2 3.47-3.599 3.47s-3.599-1.157-3.599-3.47z"/></g></g></svg>