<svg viewBox="0 0 1440 48" xmlns="http://www.w3.org/2000/svg" fill-rule="evenodd" clip-rule="evenodd" stroke-linejoin="round" stroke-miterlimit="2"><path fill="none" d="M0 0H1440V47.155H0z"/><clipPath id="a"><path d="M0 0H1440V47.155H0z"/></clipPath><g clip-path="url(#a)" fill="#77c1d3" fill-rule="nonzero"><path d="M1238.41-111.157c22.339 8.846 45.429 5.636 67.708 6.357-21.794-3.073-43.631-5.937-67.708-6.357m113.306-7.59c-.048 6.426 12.551 3.641 13.275 7.128 3.05 5.02-4.794 5.999-2.528 10.752 57.536 3.967 116.153 7.731 173.499 17.871-10.377 3.224-21.3 7.109-31.643 4.776-17.28-3.897-35.189-4.407-52.637-5.383-36.701-2.051-72.727-8.431-109.837-7.525-2.75.066-5.507.008-13.371.008 11.409 2.818 20.706 1.991 24.647 9.749-31.131 1.928-60.637-3.5-91.649-4.923l-3.039 8.169c91.929 3.083 183.381 7.134 277.709 20.689-18.151 7.033-33.038 4.6-46.922 3.607-29.133-2.085-58.026-5.63-87.065-8.355-4.102-.385-10.291-.628-12.393.934-9.519 7.07-18.567 2.785-30.105 1.696 6.215-4.27 10.723 2.17 16.606-3.38-23.702-4.581-46.303 2.484-68.647-.03-22.499-2.53-45.64-2.517-71.478-3.762 8.589 6.987 19.852 5.958 26.671 6.011 21.548.163 42.652 3.377 64.178 2.958 22.493-.439 44.628 2.168 66.862 4.096 14.196 1.231 28.488-.311 42.636-1.763 4.711-.483 2.074 1.485 2.784 2.79 2.252 4.136 9.358 3.779 15.386 3.689 21.994-.328 43.233 2.711 64.321 6.459 3.08.547 6.837.091 7.043 3.333.203 3.208-3.601 2.776-6.455 3.712-16.414 5.39-32.235-.833-48.333-.994-8.997-.091-18.362-6.482-26.062 2.162-1.403 1.575-5.753.309-9.08-.295-19.288-3.506-39.538-2.426-59.186-6.71-9.79-2.135-23.985.594-36.262 2.19-17.026 2.214-34.378-3.088-51.967-4.048-14.867-.811-30.589-2.247-45.388-2.916-30.633-1.388-61.368-5.349-95.803-1.949 21.155 5.02 40.617 5.319 59.134 5.33 42.073.021 82.691 10.137 124.995 7.079 31.244 14.203 68.611 6.833 102.399 12.764 21.043 3.693 43.596 3.534 65.448 5.238 1.782.14 3.381 1.315 4.676 3.859-86.218-9.522-173.467-6.335-262.185-13.169 21.05 9.308 46.589-1.252 66.076 12.228-34.728 8.617-68.144-4.108-101.446-.358 12.237 6.235 30.867 4.828 39.834 14.525 1.856 2.008.539 4.856-5.003 5.677 10.131 4.317 14.909-9.243 24.675-1.616l1.377-6.734c3.55-1.51 8.517 3.602 6.746 6.61-.354.605.056 1.408.132 2.12 80.564 1.768 160.431 7.587 242.285 15.827-7.005 4.765-12.2 5.501-17.955 5.1-30.391-2.111-60.79-4.166-91.174-6.326-13.599-.967-27.475-1.693-40.871-1.989-32.415-.717-64.508-3.082-96.755-4.579-38.532-1.789-77.394-.476-116.112-.376-5.65.015-12.495-1.579-16.407 4.451 64.217 1.327 127.873 2.594 191.319 5.065 63.979 2.492 128.63 5.572 190.71 18.626-18.875 4.46-38.133 4.067-56.254 2.238-22.608-2.281-45.48-4.907-67.967-5.503-49.467-1.312-98.785-4.182-148.269-5.434-76.37-1.934-152.687-1.27-229.025-1.691-46.626-.258-93.305-.953-139.875.155-76.89 1.83-153.833.812-230.659 2.436-56.617 1.196-113.253.456-169.775 2.072-48.336 1.38-96.751 2.513-144.979 4.622-56.576 2.475-113.041.713-169.522 1.802-16.488.318-32.942.893-50.393-.904 4.074-5.338 10.282-5.93 16.85-5.771 35.981.873 71.582-1.626 107.358-3.867 16.489-1.033 33.948-1.991 51.381.893 10.498 1.737 22.874-1.333 34.493-1.948 31.666-1.674 63.329-2.956 95.039-4.213 51.09-2.026 102.232-5.287 153.306-3.736 33.025 1.002 65.759-2.84 98.611-.434 10.036.734 18.871-2.333 28.299-4.466h-75.755c-41.094 0-82.207-.527-123.276.162-34.547.579-69.103 1.332-103.634 3.434-11.163.68-23.282.269-35.079.618-43.419 1.283-86.913 2.512-130.346 2.106-23.097-.215-45.882-.46-68.578 2.509-9.766 1.276-17.663-5.815-27.949-2.687l2.935 6.645c-7.965 0-17.283 1.936-21.439-.335-18.203-9.942-40.563-6.744-60.721-10.022-7.379-1.201-16.325-.307-18.423-6.529-1.997-5.931 8.131-6.495 11.658-11.751C29.236-4.44 27.235-20.577 10.921-30.329c-6.493.669-3.969 12.393-17.901 5.792C-5.42-13.687 12.186-7.228 4.996 3.858-4.798 5.387-9.275.189-12.788-3.853-27.938-21.279-39.19-40.91-38.707-60.262c.756-30.299.381-61.259 15.176-90.753 1.025-2.045 1.648-4.311 3.425-6.029 3.992-3.862 5.044-10.51 15.253-9.319 9.392 1.096 10.876 6.687 11.227 11.785.417 6.074 6.634 8.042 14.137 11.083 3.691-6.06 2.156-13.091 11.043-16.647.728-.291 1.468-1.635 1.172-1.847-13.53-9.658 5.344-9.752 9.756-14.612-13.235-8.226-17.236-18.957-16.165-31.2-6.951-1.158-13.383-1.827-19.49.176-7.63 2.503-9.155-2.276-12.992-4.346 2.783-2.209 3.131-5.104 9.612-5.856 32.684-3.795 65.112-7.744 98.508-8.905 85.991-2.992 171.99-3.889 258.069-4.511 51.485-.372 102.543 1.786 153.651 4.779 15.557.911 30.45-4.05 45.864-2.135 34.018 4.225 68.295 1.443 102.435 2.067 31.172.571 62.13-2.675 93.61-.233 52.541 4.075 105.613 1.325 158.348 2.868 40.572 1.188 81.302 1.988 121.7 4.46 51.193 3.134 102.404 5.94 153.633 8.756 47.899 2.631 96.425 2.283 143.514 9.018 30.551 4.37 61.796 5.11 92.253 10.613 17.513 3.164 35.308 7.107 53.438 8.602 9.007.744 3.776 4.474 6.371 6.793-17.129-3.738-34.839-3.346-51.761-6.346-18.604-3.299-37.013-4.293-55.44 1.93-12.649 4.271-27.074 1.094-39.822-.28-44.032-4.744-88.381-7.267-132.593-10.778-52.198-4.144-104.64-6.014-156.894-9.235-42.988-2.65-86.003-2.154-128.792-4.344-49.197-2.518-98.366.102-147.326-2.169-26.515-1.231-52.945-1.268-79.412-1.794-18.258-.363-36.328 5.649-55.153 1.215 2.564 1.03 5.131 2.958 7.693 2.956 45.559-.045 89.967 8.239 135.863 7.346 28.209-.549 56.861.86 85.132 3.752 13.716 1.404 27.261-1.71 41.93-.411 32.807 2.907 66.403 2.005 99.454 3.399 53.317 2.249 106.834 1.958 159.868 4.695 57.653 2.976 115.127 9.254 171.944 18.221 26.628 4.202 54.944 6.636 82.913 7.657 2.402.086 4.766.636 6.817 2.003-20.245.316-40.182.051-59.726-2.388-2.518 5.034 5.947 3.869 6.962 8.516-42.315 7.297-84.751-6.315-126.432-.582 9.07 6.113 21.875 4.263 32.242 4.38 31.114.351 60.962 5.612 91.289 8.658 12.202 1.226 25.196-.154 36.874 3.717 6.827 2.264 19.682-4.912 21.055 5.99 17.127-3.114 31.037 6.682 47.889 5.214 17.196-1.498 33.425 2.735 50.003 4.68 3.643.427 9.094 1.13 9.795 4.758.835 4.312-4.338 5.365-8.934 6.734-14.883 4.435-28.791-1.858-43.327-1.871-3.962-.004-8.523-1.11-12.874-1.016-41.311.898-81.586-5.549-122.511-7.594-26.056-2.025-52.075-4.065-78.094-6.106l-.405 2.869c26.088 1.95 51.853 6.191 78.648 3.132"/><path d="M-14.546 4.46S4.214-29.654 92.242-20.434c88.028 9.22 126.992 2.766 170.284-4.61 43.293-7.376 61.881-7.746 103.095 2.12s55.645 30.15 189.852 9.866c134.206-20.284 197.702-36.88 281.401-21.206 83.699 15.674 186.817-12.99 290.06 13.83 103.243 26.819 262.641-20.284 343.454 24.894H-14.542z"/></g></svg>