<svg clip-rule="evenodd" fill-rule="evenodd" stroke-linejoin="round" stroke-miterlimit="2" viewBox="0 0 900 165" xmlns="http://www.w3.org/2000/svg"><g fill-rule="nonzero"><path d="m819.532 82.461 80.468-82.461h-819.516l-80.484 82.461 80.484 82.475h819.516z" fill="#005f89"/><g fill="#fff"><path d="m242.017 29.767c0-2.36 1.108-3.541 3.325-3.541h10.432c2.292 0 3.439 1.142 3.439 3.427v2.513c0 1.904.955 2.856 2.866 2.856h36.798c2.293 0 3.439 1.142 3.439 3.427v6.626c0 2.284-1.146 3.427-3.439 3.427h-36.798c-1.911 0-2.866.952-2.866 2.856v12.337c0 1.904.955 2.856 2.866 2.856h40.008c2.293 0 3.439 1.142 3.439 3.427v6.625c0 2.285-1.146 3.427-3.439 3.427h-40.008c-1.911 0-2.866.952-2.866 2.856v9.139c0 1.904.955 2.856 2.866 2.856h35.423c2.292 0 3.439 1.142 3.439 3.427v6.625c0 2.285-1.147 3.427-3.439 3.427h-35.423c-1.911 0-2.866.952-2.866 2.856v8.682c0 1.904.955 2.856 2.866 2.856h40.008c2.293 0 3.439 1.142 3.439 3.427v6.626c0 2.284-1.146 3.427-3.439 3.427h-77.036c-1.529-.305-3.057-.762-4.586-1.371-2.445-1.447-4.738-1.485-6.878-.114-3.057 1.523-7.337 2.018-12.839 1.485-2.293 0-3.63-1.143-4.013-3.427l-.917-5.712c-.535-2.894-.382-4.341.459-4.341 4.28-.229 6.152-2.285 5.617-6.169v-23.418c0-2.284 1.146-3.427 3.439-3.427h9.859c2.293 0 3.439 1.143 3.439 3.427v19.877c0 1.828.459 3.503 1.376 5.026 2.675 3.656 5.808 5.217 9.4 4.684h9.744c1.911 0 2.866-.952 2.866-2.856v-37.012c0-1.904-.955-2.856-2.866-2.856h-40.581c-2.293 0-3.439-1.142-3.439-3.427v-6.625c0-2.285 1.146-3.427 3.439-3.427h40.581c1.911 0 2.866-.952 2.866-2.856v-12.337c0-1.904-.955-2.856-2.866-2.856h-37.372c-2.292 0-3.439-1.143-3.439-3.427v-6.626c0-2.285 1.147-3.427 3.439-3.427h37.372c1.911 0 2.866-.952 2.866-2.856z"/><path d="m331.709 30.453c-1.222-2.513-.84-3.77 1.147-3.77h10.661c2.293 0 3.974 1.142 5.044 3.427 1.376 2.666 3.019 3.998 4.929 3.998 2.14 0 3.822-1.142 5.045-3.427 1.452-2.665 3.171-3.998 5.158-3.998h10.318c2.292 0 2.904 1.142 1.834 3.427l-.459 1.028c-.917 1.98-.114 2.97 2.408 2.97 2.445 0 3.668 1.143 3.668 3.427v4.798c0 2.285-1.146 3.427-3.439 3.427h-13.413c-1.91 0-2.866.952-2.866 2.856v15.079c0 1.904.956 2.856 2.866 2.856 2.217.381 3.974-.571 5.274-2.856.229-2.361.305-4.76.229-7.197 0-2.285 1.146-3.427 3.439-3.427h2.981c2.292 0 3.439 1.142 3.439 3.427v14.622c-.153 3.808-2.255 6.093-6.305 6.854-2.981.229-6 .305-9.057.229-1.91 0-2.866.952-2.866 2.855.23 4.57.039 7.654-.573 9.253-1.299 3.732-3.936 5.941-7.91 6.626h-22.469c-2.292 0-3.63-1.142-4.012-3.427l-.459-3.427c-.458-2.589.459-3.884 2.752-3.884h8.941c4.433.381 6.573-1.523 6.42-5.712 0-1.523-.955-2.284-2.866-2.284h-12.037c-2.292 0-3.439-1.143-3.439-3.427v-18.278c0-2.285 1.147-3.427 3.439-3.427h2.981c2.293 0 3.439 1.142 3.439 3.427v7.197c0 1.904.955 2.856 2.866 2.856h2.751c1.911 0 2.866-.952 2.866-2.856v-15.079c0-1.904-.955-2.856-2.866-2.856h-13.986c-2.292 0-3.439-1.142-3.439-3.427v-4.798c0-2.284 1.147-3.427 3.439-3.427h3.096c1.91 0 2.254-1.218 1.031-3.655zm55.6 1.142c0-2.361 1.108-3.541 3.324-3.541h37.486c2.293 0 3.44 1.142 3.44 3.427v56.317c-.459 4.95-3.057 7.768-7.796 8.454-2.14.228-4.318.304-6.534.228-2.293 0-3.669-1.142-4.127-3.427l-.917-4.227c-.306-1.903-.153-2.97.458-3.198 2.064-1.142 2.79-3.046 2.179-5.712 0-2.056-.956-3.084-2.866-3.084h-5.044c-1.911 0-2.866.952-2.866 2.856v8.567c0 1.904-.726 3.808-2.179 5.712-2.674 2.513-6.266 3.503-10.775 2.97-1.911 0-2.866.952-2.866 2.856v2.513c0 1.904.955 2.856 2.866 2.856h36.454c2.293 0 3.439 1.142 3.439 3.427v4.341c0 2.285-1.146 3.427-3.439 3.427h-36.454c-1.911 0-2.866.952-2.866 2.856v2.513c0 1.904.955 2.856 2.866 2.856h40.008c2.293 0 3.439 1.142 3.439 3.427v4.798c0 2.284-1.146 3.427-3.439 3.427h-103.518c-2.292 0-3.439-1.143-3.439-3.427v-4.798c0-2.285 1.147-3.427 3.439-3.427h40.582c1.911 0 2.866-.952 2.866-2.856v-2.513c0-1.904-.955-2.856-2.866-2.856h-36.455c-2.292 0-3.439-1.142-3.439-3.427v-4.341c0-2.285 1.147-3.427 3.439-3.427h36.455c1.911 0 2.866-.952 2.866-2.856v-1.942c0-2.285 1.146-3.427 3.439-3.427h7.795c1.911 0 2.637-1.218 2.179-3.655l-.459-3.199c-.535-2.589-.382-3.922.459-3.998 2.445-.609 3.401-2.399 2.866-5.369v-49.121zm27.513 11.195c0-1.98-.918-2.97-2.752-2.97h-5.158c-1.911 0-2.866.952-2.866 2.856v2.627c0 1.904.955 2.856 2.866 2.856h5.044c1.91 0 2.866-.952 2.866-2.856zm0 18.278c0-1.981-.918-2.971-2.752-2.971h-5.158c-1.911 0-2.866.952-2.866 2.856v3.199c0 1.904.955 2.856 2.866 2.856h5.044c1.91 0 2.866-.952 2.866-2.856z"/><path d="m460.264 30.339c0-2.437 1.07-3.656 3.209-3.656h10.547c2.293 0 3.439 1.142 3.439 3.427v5.712c0 1.904 1.032 2.856 3.095 2.856 1.988 0 2.981 1.142 2.981 3.427v6.625c0 2.285-.993 3.427-2.981 3.427-2.063 0-3.095.952-3.095 2.856v64.885c0 1.904.956 2.856 2.866 2.856h1.49c2.293 0 3.44 1.142 3.44 3.427v6.626c0 2.284-1.147 3.427-3.44 3.427h-25.105c-2.293 0-3.439-1.143-3.439-3.427v-6.626c0-2.285 1.146-3.427 3.439-3.427 2.369 0 3.554-.952 3.554-2.856v-64.885c0-1.904-1.109-2.856-3.325-2.856-2.14 0-3.21-1.142-3.21-3.427v-6.625c0-2.285 1.07-3.427 3.21-3.427 2.216 0 3.325-.952 3.325-2.856zm58.923 0c0-2.437 1.07-3.656 3.21-3.656h10.088c2.293 0 3.439 1.142 3.439 3.427v11.88c0 1.98 1.223 2.628 3.669 1.942l16.966-4.112c2.599-.609 3.898.228 3.898 2.513v60.544c-.459 4.95-3.057 7.806-7.796 8.568l-5.846.114c-2.293 0-3.63-1.142-4.012-3.427-.459-1.904-.803-3.808-1.032-5.712-.382-2.284-.191-3.427.573-3.427 3.057-.381 4.28-2.246 3.668-5.597v-32.9c0-1.904-1.031-2.589-3.095-2.056-1.375.229-2.789.571-4.241 1.028-1.835.609-2.752 1.828-2.752 3.656v47.293c0 2.284-1.146 3.427-3.439 3.427h-9.859c-2.292 0-3.439-1.143-3.439-3.427v-43.295c0-1.904-1.031-2.589-3.095-2.056l-4.127.914c-2.14.609-3.21 1.713-3.21 3.312v48.093c-.305 4.341 1.529 6.131 5.503 5.369h45.969c2.293 0 3.44 1.142 3.44 3.427v6.626c0 2.284-1.147 3.427-3.44 3.427h-59.038c-4.815 0-7.757-2.894-8.827-8.682v-54.033c0-1.904-.993-2.627-2.98-2.17-1.758.457-2.637-.457-2.637-2.742v-8.453c0-2.285.917-3.618 2.751-3.999 1.911-.533 2.866-1.713 2.866-3.541v-17.021c0-2.284 1.146-3.427 3.439-3.427h9.515c2.293 0 3.439 1.143 3.439 3.427v13.137c0 1.904 1.223 2.513 3.669 1.828l4.012-1.028c1.834-.533 2.751-1.714 2.751-3.541v-15.65z"/><path d="m585.493 31.595c0-2.361 1.109-3.541 3.325-3.541h97.556c2.293 0 3.439 1.142 3.439 3.427v95.957c-.305 5.178-3.209 8.11-8.712 8.796h-92.168c-2.293 0-3.44-1.143-3.44-3.427zm87.583 11.195c0-1.98-.917-2.97-2.751-2.97h-65.229c-1.91 0-2.866.952-2.866 2.856v79.05c0 1.904.956 2.856 2.866 2.856h62.707c4.203.38 5.961-1.485 5.273-5.598zm-64.426 5.94c0-2.361 1.108-3.541 3.325-3.541h50.44c2.293 0 3.439 1.142 3.439 3.427.764 7.387-1.834 11.766-7.795 13.137-2.904.228-5.808.305-8.713.228-1.91 0-2.866.876-2.866 2.628 0 1.828.956 2.741 2.866 2.741h14.445c2.292 0 3.439 1.181 3.439 3.542 0 2.437-1.147 3.655-3.439 3.655h-52.733c-2.293 0-3.44-1.18-3.44-3.541 0-2.437 1.147-3.656 3.44-3.656h15.361c1.911 0 2.866-.875 2.866-2.627 0-1.828-.955-2.742-2.866-2.742h-14.33c-2.292 0-3.439-1.142-3.439-3.427zm40.811 3.656c0-1.523-.917-2.285-2.751-2.285h-18.801c-1.91 0-2.866 1.18-2.866 3.541s.956 3.542 2.866 3.542h16.164c3.592.837 5.388-.762 5.388-4.798zm-41.728 30.957c0-2.437 1.07-3.655 3.21-3.655h52.733c2.293 0 3.439 1.142 3.439 3.427v27.416c-.076 5.026-3.019 7.958-8.827 8.796h-47.116c-2.293 0-3.439-1.142-3.439-3.427zm44.938 5.598c0-1.98-.917-2.97-2.751-2.97h-24.877c-1.91 0-2.866.952-2.866 2.855v21.476c0 1.904.956 2.856 2.866 2.856h22.24c4.203.533 5.999-1.332 5.388-5.597zm-25.679 5.94c0-2.361 1.108-3.541 3.325-3.541h14.559c2.292 0 3.439 1.142 3.439 3.427.153 3.046 0 5.331-.459 6.854-1.223 4.112-3.974 6.283-8.254 6.511h-9.171c-2.292 0-3.439-1.142-3.439-3.427zm14.215 3.655c0-1.523-1.146-2.284-3.439-2.284-2.446 0-3.668 1.18-3.668 3.541s.764 3.541 2.292 3.541c3.287.533 4.892-1.066 4.815-4.798z"/></g></g></svg>