<svg viewBox="0 0 23 23" xmlns="http://www.w3.org/2000/svg" fill-rule="evenodd" clip-rule="evenodd" stroke-linejoin="round" stroke-miterlimit="2"><path d="M12.105 6.428c.353 0 .529.176.529.529v2.398c0 .294.148.441.441.441h2.239c.353 0 .529.176.529.529v1.763c0 .352-.176.529-.529.529h-2.239c-.293 0-.441.147-.441.441v2.486c0 .352-.176.529-.529.529h-1.728c-.353 0-.529-.177-.529-.529v-2.486c0-.294-.147-.441-.441-.441H7.186c-.353 0-.529-.177-.529-.529v-1.763c0-.353.176-.529.529-.529h2.221c.294 0 .441-.147.441-.441V6.957c0-.353.176-.529.529-.529h1.728zM0 11.251c0 6.212 5.037 11.25 11.25 11.25s11.25-5.038 11.25-11.25C22.5 5.037 17.463 0 11.25 0S0 5.037 0 11.251" fill="#a3a3a3" fill-rule="nonzero" opacity=".9"/></svg>