<svg viewBox="0 0 900 165" xmlns="http://www.w3.org/2000/svg" fill-rule="evenodd" clip-rule="evenodd" stroke-linejoin="round" stroke-miterlimit="2"><path d="M819.532 82.461L900 0H80.483L0 82.461l80.483 82.475H900l-80.468-82.475z" fill="#005f89" fill-rule="nonzero"/><path d="M194.785 29.041c0-2.391 1.122-3.586 3.366-3.586h10.099c2.322 0 3.483 1.157 3.483 3.47v2.545c0 1.928.967 2.892 2.902 2.892h23.216c2.322 0 3.483 1.157 3.483 3.47v89.994c-.078 5.167-3.057 8.174-8.939 9.023h-9.17c-2.322 0-3.676-1.157-4.063-3.471l-.929-5.783c-.464-2.931-.077-4.396 1.161-4.396 3.482.077 4.953-1.812 4.411-5.668V50.903c0-1.928-.967-2.892-2.902-2.892h-6.268c-1.935 0-2.902.964-2.902 2.892v76.229c-.697 3.933-2.632 6.786-5.804 8.56-2.245 1.157-6.346 1.542-12.305 1.157-2.322 0-3.676-1.157-4.063-3.471l-.929-5.783c-.541-2.931-.348-4.396.581-4.396 4.179-.154 6.036-2.275 5.572-6.362V50.903c0-1.928-1.006-2.892-3.018-2.892-1.935 0-2.903-1.156-2.903-3.47v-6.709c0-2.313.968-3.47 2.903-3.47 2.012 0 3.018-.964 3.018-2.892v-2.429zm55.487 3.47c0-2.468 1.083-3.701 3.25-3.701h39.932c2.322 0 3.483 1.156 3.483 3.47v95.777c-.31 5.244-3.251 8.175-8.822 8.792h-34.361c-2.321 0-3.482-1.157-3.482-3.471V32.511zm29.252 13.071c0-2.082-.889-3.123-2.669-3.123h-6.269c-1.935 0-2.902.964-2.902 2.892v74.956c0 1.928.967 2.892 2.902 2.892 2.322.077 4.643 0 6.965-.231 1.703-1.08 2.36-2.892 1.973-5.437V45.582zm59.713-13.071c0-2.468 1.083-3.701 3.25-3.701h43.183c5.494.077 9.325 3.123 11.492 9.138l26.699 80.971c.773 2.931 2.669 4.357 5.688 4.28 1.006 0 1.509 1.157 1.509 3.47v6.709c0 2.314-1.161 3.471-3.483 3.471-6.578.617-11.879-.733-15.903-4.049-1.703-1.851-3.057-4.588-4.063-8.213l-23.913-74.031c-.155-1.388-.774-2.93-1.857-4.627-1.703-1.928-3.018-1.966-3.947-.115l-36.798 82.475c-1.006 3.701-3.405 6.208-7.197 7.519-2.786 1.079-5.727 1.426-8.822 1.041-2.322 0-3.715-1.157-4.179-3.471l-.929-5.783c-.541-2.931.349-4.434 2.67-4.511 2.631-.463 4.334-2.006 5.108-4.627l31.806-72.99c.851-2.005.271-3.008-1.741-3.008h-15.091c-2.321 0-3.482-1.157-3.482-3.47v-6.478zm113.342-1.619c0-2.391 1.122-3.586 3.367-3.586h98.785c2.322 0 3.483 1.156 3.483 3.47v97.166c-.31 5.244-3.251 8.213-8.823 8.907h-93.329c-2.322 0-3.483-1.157-3.483-3.471V30.892zm44.46 11.567c-.078-2.159-1.045-3.239-2.903-3.239h-21.707c-1.935 0-2.902.964-2.902 2.892v80.046c0 1.928.967 2.892 2.902 2.892h63.497c4.256.386 6.036-1.504 5.34-5.668v-77.27c0-1.928-.968-2.892-2.902-2.892h-21.127c-1.935 0-2.902 1.041-2.902 3.123 0 2.082.967 3.124 2.902 3.124h15.439c2.321 0 3.482 1.041 3.482 3.123 0 2.082-1.161 3.123-3.482 3.123h-15.439c-1.935 0-2.902 1.041-2.902 3.123 0 2.082.967 3.123 2.902 3.123h14.626c2.322 0 3.483 1.157 3.483 3.47v13.303c-.387 4.087-2.283 6.786-5.688 8.097-2.013.848-6.153 1.118-12.421.81-1.935 0-2.902.925-2.902 2.776 0 1.928 1.083 2.892 3.25 2.892 2.167.385 3.869 0 5.108-1.157.696-.848 1.896-1.272 3.598-1.272h6.385c2.321 0 3.482.385 3.482 1.156.232 2.083-.619 3.895-2.554 5.437-.696.54-1.044 1.812-1.044 3.817 0 2.16.619 3.239 1.857 3.239 1.161 0 1.741 1.041 1.741 3.123 0 2.082-.58 3.124-1.741 3.124-1.238 0-1.857 1.118-1.857 3.354.619 6.709-2.632 10.064-9.751 10.064h-9.171c-2.321 0-3.598-.733-3.83-2.198-.233-1.465.077-2.198.928-2.198 3.715-.154 5.146-2.121 4.295-5.899 0-2.082-.967-3.123-2.902-3.123h-34.592c-2.322 0-3.483-1.042-3.483-3.124s1.161-3.123 3.483-3.123h34.592c1.935 0 2.902-.964 2.902-2.892s-.967-2.892-2.902-2.892h-33.78c-2.321 0-3.637-.809-3.946-2.429-.31-2.005.541-3.007 2.553-3.007h17.064c1.935 0 2.902-.926 2.902-2.776 0-1.928-.967-2.892-2.902-2.892h-14.974c-2.322 0-3.483-1.157-3.483-3.47v-18.74c0-2.313 1.161-3.47 3.483-3.47h14.974c1.935 0 2.902-1.041 2.902-3.123 0-2.082-.967-3.123-2.902-3.123h-16.019c-2.322 0-3.482-1.041-3.482-3.123 0-2.082 1.16-3.123 3.482-3.123h16.019c1.935 0 2.941-1.003 3.019-3.008zm0 23.135c-.078-2.16-1.045-3.239-2.903-3.239h-4.643c-1.935 0-2.902 1.041-2.902 3.123 0 2.082.967 3.123 2.902 3.123h4.527c1.935 0 2.941-1.002 3.019-3.007zm27.395 0c-.078-2.16-1.045-3.239-2.902-3.239h-4.295c-1.935 0-2.902 1.041-2.902 3.123 0 2.082.967 3.123 2.902 3.123h4.179c1.934 0 2.94-1.002 3.018-3.007zM496.922 76.12c0-2.082-.928-3.123-2.786-3.123h-4.643c-1.935 0-2.902 1.002-2.902 3.007 0 2.082.967 3.124 2.902 3.124h4.527c1.935 0 2.902-1.003 2.902-3.008zm27.396-1.388c0-1.157-.968-1.735-2.902-1.735h-4.179c-1.935 0-2.902 1.002-2.902 3.007 0 2.082 1.238 3.124 3.714 3.124 2.322.308 4.063 0 5.224-.926.929-1.002 1.277-2.159 1.045-3.47zm-46.665 39.792c-1.084-1.388-.464-2.082 1.857-2.082h11.26c2.322 0 3.792.385 4.411 1.156 1.625 1.465 3.599 2.044 5.92 1.735 1.703 0 2.554.579 2.554 1.735 0 1.157-1.161 1.736-3.482 1.736h-13.93c-3.328-.078-6.191-1.504-8.59-4.28zm154.203-83.517c1.161-3.084 2.786-4.627 4.875-4.627h8.707c2.321 0 3.134 1.157 2.437 3.471a481.241 481.241 0 0 0-5.223 17.119c-1.006 2.005-.503 3.008 1.509 3.008h29.136c1.857 0 2.399-1.041 1.625-3.123l-1.741-4.859c-.851-1.85-2.205-2.776-4.063-2.776h-10.215c-2.322 0-3.482-1.157-3.482-3.47v-5.784c0-2.313 1.16-3.47 3.482-3.47h19.85c2.322 0 3.986 1.157 4.992 3.47a119.675 119.675 0 0 0 3.366 8.097c.542.772 1.432 1.543 2.67 2.314 1.47.385 2.205 1.581 2.205 3.586v6.13c0 2.314-.812 3.471-2.437 3.471-1.78 0-2.67.964-2.67 2.892v2.891c0 2.314-1.161 3.471-3.483 3.471h-30.181c-1.857 0-3.212 1.311-4.063 3.932-1.006 2.777-.58 4.165 1.277 4.165h15.787c2.322 0 3.483 1.156 3.483 3.47v53.557c-.31 4.087-2.129 6.786-5.456 8.097-2.012.848-5.572 1.118-10.68.81-2.321 0-3.714-1.157-4.179-3.471l-.928-5.783c-.387-2.314-.349-3.47.116-3.47 3.25-.694 4.488-2.584 3.714-5.668V85.605c0-1.928-.967-2.892-2.902-2.892h-2.786c-1.857 0-3.095.386-3.714 1.157-2.399 2.699-6.191 3.856-11.376 3.47-2.322 0-3.754-1.156-4.295-3.47a10.21 10.21 0 0 1-.581-2.66c-.541-2.622-.425-3.933.348-3.933 2.786.308 4.682-.887 5.688-3.586l2.09-6.941c.851-2.621.077-3.932-2.322-3.932-2.321 0-3.482-1.157-3.482-3.471v-2.429c0-1.928-.464-2.892-1.393-2.892s-1.625-1.156-2.09-3.47l-.232-1.157c-.464-2.159-.812-3.431-1.044-3.817-.697-1.002-1.277-1.157-1.742-.463-.154.617-.232 1.851-.232 3.702v17.12c-.077 3.624-1.818 6.516-5.224 8.675-2.399.926-3.753 1.581-4.062 1.967 0 .462 1.276 1.156 3.83 2.082 3.328 1.542 5.147 4.357 5.456 8.444v30.538c-.077 5.167-3.057 8.174-8.938 9.022h-11.376c-1.935 0-2.902.964-2.902 2.892v3.817c0 2.314-1.161 3.471-3.483 3.471h-9.17c-2.322 0-3.483-1.157-3.483-3.471V30.429c0-2.314 1.161-3.47 3.483-3.47h26.815c6.81 1.002 9.789 4.819 8.938 11.451 0 1.928 1.2 2.854 3.599 2.777 1.47 0 2.786-1.08 3.946-3.239a80.006 80.006 0 0 1 2.206-6.941zm-25.77 15.038c.851-3.393-.735-5.205-4.76-5.437-1.547 0-2.321.964-2.321 2.892v23.482c0 1.928.774 2.892 2.321 2.892 3.87.154 5.456-1.697 4.76-5.553V46.045zm73.364 28.803c.386-2.391 1.702-3.586 3.946-3.586h4.876c2.321 0 3.327 1.156 3.018 3.47a97.776 97.776 0 0 0-1.277 8.097c-.31 3.393-.774 5.707-1.393 6.941-2.012 3.007-4.798 4.626-8.358 4.858-2.322.077-3.753-1.041-4.295-3.355l-.813-3.47c-.541-2.545-.464-3.894.233-4.049 1.934-.462 2.979-1.542 3.134-3.238.155-1.851.464-3.74.929-5.668zm-73.364 14.227c.851-3.547-.774-5.359-4.876-5.436-1.47 0-2.205.964-2.205 2.892v23.597c0 1.928.774 2.892 2.321 2.892 3.87.231 5.456-1.658 4.76-5.668V89.075zm25.538 4.974c.619-1.927 2.012-2.891 4.179-2.891h7.777c2.322 0 3.096 1.156 2.322 3.47l-2.438 8.097c-1.857 5.167-5.997 7.442-12.421 6.825-2.321 0-3.753-1.157-4.295-3.471a18.762 18.762 0 0 1-.812-3.47c-.542-2.545-.271-3.856.812-3.933 2.09.155 3.715-1.388 4.876-4.627zm43.182 12.956c-.077-2.545.929-3.817 3.018-3.817h6.037c2.321 0 3.559 1.156 3.714 3.47.155 4.241.426 8.483.813 12.724.232 1.157 1.122 2.044 2.67 2.66.619.155.928 1.389.928 3.702v5.784c0 2.313-1.16 3.47-3.482 3.47-5.185.385-8.977-1.542-11.376-5.784-.929-1.542-1.393-3.856-1.393-6.94l-.929-15.269zm-44.575 12.261c.696-2.39 2.167-3.586 4.411-3.586h7.545c2.322 0 3.134 1.157 2.438 3.471l-2.322 8.097c-1.315 7.017-5.533 10.218-12.653 9.601-2.321 0-3.753-1.157-4.295-3.471l-.812-3.47c-.542-2.545-.194-3.933 1.044-4.164 1.548.077 2.825-1.041 3.831-3.355.155-1.002.426-2.043.813-3.123z" fill="#fff" fill-rule="nonzero"/></svg>