<svg clip-rule="evenodd" fill-rule="evenodd" stroke-linejoin="round" stroke-miterlimit="2" viewBox="0 0 436 73" xmlns="http://www.w3.org/2000/svg"><g fill-rule="nonzero"><path d="m415.335 72.377h-395.191c-11.125 0-20.144-9.018-20.144-20.144v-32.089c0-11.125 9.019-20.144 20.144-20.144h395.191c11.125 0 20.143 9.019 20.143 20.144v32.089c0 11.126-9.018 20.144-20.143 20.144" fill="#fff"/><g fill="#004367"><path d="m370.508 24.671c-3.048 0-4.575 3.687-2.42 5.841l3.852 3.852a.807.807 0 0 1 0 1.144l-3.852 3.851c-2.155 2.156-.628 5.842 2.42 5.842.907 0 1.778-.36 2.418-1.002l8.692-8.691a.809.809 0 0 0 0-1.144l-8.692-8.691a3.415 3.415 0 0 0 -2.418-1.002m17.01 0c-3.048 0-4.576 3.687-2.419 5.841l3.851 3.852a.809.809 0 0 1 0 1.144l-3.851 3.851c-2.157 2.156-.63 5.842 2.418 5.842.909 0 1.778-.36 2.421-1.002l8.69-8.691a.809.809 0 0 0 0-1.144l-8.69-8.691a3.423 3.423 0 0 0 -2.421-1.002"/><path d="m429.019 53.383c-2.001 7.693-8.98 12.841-16.824 13.009h-374.192c-4.887 0-9.781.081-14.668 0-6.085-.102-11.75-3.134-14.927-8.394-2.473-4.092-2.502-8.429-2.502-12.996v-14.988c0-3.717-.375-7.783.66-11.391 2.296-8.021 9.582-12.613 17.657-12.637 2.268-.007 4.537 0 6.804 0h379.914c6.802 0 13.113 2.87 16.508 9.045 2.194 3.99 2.125 8.193 2.125 12.562v15.282c0 3.438.317 7.156-.555 10.508m2.788-32.012c-1.057-10.229-9.749-17.58-19.858-17.729-1.775-.027-3.551 0-5.325 0h-362.588c-6.636 0-13.272-.022-19.909 0-7.217.024-13.932 3.244-17.744 9.552-2.397 3.97-2.82 8.26-2.82 12.764v14.802c0 3.502-.273 7.15.151 10.64.788 6.475 4.871 12.327 10.725 15.241 3.515 1.75 7.193 2.094 11.008 2.094h386.748c6.646-.143 12.805-3.325 16.498-8.916 2.632-3.982 3.225-8.401 3.225-13.044v-14.606c0-3.563.256-7.244-.111-10.798"/><path d="m57.666 19.821c1.504 1.16 2.761 2.3 3.771 3.416l-1.483 1.483h3.867v2.932h-9.603c.237 3.825.623 6.779 1.16 8.863.108.451.258.988.451 1.611 1.354-2.406 2.482-5.124 3.384-8.153l2.804 1.192c-1.31 4.211-2.944 7.735-4.898 10.57a18.25 18.25 0 0 0 1.063 1.966c.988 1.44 1.74 2.159 2.255 2.159.43 0 .849-1.578 1.257-4.737l2.772 1.482c-.816 4.47-1.998 6.704-3.545 6.704-1.418 0-2.9-.956-4.447-2.868a15.87 15.87 0 0 1 -1.386-2.127c-2.148 2.406-4.651 4.243-7.509 5.51l-1.74-2.578c3.115-1.396 5.726-3.405 7.831-6.026a39.952 39.952 0 0 1 -1.192-3.771c-.687-2.556-1.149-5.822-1.386-9.796h-10.377v4.704h7.896c-.065 5.823-.355 9.507-.87 11.055-.516 1.332-1.612 2.019-3.288 2.062-.666 0-1.557-.054-2.674-.161l-.935-2.772c1.719.086 2.804.129 3.255.129.558-.021.934-.386 1.128-1.096.171-.73.29-2.836.354-6.316h-4.866v.193c-.129 5.909-1.428 10.689-3.9 14.341l-2.319-2.063c2.019-2.943 3.072-7.035 3.158-12.278v-10.731h13.277c-.043-1.01-.064-2.589-.064-4.738h3.093c0 1.182.043 2.761.129 4.738h4.963a24.075 24.075 0 0 0 -3.319-3.029zm31.622 7.864h-7.348a93.762 93.762 0 0 1 -1.225 2.997h7.799zm-9.99 5.704a34.233 34.233 0 0 1 -2.192 3.319h14.212l.741-3.319zm15.017 3.319h2.932c-.064 6.252-.483 9.99-1.256 11.215-.86 1.246-2.267 1.869-4.222 1.869-.494 0-1.558-.043-3.19-.128l-.774-2.901 3.255.225c1.332-.064 2.159-.494 2.481-1.289.344-.816.548-2.9.612-6.252h-19.432a29.522 29.522 0 0 1 -4.931 3.965l-1.515-2.708c4.749-3.136 8.24-7.477 10.474-13.019h-8.282v-2.708h4.899a35.726 35.726 0 0 0 -2.288-3.222l2.416-1.515c1.075 1.247 1.967 2.46 2.675 3.642l-1.547 1.095h3.094a47.417 47.417 0 0 0 1.192-4.93l2.997.387a52.339 52.339 0 0 1 -1.095 4.543h9.861l-1.192 5.705h3.899zm-17.306 5.221c-.838 2.664-2.02 4.974-3.545 6.928l-2.675-1.675c1.548-1.805 2.686-3.76 3.417-5.865zm3.867-.129c.688 1.418 1.139 3.341 1.354 5.769l-2.932.354c-.151-2.471-.495-4.404-1.032-5.801zm4.48-.644c.902 1.74 1.622 3.383 2.159 4.93l-2.772.999a41.602 41.602 0 0 0 -1.772-5.253zm4.898-.87a27.062 27.062 0 0 1 2.16 4.64l-2.804.709a32.597 32.597 0 0 0 -1.804-4.576zm30.913-20.465h10.602v2.804h-7.476v16.951h-3.126zm30.139.194a45.41 45.41 0 0 0 13.922 9.829l-1.515 2.739a43.742 43.742 0 0 1 -4.512-2.482v2.901h-7.444v4.834h9.056v2.965h-9.056v5.092h11.988v2.997h-27.038v-2.997h11.957v-5.092h-9.089v-2.965h9.089v-4.834h-7.445v-2.901a63.415 63.415 0 0 1 -4.641 2.547l-1.482-2.675c5.607-2.686 10.28-6.005 14.018-9.958zm7.83 10.055c-3.351-2.063-6.327-4.49-8.926-7.283-2.406 2.642-5.382 5.07-8.927 7.283zm9.869-1.967h2.643v-7.895h2.965v7.895h2.61v2.901h-2.61v8.862l2.353-1.353v2.964a43.76 43.76 0 0 1 -7.606 3.578l-.741-2.933a27.577 27.577 0 0 0 3.029-.934v-10.184h-2.643zm12.504 5.995c-.193 6.38-1.686 11.494-4.479 15.34l-2.224-1.966c2.385-3.287 3.642-7.831 3.771-13.632v-9.12h9.281c-.043-.988-.065-2.536-.065-4.641h2.836c0 1.676.032 3.223.097 4.641h6.993v2.804h-6.897c.172 3.846.462 6.831.87 8.958l.194.967c.988-2.191 1.783-4.63 2.385-7.315l2.482 1.063c-.968 3.953-2.256 7.337-3.868 10.152.258.902.548 1.643.87 2.223.731 1.44 1.268 2.159 1.612 2.159.301 0 .612-1.439.934-4.317l2.514 1.417c-.687 4.405-1.654 6.607-2.901 6.607-1.16 0-2.352-.967-3.576-2.9-.452-.666-.882-1.473-1.29-2.418-1.761 2.256-3.781 3.996-6.058 5.221l-1.837-2.353c2.749-1.396 5.017-3.426 6.799-6.09-.236-.731-.515-1.837-.837-3.32-.58-2.685-.967-6.037-1.161-10.054h-6.445v3.996h5.446c0 5.973-.258 9.624-.773 10.956-.516 1.269-1.418 1.935-2.707 1.999h-2.159l-.742-2.482h2.224c.581-.064.956-.558 1.128-1.482.15-.903.247-3.04.29-6.413zm12.988-14.212a19.546 19.546 0 0 1 2.127 3.803l-2.192.967c-.688-1.504-1.408-2.805-2.159-3.9zm10.964 3.577h10.377v-3.384h2.965v3.384h10.248v2.804h-10.248v4.318h12.472v2.868h-27.844v-2.868h12.407v-4.319h-10.377zm11.118 10.732h2.933v3.867h8.862v2.868h-8.862v5.511c1.74.15 3.437.225 5.091.225 2.944 0 5.425-.065 7.445-.193l-.902 3.094c-1.741 0-3.857-.022-6.349-.065-5.522-.022-9.314-.537-11.376-1.547-1.547-.773-2.954-2.267-4.222-4.479-1.031 2.212-2.438 4.297-4.222 6.251l-2.352-2.062c3.287-3.717 5.124-7.821 5.511-12.311l2.997.387c-.13 1.74-.43 3.395-.903 4.963 1.311 2.449 2.804 4.007 4.48 4.673.558.236 1.181.43 1.869.58zm22.276 6.251h10.538v-2.03h2.61l-1.901-1.708c1.933-1.976 2.932-4.468 2.997-7.477v-8.185h11.085v14.695c0 1.912-.955 2.868-2.868 2.868h-2.868l-.741-2.739c1.289.086 2.202.129 2.739.129.559 0 .838-.419.838-1.257v-1.45h-5.897c-.581 2.041-1.568 3.814-2.965 5.317v1.837h10.699v2.836h-10.699v2.61h12.794v2.804h-28.488v-2.804h12.665v-2.61h-10.538zm-1.772-16.693h3.383a30.904 30.904 0 0 0 -1.547-2.611l2.417-1.192c.688 1.075 1.396 2.342 2.127 3.803h1.902a25.26 25.26 0 0 0 1.74-3.932l2.739.935a23.129 23.129 0 0 1 -1.515 2.997h3.513v2.675h-5.736v2.771c-.022.58-.075 1.279-.162 2.095h2.385v-3.48h2.675v6.026h-5.672c-.344.88-.73 1.633-1.16 2.256-1.16 1.568-3.073 2.793-5.737 3.674l-1.514-2.385c2.406-.795 4.049-1.816 4.931-3.062l.29-.483h-4.125v-6.026h2.642v3.48h2.385c.107-.602.182-1.3.226-2.095v-2.771h-6.188v-2.675zm18.852 4.802v.483c0 .451-.042 1.063-.129 1.837h5.479v-2.32zm5.35-2.418v-2.384h-5.35v2.384zm9.513-4.994h9.346v2.288a147.856 147.856 0 0 1 -2.384 7.798c1.482 2.643 2.287 4.985 2.416 7.026 0 1.654-.289 2.826-.87 3.513-.88.902-2.385 1.375-4.511 1.418l-.935-3.062c.709.108 1.246.162 1.611.162.645-.065 1.107-.237 1.386-.516.237-.301.354-.806.354-1.515 0-1.912-.816-4.114-2.448-6.606 1.009-2.793 1.815-5.382 2.416-7.767h-3.352v25.62h-3.029zm9.862 2.9h4.06a20.6 20.6 0 0 0 -1.547-2.997l2.869-1.064c.579 1.096 1.138 2.45 1.675 4.061h3.545a37.734 37.734 0 0 0 1.773-4.028l2.868.999a22.2 22.2 0 0 1 -1.579 3.029h4.318v2.965h-7.799a18.946 18.946 0 0 1 -2.191 2.385c.945.945 1.729 2.073 2.352 3.384 1.956-.946 3.696-2.246 5.221-3.9l2.192 1.805a19.63 19.63 0 0 1 -3.062 2.674c.773 3.825 2.191 7.219 4.253 10.184l-2.094 2.611c-1.998-3.459-3.416-7.305-4.254-11.538l-1.321.613c.666 2.191.999 4.651.999 7.379 0 3.267-.44 5.253-1.322 5.963-.88.666-2.309 1.042-4.286 1.127l-1.579.032-.934-2.739h2.384c.903 0 1.59-.214 2.063-.644.473-.516.709-1.762.709-3.739 0-.837-.032-1.611-.097-2.319-2.514 2.513-5.467 4.629-8.862 6.348l-1.74-2.61c4.296-1.998 7.648-4.351 10.054-7.058a15.254 15.254 0 0 0 -.676-2.062c-1.697 1.955-3.921 3.598-6.671 4.93l-1.483-2.578c2.88-1.246 5.178-2.825 6.897-4.737-.386-.58-.731-1.021-1.031-1.322-1.633 1.075-3.448 2.042-5.446 2.901l-1.58-2.611c3.502-1.224 6.145-2.718 7.928-4.479h-6.606zm27.464-3.158h20.077v6.864h-20.077zm17.176 4.544v-2.127h-14.276v2.127zm-18.755 3.835h23.267v14.889l-6.219-.001c3.351 1.29 6.166 2.546 8.443 3.771l-2.127 2.127c-2.277-1.44-5.489-2.987-9.636-4.641l1.289-1.257h-7.057l1.482 1.29c-2.707 1.718-6.091 3.243-10.151 4.575l-1.805-2.288c3.416-1.074 6.349-2.266 8.798-3.577h-6.285v-14.889zm20.368 12.182v-1.772h-17.435v1.772zm-17.435-4.093h17.435v-1.611h-17.435zm0-3.931h17.435v-1.676h-17.435zm34.585-3.256h3.126v19.755h-10.602v-2.804h7.476z"/></g></g></svg>