<svg viewBox="0 0 900 220" xmlns="http://www.w3.org/2000/svg" xmlns:serif="http://www.serif.com/" fill-rule="evenodd" clip-rule="evenodd" stroke-linejoin="round" stroke-miterlimit="2"><path fill="none" d="M0 0H900V219.457H0z"/><clipPath id="a"><path serif:id="Artboard1" d="M0 0H900V219.457H0z"/></clipPath><g clip-path="url(#a)"><path d="M189.128 161.951v-28.489h-61.141v-21.017h49.734V93.528c7.985 5.014 15.97 10.028 23.955 14.13 6.16-10.028 13.46-21.424 21.902-29.864-33.993-13.237-72.093-40.625-94.222-70.294 3.65-.454 5.931-2.498 6.844-5.224L92.625 0C76.199 27.356 39.24 62.274 0 81.445c7.072 6.385 16.198 18.692 20.533 26.441 8.441-4.558 16.654-9.572 24.639-14.814v19.373h47.909v21.017H32.852v28.489h60.229v21.93h-78.48v29.402h195.288v-29.402h-81.902v-21.93h61.141zm-130.04-78.68c21.217-15.976 39.469-33.777 51.332-50.438 11.863 16.432 31.255 34.691 52.7 50.438H59.088zm348.143 31.013c-1.597-15.057-2.51-31.255-3.422-47.681h41.978V36.716H434.38l13.232-7.528c-3.422-7.985-11.864-19.164-19.392-27.377l-22.814 12.776c5.247 6.616 11.179 15.057 14.829 22.129h-17.339c-.228-9.582-.228-19.163 0-28.061 4.563-.684 6.844-2.053 7.072-4.563l-37.871-2.281c0 11.407.228 23.042.456 34.905h-70.267v68.671c0 11.635-.228 24.639-2.053 37.643l-3.194-15.057-14.601 5.247V83.941h16.882V52.686h-16.882V10.48c4.563-.931 6.388-2.328 6.616-4.656L252.552 3.75v48.936h-18.024v31.255h18.024v59.317c-8.898 2.966-17.111 5.703-23.727 7.529l14.145 36.274c2.053-.684 3.65-2.51 3.878-5.019 13.004-5.247 31.94-13.917 50.191-22.586-3.422 14.601-9.582 28.518-20.076 39.925 6.616 3.65 19.392 14.144 24.182 20.076 15.058-16.198 23.043-39.012 27.377-61.826 2.966 6.844 5.019 16.882 5.476 24.411 20.076 0 26.464-2.053 32.167-10.038 4.563-6.388 5.704-26.465 6.388-73.233v-8.442l-14.601-.684-5.931.228h-19.392v-23.27h41.065c1.597 34.221 4.791 67.757 10.495 94.45-10.495 15.057-23.271 27.149-38.328 36.046 6.388 4.791 16.426 15.057 20.761 20.761 10.266-6.616 19.392-14.601 27.833-23.727 7.072 15.97 15.285 24.183 26.92 24.183 18.708 0 26.693-8.669 31.484-44.715-7.301-3.651-16.198-11.864-22.13-19.392-.456 22.357-2.737 33.536-5.703 33.536-3.422 0-6.616-8.213-9.81-21.673 12.776-20.989 22.129-45.4 28.517-72.321 3.422 0 5.704-1.368 6.388-3.422L415.9 82.573c-2.281 10.95-5.019 21.673-8.441 31.711h-.228zm-61.826 2.053c-.457 24.868-1.141 34.221-2.738 36.959-1.369 2.053-2.966 2.738-5.247 2.738-2.282 0-5.019 0-8.67-.456 2.282-13.461 3.423-26.921 3.651-39.241h13.004zM654.991 151v-29.401h-71.179v-20.561h86.693V70.495h-86.693V53.356h68.214V23.042h-68.214V8.655c4.79-.684 6.616-2.281 6.844-4.791L549.59 1.583v21.459h-64.107v30.314h64.107v17.139h-84.64v30.543h84.64v69.6c-10.722-6.166-19.62-15.071-26.464-27.615 2.282-8.661 4.107-16.866 5.476-24.623 3.422-.228 5.703-1.827 6.159-4.112l-39.924-6.168c-3.422 31.257-13.232 69.368-37.187 88.753 7.072 4.559 19.62 15.272 25.323 21.657 12.32-10.488 21.674-25.304 28.746-41.499 24.639 31.011 59.773 38.305 103.348 38.305h50.191c1.825-9.345 6.844-24.617 11.407-31.911-10.951.228-31.484.456-46.313.456-25.323 0-35.362-.456-46.54-2.055V151h71.179zm157.189 25.096h64.336v-27.577H812.18v-7.537c4.791-.67 6.616-2.231 6.844-4.685l-4.106-.225c10.722-10.447 17.11-23.847 20.761-37.772h25.337v11.193c0 2.518-.913 3.437-3.655 3.437-2.519 0-11.419 0-18.274-.46 3.655 7.981 7.54 20.516 8.683 28.949 33.304 0 44.245-4.559 44.245-31.241V9.582h-82.33v47.44c0 16.21-1.371 35.353-12.334 51.559V65.462c4.111-.684 5.939-2.053 6.167-4.335l-32.642-1.825v21.445h-8.673V55.88h42.449V30.1h-22.358c3.65-5.931 7.072-12.547 9.81-17.795 3.422-.228 5.247-1.14 6.16-2.965l-33.319-7.757c-2.513 8.441-7.072 19.848-11.175 28.517h-12.763c-2.051-8.213-7.066-19.848-12.097-28.517l-24.177 9.125c2.963 5.704 5.697 13.004 7.976 19.392h-20.973v25.78h41.294v24.867h-8.698V65.234c4.12-.684 5.951-2.053 6.18-4.107l-32.16-1.825v53.614h25.98v-7.529h7.782c-2.289 8.67-9.377 14.832-31.027 19.397 5.697 4.564 15.952 17.117 19.371 23.279 30.577-7.76 39.466-23.964 41.289-42.676h9.129v5.475h24.878c-3.423 4.564-7.532 8.673-12.781 12.552 5.249 2.511 13.465 7.532 19.86 12.096l-24.874-1.369v14.378h-62.743v27.577h62.743v9.839h-86.451v28.489H900v-28.489h-87.82v-9.839zM861.016 42.89h-21.017v-6.872h21.017v6.872zm0 23.47v7.329h-21.473c0-2.519.228-4.809.228-7.329h21.245z" fill="#fff" fill-rule="nonzero"/></g></svg>