<svg clip-rule="evenodd" fill-rule="evenodd" stroke-linejoin="round" stroke-miterlimit="2" viewBox="0 0 1440 637" xmlns="http://www.w3.org/2000/svg"><path d="M0 0h1440v636.88H0z" fill="none"/><g fill="#e2eef7" fill-rule="nonzero"><path d="M17.32 626.068s15.432-31.59 52.337-28.079c0 0 53.578-52.652 110.713-7.02 0 0 60.734-11.307 105.712 9.789 29.987 14.066 39.892 28.821 39.892 28.821zm1130.34-141.097s9.57-19.59 32.455-17.413c0 0 33.225-32.651 68.655-4.353 0 0 37.662-7.012 65.554 6.07 18.596 8.722 24.738 17.872 24.738 17.872zM148.873 375.36s9.57-19.59 32.455-17.413c0 0 33.225-32.65 68.656-4.353 0 0 37.662-7.012 65.553 6.071 18.597 8.722 24.739 17.872 24.739 17.872z"/></g></svg>