<svg clip-rule="evenodd" fill-rule="evenodd" stroke-linejoin="round" stroke-miterlimit="2" viewBox="0 0 600 137" xmlns="http://www.w3.org/2000/svg"><g fill-rule="nonzero"><path d="M574.444 136.174H25.556C11.443 136.174 0 124.732 0 110.617V25.556C0 11.443 11.443 0 25.556 0h548.888C588.558 0 600 11.443 600 25.556v85.061c0 14.115-11.442 25.557-25.556 25.557" fill="#fff"/><g fill="#004367"><path d="M489.401 52.034c-3.969 0-5.957 4.799-3.15 7.605l5.015 5.016a1.053 1.053 0 0 1 0 1.489l-5.015 5.015c-2.807 2.807-.819 7.606 3.15 7.606a4.455 4.455 0 0 0 3.151-1.305l11.316-11.316c.41-.411.41-1.078 0-1.489l-11.316-11.317a4.458 4.458 0 0 0-3.151-1.304m22.149 0c-3.969 0-5.957 4.799-3.15 7.605l5.015 5.016a1.051 1.051 0 0 1 0 1.489l-5.015 5.015c-2.807 2.807-.819 7.606 3.15 7.606a4.45 4.45 0 0 0 3.15-1.305l11.317-11.316c.41-.411.41-1.078 0-1.489L514.7 53.338a4.454 4.454 0 0 0-3.15-1.304M231.099 27.071v32.463h-3.802v-2.535H221v2.535h-3.802V27.071zM221 53.238h6.297V30.833H221zm-19.053-30.705h3.925v6.869h8.218c0 13.901-.204 22.487-.613 25.758-.409 3.107-2.439 4.66-6.092 4.66-.49 0-1.553-.068-3.189-.204l-.981-3.557c1.554.136 2.739.204 3.557.204 1.717 0 2.739-.954 3.066-2.862.218-1.771.368-8.504.45-20.197h-4.416v1.104c-.136 11.938-2.766 20.661-7.89 26.167l-3.149-2.781c4.661-4.824 7.033-12.62 7.114-23.386v-1.104h-6.173v-3.802h6.173zm53.193 9.649c-1.799-3.298-3.994-5.874-6.583-7.728l3.23-2.044c3.434 2.399 6.474 6.992 9.118 13.779 3.87 9.54 8.913 16.313 15.127 20.32l-2.412 3.066c-6.405-3.843-11.775-11.216-16.109-22.119l-.286-.777c-2.78 9.895-8.3 17.54-16.559 22.937l-2.33-3.312c8.504-5.587 14.105-13.628 16.804-24.122zm42.562 10.875h3.27v6.869h1.881c.136-.845.232-1.812.286-2.903v-4.988h3.476v4.988c-.082 3.571-.682 6.474-1.799 8.709-1.118 2.017-2.917 3.598-5.397 4.743l-1.963-3.108c2.181-1.063 3.653-2.357 4.416-3.884l.163-.409h-4.333zm17.253 0h3.353v10.058h-5.847v7.033h-3.598V42.035h3.598v7.85h2.494zm-8.995-9.567c.655 2.235 1.213 4.688 1.677 7.36l-2.699.695c-.19-.9-.3-1.472-.327-1.718-3.243.437-5.819.75-7.727.941l-.654-2.699c1.335-.79 2.998-2.671 4.988-5.642l-4.13.409-.736-2.698c.436-.191.859-.573 1.268-1.145a41.1 41.1 0 0 0 3.271-6.787l3.148 1.185c-1.336 2.699-2.617 4.866-3.843 6.501a70.694 70.694 0 0 0 2.821-.327l1.799-3.025 2.943 1.185c-3.025 4.934-5.492 8.273-7.4 10.017l3.762-.531-.736-2.903zm11.162-.572c.818 2.153 1.568 4.729 2.249 7.727l-2.862.736a17.887 17.887 0 0 1-.368-1.717c-2.399.327-4.961.627-7.687.899l-.654-2.739c1.172-.79 2.631-2.671 4.375-5.642l-4.088.368-.777-2.699c.463-.19.886-.558 1.267-1.104a44.045 44.045 0 0 0 2.699-6.419l3.148 1.186c-1.118 2.508-2.235 4.552-3.353 6.133l2.699-.286 1.553-3.067 2.944 1.186a128.798 128.798 0 0 1-3.761 6.296zm-2.698.981c-.981 1.499-1.935 2.739-2.862 3.721l1.84-.246a53.454 53.454 0 0 0 2.044-.286c-.164-.572-.504-1.635-1.022-3.189zm-32.3-10.181h15.291v3.598h-2.535v21.67a18.568 18.568 0 0 1 1.759-.573v3.68l-1.759.572v7.523h-3.638v-6.5c-3.162.845-6.024 1.512-8.586 2.003l-.941-3.68 2.208-.368V27.316h-1.799zm5.397 27.23l3.721-.899v-5.397h-3.721zm0-9.73h3.721v-5.234h-3.721zm0-8.668h3.721v-5.234h-3.721zm41.622-8.832h29.683v8.3h-14.188v2.004h8.382v2.903a42.303 42.303 0 0 0 4.415-4.13l3.19 1.676c-1.609 1.69-3.476 3.299-5.602 4.825h7.36v3.312h-12.838c-1.254.654-2.917 1.417-4.989 2.289h12.92v15.537h-3.802v-1.677h-16.436v1.677h-3.802v-11.98a249.47 249.47 0 0 1-5.561 1.186l-2.085-3.189c6.433-.654 12.143-1.935 17.131-3.843h-16.967v-3.312h14.923v-2.249H330.41v-3.025h10.467v-2.004h-11.734zm20.483 15.578a59.317 59.317 0 0 0 3.23-2.249h-8.218v2.249zm5.52-10.099V26.58h-5.07v2.617zm-8.627 0V26.58h-4.988v2.617zm-8.545 0V26.58h-5.152v2.617zm-.736 24.041v2.371h16.436v-2.371zm16.436-2.944v-2.453h-16.436v2.453zm-252.08 44.855v-3.557h15.945v-1.635h3.843v1.635h15.7v3.557H125.88c2.698 2.126 6.596 3.844 11.693 5.152l-1.676 3.434c-6.487-2.207-11.148-5.069-13.983-8.586h-.532v9.649h-3.843v-9.649h-.531c-2.59 3.38-7.196 6.297-13.82 8.75l-2.044-3.312c5.56-1.635 9.54-3.448 11.939-5.438zm3.72-16.967a78.23 78.23 0 0 1-2.657 2.698l-2.249-2.943c3.407-3.081 5.983-6.774 7.727-11.08l3.639.817a29.86 29.86 0 0 1-1.226 2.862h7.85a25.322 25.322 0 0 0-1.717-3.189l3.965-.654a65.015 65.015 0 0 1 1.595 3.843h12.879v3.189h-12.675v2.085h11.04v2.944h-11.04v2.004h11.04v2.943h-11.04v2.167h13.452v3.23h-30.583zm13.329 7.686v-2.167h-9.731v2.167zm0-5.11v-2.004h-9.731v2.004zm0-4.948v-2.085h-9.731v2.085zm27.598 18.399v-3.271h10.426v-6.664h3.638v6.664h9.772v3.271h-9.772v.327c3.108 1.472 6.379 3.216 9.813 5.233l-2.044 3.067c-3.108-2.262-5.697-3.993-7.769-5.193v7.074h-3.638v-8.055c-2.453 2.862-5.833 5.343-10.14 7.441l-1.962-3.23c4.906-1.826 8.531-4.047 10.875-6.664zm22.037-8.831a25.37 25.37 0 0 1-3.393 4.947l-2.781-1.39c1.282-1.663 2.345-3.326 3.19-4.988zm-17.049-1.186c1.063 1.336 2.071 2.93 3.025 4.784l-2.739 1.431c-.981-1.908-2.031-3.571-3.148-4.988zm1.881-11.652c-1.69 2.453-3.898 4.674-6.624 6.664l-2.371-3.066c3.898-2.617 6.528-5.806 7.891-9.568l3.802.491a24.06 24.06 0 0 1-.859 2.167h24.246v3.312zm-1.391 2.044h25.595v3.066h-25.595zm25.758 30.214c-1.826-.027-3.175-.872-4.047-2.535-.872-1.635-1.309-5.042-1.309-10.221v-8.954h-25.962v-3.312h29.724v12.266c0 3.571.109 5.806.327 6.705.164.954.463 1.431.899 1.431.3 0 .586-.572.859-1.717.218-.981.423-2.126.613-3.434l3.23 1.553c-.572 3.271-1.213 5.479-1.921 6.624-.736 1.063-1.54 1.594-2.413 1.594zm29.602-19.011v4.538h6.337v-4.538zm0 8.136v5.07h6.337v-5.07zm0 8.79v1.84h-3.844V81.902c-.681 1.009-1.567 2.167-2.657 3.476l-1.309-4.089c3.271-4.388 5.547-9.117 6.828-14.187l3.762.736a45.708 45.708 0 0 1-2.085 5.887h6.255a64.44 64.44 0 0 0-2.208-5.805l3.721-.982c.981 2.753 1.69 5.016 2.126 6.787h6.255v3.721h-6.664v4.702h5.847v3.639h-5.847v4.538h5.847v3.598h-5.847v5.07h7.114v3.72zm6.337-25.267h-6.337v4.702h6.337zm-13.451 10.058l-3.476 1.513v11.161c0 2.644-1.376 3.966-4.129 3.966h-3.68l-.859-3.761c1.118.163 2.181.245 3.19.245 1.063 0 1.594-.477 1.594-1.431v-8.709c-1.39.491-2.957.982-4.702 1.472l-.981-3.925a75.605 75.605 0 0 0 5.683-1.472v-8.586h-4.906v-3.761h4.906V67.02h3.884v7.196h3.803v3.761h-3.803v7.155a54.48 54.48 0 0 0 3.476-1.594zm55.154-20.361h3.639v7.441h8.095c0 13.628-.19 22.092-.572 25.39-.354 2.944-2.153 4.416-5.397 4.416l-3.925-.164-.94-3.434c1.826.136 3.271.204 4.334.204 1.335 0 2.126-.899 2.371-2.698.245-2.045.409-8.764.491-20.157h-4.457v1.513c-.136 11.42-2.603 19.734-7.4 24.94l-2.331-2.044a292.961 292.961 0 0 1-18.112 1.635l-.491-3.434a139.91 139.91 0 0 0 4.293-.287l4.089-.245v-2.862h-7.032v-3.189h7.032v-2.167h-7.155V78.959h7.155v-1.963h-8.014v-3.189h8.014v-2.126c-2.372.136-4.647.204-6.828.204l-1.022-3.066c6.732 0 12.511-.545 17.335-1.635l1.717 2.943c-2.126.546-4.633.968-7.522 1.268v2.412h7.809v3.189h-7.809v1.963h7.195v13.042h-7.195v2.167h7.073v3.189h-7.073v2.535c2.453-.245 4.797-.491 7.032-.736v1.922c3.652-4.716 5.519-11.857 5.601-21.424v-1.513h-3.68v-3.557h3.68zm-8.954 21.996v-2.371h-3.925v2.371zm-7.114 0v-2.371h-3.884v2.371zm-3.884-4.988h3.884V81.78h-3.884zm7.073-2.371v2.371h3.925V81.78zm50.944 3.802h16.109v13.165h-16.109zm12.592 9.813v-6.419h-9.117v6.419zm-30.255-23.142h5.929v-5.274h3.72v5.274h5.847v3.435h-5.847v5.233h5.601v3.516h-4.742v4.947h4.947v3.517h-4.947v6.296c.163.027.313.082.449.164 2.372.817 7.891 1.226 16.559 1.226 3.544 0 6.31-.068 8.3-.204l-.654 3.843h-6.787c-10.412 0-16.981-.586-19.707-1.758-2.017-.927-3.83-2.481-5.438-4.661a49.993 49.993 0 0 1-2.044 6.95l-2.821-2.494c1.662-4.742 2.589-9.948 2.78-15.618l3.312.409c-.082 2.399-.232 4.416-.45 6.051.899 1.554 1.853 2.794 2.862 3.721V84.437h-7.237v-3.516h6.297v-5.233h-5.929zm16.6.041v-3.598h17.785c-.027 7.251-.423 11.598-1.186 13.043-.79 1.445-2.112 2.167-3.966 2.167-.708 0-1.744-.068-3.107-.205l-.94-3.393c.463.054 1.063.109 1.799.163l1.431.123c.954-.027 1.553-.504 1.799-1.431.272-.899.422-3.189.449-6.869h-5.233c-.545 2.753-1.24 4.947-2.085 6.583-1.118 1.99-2.808 3.802-5.07 5.438l-2.535-3.189c1.908-1.254 3.353-2.631 4.334-4.13.79-1.308 1.376-2.875 1.758-4.702zm25.676-.899h16.191c-.682-1.636-1.35-2.998-2.004-4.089l4.17-.654a60.485 60.485 0 0 1 1.799 4.743h16.314v3.72h-16.273v4.457h13.288v15.169c0 2.643-1.363 3.965-4.088 3.965h-4.13l-.981-3.679 3.884.204c.981 0 1.472-.463 1.472-1.39V83.293h-9.445v21.424h-3.925V83.293h-8.954v15.7h-3.802V79.572h12.756v-4.457h-16.272zm46.446-.041h13.165v-4.293h3.762v4.293h13.001v3.557H381.17v5.479h15.822v3.638h-35.325V80.39h15.741v-5.479h-13.165zm14.105 13.615h3.721v4.906h11.244v3.639h-11.244v6.991c2.208.191 4.361.287 6.46.287 3.734 0 6.882-.082 9.445-.246l-1.145 3.925c-2.208 0-4.893-.027-8.055-.081-7.005-.028-11.816-.682-14.432-1.963-1.963-.981-3.748-2.876-5.356-5.683-1.309 2.807-3.094 5.451-5.356 7.932l-2.985-2.617c4.17-4.715 6.501-9.922 6.991-15.618l3.803.49a29.259 29.259 0 0 1-1.145 6.297c1.663 3.107 3.557 5.083 5.683 5.928.709.3 1.499.545 2.371.736zm28.988 7.932h13.37v-2.576h3.312l-2.413-2.167c2.454-2.508 3.721-5.67 3.803-9.486V68.288h14.064v18.643c0 2.426-1.213 3.639-3.638 3.639h-3.639l-.941-3.475c1.636.109 2.794.163 3.476.163.708 0 1.063-.531 1.063-1.594v-1.84h-7.482c-.736 2.589-1.99 4.838-3.762 6.746v2.331h13.574v3.598h-13.574v3.311h16.232v3.557h-36.143V99.81h16.068v-3.311h-13.37zm-2.248-21.179h4.293a39.62 39.62 0 0 0-1.963-3.312l3.067-1.513c.872 1.363 1.771 2.971 2.698 4.825h2.412a32.053 32.053 0 0 0 2.208-4.988l3.475 1.186a29.258 29.258 0 0 1-1.921 3.802h4.456v3.393h-7.277v3.517a40.747 40.747 0 0 1-.205 2.657h3.026v-4.416h3.393v7.646h-7.196c-.436 1.118-.926 2.072-1.472 2.862-1.471 1.99-3.897 3.544-7.277 4.661l-1.922-3.025c3.053-1.009 5.138-2.304 6.256-3.885l.368-.613h-5.234v-7.646h3.353v4.416h3.025c.137-.763.232-1.649.287-2.657v-3.517h-7.85zm23.918 6.092v.613c0 .573-.055 1.349-.164 2.331h6.951v-2.944zm6.787-3.067v-3.025h-6.787v3.025zm14.064-3.393h5.111l-.94 20.933h-3.23zm2.535 23.346c.9 0 1.622.272 2.167.817.573.518.859 1.213.859 2.085 0 .845-.286 1.554-.859 2.127a3.205 3.205 0 0 1-2.167.817 2.84 2.84 0 0 1-2.085-.858c-.6-.573-.899-1.268-.899-2.086 0-.872.299-1.567.899-2.085.545-.545 1.24-.817 2.085-.817z"/><path d="M592.485 107.552c-.59 11.804-10.365 20.779-22.027 21.027H35.401c-1.948 0-3.899.035-5.847 0-10.667-.186-19.993-7.778-21.773-18.43-.574-3.432-.288-7.137-.288-10.602V57.134c0-9.465-.457-19.054.022-28.511.644-12.738 11.308-20.999 23.479-21.028 3.531-.009 7.062 0 10.594 0h527.329c11.762 0 22.404 7.681 23.504 20.018.844 9.476.086 19.313.086 28.811v42.67c0 2.809.119 5.65-.022 8.458m2.995-77.759c-.238-14.126-11.35-24.983-25.411-25.171-8.847-.119-17.704 0-26.552 0H61.724c-10.286 0-20.572-.025-30.858 0-10.746.025-20.582 5.614-24.628 15.912-1.724 4.39-1.718 8.849-1.718 13.448v62.155c0 3.435-.058 6.875 0 10.31.147 8.939 4.719 17.26 12.533 21.766 8.413 4.85 20.11 3.34 29.504 3.34h523.901c10.098-.215 19.294-6.105 23.154-15.558 1.791-4.388 1.868-8.826 1.868-13.446V61.828c0-10.673.181-21.363 0-32.035"/></g></g></svg>