<svg clip-rule="evenodd" fill-rule="evenodd" stroke-linejoin="round" stroke-miterlimit="2" viewBox="0 0 600 156" xmlns="http://www.w3.org/2000/svg"><g fill-rule="nonzero"><path d="M570.834 155.408H29.166C13.059 155.408 0 142.35 0 126.242V29.166C0 13.059 13.059 0 29.166 0h541.668C586.942 0 600 13.059 600 29.166v97.076c0 16.108-13.058 29.166-29.166 29.166" fill="#fff"/><g fill="#004367"><path d="M517.287 61.01c-4.529 0-6.799 5.477-3.595 8.679l5.724 5.725c.47.469.47 1.23 0 1.7l-5.724 5.724c-3.204 3.202-.934 8.679 3.595 8.679a5.084 5.084 0 0 0 3.596-1.489l12.915-12.914a1.203 1.203 0 0 0 0-1.7l-12.915-12.915a5.088 5.088 0 0 0-3.596-1.489m25.278 0c-4.53 0-6.799 5.477-3.595 8.679l5.723 5.725c.47.469.47 1.23 0 1.7l-5.723 5.724c-3.204 3.202-.935 8.679 3.595 8.679a5.082 5.082 0 0 0 3.595-1.489l12.914-12.914c.47-.47.47-1.231 0-1.7L546.16 62.499a5.086 5.086 0 0 0-3.595-1.489M60.993 36.915a76.467 76.467 0 0 1-2.099 3.079H88.43l-.327 10.546h5.646v4.153h-5.786l-.326 6.672h4.806v4.106h-5.086c-.156 1.182-.265 1.898-.327 2.147-.404 1.493-1.198 2.566-2.38 3.219-1.182.716-2.893 1.073-5.132 1.073l-5.833.047-1.307-4.059c3.236.124 5.398.186 6.486.186.84 0 1.665-.109 2.473-.326.685-.28 1.214-.887 1.587-1.82l.093-.467h-26.97a208.9 208.9 0 0 0 1.633-10.778h-7.232V50.54H58.1c.311-3.204.514-6.642.607-10.312a44.125 44.125 0 0 1-5.039 5.599l-2.847-3.453c3.702-3.328 6.906-7.963 9.612-13.905l4.48 1.027a113.66 113.66 0 0 1-1.54 3.173h28.09v4.246zm7.606 17.964c3.577 1.151 6.75 2.489 9.519 4.013l-1.633 2.473h6.859c.093-1.742.186-3.966.28-6.672H62.113c-.342 2.893-.653 5.117-.933 6.672h13.578c-2.706-1.586-5.412-2.784-8.119-3.593zm5.973-4.339a47.953 47.953 0 0 0-7.606-3.406l1.96-2.893c3.452 1.119 6.61 2.488 9.472 4.106l-1.447 2.193h6.813l.233-6.439H62.86a207.15 207.15 0 0 1-.374 6.439zm62.338-20.064v41.248h-4.432v-3.267h-21.044v3.313h-4.433V30.476zm-25.476 33.642h21.044V51.146h-21.044zm0-17.311h21.044V34.768h-21.044zm63.878.187c3.173 3.95 5.646 7.403 7.419 10.358l-3.499 2.473c-1.898-3.359-4.34-6.937-7.326-10.732zm2.94-17.545a53.143 53.143 0 0 1-2.1 7.139h14.838c0 15.958-.233 25.804-.7 29.536-.498 3.547-2.8 5.32-6.906 5.32-.715 0-2.364-.078-4.946-.234l-1.073-4.012c2.738.124 4.511.186 5.319.186 1.991 0 3.142-1.073 3.453-3.219.249-2.053.42-9.815.514-23.284h-12.459c-1.493 2.8-3.219 5.319-5.179 7.559l-2.753-3.5c3.826-4.386 6.392-9.736 7.699-16.051zm-22.771 30.936c-.28 4.355-.871 8.088-1.773 11.199l-3.779-1.167c.995-2.924 1.633-6.423 1.913-10.498zm5.74-.793a174.762 174.762 0 0 1 1.679 9.985l-3.919.934c-.405-4.2-.856-7.591-1.353-10.172zM165.7 47.32c1.12 2.738 2.146 5.911 3.08 9.519l-3.78.933-.513-1.96c-4.573 1.12-8.866 1.867-12.879 2.24l-1.119-3.826a7.863 7.863 0 0 0 1.913-1.167c1.586-1.462 3.577-3.919 5.972-7.372l-7.279.84-1.026-3.78c.622-.28 1.197-.793 1.726-1.539 2.458-3.733 4.619-7.871 6.486-12.412l4.106 1.586c-2.333 4.946-4.744 8.99-7.232 12.132 1.275-.124 3.188-.373 5.739-.746.622-.996 1.804-2.94 3.546-5.833l3.826 1.446c-4.604 7.591-8.461 13.034-11.572 16.332 2.582-.436 4.853-.871 6.813-1.307-.684-2.084-1.136-3.406-1.353-3.966zm.98 11.339c.995 2.333 1.897 4.915 2.706 7.745l-3.453 1.587a93.343 93.343 0 0 0-2.473-8.259zm44.887-25.477c6.471 0 10.126 3.017 10.966 9.052h-4.946c-.685-3.235-2.707-4.853-6.066-4.853-2.333 0-4.169 1.136-5.506 3.407-1.338 2.115-2.007 4.806-2.007 8.072 0 .218.016.42.047.607h.187c.933-1.494 2.115-2.582 3.546-3.267 1.275-.684 2.815-1.026 4.619-1.026 3.267 0 5.88 1.026 7.839 3.079 1.929 2.116 2.893 4.806 2.893 8.073 0 3.328-1.104 6.066-3.313 8.212-2.27 2.177-5.039 3.266-8.305 3.266-4.075 0-7.186-1.493-9.332-4.479-2.053-2.862-3.08-6.828-3.08-11.899 0-5.475 1.104-9.861 3.313-13.158 2.24-3.391 5.288-5.086 9.145-5.086zm-.186 16.098c-2.084 0-3.733.653-4.946 1.96-1.213 1.306-1.82 3.048-1.82 5.226 0 2.177.622 3.904 1.866 5.179 1.214 1.307 2.831 1.96 4.853 1.96 2.053 0 3.686-.685 4.899-2.053 1.276-1.431 1.914-3.173 1.914-5.226 0-2.178-.607-3.873-1.82-5.086-1.213-1.307-2.862-1.96-4.946-1.96zm23.377-18.151h32.522v4.293h-32.522zm-3.593 13.718h40.175v4.293h-12.505v16.238c0 1.244.575 1.866 1.726 1.866h5.133c.684 0 1.197-.357 1.54-1.073.435-.84.7-3.188.793-7.046l4.013 1.307c-.311 5.164-.902 8.274-1.773 9.332-.871.964-2.116 1.446-3.733 1.446h-7.233c-3.173 0-4.759-1.633-4.759-4.899V49.14h-7.372v.84c-.187 5.941-1.462 10.732-3.827 14.371-2.333 3.298-6.097 5.88-11.292 7.746l-2.379-3.733c5.008-1.804 8.43-4.09 10.265-6.859 1.773-2.986 2.753-6.828 2.94-11.525v-.84h-11.712zm60.099 26.597l-1.073-4.62c2.519.218 4.557.327 6.112.327 1.867 0 2.8-.964 2.8-2.893V29.589h4.619v35.836c0 4.012-1.928 6.019-5.786 6.019zm-.233-29.257c-2.147 9.115-4.978 16.114-8.493 20.998l-3.872-3.406c3.577-4.884 6.221-11.339 7.932-19.365zm23.657-2.939c3.39 8.305 5.988 15.476 7.792 21.51l-4.013 2.8c-1.929-6.408-4.542-13.671-7.839-21.79zm19.177 8.819a35.303 35.303 0 0 1-2.893 2.659l-2.24-2.939c3.391-2.738 5.709-6.004 6.953-9.799l3.733.56c-.311.995-.56 1.711-.747 2.146h8.073v2.987c-1.12 2.457-2.349 4.526-3.687 6.206a73.301 73.301 0 0 1 6.953 5.179l-2.94 2.939-.653-.606V71.49h-3.92v-2.286h-6.952v2.52h-3.873V58.099l-1.306.42-1.773-3.546c3.39-.871 6.33-2.396 8.818-4.573-1.555-1.058-2.737-1.836-3.546-2.333zm6.719 4.572c-1.773 1.618-3.639 2.956-5.599 4.013h10.639a46.076 46.076 0 0 0-5.04-4.013zm-.653-4.852a25.236 25.236 0 0 0 2.52-3.64h-5.506c-.28.467-.56.887-.84 1.26 1.213.716 2.488 1.509 3.826 2.38zm-4.386 17.684h6.952v-5.179h-6.952zm13.392-32.662v7.839h-3.827v-4.153h-11.851v4.153h-3.827v-7.839h7.699a24.51 24.51 0 0 0-1.259-3.267l4.339-.699a82.823 82.823 0 0 1 1.12 3.966zm2.193 5.039h6.485c.094-.747.203-1.898.327-3.453h-8.212v-3.919h21.277v3.919h-8.725a147.014 147.014 0 0 1-.327 3.453h7.512v24.73H351.13zm14.278 20.904v-3.546h-10.266v3.546zm-10.266-7.046h10.266V48.44h-10.266zm0-6.812h10.266v-3.406h-10.266zm3.593 20.437c-2.053 2.613-4.588 4.931-7.605 6.953l-2.613-3.36c2.799-1.742 5.195-3.826 7.185-6.252zm6.16-2.706c2.799 2.177 5.117 4.324 6.952 6.439l-2.986 2.94c-1.587-2.116-3.826-4.355-6.719-6.719zm28.743-11.059a77.684 77.684 0 0 1-4.667 2.24v13.018c0 3.111-1.586 4.666-4.759 4.666h-4.246l-.933-4.292c1.4.155 2.613.233 3.639.233 1.245 0 1.867-.576 1.867-1.727V55.626a138.832 138.832 0 0 1-5.693 1.913l-1.073-4.246a57.062 57.062 0 0 0 6.766-1.96v-9.985h-6.113v-4.247h6.113v-8.119h4.432v8.119h5.413v4.247h-5.413v8.165c1.898-.902 3.453-1.68 4.667-2.333zm2.986-21.184h20.857v12.132h-20.857zm16.471 8.306v-4.48h-12.132v4.48zm-13.158 17.684v3.22h14.418v-3.22zm14.418-3.826V49.14h-14.418v3.406zm-14.418 10.872v8.492h-4.48V44.94h23.331v21.884c0 3.298-1.696 4.946-5.086 4.946h-4.573l-1.12-4.246 4.246.234c1.4 0 2.1-.654 2.1-1.96v-2.38zm47.22-32.009v28.136a59.688 59.688 0 0 1 2.847-.933v4.246c-6.128 2.209-13.19 4.215-21.184 6.019l-1.213-4.246 3.126-.653V31.409zm-11.898 31.496c1.524-.373 4.028-1.042 7.512-2.007v-5.272h-7.512zm0-11.292h7.512v-6.206h-7.512zm0-10.172h7.512v-5.973h-7.512zm19.224-12.319h4.48v8.306h10.172c0 15.554-.234 25.15-.7 28.79-.498 3.546-2.94 5.319-7.326 5.319l-3.78-.187-1.026-3.919c1.773.155 3.142.233 4.106.233 2.209 0 3.468-1.12 3.78-3.359.28-2.24.466-9.799.559-22.677h-5.785v.839c-.125 13.563-3.329 23.502-9.613 29.817l-3.546-3.127c5.693-5.506 8.586-14.402 8.679-26.69v-.839h-5.273v-4.2h5.273zm29.396 31.403c2.738 0 4.107 1.804 4.107 5.413 0 4.448-2.054 7.777-6.16 9.985l-1.54-2.473c2.707-1.68 4.184-3.81 4.433-6.392a4.339 4.339 0 0 1-.84.093 3.487 3.487 0 0 1-2.426-.933c-.653-.653-.98-1.431-.98-2.333 0-1.058.311-1.882.933-2.473s1.447-.887 2.473-.887zM69.719 79.8h4.573v5.74h17.871v4.292H74.292v6.113h12.411v3.919c-2.457 5.009-6.034 9.317-10.732 12.925a63.424 63.424 0 0 0 6.859 3.127c3.64 1.306 7.171 2.348 10.592 3.126l-2.566 3.919a89.557 89.557 0 0 1-11.525-3.872 62.465 62.465 0 0 1-7.139-3.687c-5.133 3.173-11.37 5.755-18.711 7.746l-2.566-3.966c6.781-1.524 12.598-3.655 17.451-6.393-2.396-1.866-4.433-3.888-6.113-6.066-1.617-2.021-2.784-4.23-3.499-6.625h-3.267v-4.153h14.232v-6.113H51.941V85.54h17.778zm2.38 30.656c4.168-2.986 7.356-6.439 9.565-10.358H63.14c.871 2.208 2.084 4.137 3.639 5.786a28.366 28.366 0 0 0 5.32 4.572zm29.629 11.992l-.98-4.293c1.338.156 2.52.234 3.546.234 1.089 0 1.634-.56 1.634-1.68v-9.892c-1.68.56-3.407 1.12-5.18 1.68l-1.12-4.48a59.277 59.277 0 0 0 6.3-1.726v-9.612h-5.32v-4.293h5.32V79.94h4.479v8.446h4.433v4.293h-4.433v7.979c1.431-.623 2.94-1.322 4.526-2.1v4.479l-4.526 2.007v12.785c0 3.079-1.524 4.619-4.573 4.619zm25.197-42.694h4.479v4.666h9.052v4.059h-9.052v4.48h10.872v4.199H116.52v-4.199h10.405v-4.48h-8.679V84.42h8.679zM116.1 101.777h16.238v-2.939h4.479v2.939h6.019v4.247h-6.019v11.805c0 3.11-1.555 4.666-4.666 4.666h-6.159l-.98-4.246c2.177.155 4.044.233 5.599.233 1.151 0 1.727-.591 1.727-1.773v-10.685H116.1zm4.666 5.413c2.55 2.644 4.541 4.993 5.972 7.046l-3.499 2.473c-1.462-2.24-3.438-4.682-5.926-7.326zm51.793-27.436c5.848 6.034 12.567 10.778 20.157 14.231l-2.193 3.966c-2.395-1.151-4.572-2.348-6.532-3.593v4.2h-10.779v6.999h13.112v4.293h-13.112v7.372h17.358v4.34h-39.148v-4.34h17.311v-7.372h-13.158v-4.293h13.158v-6.999h-10.779v-4.2c-1.991 1.214-4.23 2.442-6.719 3.687l-2.146-3.873c8.119-3.889 14.884-8.695 20.297-14.418zm11.339 14.558c-4.853-2.987-9.161-6.502-12.925-10.546-3.484 3.827-7.793 7.342-12.925 10.546zm29.303-9.799h5.132V79.94h4.293v4.573h6.812V79.94h4.293v4.573h5.553v4.059h-5.553v4.527h7.046v4.106h-6.906c1.898 2.737 4.713 4.899 8.446 6.486l-1.867 3.826c-2.333-1.245-4.261-2.551-5.786-3.92v9.146h-14.138v3.546c0 1.089.638 1.633 1.913 1.633h11.852c.84-.062 1.4-.389 1.68-.98.28-.466.513-1.773.7-3.919l4.199 1.353c-.28 2.333-.606 4.013-.98 5.039-.591 1.618-1.975 2.473-4.152 2.567h-15.025c-3.017 0-4.526-1.323-4.526-3.967V105.23a34.484 34.484 0 0 1-4.62 3.36l-2.286-3.733c4.231-2.364 7.17-4.915 8.819-7.652h-6.719v-4.106h6.952v-4.527h-5.132zm19.27 16.891a17.964 17.964 0 0 1-2.939-4.199h-7.233a19.287 19.287 0 0 1-2.519 4.199zm-9.845-8.305h6.812v-4.527h-6.812zm-2.1 15.911h9.986v-3.92h-9.986zm-17.451-28.556c3.329 2.426 6.113 4.806 8.352 7.139l-3.126 3.079c-1.897-2.177-4.681-4.573-8.352-7.186zm-.84 11.431c3.08 2.333 5.662 4.635 7.746 6.906l-3.08 3.126c-1.928-2.239-4.526-4.572-7.792-6.999zm7.559 15.492c-1.679 5.506-3.593 10.638-5.739 15.398l-4.479-1.96a139.636 139.636 0 0 0 6.205-15.025zm42.835-22.631h15.025v-4.899h4.292v4.899h14.838v4.06h-14.838v6.252h18.058v4.153h-40.315v-4.153h17.965v-6.252h-15.025zm16.098 15.538h4.246v5.6h12.832v4.152h-12.832v7.979c2.52.218 4.977.327 7.372.327 4.262 0 7.855-.093 10.779-.28l-1.307 4.479c-2.519 0-5.583-.031-9.192-.093-7.994-.031-13.485-.778-16.471-2.24-2.24-1.119-4.277-3.281-6.113-6.485-1.493 3.204-3.53 6.221-6.112 9.052l-3.406-2.987c4.759-5.381 7.419-11.323 7.979-17.824l4.339.56c-.187 2.52-.622 4.915-1.306 7.186 1.897 3.546 4.059 5.801 6.485 6.766.809.342 1.711.622 2.707.839zm33.082 9.052h15.258v-2.939h3.78l-2.753-2.473c2.799-2.862 4.246-6.47 4.339-10.825V81.247h16.052v21.277c0 2.769-1.385 4.153-4.153 4.153h-4.153l-1.073-3.966c1.866.124 3.188.186 3.966.186.809 0 1.213-.606 1.213-1.819v-2.1h-8.539c-.84 2.955-2.271 5.521-4.293 7.699v2.659h15.492v4.107h-15.492v3.779h18.525v4.06H298.73v-4.06h18.337v-3.779h-15.258zm-2.566-24.17h4.899a45.011 45.011 0 0 0-2.239-3.779l3.499-1.727c.996 1.556 2.022 3.391 3.08 5.506h2.753a36.576 36.576 0 0 0 2.519-5.692l3.967 1.353a33.489 33.489 0 0 1-2.194 4.339h5.087v3.873h-8.306v4.013c-.031.84-.109 1.851-.233 3.033h3.452v-5.04h3.873v8.726h-8.212c-.498 1.275-1.058 2.364-1.68 3.266-1.68 2.271-4.448 4.044-8.305 5.32l-2.193-3.453c3.484-1.151 5.863-2.629 7.139-4.433l.42-.7h-5.973v-8.726h3.826v5.04h3.453c.156-.871.265-1.882.327-3.033v-4.013h-8.959zm27.296 6.953v.7c0 .653-.062 1.539-.186 2.659h7.932v-3.359zm7.746-3.5v-3.453h-7.746v3.453zM347.91 84h14.652v4.293h-4.9v21.183a89.792 89.792 0 0 0 5.366-2.473v4.247a93.386 93.386 0 0 1-14.371 5.459l-.98-4.2a79.554 79.554 0 0 0 5.599-1.446v-22.77h-5.366zm18.151 4.293h7.559c.342-.934.669-1.976.98-3.127h-10.452v-3.919h25.523v3.919h-10.685a45.048 45.048 0 0 1-.98 3.127h9.519v25.71h-6.253c3.609 2.084 6.595 4.106 8.959 6.065l-2.799 2.893c-2.085-1.99-5.04-4.168-8.866-6.532l2.566-2.426h-8.958l2.659 2.333c-2.737 2.55-6.112 4.806-10.125 6.765l-2.38-3.126c3.702-1.68 6.828-3.671 9.379-5.972h-5.646zm17.218 22.117v-4.06h-12.972v4.06zm-12.972-7.466h12.972v-3.92h-12.972zm0-7.372h12.972v-3.687h-12.972zm64.765-13.485v40.734h-4.433v-2.753h-24.73v2.753h-4.432V82.087zm-29.163 33.689h24.73v-6.953h-24.73zm0-11.059h24.73v-7.232h-24.73zm0-11.338h24.73v-7h-24.73zm47.268-8.633h5.832l-1.073 23.891h-3.686zm2.893 26.644c1.026 0 1.85.311 2.473.933.653.591.979 1.384.979 2.379 0 .965-.326 1.774-.979 2.427a3.66 3.66 0 0 1-2.473.933c-.934 0-1.727-.327-2.38-.98-.684-.653-1.027-1.446-1.027-2.38 0-.995.343-1.788 1.027-2.379.622-.622 1.415-.933 2.38-.933z"/><path d="M590.906 126.816c-2.44 11.673-12.892 19.676-24.62 19.925H35.806c-10.127 0-19.565-4.205-24.432-13.581-4.553-8.768-2.823-21.112-2.823-30.678v-63.06c0-3.798-.194-7.649.673-11.375C12.077 15.79 23.113 8.702 35.198 8.667c3.675-.009 7.349 0 11.023 0h513.447c2.19 0 4.383-.037 6.573 0 9.545.165 18.399 5.399 22.64 14.068 2.337 4.775 2.568 9.717 2.568 14.868v78.815c0 3.466.17 6.987-.543 10.398m3.716-96.442c-1.165-9.586-7.295-18.15-16.024-22.303-8.881-4.226-20.58-2.798-30.188-2.798H67.245c-10.715 0-21.431-.028-32.147 0-10.876.031-21.028 5.006-26.401 14.778-5.013 9.119-3.54 20.738-3.54 30.784v46.096c0 9.266-.949 19.103.252 28.329 1.888 14.518 14.456 24.769 28.851 24.875 3.056.023 6.114 0 9.17 0h522.856c17.085-.364 28.557-14.032 28.557-30.55V40.331c0-3.294.178-6.679-.221-9.957"/></g></g></svg>