<svg clip-rule="evenodd" fill-rule="evenodd" stroke-linejoin="round" stroke-miterlimit="2" viewBox="0 0 900 165" xmlns="http://www.w3.org/2000/svg"><g fill-rule="nonzero"><path d="m819.532 82.461 80.468-82.461h-819.516l-80.484 82.461 80.484 82.475h819.516z" fill="#005f89"/><path d="m241.903 29.766c0-2.437 1.07-3.656 3.209-3.656h10.547c2.293 0 3.439 1.143 3.439 3.427v2.97c0 1.904.956 2.856 2.866 2.856h40.009c2.292 0 3.439 1.143 3.439 3.427v6.74c0 2.285-1.147 3.427-3.439 3.427h-40.009c-1.91 0-2.866.952-2.866 2.856v12.68c0 1.904.956 2.856 2.866 2.856h39.206c2.293 0 3.439 1.142 3.439 3.427v7.311c0 2.285-1.146 4.303-3.439 6.054l-33.245 26.046c-1.91 1.675-1.949 3.198-.114 4.569 6.649 5.255 12.075 7.92 16.278 7.996h17.884c2.292 0 3.439 1.143 3.439 3.427v6.626c0 2.285-1.147 3.427-3.439 3.427h-25.335c-5.197-.685-12.075-4.379-20.635-11.081-2.369-1.599-4.662-1.675-6.878-.228a192.91 192.91 0 0 0 -9.171 7.311c-3.057 2.513-6.229 3.846-9.515 3.998h-29.462c-2.293 0-3.63-1.142-4.012-3.427l-.917-5.712c-.459-2.894.458-4.341 2.751-4.341h21.896l4.585-.685c2.446-.457 5.503-2.399 9.171-5.826 2.293-1.828 2.369-3.617.229-5.369l-27.513-18.506c-2.674-1.828-2.865-2.741-.573-2.741h20.864c2.293 0 4.204.533 5.732 1.599l15.132 10.281c1.758 1.295 3.822.99 6.191-.914a1074.902 1074.902 0 0 1 22.01-17.135c2.064-1.676 2.064-2.513 0-2.513h-76.692c-2.293 0-3.439-1.143-3.439-3.427v-6.74c0-2.285 1.146-3.427 3.439-3.427h39.206c1.91 0 2.866-.952 2.866-2.856v-12.68c0-1.904-.956-2.856-2.866-2.856h-40.582c-2.293 0-3.439-1.142-3.439-3.427v-6.74c0-2.284 1.146-3.427 3.439-3.427h40.582c1.91 0 2.866-.952 2.866-2.856v-2.741zm95.194 0c0-2.437 1.07-3.656 3.21-3.656h10.661c2.293 0 3.44 1.143 3.44 3.427v6.283c0 1.904.955 2.856 2.866 2.856h3.209c2.293 0 3.439 1.142 3.439 3.427v6.626c0 2.284-1.146 3.427-3.439 3.427h-3.209c-1.911 0-2.866.952-2.866 2.856v15.992c0 1.904 1.031 2.399 3.095 1.485l2.522-.913c2.293-.914 3.439-.229 3.439 2.056v9.139c0 2.284-1.146 3.883-3.439 4.797a16.45 16.45 0 0 0 -2.866 1.028c-1.834.914-2.751 2.285-2.751 4.113v33.585c-1.147 5.711-4.28 9.024-9.401 9.938h-9.285c-2.293 0-3.63-1.142-4.013-3.427l-.917-5.712c-.458-2.894-.267-4.341.573-4.341 4.51 0 6.42-2.246 5.732-6.739v-17.135c0-1.904-1.031-2.437-3.095-1.6l-6.076 2.285c-2.522.99-3.783.343-3.783-1.942v-9.139c0-2.284 1.147-3.884 3.439-4.798l6.764-2.513c1.834-.837 2.751-2.17 2.751-3.998v-22.161c0-1.904-.955-2.856-2.866-2.856h-6.19c-2.293 0-3.439-1.143-3.439-3.427v-6.626c0-2.285 1.146-3.427 3.439-3.427h6.19c1.911 0 2.866-.952 2.866-2.856zm56.86 0c0-2.437 1.07-3.656 3.21-3.656h10.662c2.292 0 3.439 1.143 3.439 3.427v1.714c0 1.904.955 2.856 2.866 2.856h16.966c2.293 0 3.439 1.142 3.439 3.427v6.625c0 2.285-1.146 3.427-3.439 3.427h-16.966c-1.911 0-2.866.952-2.866 2.856v6.397c0 1.904.955 2.856 2.866 2.856h15.246c2.293 0 3.44 1.143 3.44 3.427v6.626c0 2.284-.803 3.427-2.408 3.427-1.758 0-2.636.952-2.636 2.856v3.655c0 1.904 1.146 2.856 3.439 2.856 2.216 0 3.324 1.142 3.324 3.427v6.626c0 2.284-1.108 3.427-3.324 3.427-2.293 0-3.439.952-3.439 2.856v27.416c-.306 4.95-3.516 8.263-9.63 9.938h-12.725c-2.293 0-3.63-1.142-4.012-3.427l-.229-1.599c-.459-1.828-1.605-2.742-3.439-2.742h-12.84c-5.044-1.371-7.91-4.265-8.598-8.682a217.895 217.895 0 0 1 -3.553-11.423c-.841-2.742-.115-4.112 2.178-4.112h10.202c2.293 0 3.822 1.142 4.586 3.427a20.75 20.75 0 0 0 1.261 3.427c.841 3.807 3.095 5.369 6.764 4.683 1.91 0 2.865 1.143 2.865 3.427 0 2.361.956 3.541 2.866 3.541 4.739.61 7.07-1.485 6.993-6.282v-17.592c0-1.904-.955-2.856-2.866-2.856h-34.162c-2.292 0-3.439-1.143-3.439-3.427v-6.626c0-2.285 1.147-3.427 3.439-3.427h34.162c1.911 0 2.866-.952 2.866-2.856v-3.655c0-1.904-.955-2.856-2.866-2.856h-30.493c-2.293 0-3.439-1.143-3.439-3.427v-6.626c0-2.284 1.146-3.427 3.439-3.427h13.986c1.91 0 2.865-.952 2.865-2.856v-6.397c0-1.904-.955-2.856-2.865-2.856h-17.196c-2.293 0-3.439-1.142-3.439-3.427v-6.625c0-2.285 1.146-3.427 3.439-3.427h17.196c1.91 0 2.865-.952 2.865-2.856zm119.384.114c-.153-2.513.84-3.77 2.98-3.77h10.662c2.292 0 3.515 1.143 3.668 3.427.382 7.235.879 14.47 1.49 21.705.153 2.513 1.185 3.77 3.096 3.77h5.044c1.91 0 2.789-1.181 2.636-3.542l-1.49-18.163c-.229-2.361.764-3.541 2.98-3.541h7.796c2.293 0 3.515 1.142 3.668 3.427l1.605 18.963c.153 1.904 1.261 2.856 3.325 2.856 1.91 0 2.866 1.142 2.866 3.427v6.739c0 2.285-1.147 3.427-3.44 3.427h-23.844c-1.911 0-2.828 1.181-2.751 3.542a809.019 809.019 0 0 0 1.719 23.532c.153 1.904.955 2.856 2.408 2.856 1.528.152 2.942-.876 4.241-3.085l4.242-15.992c.688-2.285 2.178-3.427 4.471-3.427h9.171c2.292 0 3.133 1.142 2.522 3.427a1108.677 1108.677 0 0 0 -6.993 26.274c-1.758 3.884-4.853 5.978-9.286 6.282h-6.42c-1.91 0-2.827 1.181-2.751 3.542 0 .99.115 2.094.344 3.313.382 3.122 2.178 4.417 5.388 3.883h17.081c2.293 0 3.439 1.143 3.439 3.427v6.626c0 2.285-1.146 3.427-3.439 3.427h-30.379c-4.662-.457-7.451-3.198-8.369-8.225l-1.146-13.137c-.153-1.904-1.184-2.856-3.095-2.856h-3.21c-2.293 0-3.63-1.142-4.012-3.427a49.605 49.605 0 0 1 -1.032-5.711c-.459-2.894.459-4.341 2.751-4.341h4.242c1.91 0 2.789-1.181 2.637-3.541l-1.72-23.533c-.076-1.904-1.07-2.856-2.981-2.856h-22.01c-1.911 0-2.866.952-2.866 2.856v10.51c0 1.904 1.223 2.513 3.668 1.828l5.503-1.371c2.446-.609 3.668.228 3.668 2.513v9.253c0 2.285-1.146 3.693-3.439 4.227l-5.732 1.599c-2.445.761-3.668 2.056-3.668 3.884v22.618c-.458 4.874-3.668 8.111-9.629 9.71h-16.394c-2.292 0-3.63-1.142-4.012-3.427l-.917-5.712c-.459-2.894.459-4.341 2.751-4.341 4.509.381 7.528.039 9.057-1.028 1.528-1.142 2.14-2.894 1.834-5.254v-8.111c0-1.904-1.223-2.551-3.669-1.942l-10.088 2.513c-2.522.609-3.783-.228-3.783-2.513v-9.253c0-2.285 1.147-3.732 3.439-4.341l11.35-2.97c1.834-.533 2.751-1.713 2.751-3.541v-14.851c0-1.904-.955-2.856-2.866-2.856h-11.235c-2.292 0-3.439-1.142-3.439-3.427v-6.739c0-2.285 1.147-3.427 3.439-3.427h11.235c1.911 0 2.866-.952 2.866-2.856v-4.455c0-1.904-.955-2.856-2.866-2.856h-7.222c-2.293 0-3.63-1.143-4.013-3.427l-.917-5.712c-.458-2.894.459-4.341 2.752-4.341h21.322c3.821.381 6.114-.914 6.878-3.884.077-.533 1.261-.799 3.554-.799h10.318c2.292 0 3.439 1.142 3.439 3.427.84 5.102-.421 9.176-3.783 12.223-2.675 2.208-5.465 3.046-8.369 2.513-2.522 0-3.783.952-3.783 2.856v4.455c0 1.904.955 2.856 2.866 2.856h20.864c1.911 0 2.79-1.181 2.637-3.542zm77.999 1.142c.764-2.894 2.216-4.34 4.356-4.34h9.974c2.292 0 3.171 1.142 2.636 3.427l-6.878 30.614c-.382 1.98.076 2.97 1.376 2.97 1.299 0 1.948 1.143 1.948 3.427v65.685c0 2.285-1.146 3.427-3.439 3.427h-9.858c-2.293 0-3.44-1.142-3.44-3.427v-59.059c0-1.904-.535-2.856-1.605-2.856-.993 0-1.681-1.142-2.063-3.427a71.922 71.922 0 0 1 -1.261-6.854c-.306-2.208-.306-3.313 0-3.313 1.911-.837 2.904-1.98 2.981-3.427zm20.749.572c0-2.361 1.108-3.542 3.325-3.542h29.691c2.293 0 3.439 1.143 3.439 3.427v48.093c-.229 4.874-3.057 7.768-8.483 8.682h-8.713c-1.91 0-2.866.952-2.866 2.856v41.695c0 2.285-1.146 3.427-3.439 3.427h-9.515c-2.292 0-3.439-1.142-3.439-3.427zm43.104 0c0-2.361 1.108-3.542 3.324-3.542h29.348c2.292 0 3.439 1.143 3.439 3.427v95.843c-.077 5.102-3.019 8.072-8.827 8.91h-13.184c-2.292 0-3.63-1.142-4.012-3.427a49.877 49.877 0 0 1 -1.032-5.712c-.458-2.894.459-4.341 2.752-4.341 1.987.077 3.974 0 5.961-.228 1.681-1.066 2.331-2.856 1.949-5.369v-26.502c0-1.904-.956-2.856-2.866-2.856h-13.413c-2.293 0-3.439-1.143-3.439-3.427zm-18.342 12.223c0-2.057-.879-3.085-2.637-3.085h-2.866c-1.91 0-2.866.952-2.866 2.856v6.283c0 1.904.956 2.856 2.866 2.856h2.637c1.911 0 2.866-.952 2.866-2.856zm38.06 0c0-2.057-.879-3.085-2.637-3.085h-2.522c-1.911 0-2.866.952-2.866 2.856v6.283c0 1.904.955 2.856 2.866 2.856h2.293c1.91 0 2.866-.952 2.866-2.856zm-38.06 22.846c0-2.056-.879-3.084-2.637-3.084h-2.866c-1.91 0-2.866.952-2.866 2.856v6.397c0 1.904.994 2.856 2.981 2.856 4.356.381 6.152-1.485 5.388-5.597zm38.06 0c0-2.056-.879-3.084-2.637-3.084h-2.522c-1.911 0-2.866.952-2.866 2.856v5.94c0 1.904.955 2.856 2.866 2.856h2.293c1.91 0 2.866-.952 2.866-2.856z" fill="#fff"/></g></svg>