<svg clip-rule="evenodd" fill-rule="evenodd" stroke-linejoin="round" stroke-miterlimit="2" viewBox="0 0 900 165" xmlns="http://www.w3.org/2000/svg"><g fill-rule="nonzero"><path d="M819.532 82.461L900 0H80.483L0 82.461l80.483 82.474H900z" fill="#005f89"/><g fill="#fff"><path d="M230.451 29.026c0-2.391 1.122-3.586 3.366-3.586h10.564c2.322 0 3.482 1.157 3.482 3.47v2.545c0 1.928.968 2.892 2.902 2.892h37.263c2.321 0 3.482 1.157 3.482 3.47v6.709c0 2.314-1.161 3.471-3.482 3.471h-37.263c-1.934 0-2.902.963-2.902 2.891v12.493c0 1.928.968 2.892 2.902 2.892h40.513c2.322 0 3.482 1.157 3.482 3.47v6.709c0 2.314-1.16 3.47-3.482 3.47h-40.513c-1.934 0-2.902.964-2.902 2.892v9.254c0 1.928.968 2.892 2.902 2.892h35.87c2.321 0 3.482 1.157 3.482 3.47v6.709c0 2.314-1.161 3.471-3.482 3.471h-35.87c-1.934 0-2.902.963-2.902 2.891v8.792c0 1.927.968 2.891 2.902 2.891h40.513c2.322 0 3.482 1.157 3.482 3.471v6.709c0 2.313-1.16 3.47-3.482 3.47h-78.007a26.552 26.552 0 0 1-4.643-1.388c-2.477-1.465-4.798-1.504-6.965-.116-3.096 1.542-7.429 2.044-13.001 1.504-2.322 0-3.676-1.157-4.063-3.47l-.929-5.784c-.542-2.93-.387-4.396.464-4.396 4.334-.231 6.23-2.313 5.688-6.246V93.225c0-2.314 1.161-3.47 3.483-3.47h9.983c2.322 0 3.482 1.156 3.482 3.47v20.127c0 1.851.465 3.547 1.393 5.09 2.709 3.701 5.882 5.282 9.519 4.742h9.867c1.935 0 2.902-.964 2.902-2.891V82.814c0-1.928-.967-2.892-2.902-2.892h-41.093c-2.322 0-3.482-1.156-3.482-3.47v-6.709c0-2.313 1.16-3.47 3.482-3.47h41.093c1.935 0 2.902-.964 2.902-2.892V50.888c0-1.928-.967-2.891-2.902-2.891h-37.843c-2.321 0-3.482-1.157-3.482-3.471v-6.709c0-2.313 1.161-3.47 3.482-3.47h37.843c1.935 0 2.902-.964 2.902-2.892v-2.429zm90.822.694c-1.238-2.545-.851-3.817 1.161-3.817h10.796c2.322 0 4.024 1.157 5.107 3.47 1.393 2.699 3.057 4.049 4.992 4.049 2.167 0 3.869-1.157 5.108-3.471 1.47-2.699 3.211-4.048 5.223-4.048h10.448c2.321 0 2.94 1.157 1.857 3.47l-.464 1.041c-.929 2.005-.116 3.008 2.437 3.008 2.477 0 3.715 1.156 3.715 3.47v4.858c0 2.314-1.161 3.47-3.482 3.47h-13.582c-1.935 0-2.902.964-2.902 2.892v15.269c0 1.928.967 2.892 2.902 2.892 2.244.386 4.024-.578 5.34-2.892.232-2.39.309-4.82.232-7.287 0-2.314 1.161-3.471 3.482-3.471h3.018c2.322 0 3.483 1.157 3.483 3.471V70.9c-.155 3.856-2.283 6.169-6.385 6.94a90.284 90.284 0 0 1-9.17.232c-1.935 0-2.902.964-2.902 2.892.232 4.626.039 7.75-.581 9.369-1.315 3.779-3.985 6.015-8.009 6.709h-22.752c-2.322 0-3.676-1.157-4.063-3.47l-.464-3.47c-.465-2.622.464-3.933 2.786-3.933h9.054c4.488.385 6.655-1.542 6.501-5.784 0-1.542-.968-2.313-2.903-2.313h-12.188c-2.322 0-3.483-1.157-3.483-3.471V56.094c0-2.314 1.161-3.471 3.483-3.471h3.018c2.322 0 3.482 1.157 3.482 3.471v7.287c0 1.928.968 2.892 2.903 2.892h2.785c1.935 0 2.903-.964 2.903-2.892V48.112c0-1.928-.968-2.892-2.903-2.892h-14.162c-2.321 0-3.482-1.156-3.482-3.47v-4.858c0-2.314 1.161-3.47 3.482-3.47h3.135c1.934 0 2.283-1.234 1.044-3.702zm56.3 1.157c0-2.391 1.122-3.586 3.367-3.586h37.958c2.322 0 3.483 1.157 3.483 3.47v57.027c-.465 5.013-3.096 7.866-7.894 8.56-2.167.231-4.372.309-6.616.231-2.322 0-3.715-1.156-4.179-3.47l-.929-4.28c-.31-1.928-.155-3.007.464-3.239 2.09-1.156 2.825-3.084 2.206-5.783 0-2.082-.968-3.123-2.902-3.123h-5.108c-1.935 0-2.902.964-2.902 2.891v8.676c0 1.928-.735 3.856-2.205 5.784-2.709 2.544-6.346 3.547-10.912 3.007-1.935 0-2.902.964-2.902 2.892v2.545c0 1.928.967 2.892 2.902 2.892h36.914c2.322 0 3.482 1.156 3.482 3.47v4.395c0 2.314-1.16 3.471-3.482 3.471h-36.914c-1.935 0-2.902.964-2.902 2.891v2.545c0 1.928.967 2.892 2.902 2.892h40.512c2.322 0 3.483 1.157 3.483 3.47v4.859c0 2.313-1.161 3.47-3.483 3.47H317.094c-2.321 0-3.482-1.157-3.482-3.47v-4.859c0-2.313 1.161-3.47 3.482-3.47h41.093c1.935 0 2.903-.964 2.903-2.892v-2.545c0-1.927-.968-2.891-2.903-2.891h-36.914c-2.321 0-3.482-1.157-3.482-3.471v-4.395c0-2.314 1.161-3.47 3.482-3.47h36.914c1.935 0 2.903-.964 2.903-2.892v-1.967c0-2.313 1.16-3.47 3.482-3.47h7.894c1.934 0 2.669-1.234 2.205-3.701l-.464-3.239c-.542-2.622-.387-3.972.464-4.049 2.477-.617 3.444-2.429 2.902-5.437zm27.86 11.336c0-2.005-.929-3.008-2.786-3.008h-5.224c-1.935 0-2.902.964-2.902 2.892v2.661c0 1.928.967 2.892 2.902 2.892h5.108c1.934 0 2.902-.964 2.902-2.892zm0 18.508c0-2.005-.929-3.008-2.786-3.008h-5.224c-1.935 0-2.902.964-2.902 2.892v3.239c0 1.928.967 2.892 2.902 2.892h5.108c1.934 0 2.902-.964 2.902-2.892zm47.059-31.464c.697-2.622 2.09-3.932 4.179-3.932h10.68c2.321 0 3.25.732 2.786 2.197-.542 1.697.193 2.545 2.205 2.545h21.359c2.322 0 3.483 1.157 3.483 3.47v2.198c0 2.314-1.161 3.47-3.483 3.47h-1.741c-1.935 0-2.902.579-2.902 1.735-.155 1.466.774 2.931 2.786 4.396l9.519.116c1.857 0 3.134-.27 3.83-.81 1.161-1.08 2.013-3.046 2.554-5.899a152.346 152.346 0 0 1 2.438-9.37c.697-2.313 2.206-3.47 4.527-3.47h10.099c2.322 0 3.251.617 2.786 1.851-.541 1.542.155 2.313 2.09 2.313h22.52c2.321 0 3.482 1.157 3.482 3.47v2.198c0 2.314-1.161 3.47-3.482 3.47h-3.599c-1.935 0-2.554 1.234-1.857 3.702.851 2.853 2.67 4.01 5.456 3.47 1.78 0 2.67 1.157 2.67 3.47v1.157c0 2.314-1.161 3.47-3.483 3.47h-11.376c-2.554-.231-4.605-1.812-6.152-4.742l-2.438-6.941c-1.161-2.39-2.747-3.586-4.759-3.586-2.09 0-3.483 1.041-4.179 3.124a18.374 18.374 0 0 0-1.277 3.817c-.851 2.93-2.438 5.089-4.76 6.477l-3.598.926h-30.878c-1.857-.154-3.676-1.234-5.456-3.239-1.006-1.774-1.973-4.473-2.902-8.097-.696-2.005-2.012-3.008-3.947-3.008-2.012 0-3.366 1.234-4.062 3.702-1.471 8.02-6.462 11.413-14.975 10.179-2.322 0-3.715-1.157-4.179-3.47l-1.045-4.743c-.464-2.39-.193-3.586.813-3.586 1.702.078 3.095-1.195 4.179-3.817zm39.816 30.307c0-.848 1.084-1.273 3.251-1.273h10.679c2.322 0 3.483.386 3.483 1.157.077.848 1.044 1.273 2.902 1.273h39.584c2.321 0 3.482 1.156 3.482 3.47v4.858c0 2.314-1.161 3.47-3.482 3.47h-39.584c-1.935 0-2.902 1.196-2.902 3.586 0 2.468.967 3.702 2.902 3.702h37.262c2.322 0 3.482 1.157 3.482 3.47v4.511c0 2.314-1.083 3.47-3.25 3.47-2.321 0-3.482.964-3.482 2.892v2.776c0 1.928.967 2.892 2.902 2.892h2.67c2.321 0 3.482 1.157 3.482 3.471v5.321c0 2.313-1.161 3.47-3.482 3.47h-2.67c-1.935 0-2.902.964-2.902 2.892v12.839c-.852 4.859-3.831 7.866-8.939 9.023h-22.055c-2.322 0-3.676-1.157-4.063-3.47l-.813-4.743c-.309-2.391.658-3.586 2.902-3.586h11.144c3.173-.925 4.489-3.046 3.947-6.362v-3.701c0-1.928-.967-2.892-2.902-2.892h-75.685c-2.322 0-3.483-1.157-3.483-3.47v-5.321c0-2.314 1.161-3.471 3.483-3.471h75.685c1.935 0 2.902-.964 2.902-2.892V94.15c0-1.928-.967-2.892-2.902-2.892h-72.899c-2.322 0-3.483-1.156-3.483-3.47v-4.511c0-2.313 1.161-3.47 3.483-3.47h36.449c1.935 0 2.902-1.196 2.902-3.586 0-2.468-.967-3.702-2.902-3.702h-39.235c-2.322 0-3.483-1.156-3.483-3.47v-4.858c0-2.314 1.161-3.47 3.483-3.47h39.235c1.935 0 2.902-.386 2.902-1.157zm-31.458 63.505c-1.935-2.545-1.818-3.818.348-3.818h14.046c2.322 0 4.295 1.157 5.921 3.471 2.012 2.776 4.333 3.855 6.964 3.239h7.081c2.322 0 3.483 1.156 3.483 3.47v3.933c0 2.313-1.161 3.47-3.483 3.47h-19.269c-3.328-.617-5.998-2.005-8.01-4.164a178.503 178.503 0 0 0-7.081-9.601zm131.103-92.771c2.322-2.313 4.643-3.47 6.965-3.47h14.278c2.322 0 2.36 1.157.116 3.47a644.165 644.165 0 0 0-12.305 12.609c-1.934 2.005-1.818 3.007.349 3.007h14.51c2.322 0 3.482 1.157 3.482 3.471v5.783c0 2.314-1.122 4.627-3.366 6.941l-14.046 15.037c-2.167 2.314-2.167 3.47 0 3.47 2.863.078 5.727 0 8.59-.231 1.78-1.079 2.477-2.892 2.09-5.437 0-1.927 1.16-2.891 3.482-2.891h1.277c2.322 0 3.482 1.156 3.482 3.47.465 6.478 0 11.259-1.393 14.343-1.547 2.931-4.14 4.357-7.777 4.28-1.935.077-2.902 1.08-2.902 3.008v36.206c0 2.313-1.161 3.47-3.483 3.47h-10.563c-2.322 0-3.483-1.157-3.483-3.47V97.158c0-1.928-.967-2.892-2.902-2.892h-8.125c-2.322 0-3.483-1.157-3.483-3.47v-6.131c0-2.313 1.084-4.627 3.251-6.94l14.162-15.038c2.012-2.082 1.973-3.123-.117-3.123h-13.233c-2.322 0-3.482-1.157-3.482-3.47v-7.403c0-2.314 1.47-4.936 4.411-7.866 3.25-3.47 6.655-6.979 10.215-10.527zm32.619.579c0-2.391 1.122-3.586 3.366-3.586h53.398c2.322 0 3.483 1.157 3.483 3.47v7.519c0 2.313-.542 4.241-1.626 5.784a489.382 489.382 0 0 0-9.634 13.649c-1.393 2.005-1.045 3.008 1.044 3.008h7.313c2.322 0 3.483 1.156 3.483 3.47v9.948c0 2.313-.348 4.241-1.045 5.783l-9.402 22.904c-.852 2.005-.697 4.087.464 6.246l3.947 7.866c.851 3.316 2.94 5.398 6.268 6.246 1.006 0 1.509 1.08 1.509 3.239v6.941c0 2.313-1.161 3.47-3.482 3.47-6.037.54-11.26-1.967-15.671-7.519-1.316-2.313-2.477-2.391-3.483-.231-2.941 5.938-7.584 8.521-13.93 7.75-2.321 0-3.676-1.157-4.063-3.47l-.464-2.661c-.387-2.236-1.354-2.159-2.902.232-1.702 3.624-4.295 5.59-7.777 5.899h-5.572c-2.322 0-3.676-1.157-4.063-3.47l-1.161-6.941c-.31-2.236-.271-3.393.116-3.47 2.477-.848 3.56-2.93 3.25-6.246V43.948c0-1.928-.58-2.892-1.741-2.892-1.083 0-1.625-1.157-1.625-3.47zm39.7 13.302c1.47-2.082 1.2-3.123-.813-3.123H647.44c-1.935 0-2.902.964-2.902 2.892v35.974c0 1.928.967 2.892 2.902 2.892h11.492c2.322 0 3.676.424 4.063 1.273.542 1.156 1.316.578 2.322-1.735a50.628 50.628 0 0 1 1.973-4.974c.851-2.005.271-3.008-1.741-3.008h-9.054c-2.322 0-3.483-1.157-3.483-3.47v-7.403c0-2.314.58-4.242 1.741-5.784zm-15.439 46.154a55.167 55.167 0 0 0-3.018-5.437c-.387-.077-.735.116-1.045.579-.155.617-.232 1.812-.232 3.586v31c0 1.851.194 2.892.581 3.123 3.559.463 5.881-1.233 6.964-5.089a142.274 142.274 0 0 1 3.367-9.023c.696-2.005.503-4.087-.581-6.246zm-69.649 15.038c0-2.468 1.006-3.702 3.018-3.702 2.244 0 3.366 1.157 3.366 3.47v17.583c.852 4.858-1.393 8.02-6.732 9.485-1.161 0-1.935-1.157-2.322-3.47l-.929-5.784c-.309-2.313-.038-3.547.813-3.702.851.078 1.703-.616 2.554-2.082.232-3.933.309-7.865.232-11.798zm34.825 0c0-2.468 1.006-3.702 3.018-3.702 2.167 0 3.25 1.157 3.25 3.47v23.135c0 2.313-1.045 3.47-3.134 3.47-2.09 0-3.134-1.157-3.134-3.47z"/></g></g></svg>