<svg clip-rule="evenodd" fill-rule="evenodd" stroke-linejoin="round" stroke-miterlimit="2" viewBox="0 0 1440 783" xmlns="http://www.w3.org/2000/svg" xmlns:xlink="http://www.w3.org/1999/xlink"><clipPath id="a"><path clip-rule="evenodd" d="m0 0h1440v782.913h-1440z"/></clipPath><path d="m0 0h1440v782.913h-1440z" fill="none"/><g clip-path="url(#a)"><path d="m0 729.731c34.724-.254 69.347-3.639 104.053-4.756 29.081-.934 58.181-14.594 86.991-5.432 46.147 14.676 90.547-.629 135.48-3.224 20.264-1.173 41.563-15.098 61.879-8.363 45.12 14.956 89.043 1.661 132.653-3.201 28.543-3.181 57.751-.25 86.276-2.769 77.295-6.823 155.738 9.356 233.136 1.274 19.489-2.036 39.075 3.56 58.494 5.19 81.58 6.846 162.884 5.514 244.837 21.209 58.105 11.128 116.297 5.272 174.692 15.816 40.502 7.313 81.013 12.109 121.509 20.374v68.224h-1440zm1440-165.583c-47.864-17.776-95.756-32.7-143.767-44.099-16.164-3.838-32.731-11.985-49.474-17.845 22.732-18.653 46.524-11.908 69.991-8.444 41.077 6.066 82.161 12.006 123.25 19.032z" fill="#77c1d3"/><g fill-rule="nonzero"><path d="m181.59 237.562c-.215-.207-.426-.42-.636-.64-6.309-6.65-8.788-13.903-19.222-14.371-12.36-.555-32.494 2.639-37.607-12.354-3.072-9.011-.014-19.507-6.59-27.4-4.592-5.512-12.191-7.843-19.357-7.514-12.286.565-22.286 9.111-34.294 10.758-14.115 1.937-20.801-11.492-32.167-17.108-20.058-9.91-37.28-1.141-47.562 6.869-11.39 8.871-18.707 22.419-20.828 36.618-2.575 17.244 13.304 33.991 30.211 41.534 8.357 3.729 17.7 4.612 26.852 4.678 10.765.075 21.553-.284 32.253-.524 20.173-.451 184.759.962 184.759-4.163 0-3.256-23.935-6.344-27.33-7.315-9.694-2.771-20.852-1.724-28.482-9.068" fill="#ffeed7"/><path d="m1228.77 97.055 3.561 36.055 20.583-23.964 66.91-56.666-57.537 19.175s-28.249 14.302-29.526 16.15c-1.276 1.848-3.991 9.25-3.991 9.25" fill="#6db1b5"/><path d="m1198.88 82.191 120.888-29.287-90.192 44.153z" fill="#8fd0d6"/><path d="m1276.32 123.014-38.069-18.217 81.572-52.316z" fill="#8fd0d6"/><path d="m1185.42 136.694c3.216-4.245 7.049-7.994 11.391-11.144l1.422 1.961c-4.149 3.009-7.81 6.591-10.882 10.646zm-28.864 10.764c2.636-.978 7.442-2.657 10.006-2.93 1.99-.211 3.819-.339 5.589-.389l.067 2.422c-1.705.047-3.472.171-5.4.376-1.682.179-5.115 1.197-9.421 2.791zm30.844 1.484-.316-.129.9-2.249.342.14c5.131 2.125 9.483 5.898 11.942 10.352l-2.121 1.17c-2.198-3.982-6.115-7.366-10.747-9.284m-10.895 12.993c-.141-2.319.014-4.726.464-7.152.242-1.304.574-2.638.986-3.963l2.312.719c-.382 1.234-.691 2.474-.916 3.686-.414 2.232-.558 4.44-.429 6.563.093 1.506.342 3.016.741 4.488l-2.338.635c-.442-1.631-.718-3.305-.82-4.976m-46.344 2.678c3.73-3.57 7.793-6.99 12.076-10.163l1.442 1.946c-4.201 3.113-8.186 6.467-11.842 9.967zm57.104 15.623c-.146-.081-.291-.164-.434-.247l1.224-2.091c.126.074.252.146.358.206 0 0 .069.029.248.062 1.331.247 4.793.043 6.667-1.228 1.575-1.069 2.804-2.637 3.652-4.664l2.235.935c-1.019 2.433-2.584 4.416-4.527 5.734-2.599 1.762-6.798 1.914-8.469 1.605-.395-.073-.708-.176-.954-.312m-76.398 9.307c2.404-4.497 5.322-8.95 8.673-13.236l1.908 1.492c-3.265 4.176-6.107 8.512-8.445 12.885z" fill="#6db1b5"/><path d="m1211.74 120.507c2.502-.849 5.042-1.483 7.551-1.886l-.386-2.392c-2.64.425-5.313 1.093-7.943 1.983z" fill="#6db1b5"/><path d="m228.716 592.319 34.786-4.356 6.289 33.031-1.074 6.972-13.302 15.256-20.939-11.494z" fill="#d0f0f4"/><path d="m207.626 620.536 38.214 12.423c6.663 2.165 14.092.743 19.186-4.066 2.091-1.974 3.868-4.551 4.765-7.899 0 0 .252 47.414-34.812 42.145l-37.265-12.113-2.052 6.313-14.127-26.725 28.046-15.571z" fill="#d0f0f4"/><path d="m171.559 609.721-12.698 32.678-32.052-10.164-5.624-4.259-7.101-18.953 20.063-12.962z" fill="#d0f0f4"/><path d="m156.754 577.755-29.09 27.72c-5.072 4.833-7.351 12.045-5.54 18.813.743 2.779 2.166 5.567 4.685 7.947 0 0-41.837-22.311-20.539-50.658l28.367-27.032-4.579-4.806 30.229.271.371 32.077z" fill="#d0f0f4"/><path d="m186.099 558.619-23.101-26.371 23.834-23.718 6.377-3.017 20.089 2.469 2.214 23.783z" fill="#d0f0f4"/><path d="m221.288 560.276-11.125-38.612c-1.939-6.732-7.28-12.088-14.117-13.613-2.808-.626-5.938-.654-9.213.479 0 0 39.129-26.776 54.413 5.217l10.849 37.653 6.379-1.838-14.22 26.677-28.612-14.505z" fill="#d0f0f4"/><path d="m1263.08 622.471 15.733-9.58 10.128 14.477.987 3.572-3.09 10.177-12.511-.999z" fill="#ffeed7"/><path d="m1259.05 640.537 20.99-2.277c3.659-.397 6.913-2.678 8.319-6.08.578-1.397.875-3.014.583-4.812 0 0 10.332 22.67-7.608 27.696l-20.468 2.22.376 3.467-12.527-9.766 10.089-13.502z" fill="#ffeed7"/><path d="m1239.43 643.121.951 18.396-17.55 2.031-3.612-.83-7.486-7.554 6.825-10.533z" fill="#ffeed7"/><path d="m1225.45 630.988-7.972 19.55c-1.39 3.409-.929 7.357 1.396 10.211.954 1.171 2.237 2.201 3.957 2.799 0 0-24.856-1.683-20.754-19.856l7.775-19.064-3.23-1.317 14.545-6.38 7.087 15.293z" fill="#ffeed7"/><path d="m1235.39 615.497-16.751-7.664 6.316-16.499 2.405-2.82 10.16-3.143 6.183 10.922z" fill="#ffeed7"/><path d="m1252.62 608.713-13.648-16.11c-2.379-2.808-6.092-4.225-9.698-3.484-1.48.305-2.986.966-4.312 2.214 0 0 12.987-21.26 27.202-9.218l13.309 15.71 2.661-2.255-1.07 15.847-16.837-.789z" fill="#ffeed7"/></g></g></svg>