<svg clip-rule="evenodd" fill-rule="evenodd" stroke-linejoin="round" stroke-miterlimit="2" viewBox="0 0 900 165" xmlns="http://www.w3.org/2000/svg"><g fill-rule="nonzero"><path d="m819.532 82.461 80.468-82.461h-819.516l-80.484 82.461 80.484 82.475h819.516z" fill="#005f89"/><g fill="#fff"><path d="m270.562 30.339c0-2.437 1.07-3.656 3.21-3.656h10.546c2.293 0 3.44 1.143 3.44 3.427v4.798c0 1.904.955 2.856 2.865 2.856h9.286c2.293 0 3.439 1.142 3.439 3.427v6.626c0 2.284-1.146 3.427-3.439 3.427h-9.286c-1.91 0-2.865.951-2.865 2.855v65.799c0 1.904.955 2.856 2.865 2.856h11.579c2.293 0 3.439 1.142 3.439 3.427v6.626c0 2.284-1.146 3.427-3.439 3.427h-47.575c-2.292 0-3.439-1.143-3.439-3.427v-6.626c0-2.285 1.147-3.427 3.439-3.427h13.069c1.911 0 2.866-.952 2.866-2.856v-65.799c0-1.904-.955-2.855-2.866-2.855h-10.317c-2.293 0-3.439-1.143-3.439-3.427v-6.626c0-2.285 1.146-3.427 3.439-3.427h10.317c1.911 0 2.866-.952 2.866-2.856v-4.569zm-71.19 1.256c0-2.361 1.108-3.541 3.325-3.541h36.225c2.293 0 3.439 1.142 3.439 3.427v5.826c0 2.285-1.146 3.427-3.439 3.427h-36.111c-2.293 0-3.439-1.142-3.439-3.427zm-3.668 21.134c0-2.361 1.108-3.542 3.324-3.542h43.562c2.293 0 3.44 1.143 3.44 3.427v6.626c0 2.285-1.147 3.427-3.44 3.427h-9.744c-1.91 0-2.866.952-2.866 2.856v67.284c0 2.284-1.146 3.427-3.439 3.427h-10.317c-2.293 0-3.439-1.143-3.439-3.427v-67.284c0-1.904-.956-2.856-2.866-2.856h-10.776c-2.293 0-3.439-1.142-3.439-3.427zm2.866 21.476c0-2.437 1.146-3.656 3.439-3.656 2.445 0 3.668 1.142 3.668 3.427v47.179c-1.146 3.96-3.324 6.092-6.534 6.397-1.147 0-1.911-1.142-2.293-3.427-.458-2.209-.802-4.455-1.032-6.74-.382-2.285-.382-3.465 0-3.541 1.07-.152 1.987-1.066 2.752-2.742zm38.518 0c0-2.437 1.146-3.656 3.439-3.656 2.446 0 3.668 1.142 3.668 3.427v48.321c0 2.285-1.184 3.427-3.553 3.427-2.37 0-3.554-1.142-3.554-3.427z"/><path d="m327.468 32.052c0-2.361 1.108-3.541 3.324-3.541h99.047c2.293 0 3.439 1.142 3.439 3.427v5.826c0 2.285-1.146 3.427-3.439 3.427h-82.195c-1.911 0-2.866.952-2.866 2.856v76.651c0 1.904.955 2.856 2.866 2.856h82.195c2.293 0 3.439 1.142 3.439 3.427v5.826c0 2.284-1.146 3.427-3.439 3.427h-98.932c-2.293 0-3.439-1.143-3.439-3.427zm25.679 19.42c0-2.361 1.108-3.541 3.324-3.541h69.126c2.293 0 3.44 1.142 3.44 3.427v15.536c-.306 5.178-3.21 8.11-8.713 8.796h-63.738c-2.293 0-3.439-1.143-3.439-3.427zm58.694 9.139c-.076-2.133-1.032-3.199-2.866-3.199h-35.767c-1.91 0-2.866.952-2.866 2.856v3.199c0 1.904.956 2.855 2.866 2.855h33.245c4.356.381 6.152-1.523 5.388-5.711zm-60.529 25.817c0-2.285 1.147-3.427 3.44-3.427h28.773c2.293 0 3.44 1.142 3.44 3.427v21.59c-.23 5.407-3.172 8.415-8.827 9.024h-23.386c-2.293 0-3.44-1.142-3.44-3.427zm43.563 0c0-2.285 1.146-3.427 3.439-3.427h29.576c2.293 0 3.439 1.142 3.439 3.427v21.361c-.305 5.179-3.21 8.111-8.712 8.796h-24.303c-2.293 0-3.439-1.142-3.439-3.427zm-20.635 11.195c0-1.98-.917-2.97-2.751-2.97h-4.701c-1.91 0-2.866.951-2.866 2.855v5.027c0 1.904 1.3 2.856 3.898 2.856 2.446.38 4.28.038 5.503-1.029.917-1.066 1.223-3.312.917-6.739zm44.479.913c0-2.589-.917-3.883-2.751-3.883h-5.617c-1.911 0-2.866.951-2.866 2.855v4.57c0 1.904.955 2.856 2.866 2.856 1.987.076 3.974 0 5.961-.229 2.293-.838 3.095-2.894 2.407-6.169z"/><path d="m471.727 30.453c0-2.285 1.147-3.427 3.439-3.427h10.433c2.292 0 3.439 1.142 3.439 3.427v9.367c0 1.904.955 2.856 2.866 2.856h10.661c2.293 0 3.439 1.142 3.439 3.427v1.942c0 1.904.573 2.856 1.72 2.856 1.91.152 3.4-.914 4.47-3.199l5.503-17.363c.688-2.437 2.14-3.656 4.356-3.656h10.318c2.292 0 3.095 1.143 2.407 3.427l-1.834 5.94c-.612 2.057.038 3.085 1.949 3.085h25.334c2.293 0 3.44 1.142 3.44 3.427v6.625c0 2.285-.421 3.427-1.261 3.427-.841 0-1.758 1.219-2.752 3.656l-14.1 35.184c-.917 2.361-.803 4.684.344 6.968l9.056 18.163c1.529 4.341 3.821 6.398 6.878 6.169 1.223 0 1.835 1.142 1.835 3.427v6.626c0 2.284-1.147 3.427-3.44 3.427-6.114 1.066-11.578-1.028-16.393-6.283-1.987-3.503-4.432-8.225-7.336-14.165-.306-.152-.994.99-2.064 3.427-2.369 6.702-4.433 11.271-6.19 13.708-3.21 2.894-7.337 3.998-12.381 3.313-2.293 0-3.63-1.143-4.013-3.427-.458-1.904-.802-3.808-1.031-5.712-.459-2.894-.038-4.341 1.261-4.341 4.05.533 6.763-1.98 8.139-7.539 1.834-5.255 3.783-10.51 5.847-15.765.687-1.98.458-4.036-.688-6.168l-9.401-19.192c-1.146-2.36-.573-3.541 1.72-3.541h10.661c2.293 0 3.86.8 4.7 2.399 1.07 1.98 1.987 2.132 2.752.457 2.14-5.864 4.394-11.728 6.763-17.592.841-2.132.344-3.199-1.49-3.199h-10.317c-1.911 0-3.21 1.219-3.898 3.656-2.14 6.549-7.031 9.291-14.674 8.225-2.292 0-3.668-1.143-4.127-3.427 0-.61-.114-1.219-.343-1.828-.23-1.98-1.3-2.97-3.21-2.97h-12.61c-1.911 0-2.866.952-2.866 2.856v12.68c0 1.904.955 2.856 2.866 2.856h10.202c2.293 0 3.439 1.142 3.439 3.427v49.235c-.076 5.102-3.018 8.072-8.827 8.91h-37.142c-2.293 0-3.439-1.143-3.439-3.427v-54.718c0-2.285 1.146-3.427 3.439-3.427h9.285c1.911 0 2.866-.952 2.866-2.856v-12.68c0-1.904-.955-2.856-2.866-2.856h-11.693c-2.292 0-3.439-1.142-3.439-3.427v-6.74c0-2.285 1.147-3.427 3.439-3.427h11.693c1.911 0 2.866-.952 2.866-2.856v-9.367zm16.508 60.773c0-1.981-.917-2.971-2.751-2.971h-9.286c-1.91 0-2.866.952-2.866 2.856v28.787c0 1.904.956 2.856 2.866 2.856 3.363.076 6.726 0 10.088-.228 1.682-1.067 2.331-2.856 1.949-5.369z"/><path d="m629.056 28.511c0-1.599 1.07-2.399 3.209-2.399h11.12c2.293 0 3.439.762 3.439 2.285 0 1.599.956 2.399 2.866 2.399h39.206c2.293 0 3.439 1.142 3.439 3.427v3.084c0 2.285-1.146 3.427-3.439 3.427h-39.206c-1.91 0-2.866 1.218-2.866 3.655 0 2.514.956 3.77 2.866 3.77h37.372c2.293 0 3.439 1.143 3.439 3.427v12.794c-.153 5.179-3.057 8.111-8.712 8.797h-32.099c-1.91 0-2.866 1.256-2.866 3.769s.956 3.77 2.866 3.77h36.914c2.292 0 3.439 1.142 3.439 3.427v9.367c0 1.904.458 2.856 1.375 2.856s1.376 1.142 1.376 3.427v2.627c0 2.285-.42 3.427-1.261 3.427-.994 0-1.49.952-1.49 2.856.917 5.712-.917 9.786-5.503 12.223l-3.21.686h-31.64c-1.91 0-2.866.952-2.866 2.856.688 7.844-2.713 11.766-10.202 11.766h-30.379c-2.293 0-3.592-1.028-3.898-3.085-.382-2.056.573-3.084 2.866-3.084h20.52c2.751-.685 3.86-2.551 3.325-5.597 0-1.904-.956-2.856-2.866-2.856h-38.06c-2.293 0-3.439-1.143-3.439-3.427v-1.257c0-2.284 1.146-3.427 3.439-3.427h38.06c1.91 0 2.866-1.256 2.866-3.77 0-2.589-.956-3.884-2.866-3.884h-40.353c-2.292 0-3.439-1.142-3.439-3.427v-2.627c0-2.285 1.147-3.427 3.439-3.427h40.353c1.91 0 2.866-1.257 2.866-3.77 0-2.589-.956-3.884-2.866-3.884h-38.06c-2.293 0-3.439-1.142-3.439-3.427v-1.142c0-2.285 1.146-3.427 3.439-3.427h38.06c1.91 0 2.866-1.257 2.866-3.77s-.956-3.769-2.866-3.769h-37.945c-2.293 0-3.439-1.143-3.439-3.428v-18.163c0-2.284 1.146-3.427 3.439-3.427h37.945c1.91 0 2.866-1.218 2.866-3.655 0-2.513-.956-3.77-2.866-3.77h-39.894c-2.293 0-3.439-1.142-3.439-3.427v-3.084c0-2.285 1.146-3.427 3.439-3.427h39.894c1.91 0 2.866-.762 2.866-2.285zm0 30.729c0-1.98-.917-2.97-2.752-2.97h-21.437c-1.911 0-2.866.952-2.866 2.856v3.084c0 1.904.955 2.856 2.866 2.856h21.323c1.91 0 2.866-.952 2.866-2.856zm44.25.228c0-2.132-.917-3.198-2.752-3.198h-20.864c-1.91 0-2.866.952-2.866 2.856v3.084c0 1.904.956 2.856 2.866 2.856h18.342c4.204.381 5.961-1.485 5.274-5.598zm-.459 33.243c0-2.666-.879-3.999-2.637-3.999h-20.52c-1.91 0-2.866 1.257-2.866 3.77 0 2.589.956 3.884 2.866 3.884h20.291c1.911 0 2.866-1.218 2.866-3.655zm0 15.764c-.076-1.752-.993-2.628-2.751-2.628h-20.406c-1.91 0-2.866 1.257-2.866 3.77 0 2.59.956 3.884 2.866 3.884h17.54c3.974.762 5.846-.914 5.617-5.026z"/></g></g></svg>