<svg clip-rule="evenodd" fill-rule="evenodd" stroke-linejoin="round" stroke-miterlimit="2" viewBox="0 0 701 594" xmlns="http://www.w3.org/2000/svg"><g fill="#fff" fill-rule="nonzero"><path d="m168.901 386.332c-13.7-.062-24.844 10.981-24.9 24.681-.063 13.7 10.975 24.832 24.681 24.894 13.712.063 24.837-10.975 24.9-24.681.056-13.694-10.975-24.831-24.681-24.894m441.214 146.189-522.894-2.3c-33.312-.144-60.45 26.762-60.6 60.069l643.563 2.831c.144-33.313-26.763-60.456-60.069-60.6"/><path d="m83.644 264.286 47.95.213-.138 30.931 69.057.306.131-30.937 42.769.187-.819 186.407-159.769-.707zm212.881 31.869 19.763.088.137-30.932 70.225.307.719 30.937 54.831.244.138-30.938 62.956.275-.138 30.938 69.057.3.131-30.931 41.862.187-.812 186.4-319.556-1.406zm-266.594 207.338v.256l569.944 3.05c37.65.2 68.313 8.919 70.55-35.375 2.275-44.881-.119-90.619-2.669-135.444-.956-16.775 2.45-39.406 19.163-41.144 2.1-.218 4.362-.068 6.169-1.162 2.568-1.556 3.187-4.95 3.55-7.938 3.725-30.493 7.406-61.781.143-91.625-10.218-41.968-40.575-75.637-69.868-107.375-22.888-24.793-45.769-49.587-68.657-74.381-7.731-8.381-21.581-16.862-28.9-8.112 31.8 55.237 63.607 110.481 95.407 165.725 5.718 9.943 11.562 22.043 6.456 32.318-6.6 13.3-25.425 12.869-40.075 10.45-3.55-.581-7.306-1.256-10.006-3.637-2.894-2.55-3.982-6.519-4.969-10.244-17.013-64.125-45.088-125.294-82.619-179.994-7.5-10.931-20.819-22.9-32.1-15.943a1023.159 1023.159 0 0 1 44.681 208.781c-20.35-.088-40.7-.181-61.043-.275-2.819-66.681-16.169-132.913-39.413-195.481-3.244-8.732-11.65-19.275-19.537-14.332-4.632 2.907-5.044 9.369-4.944 14.832 1.169 64.956 2.337 129.918 3.5 194.875l-67.194-.188c-.244-69.762-.481-139.525-.719-209.287-6.356-3.7-12.881 4.525-15.606 11.356a821.132 821.132 0 0 0 -49.556 184.5c-.663 4.519-1.588 9.562-5.319 12.2-3.106 2.194-7.237 2.037-11.031 1.781-11.75-.769-23.5-1.537-35.25-2.312 7.944-70.719 25.831-140.307 52.981-206.088-9.987-7.831-23.112 4.6-29.606 15.5-24.638 41.363-49.269 82.725-73.906 124.081-12.094 20.3-24.65 43.45-18.8 66.344a209.802 209.802 0 0 1 -40.019.95c-4.044-.294-8.313-.787-11.556-3.219-8.15-6.112-4.607-18.887-.213-28.075a1445.091 1445.091 0 0 1 99.925-175.968c-11.337-8.244-26.431 2.725-36.006 12.968-31.656 33.882-63.3 67.775-94.938 101.675-17.793 19.069-36.143 39.088-43.643 64.075-10.688 35.607 2.668 73.969-1.063 110.95 8.781 1.563 17.563 3.119 26.344 4.682z"/></g></svg>