<svg clip-rule="evenodd" fill-rule="evenodd" stroke-linejoin="round" stroke-miterlimit="2" viewBox="0 0 620 661" xmlns="http://www.w3.org/2000/svg"><g fill="#fff" fill-rule="nonzero"><path d="m206.218 80.376c-6.35 0-11.488 5.137-11.488 11.481 0 6.35 5.138 11.481 11.488 11.481 31.4 0 56.943 25.55 56.943 56.95 0 6.344 5.138 11.481 11.482 11.481 6.35 0 11.487-5.137 11.487-11.481 0-44.062-35.856-79.912-79.912-79.912"/><path d="m454.075 619.194c-68.287 0-123.837-55.556-123.837-123.838 0-68.287 55.55-123.837 123.837-123.837 68.288 0 123.838 55.55 123.838 123.837 0 68.282-55.55 123.838-123.838 123.838m-229.925-90.5 50.494-61.713-45.938-105.256 37.988-52.237c3.569-1.463 7.025-3.138 10.456-4.85l10.925 9.287c23.694 20.069 41.306 35.088 54.087 60.269-8.681 8.025-16.537 16.9-23.337 26.612-7.688-17.812-19.806-34-39.044-43.618-5.675-2.875-12.569-.519-15.412 5.131-2.838 5.675-.531 12.562 5.137 15.412 19.194 9.588 28.975 29.55 34.069 49.938-9.313 20.681-14.619 43.544-14.619 67.687 0 9.05.925 17.869 2.325 26.532-20.687 3.731-43.619 6.043-67.131 6.806m-18.406-253.1c-63.319 0-114.838-51.513-114.838-114.831 0-63.319 51.519-114.832 114.838-114.832 63.312 0 114.831 51.513 114.831 114.832 0 63.318-51.519 114.831-114.831 114.831m-144.863 226.994c-4.5-2.6-14.95-9.332-15.012-13.975 9.075-115.907 32.281-135.557 78.481-174.688l10.587-8.994c3.244 1.6 6.488 3.182 9.851 4.557l37.987 52.237-45.931 105.256 50.469 61.694c-50.782-1.731-99.238-10.4-126.432-26.087m393.194-172.35c-26.619 0-51.688 6.45-73.956 17.637-15.306-27.712-35.806-46.519-62.356-69.012l-1.663-1.407c30.975-29.306 50.406-70.687 50.406-116.693 0-88.788-71.975-160.763-160.762-160.763-88.794 0-160.775 71.975-160.775 160.763 0 46.225 19.631 87.781 50.869 117.112l-1.169.988c-55.206 46.768-84.488 77.181-94.669 207.956 0 15.369 6.581 37.456 37.913 55.537 36.975 21.35 102.631 32.025 168.287 32.025 34.256-.012 68.413-2.993 98.6-8.8 26.406 56.025 83.231 94.894 149.275 94.894 91.194 0 165.119-73.931 165.119-165.119 0-91.193-73.925-165.118-165.119-165.118"/><path d="m524.846 474.714h-50.132v-50.131c0-11.406-9.243-20.637-20.637-20.637-11.4 0-20.638 9.231-20.638 20.637v50.131h-50.131c-11.4 0-20.644 9.232-20.644 20.644 0 11.406 9.244 20.638 20.644 20.638h50.131v50.125c0 11.412 9.238 20.643 20.638 20.643 11.394 0 20.637-9.231 20.637-20.643v-50.125h50.132c11.393 0 20.637-9.232 20.637-20.638 0-11.412-9.244-20.644-20.637-20.644"/></g></svg>