<svg clip-rule="evenodd" fill-rule="evenodd" stroke-linejoin="round" stroke-miterlimit="2" viewBox="0 0 600 66" xmlns="http://www.w3.org/2000/svg"><g fill-rule="nonzero"><path d="m567.956 32.838 32.044-32.838h-567.949l-32.051 32.838 32.051 32.844h567.949z" fill="#005f89"/><g fill="#fff"><path d="m43.31 12.638c0-.971.426-1.456 1.278-1.456h12.692c.913 0 1.369.455 1.369 1.365v2.638c0 .91-.456 1.365-1.369 1.365h-1.69c-.76 0-1.141.379-1.141 1.137v10.736c0 .758.381 1.138 1.141 1.138h.913c.913 0 1.37.454 1.37 1.364v2.639c0 .91-.457 1.364-1.37 1.364h-.913c-.76 0-1.141.38-1.141 1.138v11.827c0 .759.381 1.138 1.141 1.138h4.52c.883-.061 1.659-.486 2.328-1.274l1.187-2.684c.396-.91 1.05-1.365 1.963-1.365h4.383c.913 0 1.171.455.776 1.365-.913 2.093-1.781 4.185-2.602 6.278-.883 1.85-2.192 2.866-3.926 3.048h-20.087c-.913 0-1.37-.455-1.37-1.365v-2.639c0-.909.457-1.364 1.37-1.364h2.282c.761 0 1.142-.379 1.142-1.138v-11.827c0-.758-.381-1.138-1.142-1.138h-1.369c-.913 0-1.37-.454-1.37-1.364v-2.639c0-.91.457-1.364 1.37-1.364h1.369c.761 0 1.142-.38 1.142-1.138v-10.736c0-.758-.381-1.137-1.142-1.137h-1.734c-.913 0-1.37-.455-1.37-1.365zm18.489.091c0-.94.441-1.41 1.324-1.41h20.771c.913 0 1.37.454 1.37 1.364v25.02c-.152 1.426-.73 2.427-1.735 3.003-.395.182-.593.622-.593 1.319v4.868c-.122 1.728.624 2.441 2.237 2.138.791 0 1.187.455 1.187 1.364v2.639c0 .91-.457 1.365-1.37 1.365h-5.432c-1.918 0-3.09-1.153-3.516-3.458v-8.688c0-.759-.38-1.138-1.141-1.138h-11.732c-.913 0-1.37-.455-1.37-1.364v-27.022zm16.617 4.867c0-.818-.35-1.228-1.05-1.228h-7.578c-.761 0-1.141.379-1.141 1.137v1.593c0 .758.38 1.137 1.141 1.137h7.487c.761 0 1.141-.379 1.141-1.137zm0 8.189c0-.819-.35-1.229-1.05-1.229h-7.578c-.761 0-1.141.38-1.141 1.138v1.455c0 .759.38 1.138 1.141 1.138h7.487c.761 0 1.141-.379 1.141-1.138zm0 8.052c-.03-.849-.411-1.274-1.141-1.274h-7.487c-.761 0-1.141.379-1.141 1.137v1.274c0 .758.38 1.137 1.141 1.137h6.483c1.734.152 2.45-.606 2.145-2.274z"/><path d="m122.717 12.001c0-.819.426-1.228 1.278-1.228h4.2c.913 0 1.369.394 1.369 1.182 0 .819.381 1.229 1.142 1.229h5.706c.913 0 1.37.455 1.37 1.364v2.275c0 .91-.457 1.365-1.37 1.365h-5.706c-.761 0-1.142.379-1.142 1.137v1.774c0 .758.381 1.137 1.142 1.137h5.158c.913 0 1.37.455 1.37 1.365v2.32c0 .91-.259 1.365-.776 1.365-.579 0-.868.379-.868 1.137v1.228c0 .759.366 1.138 1.096 1.138s1.096.455 1.096 1.365v2.683c0 .91-.35 1.365-1.05 1.365-.761 0-1.142.379-1.142 1.137v13.193c-.121 1.941-1.384 3.23-3.789 3.867h-6.163c-.913 0-1.445-.455-1.598-1.365l-.365-1.911c-.182-.728-.639-1.091-1.369-1.091-2.618.424-4.322-.713-5.113-3.412-.457-2.002-.868-4.004-1.233-6.005-.182-.971.152-1.456 1.004-1.456h3.79c.913 0 1.46.455 1.643 1.365l.639 3.184c.031.516.441.925 1.233 1.228.365.091.548.516.548 1.274v1.683c0 .759.38 1.138 1.141 1.138 1.765.364 2.693-.47 2.785-2.502v-9.19c0-.758-.381-1.137-1.142-1.137h-11.96c-.913 0-1.37-.455-1.37-1.365v-2.683c0-.91.457-1.365 1.37-1.365h11.96c.761 0 1.142-.379 1.142-1.138v-1.228c0-.758-.381-1.137-1.142-1.137h-11.047c-.913 0-1.37-.455-1.37-1.365v-2.32c0-.91.457-1.365 1.37-1.365h5.021c.761 0 1.142-.379 1.142-1.137v-1.774c0-.758-.381-1.137-1.142-1.137h-6.117c-.913 0-1.37-.455-1.37-1.365v-2.275c0-.909.457-1.364 1.37-1.364h6.117c.761 0 1.142-.395 1.142-1.183zm-27.574.728c0-.94.441-1.41 1.324-1.41h13.878c.913 0 1.37.454 1.37 1.364v38.167c-.031 2.032-1.203 3.215-3.516 3.549h-11.686c-.914 0-1.37-.455-1.37-1.365zm10.409 5.14c0-.758-.381-1.137-1.142-1.137h-1.963c-.761 0-1.141.379-1.141 1.137v11.1c0 .758.38 1.137 1.141 1.137h1.963c.761 0 1.142-.379 1.142-1.137zm0 18.834c0-.819-.35-1.229-1.05-1.229h-2.055c-.761 0-1.141.379-1.141 1.138v11.281c0 .759.38 1.138 1.141 1.138.731.03 1.507 0 2.328-.091.67-.425.929-1.138.777-2.138z"/><path d="m163.958 12.001c0-.94.442-1.41 1.324-1.41h4.154c.913 0 1.37.455 1.37 1.364v1.001c0 .758.38 1.138 1.141 1.138h14.654c.913 0 1.37.454 1.37 1.364v2.639c0 .91-.457 1.364-1.37 1.364h-14.654c-.761 0-1.141.38-1.141 1.138v4.913c0 .758.38 1.137 1.141 1.137h15.933c.913 0 1.369.455 1.369 1.365v2.638c0 .91-.456 1.365-1.369 1.365h-15.933c-.761 0-1.141.379-1.141 1.137v3.64c0 .758.38 1.137 1.141 1.137h14.107c.913 0 1.369.455 1.369 1.365v2.638c0 .91-.456 1.365-1.369 1.365h-14.107c-.761 0-1.141.379-1.141 1.137v3.457c0 .759.38 1.138 1.141 1.138h15.933c.913 0 1.369.455 1.369 1.364v2.639c0 .91-.456 1.365-1.369 1.365h-30.678c-.609-.122-1.218-.304-1.826-.546-.974-.576-1.887-.592-2.739-.046-1.218.607-2.922.804-5.113.592-.913 0-1.446-.455-1.598-1.365l-.365-2.275c-.213-1.152-.153-1.728.182-1.728 1.705-.091 2.45-.91 2.237-2.457v-9.325c0-.91.457-1.365 1.37-1.365h3.926c.913 0 1.369.455 1.369 1.365v7.915c0 .728.183 1.395.548 2.002 1.065 1.455 2.313 2.077 3.744 1.865h3.88c.761 0 1.141-.379 1.141-1.138v-14.739c0-.758-.38-1.137-1.141-1.137h-16.161c-.913 0-1.369-.455-1.369-1.365v-2.638c0-.91.456-1.365 1.369-1.365h16.161c.761 0 1.141-.379 1.141-1.137v-4.913c0-.758-.38-1.138-1.141-1.138h-14.883c-.913 0-1.369-.454-1.369-1.364v-2.639c0-.91.456-1.364 1.369-1.364h14.883c.761 0 1.141-.38 1.141-1.138v-.955z"/><path d="m199.676 12.274c-.487-1.001-.335-1.501.457-1.501h4.245c.913 0 1.583.455 2.009 1.364.548 1.062 1.202 1.593 1.963 1.593.852 0 1.522-.455 2.009-1.365.578-1.062 1.263-1.592 2.054-1.592h4.108c.914 0 1.157.455.731 1.364l-.183.41c-.365.788-.045 1.183.959 1.183.974 0 1.461.455 1.461 1.364v1.911c0 .91-.457 1.365-1.37 1.365h-5.341c-.761 0-1.141.379-1.141 1.137v6.005c0 .758.38 1.137 1.141 1.137.883.152 1.583-.227 2.1-1.137.091-.94.122-1.896.091-2.866 0-.91.457-1.365 1.37-1.365h1.187c.913 0 1.369.455 1.369 1.365v5.823c-.06 1.516-.897 2.426-2.51 2.729-1.187.091-2.39.122-3.607.091-.761 0-1.141.379-1.141 1.137.091 1.82.015 3.048-.228 3.685-.518 1.486-1.568 2.366-3.15 2.639h-8.948c-.913 0-1.446-.455-1.598-1.365l-.183-1.365c-.182-1.031.183-1.546 1.096-1.546h3.561c1.765.151 2.617-.607 2.556-2.275 0-.607-.38-.91-1.141-.91h-4.793c-.913 0-1.37-.455-1.37-1.365v-7.278c0-.91.457-1.365 1.37-1.365h1.187c.913 0 1.369.455 1.369 1.365v2.866c0 .758.381 1.137 1.141 1.137h1.096c.761 0 1.141-.379 1.141-1.137v-6.005c0-.758-.38-1.137-1.141-1.137h-5.569c-.913 0-1.37-.455-1.37-1.365v-1.911c0-.909.457-1.364 1.37-1.364h1.232c.761 0 .898-.486.411-1.456zm22.141.455c0-.94.441-1.41 1.324-1.41h14.928c.913 0 1.37.454 1.37 1.364v22.427c-.183 1.972-1.218 3.094-3.105 3.367-.852.091-1.719.121-2.602.091-.913 0-1.461-.455-1.643-1.365l-.366-1.683c-.121-.758-.06-1.183.183-1.274.822-.455 1.111-1.213.867-2.274 0-.819-.38-1.229-1.141-1.229h-2.008c-.761 0-1.142.379-1.142 1.138v3.411c0 .759-.289 1.517-.867 2.275-1.065 1.001-2.496 1.395-4.291 1.183-.761 0-1.142.379-1.142 1.137v1.001c0 .758.381 1.137 1.142 1.137h14.517c.913 0 1.369.455 1.369 1.365v1.728c0 .91-.456 1.365-1.369 1.365h-14.517c-.761 0-1.142.379-1.142 1.137v1.001c0 .758.381 1.138 1.142 1.138h15.932c.913 0 1.37.454 1.37 1.364v1.911c0 .91-.457 1.365-1.37 1.365h-41.223c-.913 0-1.37-.455-1.37-1.365v-1.911c0-.91.457-1.364 1.37-1.364h16.16c.761 0 1.142-.38 1.142-1.138v-1.001c0-.758-.381-1.137-1.142-1.137h-14.517c-.913 0-1.37-.455-1.37-1.365v-1.728c0-.91.457-1.365 1.37-1.365h14.517c.761 0 1.142-.379 1.142-1.137v-.774c0-.909.456-1.364 1.369-1.364h3.104c.761 0 1.05-.486.868-1.456l-.183-1.274c-.213-1.031-.152-1.562.183-1.592.974-.243 1.354-.955 1.141-2.138zm10.956 4.458c0-.789-.365-1.183-1.095-1.183h-2.054c-.761 0-1.142.379-1.142 1.137v1.047c0 .758.381 1.137 1.142 1.137h2.008c.761 0 1.141-.379 1.141-1.137zm0 7.279c0-.789-.365-1.183-1.095-1.183h-2.054c-.761 0-1.142.379-1.142 1.137v1.274c0 .758.381 1.137 1.142 1.137h2.008c.761 0 1.141-.379 1.141-1.137z"/><path d="m268.4 12.774c.457-1.213 1.096-1.819 1.917-1.819h3.424c.913 0 1.233.455.959 1.364-.731 2.245-1.415 4.489-2.054 6.733-.396.789-.198 1.183.593 1.183h11.459c.73 0 .943-.41.639-1.228l-.685-1.911c-.335-.728-.867-1.092-1.598-1.092h-4.017c-.913 0-1.37-.455-1.37-1.365v-2.274c0-.91.457-1.365 1.37-1.365h7.806c.913 0 1.568.455 1.963 1.365.396 1.061.837 2.123 1.324 3.184.213.304.563.607 1.05.91.578.152.868.622.868 1.41v2.411c0 .91-.32 1.365-.959 1.365-.7 0-1.05.379-1.05 1.137v1.138c0 .909-.457 1.364-1.37 1.364h-11.869c-.731 0-1.263.516-1.598 1.547-.396 1.092-.228 1.638.502 1.638h6.209c.913 0 1.369.455 1.369 1.364v21.063c-.121 1.607-.837 2.669-2.145 3.184-.791.334-2.191.44-4.2.319-.913 0-1.461-.455-1.644-1.365l-.365-2.275c-.152-.909-.137-1.364.046-1.364 1.278-.273 1.765-1.016 1.461-2.229v-12.92c0-.758-.381-1.137-1.142-1.137h-1.095c-.731 0-1.218.151-1.461.455-.944 1.061-2.435 1.516-4.474 1.364-.913 0-1.476-.454-1.689-1.364-.122-.334-.198-.683-.228-1.047-.213-1.031-.168-1.546.137-1.546 1.095.121 1.841-.349 2.237-1.41l.821-2.73c.335-1.031.031-1.547-.913-1.547-.913 0-1.369-.455-1.369-1.364v-.956c0-.758-.183-1.137-.548-1.137s-.639-.455-.822-1.365l-.091-.455c-.183-.849-.32-1.349-.411-1.501-.274-.394-.502-.455-.685-.182-.061.243-.091.728-.091 1.456v6.733c-.031 1.425-.715 2.562-2.054 3.411-.944.364-1.476.622-1.598.774 0 .182.502.455 1.506.819 1.309.606 2.024 1.713 2.146 3.32v12.01c-.031 2.032-1.202 3.215-3.515 3.548h-4.474c-.761 0-1.141.38-1.141 1.138v1.501c0 .91-.457 1.365-1.37 1.365h-3.606c-.913 0-1.37-.455-1.37-1.365v-40.487c0-.91.457-1.365 1.37-1.365h10.545c2.678.394 3.85 1.896 3.515 4.504 0 .758.472 1.122 1.415 1.092.579 0 1.096-.425 1.553-1.274.243-.91.532-1.82.867-2.73zm-10.135 5.914c.335-1.334-.289-2.047-1.871-2.138-.609 0-.913.379-.913 1.137v9.235c0 .758.304 1.137.913 1.137 1.521.061 2.145-.667 1.871-2.183zm28.852 11.327c.152-.94.67-1.41 1.552-1.41h1.918c.913 0 1.308.455 1.187 1.365-.213 1.061-.381 2.123-.503 3.184-.121 1.335-.304 2.245-.547 2.73-.792 1.183-1.887 1.819-3.287 1.91-.913.031-1.476-.409-1.689-1.319l-.32-1.365c-.213-1-.183-1.531.091-1.592.761-.182 1.172-.606 1.233-1.274.061-.727.183-1.47.365-2.229zm-28.852 5.596c.335-1.395-.304-2.108-1.917-2.138-.578 0-.867.379-.867 1.137v9.28c0 .758.304 1.137.913 1.137 1.521.091 2.145-.652 1.871-2.229zm10.044 1.956c.243-.758.791-1.137 1.643-1.137h3.059c.913 0 1.217.455.913 1.364l-.959 3.185c-.73 2.032-2.359 2.926-4.885 2.684-.913 0-1.476-.455-1.689-1.365-.152-.455-.258-.91-.319-1.365-.213-1.001-.107-1.516.319-1.546.822.06 1.461-.546 1.918-1.82zm16.982 5.095c-.03-1.001.365-1.501 1.187-1.501h2.374c.913 0 1.4.455 1.461 1.364.061 1.668.167 3.336.319 5.004.092.455.442.804 1.05 1.047.244.06.366.546.366 1.456v2.274c0 .91-.457 1.365-1.37 1.365-2.039.151-3.53-.607-4.474-2.275-.365-.606-.548-1.516-.548-2.729zm-17.53 4.822c.274-.94.852-1.41 1.735-1.41h2.967c.913 0 1.233.455.959 1.365l-.913 3.184c-.518 2.76-2.176 4.018-4.976 3.776-.913 0-1.476-.455-1.69-1.365l-.319-1.365c-.213-1.001-.076-1.547.411-1.637.608.03 1.111-.41 1.506-1.32.061-.394.168-.803.32-1.228z"/><path d="m301.379 12.729c0-.94.441-1.41 1.324-1.41h38.164c.913 0 1.37.454 1.37 1.364v5.414c-.091 2.092-1.217 3.29-3.378 3.594h-36.111c-.913 0-1.369-.455-1.369-1.365zm33.782 3.23c0-.698-.381-1.047-1.141-1.047h-24.47c-.761 0-1.141.379-1.141 1.138v.909c0 .759.38 1.138 1.141 1.138h23.465c1.492.364 2.207-.349 2.146-2.138zm-33.782 9.735c0-.94.441-1.41 1.324-1.41h38.164c.913 0 1.37.454 1.37 1.364v19.061c-.091 1.941-1.217 3.109-3.378 3.503h-4.657c-.791 0-.852.485-.182 1.456.456.849 1.171 1.349 2.145 1.501h6.072c.913 0 1.369.455 1.369 1.365v.5c0 .91-.456 1.365-1.369 1.365h-11.869c-1.4-.031-2.603-.592-3.607-1.684l-1.917-3.411c-.426-.728-1.005-1.092-1.735-1.092h-2.1c-.731 0-1.461.455-2.191 1.365-1.705 3.063-3.881 4.67-6.529 4.822h-10.043c-.913 0-1.506-.455-1.78-1.365 0-.121-.046-.288-.137-.5-.244-.91.091-1.365 1.004-1.365h6.391c.792.03 1.659-.546 2.602-1.729.64-.819.563-1.228-.228-1.228h-7.35c-.913 0-1.369-.455-1.369-1.365zm33.782 4.003c0-.758-.381-1.137-1.141-1.137h-24.47c-.761 0-1.141.379-1.141 1.137v.864c0 .759.38 1.138 1.141 1.138h24.47c.76 0 1.141-.379 1.141-1.138zm0 6.733c0-1.001-.381-1.502-1.141-1.502h-24.47c-.761 0-1.141.501-1.141 1.502 0 1 .38 1.501 1.141 1.501h24.47c.76 0 1.141-.501 1.141-1.501zm0 5.595c0-.606-.365-.91-1.096-.91h-24.515c-.761 0-1.141.47-1.141 1.41 0 .941.38 1.411 1.141 1.411h23.511c1.43.273 2.13-.364 2.1-1.911z"/><path d="m371.427 12.001c.456-.94 1.126-1.41 2.008-1.41h5.022c.913 0 1.141.455.685 1.364-1.492 2.851-2.937 5.702-4.337 8.553-.426.788-.244 1.183.548 1.183h3.743c.913 0 1.583.454 2.009 1.364 3.774 8.34 7.654 16.68 11.641 25.02.335.334.746.607 1.232.819.64.152.959.592.959 1.319v2.821c0 .91-.456 1.365-1.369 1.365-3.379.242-5.889-1.031-7.533-3.822l-11.915-26.339c-.365-.849-.746-.849-1.141 0l-12.6 25.157c-.822 1.819-1.522 3.032-2.1 3.639-1.248 1.061-2.983 1.516-5.204 1.365-.913 0-1.461-.455-1.644-1.365l-.365-2.275c-.213-1.152.137-1.743 1.05-1.774.882-.151 1.537-.788 1.963-1.91 5.722-11.676 11.504-23.368 17.348-35.074z"/><path d="m410.614 11.455c0-.576.441-.864 1.324-.864h4.2c.913 0 1.369.273 1.369.819 0 .576.381.864 1.142.864h4.61c.913 0 1.37.455 1.37 1.365v2.365c0 .758.259 1.137.776 1.137s.807-.075.867-.227c-.03-.182.092-.273.366-.273.517.061.989-.121 1.415-.546.365-.394.669-1.137.913-2.229.122-.576.289-1.152.502-1.729.304-.909.913-1.364 1.826-1.364h3.652c.913 0 1.278.318 1.096.955-.152.728.137 1.092.867 1.092h8.081c.913 0 1.369.455 1.369 1.365v2.638c0 .91-.152 1.365-.456 1.365-.305.03-.609.5-.913 1.41l-4.885 16.832c-.152.606-.137 1.213.046 1.819 1.004 3.033 2.054 6.066 3.149 9.099.305 1.091 1.111 1.652 2.42 1.683.426 0 .639.455.639 1.364v2.639c0 .91-.456 1.365-1.369 1.365-3.866.515-6.453-1.198-7.761-5.141-.335-.94-.594-1.016-.776-.227-.883 4.094-3.333 5.883-7.35 5.368-.913 0-1.461-.455-1.644-1.365l-.365-2.275c-.213-1.152-.091-1.728.365-1.728 1.735.091 2.8-.895 3.196-2.957l2.009-7.279c.334-.667.38-1.274.137-1.819l-4.018-11.464c-.335-.971-.076-1.456.776-1.456h4.292c.913 0 1.491.364 1.734 1.092.274.758.594.713.959-.137l1.598-5.595c.243-.819-.015-1.228-.776-1.228h-2.1c-.731 0-1.278.455-1.644 1.364-1.156 1.729-2.845 2.427-5.067 2.093-.913 0-1.385-.136-1.415-.409-.031-.334-.457-.501-1.278-.501-.822 0-1.233.379-1.233 1.138.091 2.274-.959 3.639-3.15 4.094l-2.83.045c-.761 0-1.142.364-1.142 1.092s.381 1.092 1.142 1.092h4.747c.913 0 1.37.455 1.37 1.365.183 2.395.015 4.2-.502 5.413-.7 1.031-1.689 1.592-2.968 1.683h-16.617c-.913 0-1.369-.455-1.369-1.365v-5.731c0-.91.456-1.365 1.369-1.365h4.794c.76 0 1.141-.364 1.141-1.092s-.381-1.092-1.141-1.092h-4.611c-.913 0-1.37-.455-1.37-1.365v-2.774c0-.759-.198-1.138-.593-1.138-.365 0-.548-.455-.548-1.364v-.865c0-.91.183-1.365.548-1.365.395 0 .593-.379.593-1.137v-2.365c0-.91.457-1.365 1.37-1.365h4.611c.76 0 1.141-.273 1.141-.819zm0 4.686c0-.698-.457-1.047-1.37-1.047-.943 0-1.415.334-1.415 1.001 0 .698.457 1.046 1.37 1.046.943 0 1.415-.333 1.415-1zm9.678 0c0-.698-.456-1.047-1.37-1.047-.943 0-1.415.334-1.415 1.001 0 .698.457 1.046 1.37 1.046.943 0 1.415-.333 1.415-1zm-9.678 5.823c0-.819-.457-1.229-1.37-1.229-.943 0-1.415.394-1.415 1.183 0 .819.457 1.228 1.37 1.228.943 0 1.415-.394 1.415-1.182zm9.678-.546c0-.455-.456-.683-1.37-.683-.943 0-1.415.394-1.415 1.183 0 .819.289 1.228.868 1.228 1.187.273 1.826-.303 1.917-1.728zm-9.678 11.008c0-.818-.487-1.228-1.461-1.228-1.004 0-1.506.394-1.506 1.183 0 .819.486 1.228 1.46 1.228 1.005 0 1.507-.394 1.507-1.183zm9.861-.545c0-.455-.487-.683-1.461-.683-1.005 0-1.507.394-1.507 1.183 0 .819.32 1.228.959 1.228 1.217.273 1.887-.303 2.009-1.728zm-16.8 7.324c0-.304.426-.455 1.278-.455h4.246c.913 0 1.369.136 1.369.409 0 .303.381.455 1.142.455h4.336c.761 0 1.142-.152 1.142-.455 0-.273.456-.409 1.369-.409h4.109c.913 0 1.369.136 1.369.409 0 .303.229.455.685.455.426 0 .639.455.639 1.365v1.046c0 .91-.213 1.365-.639 1.365-.456 0-.685.379-.685 1.137v.682c0 .91-.456 1.623-1.369 2.139l-3.744 2.138c-.7.424-.547.818.457 1.182 1.43.091 2.906.122 4.428.091.913 0 1.37.455 1.37 1.365v1.001c0 .91-.457 1.365-1.37 1.365h-5.889c-1.095-.122-2.252-.47-3.469-1.047-.731-.455-1.553-.455-2.466 0-.639.455-1.689.804-3.15 1.047h-3.926c-.913 0-1.476-.455-1.689-1.365l-.228-.955c-.183-.941.152-1.411 1.004-1.411 1.735.243 3.287.016 4.657-.682.091-.121-.32-.485-1.233-1.092l-2.328-1.501c-.943-.576-1.415-1.319-1.415-2.229v-.728c0-.758-.228-1.137-.685-1.137-.426 0-.639-.455-.639-1.365v-1.046c0-.91.213-1.365.639-1.365.457 0 .685-.136.685-.409zm13.513 5.14c0-.637-.365-.955-1.096-.955h-4.382c-.761 0-1.142.288-1.142.864 0 .546.457 1.137 1.37 1.774l.456.273c.883.546 1.796.531 2.739-.045l.822-.455c.822-.485 1.233-.971 1.233-1.456z"/><path d="m478.06 11.683c0-.607.426-.91 1.278-.91h4.2c.913 0 1.369.273 1.369.819 0 .606.381.909 1.142.909h8.993c.913 0 1.37.455 1.37 1.365v1.046c0 .91-.457 1.365-1.37 1.365h-8.993c-.761 0-1.142.455-1.142 1.365s.381 1.365 1.142 1.365h10.089c.913 0 1.369.454 1.369 1.364v1.547c0 .91-.487 1.365-1.461 1.365s-1.658.485-2.054 1.455l-.73 1.729c-.335.789-.107 1.183.684 1.183h1.872c.913 0 1.37.455 1.37 1.365v1.364c0 .91-.457 1.365-1.37 1.365h-9.587c-.761 0-1.141.485-1.141 1.456 0 1.001.38 1.501 1.141 1.501h9.176c.913 0 1.37.455 1.37 1.365v1.41c0 .91-.457 1.365-1.37 1.365h-9.176c-.761 0-1.141.515-1.141 1.546 0 1.032.38 1.547 1.141 1.547h10.089c.913 0 1.37.455 1.37 1.365v1.547c0 .909-.457 1.364-1.37 1.364h-10.089c-.761 0-1.141.47-1.141 1.41 0 .941.38 1.411 1.141 1.411h10.272c.913 0 1.369.455 1.369 1.364v2.639c0 .91-.456 1.365-1.369 1.365h-29.765c-.974-.122-1.887-.47-2.739-1.047-.822-.697-1.385-.803-1.689-.318-.487.758-1.4 1.213-2.739 1.365h-3.47c-.913 0-1.445-.455-1.598-1.365-.182-.758-.319-1.516-.411-2.275-.152-.909-.045-1.364.32-1.364 1.37 0 1.948-.728 1.735-2.184v-10.963c0-.758-.35-1.138-1.05-1.138-.67 0-1.005-.454-1.005-1.364v-2.275c0-.91.457-1.365 1.37-1.365h6.209c.913 0 1.369.455 1.369 1.365v12.374c-.152.728.137 1.698.868 2.911.669 1.304 1.597 2.062 2.784 2.275h10.409c.761 0 1.141-.47 1.141-1.411 0-.94-.38-1.41-1.141-1.41h-9.039c-.913 0-1.37-.455-1.37-1.364v-1.547c0-.91.457-1.365 1.37-1.365h9.039c.761 0 1.141-.515 1.141-1.547 0-1.031-.38-1.546-1.141-1.546h-8.126c-.913 0-1.37-.455-1.37-1.365v-1.41c0-.91.457-1.365 1.37-1.365h8.126c.761 0 1.141-.485 1.141-1.456 0-1.001-.38-1.501-1.141-1.501h-9.039c-.913 0-1.37-.455-1.37-1.365v-1.364c0-.91.457-1.365 1.37-1.365h1.369c.761 0 .99-.485.685-1.456l-.639-1.819c-.335-.728-1.004-1.092-2.009-1.092-1.004 0-1.506-.455-1.506-1.365v-1.547c0-.91.456-1.364 1.369-1.364h9.587c.761 0 1.142-.455 1.142-1.365s-.381-1.365-1.142-1.365h-8.491c-.913 0-1.369-.455-1.369-1.365v-1.046c0-.91.456-1.365 1.369-1.365h8.491c.761 0 1.142-.273 1.142-.818zm-22.324 1.455c0-.94.441-1.41 1.324-1.41h4.017c.913 0 1.37.455 1.37 1.365v2.638c0 .91-.457 1.365-1.37 1.365h-3.972c-.913 0-1.369-.455-1.369-1.365zm0 9.098c0-.94.441-1.41 1.324-1.41h4.017c.913 0 1.37.455 1.37 1.365v2.638c0 .91-.457 1.365-1.37 1.365h-3.972c-.913 0-1.369-.455-1.369-1.365zm31.591 2.23c.304-.789.076-1.183-.685-1.183h-9.587c-.761 0-.974.485-.639 1.455l.639 1.82c.335.728.868 1.092 1.598 1.092h6.3c.761 0 1.324-.485 1.689-1.456z"/><path d="m541.488 12.001c0-.971.426-1.456 1.278-1.456h4.018c.913 0 1.369.455 1.369 1.365v38.94c-.517 2.214-1.75 3.397-3.698 3.549h-6.163c-.913 0-1.445-.455-1.597-1.365l-.366-2.32c-.152-.91.229-1.365 1.142-1.365 1.674.152 2.815.015 3.423-.409.548-.455.746-1.153.594-2.093zm-36.111.728c0-.94.442-1.41 1.324-1.41h21.046c.913 0 1.369.454 1.369 1.364v2.684c0 .91-.456 1.365-1.369 1.365h-8.811c-.73 0-1.37.455-1.917 1.365l-3.242 5.868c-.395.789-.213 1.183.548 1.183h5.524c.731-.03 1.157-.303 1.278-.819-.334-.334-.654-.895-.958-1.683-.457-1.031-.289-1.547.502-1.547h3.88c.913 0 1.583.455 2.009 1.365.456 1.061.959 2.123 1.506 3.184 1.583 2.851.792 4.489-2.374 4.913h-18.169c-.913 0-1.369-.455-1.369-1.364v-2.73c0-.91.167-1.668.502-2.274 1.095-2.093 2.237-4.186 3.424-6.278.426-.789.243-1.183-.548-1.183h-2.785c-.913 0-1.37-.455-1.37-1.365zm26.981.591c0-.97.426-1.456 1.278-1.456h2.922c.913 0 1.369.455 1.369 1.365v31.253c0 .909-.456 1.364-1.369 1.364h-2.831c-.913 0-1.369-.455-1.369-1.364zm-18.352 21.426c0-.94.441-1.41 1.324-1.41h4.154c.913 0 1.369.455 1.369 1.365v1.183c0 .758.381 1.137 1.142 1.137h5.569c.913 0 1.37.455 1.37 1.365v2.638c0 .91-.457 1.365-1.37 1.365h-5.569c-.761 0-1.142.379-1.142 1.137v4.367c0 .759.381 1.138 1.142 1.138h5.889c.913 0 1.369.455 1.369 1.364v2.639c0 .91-.456 1.365-1.369 1.365h-20.954c-.913 0-1.37-.455-1.37-1.365v-2.639c0-.909.457-1.364 1.37-1.364h5.934c.761 0 1.142-.379 1.142-1.138v-4.367c0-.758-.381-1.137-1.142-1.137h-5.752c-.913 0-1.369-.455-1.369-1.365v-2.638c0-.91.456-1.365 1.369-1.365h5.752c.761 0 1.142-.379 1.142-1.137z"/></g></g></svg>