<svg clip-rule="evenodd" fill-rule="evenodd" stroke-linejoin="round" stroke-miterlimit="2" viewBox="0 0 600 79" xmlns="http://www.w3.org/2000/svg"><g fill-rule="nonzero"><path d="m561.847 39.098 38.153-39.098h-561.839l-38.161 39.098 38.161 39.105h561.839z" fill="#005f89"/><g fill="#fff"><path d="m55.154 15.047c0-1.155.507-1.733 1.522-1.733h15.11c1.087 0 1.631.541 1.631 1.625v3.141c0 1.083-.544 1.625-1.631 1.625h-2.011c-.906 0-1.359.451-1.359 1.354v12.783c0 .902.453 1.354 1.359 1.354h1.087c1.087 0 1.631.541 1.631 1.625v3.141c0 1.083-.544 1.625-1.631 1.625h-1.087c-.906 0-1.359.451-1.359 1.354v14.083c0 .902.453 1.354 1.359 1.354h5.381c1.051-.072 1.975-.578 2.772-1.517l1.413-3.195c.471-1.084 1.251-1.625 2.338-1.625h5.218c1.087 0 1.395.541.924 1.625-1.087 2.491-2.12 4.983-3.098 7.474-1.051 2.203-2.61 3.412-4.675 3.629h-23.916c-1.087 0-1.631-.542-1.631-1.625v-3.141c0-1.084.544-1.625 1.631-1.625h2.718c.906 0 1.359-.452 1.359-1.354v-14.083c0-.903-.453-1.354-1.359-1.354h-1.631c-1.087 0-1.631-.542-1.631-1.625v-3.141c0-1.084.544-1.625 1.631-1.625h1.631c.906 0 1.359-.452 1.359-1.354v-12.783c0-.903-.453-1.354-1.359-1.354h-2.066c-1.087 0-1.63-.542-1.63-1.625zm22.013.108c0-1.119.526-1.679 1.577-1.679h24.731c1.087 0 1.63.542 1.63 1.625v29.79c-.181 1.697-.869 2.889-2.065 3.575-.471.216-.707.74-.707 1.571v5.795c-.145 2.058.743 2.907 2.664 2.546.942 0 1.413.541 1.413 1.625v3.141c0 1.083-.544 1.625-1.631 1.625h-6.468c-2.283 0-3.678-1.372-4.185-4.116v-10.346c0-.902-.453-1.354-1.359-1.354h-13.969c-1.087 0-1.631-.541-1.631-1.625zm19.785 5.796c0-.975-.416-1.463-1.25-1.463h-9.023c-.906 0-1.359.452-1.359 1.355v1.895c0 .903.453 1.354 1.359 1.354h8.914c.906 0 1.359-.451 1.359-1.354zm0 9.749c0-.975-.416-1.462-1.25-1.462h-9.023c-.906 0-1.359.451-1.359 1.354v1.733c0 .903.453 1.354 1.359 1.354h8.914c.906 0 1.359-.451 1.359-1.354zm0 9.587c-.036-1.011-.489-1.516-1.359-1.516h-8.914c-.906 0-1.359.451-1.359 1.354v1.516c0 .903.453 1.354 1.359 1.354h7.719c2.065.181 2.917-.722 2.554-2.708z"/><path d="m149.698 14.289c0-.975.507-1.463 1.522-1.463h5c1.087 0 1.631.47 1.631 1.409 0 .975.453 1.462 1.359 1.462h6.794c1.087 0 1.631.542 1.631 1.625v2.708c0 1.083-.544 1.625-1.631 1.625h-6.794c-.906 0-1.359.451-1.359 1.354v2.112c0 .903.453 1.355 1.359 1.355h6.142c1.087 0 1.631.541 1.631 1.624v2.763c0 1.083-.308 1.625-.924 1.625-.689 0-1.033.451-1.033 1.354v1.462c0 .903.435 1.354 1.304 1.354.87 0 1.305.542 1.305 1.625v3.196c0 1.083-.417 1.625-1.25 1.625-.906 0-1.359.451-1.359 1.354v15.707c-.145 2.311-1.649 3.846-4.512 4.604h-7.337c-1.088 0-1.722-.542-1.903-1.625l-.435-2.275c-.217-.866-.761-1.3-1.63-1.3-3.117.506-5.146-.848-6.088-4.062-.544-2.383-1.033-4.766-1.468-7.149-.217-1.156.182-1.734 1.196-1.734h4.512c1.087 0 1.739.542 1.956 1.625l.761 3.792c.037.613.526 1.101 1.468 1.462.435.108.652.614.652 1.517v2.004c0 .902.453 1.354 1.359 1.354 2.102.433 3.207-.56 3.316-2.979v-10.941c0-.903-.453-1.354-1.359-1.354h-14.241c-1.087 0-1.631-.542-1.631-1.625v-3.196c0-1.083.544-1.625 1.631-1.625h14.241c.906 0 1.359-.451 1.359-1.354v-1.462c0-.903-.453-1.354-1.359-1.354h-13.154c-1.087 0-1.631-.542-1.631-1.625v-2.763c0-1.083.544-1.624 1.631-1.624h5.979c.906 0 1.359-.452 1.359-1.355v-2.112c0-.903-.453-1.354-1.359-1.354h-7.284c-1.087 0-1.63-.542-1.63-1.625v-2.708c0-1.083.543-1.625 1.63-1.625h7.284c.906 0 1.359-.469 1.359-1.408zm-32.83.866c0-1.119.525-1.679 1.576-1.679h16.524c1.087 0 1.63.542 1.63 1.625v45.443c-.036 2.42-1.431 3.828-4.185 4.225h-13.915c-1.087 0-1.63-.542-1.63-1.625zm12.393 6.121c0-.903-.453-1.354-1.359-1.354h-2.338c-.905 0-1.358.451-1.358 1.354v13.216c0 .902.453 1.354 1.358 1.354h2.338c.906 0 1.359-.452 1.359-1.354zm0 22.423c0-.974-.417-1.462-1.251-1.462h-2.446c-.905 0-1.358.451-1.358 1.354v13.433c0 .902.453 1.354 1.358 1.354.87.036 1.794 0 2.773-.109.797-.505 1.105-1.354.924-2.545z"/><path d="m198.802 14.289c0-1.12.525-1.679 1.576-1.679h4.946c1.087 0 1.631.541 1.631 1.625v1.191c0 .903.453 1.354 1.359 1.354h17.448c1.087 0 1.63.542 1.63 1.625v3.142c0 1.083-.543 1.625-1.63 1.625h-17.448c-.906 0-1.359.451-1.359 1.354v5.849c0 .903.453 1.354 1.359 1.354h18.969c1.088 0 1.631.542 1.631 1.625v3.142c0 1.083-.543 1.625-1.631 1.625h-18.969c-.906 0-1.359.451-1.359 1.354v4.333c0 .903.453 1.354 1.359 1.354h16.795c1.087 0 1.631.542 1.631 1.625v3.141c0 1.084-.544 1.625-1.631 1.625h-16.795c-.906 0-1.359.452-1.359 1.354v4.117c0 .902.453 1.354 1.359 1.354h18.969c1.088 0 1.631.541 1.631 1.625v3.141c0 1.083-.543 1.625-1.631 1.625h-36.526c-.725-.144-1.449-.361-2.174-.65-1.16-.686-2.247-.704-3.261-.054-1.45.722-3.479.957-6.088.704-1.087 0-1.721-.542-1.902-1.625l-.435-2.708c-.254-1.372-.181-2.058.217-2.058 2.029-.109 2.917-1.084 2.664-2.925v-11.104c0-1.083.543-1.624 1.63-1.624h4.675c1.087 0 1.63.541 1.63 1.624v9.425c0 .866.218 1.661.653 2.383 1.268 1.733 2.754 2.473 4.457 2.221h4.62c.906 0 1.359-.452 1.359-1.354v-17.549c0-.903-.453-1.354-1.359-1.354h-19.242c-1.087 0-1.63-.542-1.63-1.625v-3.142c0-1.083.543-1.625 1.63-1.625h19.242c.906 0 1.359-.451 1.359-1.354v-5.849c0-.903-.453-1.354-1.359-1.354h-17.72c-1.087 0-1.63-.542-1.63-1.625v-3.142c0-1.083.543-1.625 1.63-1.625h17.72c.906 0 1.359-.451 1.359-1.354v-1.137z"/><path d="m241.329 14.614c-.58-1.192-.399-1.788.543-1.788h5.055c1.087 0 1.884.542 2.392 1.625.652 1.264 1.431 1.896 2.337 1.896 1.015 0 1.812-.542 2.392-1.625.688-1.264 1.503-1.896 2.446-1.896h4.891c1.088 0 1.377.542.87 1.625l-.217.488c-.435.939-.055 1.408 1.141 1.408 1.16 0 1.739.542 1.739 1.625v2.275c0 1.083-.543 1.625-1.63 1.625h-6.36c-.906 0-1.359.451-1.359 1.354v7.149c0 .903.453 1.354 1.359 1.354 1.051.181 1.885-.27 2.501-1.354.108-1.119.145-2.257.108-3.412 0-1.083.544-1.625 1.631-1.625h1.413c1.087 0 1.631.542 1.631 1.625v6.933c-.073 1.805-1.069 2.889-2.99 3.25-1.413.108-2.844.144-4.294.108-.906 0-1.359.451-1.359 1.354.109 2.167.019 3.629-.271 4.387-.616 1.77-1.866 2.817-3.751 3.142h-10.653c-1.087 0-1.721-.542-1.903-1.625l-.217-1.625c-.217-1.228.217-1.842 1.304-1.842h4.24c2.102.181 3.116-.722 3.044-2.708 0-.722-.453-1.083-1.359-1.083h-5.707c-1.087 0-1.631-.542-1.631-1.625v-8.666c0-1.083.544-1.625 1.631-1.625h1.413c1.087 0 1.631.542 1.631 1.625v3.412c0 .903.453 1.354 1.359 1.354h1.304c.906 0 1.359-.451 1.359-1.354v-7.149c0-.903-.453-1.354-1.359-1.354h-6.631c-1.087 0-1.631-.542-1.631-1.625v-2.275c0-1.083.544-1.625 1.631-1.625h1.467c.906 0 1.069-.578.49-1.733zm26.362.541c0-1.119.525-1.679 1.576-1.679h17.774c1.087 0 1.63.542 1.63 1.625v26.703c-.217 2.347-1.449 3.683-3.696 4.008-1.014.108-2.047.144-3.098.108-1.087 0-1.739-.541-1.957-1.625l-.435-2.004c-.144-.902-.072-1.408.218-1.516.978-.542 1.323-1.445 1.033-2.709 0-.974-.453-1.462-1.359-1.462h-2.392c-.906 0-1.359.451-1.359 1.354v4.062c0 .903-.344 1.806-1.032 2.709-1.269 1.191-2.972 1.661-5.11 1.408-.906 0-1.359.451-1.359 1.354v1.191c0 .903.453 1.355 1.359 1.355h17.285c1.087 0 1.631.541 1.631 1.624v2.059c0 1.083-.544 1.625-1.631 1.625h-17.285c-.906 0-1.359.451-1.359 1.354v1.191c0 .903.453 1.354 1.359 1.354h18.97c1.087 0 1.631.542 1.631 1.625v2.275c0 1.083-.544 1.625-1.631 1.625h-49.082c-1.087 0-1.631-.542-1.631-1.625v-2.275c0-1.083.544-1.625 1.631-1.625h19.241c.906 0 1.359-.451 1.359-1.354v-1.191c0-.903-.453-1.354-1.359-1.354h-17.284c-1.087 0-1.631-.542-1.631-1.625v-2.059c0-1.083.544-1.624 1.631-1.624h17.284c.906 0 1.359-.452 1.359-1.355v-.92c0-1.084.544-1.625 1.631-1.625h3.696c.906 0 1.25-.578 1.033-1.733l-.218-1.517c-.253-1.228-.181-1.86.218-1.896 1.159-.289 1.612-1.137 1.359-2.545zm13.045 5.308c0-.938-.435-1.408-1.305-1.408h-2.446c-.906 0-1.359.452-1.359 1.354v1.246c0 .903.453 1.354 1.359 1.354h2.392c.906 0 1.359-.451 1.359-1.354zm0 8.667c0-.939-.435-1.409-1.305-1.409h-2.446c-.906 0-1.359.452-1.359 1.354v1.517c0 .903.453 1.354 1.359 1.354h2.392c.906 0 1.359-.451 1.359-1.354z"/><path d="m321.197 14.397c0-1.047.507-1.571 1.522-1.571h5.001c1.087 0 1.63.488 1.63 1.463 0 1.047.453 1.571 1.359 1.571h18.752c1.088 0 1.631.541 1.631 1.624v3.196c0 1.083-.543 1.625-1.631 1.625h-4.783c-.869 0-1.467.487-1.793 1.462l-1.033 2.979c-.363 1.011-.109 1.517.761 1.517h5.544c1.087 0 1.631.542 1.631 1.625v30.765c-.218 2.347-1.45 3.683-3.697 4.008-1.195.108-2.409.144-3.641.108-1.087 0-1.758-.542-2.011-1.625l-.327-1.625c-.217-1.191-.199-1.805.055-1.841 1.341-.361 1.83-1.21 1.467-2.546v-21.124c0-.902-.453-1.354-1.358-1.354h-30.167c-.906 0-1.359.452-1.359 1.354v27.136c0 1.083-.544 1.625-1.631 1.625h-4.946c-1.087 0-1.631-.542-1.631-1.625v-33.256c0-1.083.544-1.625 1.631-1.625h4.783c.906 0 1.196-.578.87-1.733l-.87-2.925c-.362-.867-.978-1.3-1.848-1.3h-4.294c-1.087 0-1.63-.542-1.63-1.625v-3.196c0-1.083.543-1.624 1.63-1.624h19.024c.906 0 1.359-.488 1.359-1.463zm12.284 9.316c.29-.939-.018-1.408-.924-1.408h-15.273c-.906 0-1.196.578-.87 1.733l.87 2.925c.362.867.978 1.3 1.848 1.3h11.523c.906 0 1.558-.578 1.957-1.733zm-19.187 15.166c.29-.794.96-1.192 2.011-1.192h4.512c1.087 0 1.413.542.978 1.625-.507 1.264-.96 2.528-1.359 3.792-.435 1.263-1.304 2.166-2.609 2.708-.833.325-2.228.433-4.185.325-1.087 0-1.758-.542-2.011-1.625-.181-.542-.308-1.083-.381-1.625-.253-1.228-.127-1.842.381-1.842 1.304.145 2.192-.577 2.663-2.166zm14.078.542c0-1.156.507-1.734 1.522-1.734h4.62c1.087 0 1.631.416 1.631 1.246-.435 1.553.289 2.383 2.174 2.492.58 0 .869.541.869 1.625v1.895c0 1.083-.543 1.625-1.63 1.625-3.334.217-5.726 0-7.175-.65-1.232-.794-1.866-1.805-1.902-3.033-.109-1.155-.145-2.311-.109-3.466zm-16.089 11.482c0-1.083.544-1.625 1.631-1.625h22.122c1.087 0 1.631.542 1.631 1.625v8.991c-.037 2.42-1.432 3.828-4.186 4.225h-19.567c-1.087 0-1.631-.542-1.631-1.625zm17.176 5.2c0-1.156-.435-1.733-1.305-1.733h-6.305c-.906 0-1.359.451-1.359 1.354v1.95c0 .902.453 1.354 1.359 1.354 2.175.036 4.403 0 6.686-.109.942-.794 1.25-1.733.924-2.816z"/><path d="m403.24 13.639c0-.722.507-1.083 1.522-1.083h5c1.087 0 1.631.541 1.631 1.624v3.954c-.145 2.456-1.522 3.846-4.131 4.171h-35.548c-.906 0-1.359.451-1.359 1.354v3.033c0 .903.453 1.354 1.359 1.354h37.179c1.087 0 1.63.542 1.63 1.625v14.299c0 2.311-1.377 3.683-4.131 4.117h-34.678c-.906 0-1.359.451-1.359 1.354v11.103c-.145 2.311-1.359 3.683-3.641 4.117-1.233.108-2.483.144-3.751.108-1.087 0-1.721-.542-1.902-1.625l-.435-2.708c-.254-1.372-.218-2.076.109-2.112 1.195-.217 1.666-1.066 1.413-2.546v-38.294c0-1.083.543-1.624 1.63-1.624h36.907c.834.18 1.54.018 2.12-.488.435-.505.58-1.083.435-1.733zm-.87 22.207c0-.939-.435-1.408-1.304-1.408h-29.352c-.906 0-1.359.451-1.359 1.354v4.549c0 .903.453 1.354 1.359 1.354h28.156c1.993.181 2.826-.704 2.5-2.654z"/><path d="m450.332 13.91c0-.723.508-1.084 1.522-1.084h5.001c1.087 0 1.631.325 1.631.975 0 .722.453 1.084 1.359 1.084h10.707c1.087 0 1.631.541 1.631 1.624v1.246c0 1.083-.544 1.625-1.631 1.625h-10.707c-.906 0-1.359.542-1.359 1.625s.453 1.625 1.359 1.625h12.012c1.087 0 1.631.542 1.631 1.625v1.841c0 1.084-.58 1.625-1.74 1.625-1.159 0-1.975.578-2.446 1.734l-.869 2.058c-.399.939-.127 1.408.815 1.408h2.228c1.087 0 1.631.542 1.631 1.625v1.625c0 1.083-.544 1.625-1.631 1.625h-11.414c-.906 0-1.359.577-1.359 1.733 0 1.191.453 1.787 1.359 1.787h10.925c1.087 0 1.631.542 1.631 1.625v1.679c0 1.084-.544 1.625-1.631 1.625h-10.925c-.906 0-1.359.614-1.359 1.842 0 1.227.453 1.841 1.359 1.841h12.012c1.087 0 1.631.542 1.631 1.625v1.842c0 1.083-.544 1.625-1.631 1.625h-12.012c-.906 0-1.359.559-1.359 1.679 0 1.119.453 1.679 1.359 1.679h12.23c1.087 0 1.63.541 1.63 1.625v3.141c0 1.083-.543 1.625-1.63 1.625h-35.439c-1.16-.144-2.247-.56-3.262-1.246-.978-.83-1.648-.957-2.011-.379-.58.903-1.667 1.444-3.261 1.625h-4.131c-1.087 0-1.721-.542-1.902-1.625-.218-.903-.381-1.805-.49-2.708-.181-1.083-.054-1.625.381-1.625 1.63 0 2.319-.867 2.065-2.6v-13.053c0-.903-.416-1.354-1.25-1.354-.797 0-1.196-.542-1.196-1.625v-2.708c0-1.084.544-1.625 1.631-1.625h7.392c1.087 0 1.631.541 1.631 1.625v14.732c-.181.867.163 2.022 1.033 3.467.797 1.552 1.902 2.455 3.315 2.708h12.393c.906 0 1.359-.56 1.359-1.679 0-1.12-.453-1.679-1.359-1.679h-10.762c-1.087 0-1.631-.542-1.631-1.625v-1.842c0-1.083.544-1.625 1.631-1.625h10.762c.906 0 1.359-.614 1.359-1.841 0-1.228-.453-1.842-1.359-1.842h-9.675c-1.087 0-1.631-.541-1.631-1.625v-1.679c0-1.083.544-1.625 1.631-1.625h9.675c.906 0 1.359-.577 1.359-1.733 0-1.192-.453-1.787-1.359-1.787h-10.762c-1.087 0-1.631-.542-1.631-1.625v-1.625c0-1.083.544-1.625 1.631-1.625h1.63c.906 0 1.178-.578.816-1.733l-.761-2.167c-.399-.866-1.196-1.3-2.392-1.3s-1.793-.541-1.793-1.625v-1.841c0-1.083.543-1.625 1.63-1.625h11.415c.906 0 1.358-.542 1.358-1.625s-.452-1.625-1.358-1.625h-10.11c-1.087 0-1.631-.542-1.631-1.625v-1.246c0-1.083.544-1.624 1.631-1.624h10.11c.906 0 1.358-.325 1.358-.975zm-26.579 1.733c0-1.12.526-1.679 1.576-1.679h4.784c1.087 0 1.63.541 1.63 1.625v3.141c0 1.083-.543 1.625-1.63 1.625h-4.729c-1.087 0-1.631-.542-1.631-1.625zm0 10.833c0-1.12.526-1.68 1.576-1.68h4.784c1.087 0 1.63.542 1.63 1.625v3.142c0 1.083-.543 1.625-1.63 1.625h-4.729c-1.087 0-1.631-.542-1.631-1.625zm37.613 2.654c.363-.939.091-1.409-.815-1.409h-11.414c-.906 0-1.16.578-.761 1.734l.761 2.166c.398.867 1.032 1.3 1.902 1.3h7.501c.906 0 1.576-.578 2.011-1.733z"/><path d="m525.853 14.289c0-1.156.507-1.733 1.522-1.733h4.783c1.087 0 1.63.541 1.63 1.624v46.364c-.616 2.636-2.083 4.044-4.402 4.225h-7.338c-1.087 0-1.721-.542-1.903-1.625l-.434-2.762c-.182-1.083.271-1.625 1.358-1.625 1.993.18 3.352.018 4.077-.488.652-.541.888-1.372.707-2.491zm-42.995.866c0-1.119.526-1.679 1.576-1.679h25.058c1.087 0 1.631.542 1.631 1.625v3.196c0 1.083-.544 1.625-1.631 1.625h-10.491c-.869 0-1.63.541-2.282 1.625l-3.86 6.987c-.471.939-.253 1.408.653 1.408h6.577c.869-.036 1.377-.361 1.521-.975-.398-.397-.779-1.065-1.141-2.004-.544-1.228-.344-1.842.598-1.842h4.62c1.087 0 1.884.542 2.392 1.625.543 1.264 1.141 2.528 1.793 3.792 1.885 3.394.943 5.344-2.826 5.849h-21.633c-1.087 0-1.631-.541-1.631-1.624v-3.25c0-1.084.199-1.986.598-2.708 1.305-2.492 2.663-4.983 4.077-7.475.507-.939.29-1.408-.653-1.408h-3.315c-1.087 0-1.631-.542-1.631-1.625zm32.124.705c0-1.156.507-1.734 1.522-1.734h3.478c1.087 0 1.631.542 1.631 1.625v37.21c0 1.084-.544 1.625-1.631 1.625h-3.37c-1.087 0-1.63-.541-1.63-1.625zm-21.851 25.51c0-1.119.526-1.679 1.576-1.679h4.947c1.087 0 1.63.542 1.63 1.625v1.409c0 .902.453 1.354 1.359 1.354h6.631c1.088 0 1.631.541 1.631 1.625v3.141c0 1.083-.543 1.625-1.631 1.625h-6.631c-.906 0-1.359.451-1.359 1.354v5.2c0 .902.453 1.354 1.359 1.354h7.012c1.087 0 1.631.541 1.631 1.625v3.141c0 1.083-.544 1.625-1.631 1.625h-24.949c-1.087 0-1.63-.542-1.63-1.625v-3.141c0-1.084.543-1.625 1.63-1.625h7.066c.906 0 1.359-.452 1.359-1.354v-5.2c0-.903-.453-1.354-1.359-1.354h-6.848c-1.087 0-1.631-.542-1.631-1.625v-3.141c0-1.084.544-1.625 1.631-1.625h6.848c.906 0 1.359-.452 1.359-1.354z"/></g></g></svg>