<svg viewBox="0 0 900 166" xmlns="http://www.w3.org/2000/svg" fill-rule="evenodd" clip-rule="evenodd" stroke-linejoin="round" stroke-miterlimit="2"><path fill="none" d="M0 0H900V165.055H0z"/><clipPath id="a"><path d="M0 0H900V165.055H0z"/></clipPath><g clip-path="url(#a)" fill-rule="nonzero"><path d="M819.532 82.461L900 0H80.484L0 82.461l80.484 82.475H900l-80.468-82.475z" fill="#005f89"/><path d="M242.017 29.767c0-2.361 1.108-3.542 3.324-3.542h10.432c2.293 0 3.439 1.143 3.439 3.427v2.514c0 1.904.955 2.855 2.866 2.855h36.799c2.292 0 3.439 1.143 3.439 3.427v6.626c0 2.285-1.147 3.427-3.439 3.427h-36.799c-1.911 0-2.866.952-2.866 2.856v12.337c0 1.904.955 2.856 2.866 2.856h40.009c2.292 0 3.439 1.142 3.439 3.427v6.626c0 2.284-1.147 3.427-3.439 3.427h-40.009c-1.911 0-2.866.952-2.866 2.856v9.138c0 1.904.955 2.856 2.866 2.856h35.423c2.293 0 3.439 1.143 3.439 3.427v6.626c0 2.284-1.146 3.427-3.439 3.427h-35.423c-1.911 0-2.866.952-2.866 2.856v8.681c0 1.904.955 2.856 2.866 2.856h40.009c2.292 0 3.439 1.143 3.439 3.427v6.626c0 2.285-1.147 3.427-3.439 3.427H225.05a26.26 26.26 0 0 1-4.585-1.371c-2.446-1.447-4.739-1.485-6.879-.114-3.057 1.523-7.336 2.018-12.839 1.485-2.293 0-3.63-1.142-4.012-3.427l-.917-5.712c-.535-2.894-.382-4.341.458-4.341 4.28-.228 6.152-2.284 5.617-6.168V93.167c0-2.285 1.147-3.427 3.44-3.427h9.858c2.293 0 3.44 1.142 3.44 3.427v19.876c0 1.828.458 3.504 1.375 5.027 2.675 3.655 5.808 5.216 9.4 4.683h9.745c1.91 0 2.866-.952 2.866-2.856V82.886c0-1.904-.956-2.856-2.866-2.856h-40.582c-2.293 0-3.439-1.143-3.439-3.427v-6.626c0-2.285 1.146-3.427 3.439-3.427h40.582c1.91 0 2.866-.952 2.866-2.856V51.357c0-1.904-.956-2.856-2.866-2.856h-37.372c-2.293 0-3.439-1.142-3.439-3.427v-6.626c0-2.284 1.146-3.427 3.439-3.427h37.372c1.91 0 2.866-.951 2.866-2.855v-2.399zm89.692.685c-1.223-2.513-.841-3.77 1.146-3.77h10.661c2.293 0 3.974 1.143 5.044 3.427 1.376 2.666 3.019 3.999 4.93 3.999 2.14 0 3.821-1.143 5.044-3.427 1.452-2.666 3.172-3.999 5.159-3.999h10.317c2.293 0 2.904 1.143 1.834 3.427l-.458 1.028c-.918 1.981-.115 2.971 2.407 2.971 2.446 0 3.668 1.142 3.668 3.427v4.797c0 2.285-1.146 3.427-3.439 3.427H364.61c-1.911 0-2.866.952-2.866 2.856v15.079c0 1.904.955 2.856 2.866 2.856 2.216.381 3.974-.571 5.273-2.856.229-2.361.306-4.76.229-7.197 0-2.284 1.147-3.427 3.439-3.427h2.981c2.293 0 3.439 1.143 3.439 3.427v14.622c-.153 3.808-2.254 6.093-6.305 6.855-2.981.228-5.999.304-9.056.228-1.911 0-2.866.952-2.866 2.856.229 4.569.038 7.654-.573 9.253-1.3 3.731-3.936 5.94-7.91 6.625h-22.469c-2.293 0-3.631-1.142-4.013-3.427l-.458-3.427c-.459-2.589.458-3.884 2.751-3.884h8.942c4.432.381 6.572-1.523 6.419-5.711 0-1.523-.955-2.285-2.865-2.285h-12.037c-2.293 0-3.44-1.142-3.44-3.427V56.497c0-2.284 1.147-3.427 3.44-3.427h2.98c2.293 0 3.439 1.143 3.439 3.427v7.197c0 1.904.956 2.856 2.866 2.856h2.752c1.91 0 2.865-.952 2.865-2.856V48.615c0-1.904-.955-2.856-2.865-2.856h-13.986c-2.293 0-3.439-1.142-3.439-3.427v-4.797c0-2.285 1.146-3.427 3.439-3.427h3.095c1.911 0 2.255-1.219 1.032-3.656zm55.599 1.142c0-2.36 1.108-3.541 3.324-3.541h37.487c2.293 0 3.439 1.143 3.439 3.427v56.318c-.459 4.95-3.057 7.768-7.795 8.453-2.14.228-4.318.305-6.535.228-2.293 0-3.668-1.142-4.127-3.427l-.917-4.226c-.306-1.904-.153-2.97.459-3.199 2.063-1.142 2.789-3.046 2.178-5.712 0-2.056-.955-3.084-2.866-3.084h-5.044c-1.911 0-2.866.952-2.866 2.856v8.568c0 1.903-.726 3.807-2.178 5.711-2.675 2.513-6.267 3.503-10.776 2.97-1.911 0-2.866.952-2.866 2.856v2.513c0 1.904.955 2.856 2.866 2.856h36.455c2.292 0 3.439 1.143 3.439 3.427v4.341c0 2.285-1.147 3.427-3.439 3.427h-36.455c-1.911 0-2.866.952-2.866 2.856v2.513c0 1.904.955 2.856 2.866 2.856h40.008c2.293 0 3.439 1.142 3.439 3.427v4.798c0 2.285-1.146 3.427-3.439 3.427H327.582c-2.293 0-3.439-1.142-3.439-3.427v-4.798c0-2.285 1.146-3.427 3.439-3.427h40.581c1.911 0 2.866-.952 2.866-2.856v-2.513c0-1.904-.955-2.856-2.866-2.856h-36.454c-2.293 0-3.439-1.142-3.439-3.427v-4.341c0-2.284 1.146-3.427 3.439-3.427h36.454c1.911 0 2.866-.952 2.866-2.856v-1.942c0-2.284 1.147-3.427 3.439-3.427h7.796c1.91 0 2.636-1.218 2.178-3.655l-.459-3.199c-.535-2.589-.382-3.922.459-3.998 2.446-.609 3.401-2.399 2.866-5.369V31.594zm27.513 11.195c0-1.98-.917-2.97-2.751-2.97h-5.159c-1.911 0-2.866.952-2.866 2.856v2.628c0 1.903.955 2.855 2.866 2.855h5.044c1.911 0 2.866-.952 2.866-2.855v-2.514zm0 18.278c0-1.98-.917-2.97-2.751-2.97h-5.159c-1.911 0-2.866.952-2.866 2.856v3.198c0 1.904.955 2.856 2.866 2.856h5.044c1.911 0 2.866-.952 2.866-2.856v-3.084zm85.68-33.242c0-1.143 1.07-1.714 3.21-1.714h10.546c2.293 0 3.439.495 3.439 1.485 0 1.143.956 1.714 2.866 1.714h39.55c2.293 0 3.439 1.142 3.439 3.427v10.509c0 2.285-.879 3.427-2.636 3.427-1.911 0-2.866.952-2.866 2.856v4.57c0 1.903.993 2.855 2.98 2.855s2.981 1.181 2.981 3.542c0 2.361-.955 3.541-2.866 3.541-2.064 0-3.134 1.18-3.21 3.541-1.146 5.788-4.242 8.568-9.286 8.339h-85.519c-2.293 0-3.439-1.142-3.439-3.427v-5.597c0-1.904-.956-2.856-2.866-2.856-1.834 0-2.751-1.18-2.751-3.541 0-2.361.917-3.542 2.751-3.542 1.91 0 2.866-.952 2.866-2.855v-4.57c0-1.904-.917-2.856-2.752-2.856-1.834 0-2.751-1.142-2.751-3.427V32.737c0-2.285 1.147-3.427 3.439-3.427h40.009c1.91 0 2.866-.495 2.866-1.485zm45.855 14.165c-.077-2.209-1.032-3.313-2.866-3.313h-69.241c-1.911 0-2.866 1.066-2.866 3.199 0 2.132.955 3.198 2.866 3.198h69.241c1.91 0 2.866-1.028 2.866-3.084zm-45.855 12.223c0-1.98-.917-2.97-2.752-2.97h-17.883c-1.911 0-2.866.952-2.866 2.856 0 1.903.955 2.855 2.866 2.855h17.769c1.91 0 2.866-.913 2.866-2.741zm40.352 0c0-1.98-.917-2.97-2.751-2.97h-17.54c-1.91 0-2.866.952-2.866 2.856 0 1.903.956 2.855 2.866 2.855h17.425c1.911 0 2.866-.913 2.866-2.741zm-40.352 12.68c0-1.904-.917-2.856-2.752-2.856h-17.883c-1.911 0-2.866.914-2.866 2.742 0 1.903.955 2.855 2.866 2.855h17.769c1.91 0 2.866-.913 2.866-2.741zm40.352-1.257c0-1.066-.955-1.599-2.866-1.599h-17.425c-1.91 0-2.866.914-2.866 2.742 0 1.903.956 2.855 2.866 2.855h14.788c3.363.762 5.197-.571 5.503-3.998zm-82.08 19.534c0-2.361 1.108-3.541 3.324-3.541h93.43c2.292 0 3.439 1.142 3.439 3.427v31.986c-.153 4.797-2.752 7.653-7.796 8.567l-7.336.114c-1.911 0-2.599.61-2.064 1.828 1.376 2.513 3.21 3.96 5.503 4.341h13.298c2.292 0 3.439.724 3.439 2.17 0 1.447-1.147 2.171-3.439 2.171h-30.952c-4.662-.305-8.101-2.742-10.318-7.311-1.528-2.132-3.21-3.199-5.044-3.199h-9.515c-1.834 0-3.553 1.143-5.158 3.427-3.134 4.341-7.031 6.702-11.693 7.083h-28.774c-2.293 0-3.783-.724-4.471-2.171-.612-1.446.229-2.17 2.522-2.17h16.278c1.223-.381 2.752-1.333 4.586-2.856 1.452-2.208 1.223-3.313-.688-3.313h-15.132c-2.293 0-3.439-1.142-3.439-3.427V85.17zm82.997 7.311c0-1.904-.955-2.856-2.866-2.856h-60.07c-1.91 0-2.866.952-2.866 2.856s.956 2.856 2.866 2.856h60.07c1.911 0 2.866-.952 2.866-2.856zm0 10.967c-.229-1.904-1.261-2.856-3.095-2.856h-59.841c-1.91 0-2.866.914-2.866 2.741 0 1.904.956 2.856 2.866 2.856h60.07c1.911 0 2.866-.914 2.866-2.741zm.115 9.481c-.077-.914-1.032-1.371-2.866-1.371h-60.185c-1.91 0-2.866 1.028-2.866 3.085 0 2.056.956 3.084 2.866 3.084h57.319c3.745.533 5.655-1.066 5.732-4.798zm113.078-83.162c0-2.057 1.07-3.085 3.21-3.085h10.546c2.293 0 3.44.99 3.44 2.97 0 2.057.955 3.085 2.866 3.085h14.329c2.293 0 3.439 1.142 3.439 3.427v5.712c0 2.284-1.146 3.427-3.439 3.427h-14.329c-1.911 0-2.866.951-2.866 2.855v4.456c0 1.903.955 2.855 2.866 2.855h12.954c2.292 0 3.439 1.143 3.439 3.427v5.826c0 2.285-.65 3.427-1.949 3.427-1.452 0-2.178.952-2.178 2.856v3.085c0 1.903.917 2.855 2.751 2.855 1.834 0 2.751 1.143 2.751 3.427v6.74c0 2.285-.879 3.427-2.636 3.427-1.911 0-2.866.952-2.866 2.856v33.128c-.306 4.874-3.478 8.111-9.515 9.71H662.3c-2.293 0-3.63-1.142-4.013-3.427l-.917-4.798c-.458-1.828-1.605-2.742-3.439-2.742-6.572 1.067-10.852-1.789-12.839-8.567a350.613 350.613 0 0 1-3.095-15.079c-.459-2.437.382-3.656 2.522-3.656h9.515c2.292 0 3.668 1.143 4.127 3.428l1.604 7.996c.077 1.295 1.109 2.323 3.096 3.084.917.229 1.375 1.295 1.375 3.199v4.226c0 1.904.956 2.856 2.866 2.856 4.433.914 6.764-1.18 6.993-6.283V93.395c0-1.904-.955-2.856-2.866-2.856h-30.035c-2.293 0-3.439-1.142-3.439-3.427v-6.74c0-2.284 1.146-3.427 3.439-3.427h30.035c1.911 0 2.866-.952 2.866-2.855v-3.085c0-1.904-.955-2.856-2.866-2.856h-27.742c-2.293 0-3.439-1.142-3.439-3.427v-5.826c0-2.284 1.146-3.427 3.439-3.427h12.61c1.911 0 2.866-.952 2.866-2.855v-4.456c0-1.904-.955-2.855-2.866-2.855h-15.361c-2.293 0-3.439-1.143-3.439-3.427v-5.712c0-2.285 1.146-3.427 3.439-3.427h15.361c1.911 0 2.866-.99 2.866-2.97zm-69.241 1.827c0-2.36 1.108-3.541 3.324-3.541h34.85c2.293 0 3.439 1.143 3.439 3.427v95.843c-.076 5.102-3.018 8.072-8.827 8.91h-29.347c-2.293 0-3.439-1.142-3.439-3.427V31.594zm26.137 12.909c0-1.904-.955-2.856-2.866-2.856h-4.929c-1.911 0-2.866.952-2.866 2.856v27.873c0 1.904.955 2.856 2.866 2.856h4.929c1.911 0 2.866-.952 2.866-2.856V44.503zm0 47.293c0-2.056-.879-3.084-2.636-3.084h-5.159c-1.911 0-2.866.951-2.866 2.855v28.33c0 1.904.955 2.856 2.866 2.856 1.834.076 3.783 0 5.846-.228 1.682-1.066 2.331-2.856 1.949-5.369v-25.36z" fill="#fff"/></g></svg>